<svg xmlns="http://www.w3.org/2000/svg" id="Layer_11" data-name="Layer 11" viewBox="0 0 576 432"><defs><style>.cls-1{fill:none}.cls-1,.cls-2{stroke:#6d8dbe;stroke-miterlimit:10}.cls-3{fill:#231f20;stroke-width:0}.cls-2{fill:#d9e7f5}</style></defs><circle cx="281.09" cy="226.86" r="41.86" class="cls-2"/><path d="M278.39 227.95v2.41c0 .18 0 .34-.17.34-.08 0-.8-.31-1.18-.64-.6.74-1.83.77-2.23.77-3.09 0-4.83-1.86-4.83-4.25s1.86-4.25 4.81-4.25c.62 0 1.49.12 2.36.82l.79-.71c.1-.08.12-.11.23-.11.22 0 .22.11.22.34v2.58c0 .31-.01.34-.32.34-.28 0-.29-.02-.32-.25-.26-1.52-1.4-2.43-2.69-2.43-1.15 0-2.08.44-2.55 1.04-.44.59-.68 1.28-.68 2.63 0 1.09.16 1.94.67 2.6.59.74 1.62 1.09 2.65 1.09.38 0 .77-.07 1.08-.25.47-.28.47-.62.47-.85v-1.21h-1.73v-.56c.65.04 1.76.04 2.46.04.47 0 1.51 0 1.93-.04v.56h-.96ZM282.67 230.66c-.55 0-1.73 0-2.22.04v-.56h1.37v-7.1h-1.37v-.56c.49.04 1.67.04 2.22.04s1.73 0 2.22-.04v.56h-1.37v7.1h1.37v.56c-.49-.04-1.67-.04-2.22-.04ZM289.45 230.83c-.49 0-1.61-.07-2.4-.66l-.55.55c-.1.08-.12.11-.23.11-.22 0-.22-.11-.22-.34v-2.18c0-.28 0-.35.29-.35.26 0 .26.06.28.28.1 1.79 1.92 2.03 2.83 2.03 1.25 0 1.56-.83 1.56-1.4s-.3-.86-.48-1.04c-.26-.25-.47-.29-1.52-.52-1.31-.29-1.71-.37-2.3-.96-.25-.26-.65-.82-.65-1.59 0-1.26.86-2.41 2.69-2.41.57 0 1.36.11 2.05.66l.54-.53c.13-.12.14-.13.24-.13.21 0 .21.11.21.34v2.19c0 .28 0 .34-.29.34-.25 0-.25-.02-.3-.31-.28-1.63-1.49-2.04-2.45-2.04-1.2 0-1.54.74-1.54 1.26 0 .73.67 1.14 1.15 1.25l1.74.37c1.09.23 2.06 1.2 2.06 2.53 0 1.21-.74 2.57-2.72 2.57Z" class="cls-3"/><circle cx="173.77" cy="191.3" r="41.86" class="cls-2"/><path d="M166.84 188.23c-.34 0-.36 0-.65.04-.33.04-.35.05-.35.31v4.57c0 1.47-1.02 2.88-3.3 2.88-2.48 0-3.78-1.31-3.78-2.9v-4.89h-1.29v-.56c.46.04 1.63.04 2.15.04s1.69 0 2.15-.04v.56h-1.3v4.99c0 .67.02 2.24 2.12 2.24 1.31 0 2.61-.59 2.61-2.36v-4.52c0-.26-.01-.28-.36-.31-.22-.02-.42-.04-.64-.04h-.3v-.56c.49.04 1.12.04 1.62.04.47 0 1.15 0 1.61-.04v.56h-.3ZM170.38 195.97c-.24 0-.86 0-1.42-.38l-.31.2c-.25.18-.28.18-.36.18-.22 0-.22-.11-.22-.34v-1.31c0-.28 0-.35.29-.35.17 0 .23 0 .29.17.14.52.46 1.39 1.73 1.39.26 0 1.37 0 1.37-.9 0-.71-.9-.86-1.33-.93-.92-.17-1.38-.24-1.86-.66-.24-.2-.48-.53-.48-1.01 0-1.57 1.85-1.57 2.21-1.57.48 0 .9.07 1.21.23.47-.23.49-.23.54-.23.22 0 .22.11.22.33v.96c0 .28 0 .34-.29.34-.25 0-.26-.06-.28-.24-.06-.66-.52-1.01-1.42-1.01-.23 0-1.34 0-1.34.74 0 .56.78.7 1.22.78.94.16 1.32.23 1.79.58.42.34.66.76.66 1.27 0 1.75-1.85 1.75-2.22 1.75ZM176.58 195.97c-1.93 0-3.13-1.16-3.13-2.77 0-1.5 1.04-2.73 2.96-2.73.83 0 1.46.22 1.91.65.6.6.67 1.47.67 1.85 0 .32-.12.32-.38.32h-3.62c0 .61.01 2.21 1.7 2.21.78 0 1.46-.38 1.71-.96.07-.19.1-.25.3-.25.06 0 .29 0 .29.22 0 .2-.52 1.48-2.41 1.48Zm-.16-5.08c-.35 0-.83.14-1.14.62-.25.4-.26.9-.29 1.37h2.87c-.01-.42-.04-1.99-1.44-1.99ZM183.96 192.21c-.35 0-.73-.24-.73-.73 0-.35.23-.55.23-.55-1.2 0-1.5 1.46-1.5 2.3v2.1H183v.56c-.43-.04-1.2-.04-1.66-.04l-1.51.04v-.56h.83v-3.71c0-.47-.08-.47-.83-.47v-.56l1.99-.1v1.36c.28-.76.76-1.36 1.59-1.36.62 0 1.27.35 1.27.98 0 .48-.38.73-.73.73ZM187.84 195.97c-.24 0-.86 0-1.42-.38l-.31.2c-.25.18-.28.18-.36.18-.22 0-.22-.11-.22-.34v-1.31c0-.28 0-.35.29-.35.17 0 .23 0 .29.17.14.52.46 1.39 1.73 1.39.26 0 1.37 0 1.37-.9 0-.71-.9-.86-1.33-.93-.92-.17-1.38-.24-1.86-.66-.24-.2-.48-.53-.48-1.01 0-1.57 1.85-1.57 2.21-1.57.48 0 .9.07 1.21.23.47-.23.49-.23.54-.23.22 0 .22.11.22.33v.96c0 .28 0 .34-.29.34-.25 0-.26-.06-.28-.24-.06-.66-.52-1.01-1.42-1.01-.23 0-1.34 0-1.34.74 0 .56.78.7 1.22.78.94.16 1.32.23 1.79.58.42.34.66.76.66 1.27 0 1.75-1.85 1.75-2.22 1.75Z" class="cls-3"/><circle cx="388.57" cy="193.11" r="41.86" class="cls-2"/><path d="M379.53 197.71h-5.17v-.56h1.29v-7.1h-1.29v-.56h5.16c2.38 0 4.17 1.55 4.17 4.19s-1.8 4.04-4.16 4.04Zm1.88-6.6c-.59-.84-1.58-1.07-2.37-1.07h-1.75v7.1h1.75c.73 0 1.79-.19 2.36-1.01.38-.54.53-1.17.53-2.48 0-1.12-.1-1.93-.52-2.54ZM390.79 197.71h-.58c-1.25 0-1.25-.55-1.25-.92-.26.5-.83 1-1.79 1-.83 0-2.31-.22-2.31-1.37 0-1.74 3.04-1.85 3.9-1.88v-.41c0-.91-.42-1.42-1.32-1.42-.14 0-.53.01-.86.08.04.02.26.23.26.59 0 .5-.38.76-.76.76-.32 0-.74-.23-.74-.76 0-1.05 1.46-1.1 2.15-1.1 1.79 0 2.64.78 2.64 1.85v2.58c0 .28 0 .43.73.44.16 0 .31 0 .31.28s-.14.29-.38.29Zm-2.03-2.81c-.6.04-2.49.2-2.49 1.5 0 .53.48.95 1.09.95.3 0 1.4-.16 1.4-1.31v-1.14ZM394.31 197.78c-.85 0-1.89-.26-1.89-1.55v-3.29h-.98v-.43c1.19-.04 1.78-1.22 1.79-2.42h.56v2.29h1.75v.56h-1.75v3.31c0 .28 0 1.04.7 1.04.34 0 .72-.29.72-1.1v-.61h.56v.64c0 .88-.54 1.56-1.45 1.56ZM402.86 197.71h-.58c-1.25 0-1.25-.55-1.25-.92-.26.5-.83 1-1.79 1-.83 0-2.31-.22-2.31-1.37 0-1.74 3.05-1.85 3.9-1.88v-.41c0-.91-.42-1.42-1.32-1.42-.14 0-.53.01-.86.08.04.02.26.23.26.59 0 .5-.38.76-.75.76-.32 0-.74-.23-.74-.76 0-1.05 1.46-1.1 2.15-1.1 1.79 0 2.64.78 2.64 1.85v2.58c0 .28 0 .43.73.44.15 0 .31 0 .31.28s-.14.29-.38.29Zm-2.03-2.81c-.6.04-2.49.2-2.49 1.5 0 .53.48.95 1.09.95.3 0 1.4-.16 1.4-1.31v-1.14Z" class="cls-3"/><circle cx="348.76" cy="319.27" r="41.86" class="cls-2"/><path d="M326.88 324c-.49 0-1.61-.07-2.4-.66l-.55.55c-.1.08-.12.11-.23.11-.22 0-.22-.11-.22-.34v-2.18c0-.28 0-.35.29-.35.26 0 .26.06.28.28.1 1.79 1.92 2.03 2.83 2.03 1.25 0 1.56-.83 1.56-1.4s-.3-.86-.48-1.04c-.26-.25-.47-.29-1.52-.52-1.31-.29-1.71-.37-2.3-.96-.25-.26-.65-.82-.65-1.59 0-1.26.86-2.41 2.69-2.41.57 0 1.36.11 2.05.66l.54-.53c.13-.12.14-.13.24-.13.21 0 .21.11.21.34v2.19c0 .28 0 .34-.29.34-.25 0-.25-.02-.3-.31-.28-1.63-1.49-2.04-2.45-2.04-1.2 0-1.54.74-1.54 1.26 0 .73.67 1.14 1.15 1.25l1.74.37c1.09.23 2.06 1.2 2.06 2.53 0 1.21-.74 2.57-2.72 2.57ZM333.83 323.94c-2 0-3.06-1.2-3.06-2.69 0-1.6 1.09-2.82 3.06-2.82s3.06 1.21 3.06 2.82c0 1.47-1.04 2.69-3.06 2.69Zm1.27-4.46c-.27-.42-.77-.61-1.27-.61-.59 0-1.09.25-1.32.7-.2.41-.2 1.02-.2 1.56 0 1.04 0 2.34 1.52 2.34s1.52-1.29 1.52-2.34c0-.58 0-1.24-.25-1.64ZM341.79 317.26c-.31 0-.73-.23-.73-.74 0-.23.1-.46.28-.59-.08-.02-.14-.02-.21-.02-.3 0-1.21.11-1.21 1.43v1.21h1.45v.56h-1.38v4.2h1.04v.56c-.43-.04-1.2-.04-1.65-.04l-1.51.04v-.56h.83v-4.2h-.9v-.56h.9v-1.21c0-1.36 1.29-1.86 2.47-1.86.94 0 1.37.54 1.37 1.04s-.38.74-.74.74Z" class="cls-3"/><path d="M344.63 323.94c-.85 0-1.89-.26-1.89-1.55v-3.29h-.98v-.43c1.19-.04 1.78-1.22 1.79-2.42h.56v2.29h1.75v.56h-1.75v3.31c0 .28 0 1.04.7 1.04.34 0 .72-.29.72-1.1v-.61h.56v.64c0 .88-.54 1.56-1.45 1.56ZM355.32 319.36l-1.73 4.23c-.08.2-.13.32-.43.32s-.35-.12-.43-.32l-1.27-3.11-1.27 3.11c-.08.2-.13.32-.43.32s-.35-.12-.43-.32l-1.84-4.49h-.71v-.56l1.31.04 1.47-.04v.56h-.67l1.26 3.09.95-2.3s.05-.11.05-.16c0 0 0-.04-.25-.64h-.71v-.56c.19.01.7.04 1.2.04l1.37-.04v.56h-.67l1.37 3.36 1.26-3.07s.05-.11.05-.14c0-.13-.59-.14-.7-.14v-.56l1.15.04c.29 0 .65-.01.92-.04v.56c-.71 0-.75.1-.81.25ZM362.38 323.87h-.58c-1.25 0-1.25-.55-1.25-.92-.26.5-.83 1-1.79 1-.83 0-2.31-.22-2.31-1.37 0-1.74 3.04-1.85 3.9-1.88v-.41c0-.91-.42-1.42-1.32-1.42-.14 0-.53.01-.86.08.04.02.26.23.26.59 0 .5-.38.76-.76.76-.32 0-.74-.23-.74-.76 0-1.05 1.46-1.1 2.15-1.1 1.79 0 2.64.78 2.64 1.85v2.58c0 .28 0 .43.73.44.16 0 .31 0 .31.28s-.14.29-.38.29Zm-2.03-2.81c-.6.04-2.49.2-2.49 1.5 0 .53.48.95 1.09.95.3 0 1.4-.16 1.4-1.31v-1.14ZM367.35 320.18c-.35 0-.73-.24-.73-.73 0-.35.23-.55.23-.55-1.2 0-1.5 1.46-1.5 2.3v2.1h1.04v.56c-.43-.04-1.2-.04-1.65-.04l-1.51.04v-.56h.83v-3.71c0-.47-.08-.47-.83-.47v-.56l1.99-.1v1.36c.28-.76.76-1.36 1.6-1.36.62 0 1.27.35 1.27.98 0 .48-.38.73-.73.73ZM371.98 323.94c-1.93 0-3.13-1.16-3.13-2.77 0-1.5 1.04-2.73 2.96-2.73.83 0 1.46.22 1.91.65.6.6.67 1.47.67 1.85 0 .32-.12.32-.38.32h-3.62c0 .61.01 2.21 1.7 2.21.78 0 1.46-.38 1.71-.96.07-.19.1-.25.3-.25.06 0 .29 0 .29.22 0 .2-.52 1.48-2.41 1.48Zm-.17-5.08c-.35 0-.83.14-1.14.62-.25.4-.26.9-.29 1.37h2.87c-.01-.42-.04-1.99-1.44-1.99Z" class="cls-3"/><circle cx="215.63" cy="318.12" r="41.86" class="cls-2"/><path d="M194.21 322.68c-.52 0-1.69 0-2.15.04v-.56h1.29v-3.43h-3.85v3.43h1.29v.56c-.46-.04-1.63-.04-2.15-.04s-1.69 0-2.15.04v-.56h1.29v-7.1h-1.29v-.56c.46.04 1.63.04 2.15.04s1.69 0 2.15-.04v.56h-1.29v3.11h3.85v-3.11h-1.29v-.56c.46.04 1.63.04 2.15.04s1.69 0 2.15-.04v.56h-1.29v7.1h1.29v.56c-.46-.04-1.63-.04-2.15-.04ZM203.15 322.71h-.58c-1.25 0-1.25-.55-1.25-.92-.26.5-.83 1-1.79 1-.83 0-2.31-.22-2.31-1.37 0-1.74 3.05-1.85 3.9-1.88v-.41c0-.91-.42-1.42-1.32-1.42-.14 0-.53.01-.86.08.04.02.26.23.26.59 0 .5-.38.76-.75.76-.32 0-.74-.23-.74-.76 0-1.05 1.46-1.1 2.15-1.1 1.79 0 2.64.78 2.64 1.85v2.58c0 .28 0 .43.73.44.15 0 .31 0 .31.28s-.14.29-.38.29Zm-2.03-2.8c-.6.04-2.49.2-2.49 1.5 0 .53.48.95 1.09.95.3 0 1.4-.16 1.4-1.31v-1.14ZM208.12 319.03c-.35 0-.73-.24-.73-.73 0-.35.23-.55.23-.55-1.2 0-1.5 1.46-1.5 2.3v2.1h1.04v.56c-.43-.04-1.2-.04-1.66-.04l-1.51.04v-.56h.83v-3.71c0-.47-.08-.47-.83-.47v-.56l1.99-.1v1.36c.28-.76.76-1.36 1.6-1.36.62 0 1.27.35 1.27.98 0 .48-.38.73-.73.73ZM214.25 322.79v-.59c-.37.3-.95.59-1.68.59-1.78 0-2.88-1.14-2.88-2.72 0-1.69 1.26-2.75 3.01-2.75.4 0 1.02.07 1.62.54v-2.34c0-.47-.08-.47-.83-.47v-.56l2.12-.1v7.29c0 .47.08.47.83.47v.56l-2.19.07Zm0-4.31c-.27-.35-.74-.73-1.43-.73-.37 0-.94.12-1.28.62-.31.47-.31 1.12-.31 1.69 0 .84 0 2.29 1.46 2.29.91 0 1.4-.66 1.56-.88v-3ZM225.75 318.21l-1.73 4.23c-.08.2-.13.32-.43.32s-.35-.12-.43-.32l-1.27-3.11-1.27 3.11c-.08.2-.13.32-.43.32s-.35-.12-.43-.32l-1.84-4.49h-.71v-.56l1.31.04 1.47-.04v.56h-.67l1.26 3.09.95-2.3s.05-.11.05-.16c0 0 0-.04-.25-.64h-.71v-.56c.19.01.7.04 1.2.04l1.37-.04v.56h-.67l1.37 3.36 1.26-3.07s.05-.11.05-.14c0-.13-.59-.14-.7-.14v-.56l1.15.04c.29 0 .65-.01.92-.04v.56c-.71 0-.75.1-.81.25ZM232.8 322.71h-.58c-1.25 0-1.25-.55-1.25-.92-.26.5-.83 1-1.79 1-.83 0-2.31-.22-2.31-1.37 0-1.74 3.05-1.85 3.9-1.88v-.41c0-.91-.42-1.42-1.32-1.42-.14 0-.53.01-.86.08.04.02.26.23.26.59 0 .5-.38.76-.75.76-.32 0-.74-.23-.74-.76 0-1.05 1.46-1.1 2.15-1.1 1.79 0 2.64.78 2.64 1.85v2.58c0 .28 0 .43.73.44.15 0 .31 0 .31.28s-.14.29-.38.29Zm-2.02-2.8c-.6.04-2.49.2-2.49 1.5 0 .53.48.95 1.09.95.3 0 1.4-.16 1.4-1.31v-1.14ZM237.77 319.03c-.35 0-.73-.24-.73-.73 0-.35.23-.55.23-.55-1.2 0-1.5 1.46-1.5 2.3v2.1h1.04v.56c-.43-.04-1.2-.04-1.65-.04l-1.51.04v-.56h.83v-3.71c0-.47-.08-.47-.83-.47v-.56l1.99-.1v1.36c.28-.76.76-1.36 1.6-1.36.62 0 1.27.35 1.27.98 0 .48-.38.73-.73.73ZM242.4 322.79c-1.93 0-3.13-1.16-3.13-2.77 0-1.5 1.04-2.73 2.96-2.73.83 0 1.46.22 1.91.65.6.6.67 1.47.67 1.85 0 .32-.12.32-.38.32h-3.62c0 .61.01 2.21 1.7 2.21.78 0 1.46-.38 1.71-.96.07-.19.1-.25.3-.25.06 0 .29 0 .29.22 0 .2-.52 1.48-2.41 1.48Zm-.16-5.08c-.35 0-.83.14-1.14.62-.25.4-.26.9-.29 1.37h2.87c-.01-.42-.04-1.99-1.44-1.99Z" class="cls-3"/><path d="m213.5 204.48 27.79 9.38M348.49 205.23l-27.61 8.63M305.84 260.62l18.4 24.71M239.22 283.53l17.11-22.91" class="cls-1"/></svg>