<svg xmlns="http://www.w3.org/2000/svg" id="Layer_16" data-name="Layer 16" viewBox="0 0 576 432"><defs><style>.cls-1,.cls-2,.cls-3,.cls-4,.cls-5,.cls-6,.cls-7{stroke-miterlimit:10}.cls-1,.cls-2,.cls-6{fill:none}.cls-1,.cls-4{stroke:#000}.cls-2,.cls-7{stroke:#6d8dbe}.cls-3{fill:#f4f4f4}.cls-3,.cls-5,.cls-6{stroke:#d9e7f5}.cls-8{fill:#231f20;stroke-width:0}.cls-4,.cls-5{fill:#fff}.cls-7{fill:#d9e7f5}</style></defs><path d="M168.9 94.97h247.66v247.66H168.9z" class="cls-3"/><path d="m168.9 124.4 98.91 82.73-74.21 135.5h-24.7V124.4zM242.62 342.63l48.68-109.11 46.98-41.03 36.76 26.31 41.52 47.22v76.61H242.62zM193.94 94.97l98.79 77.77 11.84-2.72 86.81-75.05H193.94zM416.56 139.72l-35.05 20.09v11.57l35.05 29.96v-61.62z" class="cls-7"/><path d="m213 342.63 77.96-141.29L181.34 94.97M416.56 121.68l-67.73 39.49-57.87 40.17" class="cls-6"/><path d="m416.56 241.85-66.12-81.62" class="cls-3"/><path d="m204.07 153.82-35.17 41.39 74.16 57.1M228 279.81l-59.1-42.21M231.19 176.5l-62.29 95.56" class="cls-2"/><path d="m230.04 123.39 31.34-28.42M274.15 94.97l57.71 51.46M256.99 144.6l55.07-49.63" class="cls-7"/><path d="m303.77 222.63 112.79 101.94M416.56 295.98l-31.65 46.65M252.62 320.21l51.15 22.42 83.02-110.47M273.79 272.76l55.8 35.51" class="cls-2"/><circle cx="290.96" cy="201.34" r="4.34" class="cls-7"/><circle cx="351.21" cy="161.51" r="4.34" class="cls-7"/><circle cx="153.87" cy="260.07" r="50.04" class="cls-4"/><path d="m115.44 228.02 27.77 32.05 50.24-30.61M128.27 303.07l14.94-43" class="cls-5"/><path d="M376.4 350.29c0 27.63-22.4 50.04-50.04 50.04a49.8 49.8 0 0 1-24.48-6.39 50.187 50.187 0 0 1-14.99-12.89 49.845 49.845 0 0 1-10.57-30.76c0-27.64 22.4-50.05 50.04-50.05 13.17 0 25.15 5.08 34.07 13.4a50.04 50.04 0 0 1 11.92 16.91c2.6 6.06 4.05 12.72 4.05 19.74Z" class="cls-4"/><path d="M360.43 313.64s-22.5 1.75-38.5 9.58-35.02 57.84-35.02 57.84h-.02c-6.62-8.5-10.57-19.17-10.57-30.77 0-27.64 22.4-50.05 50.04-50.05 13.17 0 25.15 5.08 34.07 13.4ZM376.4 350.29c0 27.63-22.4 50.04-50.04 50.04a49.8 49.8 0 0 1-24.48-6.39s22.27-46.04 27.54-49.61c5.28-3.57 42.93-13.78 42.93-13.78 2.6 6.06 4.05 12.72 4.05 19.74Z" class="cls-7"/><path d="m295.18 361.79-18.66-7.07M302.86 346.68l-19.99-21.15M317.65 326.21l-23.99-13.79M331.79 319.32l-8.44-18.98M328.48 400.29s7.99-23.63 11.57-31.12 36.31-16.68 36.31-16.68M306.43 384.71l26.7 2.25M336.54 377.69l-18.16-16.06M347.89 363.06l-5.32-23.78M371.66 353.89l-10.42-20.23M341.53 367.26l13.43 24.1M361.24 357.39l11.93 10.63" class="cls-2"/><path d="M376.4 350.29c0 27.63-22.4 50.04-50.04 50.04a49.8 49.8 0 0 1-24.48-6.39 50.187 50.187 0 0 1-14.99-12.89 49.845 49.845 0 0 1-10.57-30.76c0-27.64 22.4-50.05 50.04-50.05 13.17 0 25.15 5.08 34.07 13.4a50.04 50.04 0 0 1 11.92 16.91c2.6 6.06 4.05 12.72 4.05 19.74ZM204.23 260.49c0 27.63-22.4 50.04-50.04 50.04a49.8 49.8 0 0 1-24.48-6.39 50.187 50.187 0 0 1-14.99-12.89 49.845 49.845 0 0 1-10.57-30.76c0-27.64 22.4-50.05 50.04-50.05 13.17 0 25.15 5.08 34.07 13.4a50.04 50.04 0 0 1 11.92 16.91c2.6 6.06 4.05 12.72 4.05 19.74Z" class="cls-1"/><path d="M433.54 83.82c0 27.63-22.4 50.04-50.04 50.04a49.8 49.8 0 0 1-24.48-6.39 50.187 50.187 0 0 1-14.99-12.89 49.845 49.845 0 0 1-10.57-30.76c0-27.64 22.4-50.05 50.04-50.05 13.17 0 25.15 5.08 34.07 13.4a50.04 50.04 0 0 1 11.92 16.91c2.6 6.06 4.05 12.72 4.05 19.74Z" class="cls-4"/><circle cx="365.48" cy="96.06" r="4.34" class="cls-7"/><circle cx="404.35" cy="68.13" r="4.34" class="cls-7"/><path d="M277.61 77.14h-2.12v3.06h1.3v.56c-.46-.04-1.63-.04-2.15-.04s-1.69 0-2.15.04v-.56h1.29v-7.1h-1.29v-.56h5c1.99 0 3.18 1.02 3.18 2.34 0 1.4-1.39 2.27-3.06 2.27Zm-.57-4.05h-1.62v3.55h1.61c1.81 0 1.81-.92 1.81-1.78s0-1.78-1.8-1.78ZM284.51 80.83c-2 0-3.06-1.2-3.06-2.69 0-1.6 1.09-2.82 3.06-2.82s3.06 1.21 3.06 2.82c0 1.47-1.04 2.69-3.06 2.69Zm1.27-4.46c-.26-.42-.77-.61-1.27-.61-.59 0-1.09.25-1.32.7-.2.41-.2 1.02-.2 1.56 0 1.04 0 2.34 1.52 2.34s1.52-1.29 1.52-2.34c0-.58 0-1.24-.25-1.64ZM290 80.72l-1.46.04v-.56h.83v-3.71c0-.47-.08-.47-.79-.47v-.56l2.09-.1v4.83h.74v.56l-1.4-.04Zm-.11-6.31a.939.939 0 1 1 0-1.88.939.939 0 1 1 0 1.88ZM297.66 80.72l-1.51.04v-.56h.83v-3.24c0-.91-.25-1.16-.66-1.16-.76 0-1.79.59-1.79 1.89v2.51h.83v.56l-1.51-.04-1.51.04v-.56h.83v-3.71c0-.47-.08-.47-.83-.47v-.56l2.06-.1v1.3c.31-.61.95-1.3 2.1-1.3s1.85.47 1.85 1.73v3.11h.83v.56l-1.51-.04ZM302.21 80.83c-.85 0-1.89-.26-1.89-1.55v-3.29h-.98v-.43c1.19-.04 1.78-1.22 1.79-2.42h.56v2.29h1.75v.56h-1.75v3.31c0 .28 0 1.04.7 1.04.34 0 .72-.29.72-1.1v-.61h.56v.64c0 .88-.54 1.56-1.45 1.56ZM307.21 80.83c-.24 0-.86 0-1.42-.38l-.31.2c-.25.18-.28.18-.36.18-.22 0-.22-.11-.22-.34v-1.31c0-.28 0-.35.29-.35.17 0 .23 0 .29.17.14.52.46 1.39 1.73 1.39.26 0 1.37 0 1.37-.9 0-.71-.9-.86-1.33-.93-.92-.17-1.38-.24-1.86-.66-.24-.2-.48-.53-.48-1.01 0-1.57 1.85-1.57 2.21-1.57.48 0 .9.07 1.21.23.47-.23.49-.23.54-.23.22 0 .22.11.22.33v.96c0 .28 0 .34-.29.34-.25 0-.26-.06-.28-.24-.06-.66-.52-1.01-1.42-1.01-.23 0-1.34 0-1.34.74 0 .56.78.7 1.22.78.94.16 1.32.23 1.79.58.42.34.66.76.66 1.27 0 1.75-1.85 1.75-2.22 1.75ZM119.82 324.57h-6.87v-.56h1.29v-7.1h-1.29v-.56c.46.04 1.67.04 2.19.04.59 0 1.9 0 2.42-.04v.56h-1.62v7.1h1.24c2.15 0 2.35-1.9 2.45-2.72h.56l-.37 3.29ZM122.82 324.54l-1.46.04v-.56h.83v-3.71c0-.47-.08-.47-.79-.47v-.56l2.09-.1v4.83h.74v.56l-1.4-.04Zm-.11-6.31a.939.939 0 1 1 0-1.88.939.939 0 1 1 0 1.88ZM130.48 324.54l-1.51.04v-.56h.83v-3.24c0-.91-.25-1.16-.66-1.16-.76 0-1.79.59-1.79 1.89v2.51h.83v.56l-1.51-.04-1.51.04v-.56h.83v-3.71c0-.47-.08-.47-.83-.47v-.56l2.06-.1v1.3c.31-.61.95-1.3 2.1-1.3s1.85.47 1.85 1.73v3.11h.83v.56l-1.51-.04ZM135.8 324.65c-1.93 0-3.13-1.16-3.13-2.77 0-1.5 1.04-2.73 2.96-2.73.83 0 1.46.22 1.91.65.6.6.67 1.47.67 1.85 0 .32-.12.32-.38.32h-3.62c0 .61.01 2.21 1.7 2.21.78 0 1.46-.38 1.71-.96.07-.19.1-.25.3-.25.06 0 .29 0 .29.22 0 .2-.52 1.48-2.41 1.48Zm-.17-5.08c-.35 0-.83.14-1.14.62-.25.4-.26.9-.29 1.37h2.87c-.01-.42-.04-1.99-1.44-1.99ZM141.37 324.65c-.24 0-.86 0-1.42-.38l-.31.2c-.25.18-.28.18-.36.18-.22 0-.22-.11-.22-.34V323c0-.28 0-.35.29-.35.17 0 .23 0 .29.17.14.52.46 1.39 1.73 1.39.26 0 1.37 0 1.37-.9 0-.71-.9-.86-1.33-.93-.92-.17-1.38-.24-1.86-.66-.24-.2-.48-.53-.48-1.01 0-1.57 1.85-1.57 2.21-1.57.48 0 .9.07 1.21.23.47-.23.49-.23.54-.23.22 0 .22.11.22.33v.96c0 .28 0 .34-.29.34-.25 0-.26-.06-.28-.24-.06-.66-.52-1.01-1.42-1.01-.23 0-1.34 0-1.34.74 0 .56.78.7 1.22.78.94.16 1.32.23 1.79.58.42.34.66.76.66 1.27 0 1.75-1.85 1.75-2.22 1.75ZM386.22 353.77h-2.12v3.06h1.3v.56c-.46-.04-1.63-.04-2.15-.04s-1.69 0-2.15.04v-.56h1.29v-7.1h-1.29v-.56h5c1.99 0 3.18 1.02 3.18 2.34 0 1.4-1.39 2.27-3.06 2.27Zm-.57-4.04h-1.62v3.55h1.61c1.81 0 1.81-.92 1.81-1.78s0-1.78-1.8-1.78ZM393.12 357.47c-2 0-3.06-1.2-3.06-2.69 0-1.6 1.09-2.82 3.06-2.82s3.06 1.21 3.06 2.82c0 1.47-1.04 2.69-3.06 2.69Zm1.28-4.47c-.26-.42-.77-.61-1.27-.61-.59 0-1.09.25-1.32.7-.2.41-.2 1.02-.2 1.56 0 1.04 0 2.34 1.52 2.34s1.52-1.29 1.52-2.34c0-.58 0-1.24-.25-1.64ZM398.62 357.36l-1.48.04v-.56h.83v-6.63c0-.47-.08-.47-.83-.47v-.56l2.12-.1v7.76h.83v.56l-1.47-.04ZM406.48 352.88l-2.58 5.48c-.32.68-1.02 1.43-1.94 1.43-.72 0-1.28-.49-1.28-1.1 0-.47.35-.7.68-.7.41 0 .7.29.7.68 0 .42-.28.59-.38.64.1.04.12.05.29.05.85 0 1.24-.82 1.5-1.39l.28-.58-2.24-4.76h-.77v-.56l1.37.04 1.49-.04v.56h-.65l1.52 3.24 1.38-2.95.06-.14c0-.14-.56-.14-.56-.14v-.56l1.09.04c.3 0 .66-.01.95-.04v.56c-.77 0-.8.08-.89.25ZM413.87 353.15c-.31 0-.52-.22-.52-.52 0-.07.02-.18.05-.24-.13.01-.38.04-.74.23.18.19.48.59.48 1.15 0 .84-.66 1.78-2.39 1.78-.3 0-.91-.02-1.46-.31-.07.1-.12.28-.12.4 0 .22.13.67.66.75.06.01.61.01.92.01 1.15 0 1.87 0 2.54.34.8.41.9 1.16.9 1.52 0 .84-.93 1.55-3.06 1.55-2.4 0-3.06-.9-3.06-1.51 0-.76.88-1.01 1.03-1.04-.48-.38-.53-.97-.53-1.15 0-.25.07-.65.41-1.07-.38-.28-.62-.77-.62-1.26 0-.84.66-1.78 2.39-1.78.89 0 1.39.25 1.61.4.53-.42 1.09-.46 1.27-.46.55 0 .76.42.76.7s-.2.52-.52.52Zm-2.43 4.4h-1.4c-.17 0-.92 0-.92.72 0 .55.59 1.1 2.03 1.1 1.56 0 2.03-.65 2.03-1.08 0-.74-1.36-.74-1.73-.74Zm-.69-5.12c-1.06 0-1.06.8-1.06 1.34s0 1.34 1.06 1.34 1.05-.8 1.05-1.34 0-1.34-1.05-1.34ZM418.04 357.47c-2 0-3.06-1.2-3.06-2.69 0-1.6 1.09-2.82 3.06-2.82s3.06 1.21 3.06 2.82c0 1.47-1.04 2.69-3.06 2.69Zm1.27-4.47c-.26-.42-.77-.61-1.27-.61-.59 0-1.09.25-1.32.7-.2.41-.2 1.02-.2 1.56 0 1.04 0 2.34 1.52 2.34s1.52-1.29 1.52-2.34c0-.58 0-1.24-.25-1.64ZM427.36 357.36l-1.51.04v-.56h.83v-3.24c0-.91-.25-1.16-.66-1.16-.76 0-1.79.59-1.79 1.89v2.51h.83v.56l-1.51-.04-1.51.04v-.56h.83v-3.71c0-.47-.08-.47-.83-.47v-.56l2.06-.1v1.3c.31-.61.95-1.3 2.1-1.3s1.85.47 1.85 1.73v3.11h.83v.56l-1.51-.04ZM431.92 357.47c-.24 0-.86 0-1.42-.38l-.31.2c-.25.18-.28.18-.36.18-.22 0-.22-.11-.22-.34v-1.31c0-.28 0-.35.29-.35.17 0 .23 0 .29.17.14.52.46 1.39 1.73 1.39.26 0 1.37 0 1.37-.9 0-.71-.9-.86-1.33-.93-.92-.17-1.38-.24-1.86-.66-.24-.2-.48-.53-.48-1.01 0-1.57 1.85-1.57 2.21-1.57.48 0 .9.07 1.21.23.47-.23.49-.23.54-.23.22 0 .22.11.22.33v.96c0 .28 0 .34-.29.34-.25 0-.26-.06-.28-.24-.06-.66-.52-1.01-1.42-1.01-.23 0-1.34 0-1.34.74 0 .56.78.7 1.22.78.94.16 1.32.23 1.79.58.42.34.66.76.66 1.27 0 1.75-1.85 1.75-2.22 1.75Z" class="cls-8"/></svg>