<svg xmlns="http://www.w3.org/2000/svg" id="Layer_15" data-name="Layer 15" viewBox="0 0 576 432"><defs><style>.cls-1{fill:#6d8dbe}.cls-1,.cls-2{stroke-width:0}.cls-4{fill:none}.cls-4,.cls-8{stroke:#6d8dbe;stroke-miterlimit:10}.cls-2{fill:#231f20}.cls-8{fill:#d9e7f5}</style></defs><circle cx="258.79" cy="93.34" r="15.96" class="cls-8"/><circle cx="493.43" cy="138.79" r="15.96" class="cls-8"/><circle cx="403.55" cy="330.28" r="15.96" class="cls-8"/><circle cx="354.02" cy="207.21" r="15.96" class="cls-8"/><circle cx="214.62" cy="252.66" r="15.96" class="cls-8"/><circle cx="76.23" cy="207.21" r="15.96" class="cls-8"/><path d="m253.89 108.53-34.62 128.86M229.97 248.31l108.09-35.74M368.63 200.78l110.1-55.77M359.77 222.1l38.12 93.26M91.27 212.57l107.39 35.74" class="cls-4"/><path d="M180.95 90.58v5.87c0 1.25-1.15 1.93-2.76 1.93-1.37 0-2.32-.58-2.32-1.5 0-.62.48-.92.92-.92.4 0 .91.28.91.92s-.55.86-.55.86c.37.17.77.2.97.2 1.19 0 1.19-1.26 1.19-1.49v-5.88h-1.69v-.56c.58.04 1.75.04 2.39.04.47 0 1.49 0 1.91-.04v.56h-.97ZM187.98 98.32v-.94c-.55.94-1.42.94-1.73.94-1.19 0-2.16-.26-2.16-1.55v-2.79c0-.47-.08-.47-.83-.47v-.56l2.19-.1v4.09c0 .65.04.95.96.95.88 0 1.49-.64 1.49-1.62v-2.29c0-.47-.08-.47-.83-.47v-.56l2.2-.1v4.37c0 .47.08.47.83.47v.56l-2.12.07ZM196.26 98.21l-1.51.04v-.56h.83v-3.24c0-.91-.25-1.16-.66-1.16-.76 0-1.79.59-1.79 1.89v2.51h.83v.56l-1.51-.04-1.51.04v-.56h.83v-3.71c0-.47-.08-.47-.83-.47v-.56l2.06-.1v1.3c.31-.61.95-1.3 2.1-1.3s1.85.47 1.85 1.73v3.11h.83v.56l-1.51-.04ZM201.49 98.32c-1.85 0-2.97-1.14-2.97-2.73 0-1.39.89-2.77 3.03-2.77.7 0 2.09.07 2.09 1.1 0 .5-.38.76-.76.76-.32 0-.74-.23-.74-.76 0-.11.02-.36.24-.55-.16-.04-.36-.07-.78-.07-1.55 0-1.55 1.56-1.55 2.23 0 .55 0 2.31 1.67 2.31.61 0 1.19-.23 1.5-.98.06-.16.07-.18.29-.18.12 0 .29 0 .29.17 0 .08-.36 1.48-2.3 1.48ZM207.32 98.32c-.85 0-1.89-.26-1.89-1.55v-3.29h-.98v-.43c1.19-.04 1.78-1.22 1.79-2.42h.56v2.29h1.75v.56h-1.75v3.31c0 .28 0 1.04.7 1.04.34 0 .72-.29.72-1.1v-.61h.56v.64c0 .88-.54 1.56-1.45 1.56ZM211.59 98.21l-1.46.04v-.56h.83v-3.71c0-.47-.08-.47-.79-.47v-.56l2.09-.1v4.83h.74v.56l-1.4-.04Zm-.11-6.31a.939.939 0 1 1 0-1.88.939.939 0 1 1 0 1.88ZM216.83 98.32c-2 0-3.06-1.2-3.06-2.69 0-1.6 1.09-2.82 3.06-2.82s3.06 1.21 3.06 2.82c0 1.47-1.04 2.69-3.06 2.69Zm1.27-4.46c-.26-.42-.77-.61-1.27-.61-.59 0-1.09.25-1.32.7-.2.41-.2 1.02-.2 1.56 0 1.04 0 2.34 1.52 2.34s1.52-1.29 1.52-2.34c0-.58 0-1.24-.25-1.64ZM226.15 98.21l-1.51.04v-.56h.83v-3.24c0-.91-.25-1.16-.66-1.16-.76 0-1.79.59-1.79 1.89v2.51h.83v.56l-1.51-.04-1.51.04v-.56h.83v-3.71c0-.47-.08-.47-.83-.47v-.56l2.06-.1v1.3c.31-.61.95-1.3 2.1-1.3s1.85.47 1.85 1.73v3.11h.83v.56l-1.51-.04ZM152.7 158.33c-.49 0-1.61-.07-2.4-.66l-.55.55c-.1.08-.12.11-.23.11-.22 0-.22-.11-.22-.34v-2.18c0-.28 0-.35.29-.35.26 0 .26.06.28.28.1 1.79 1.92 2.03 2.83 2.03 1.25 0 1.56-.83 1.56-1.4s-.3-.86-.48-1.04c-.26-.25-.47-.29-1.52-.52-1.31-.29-1.71-.37-2.3-.96-.25-.26-.65-.82-.65-1.59 0-1.26.86-2.41 2.69-2.41.58 0 1.36.11 2.05.66l.54-.53c.13-.12.14-.13.24-.13.22 0 .22.11.22.34v2.19c0 .28 0 .34-.29.34-.25 0-.25-.02-.3-.31-.28-1.63-1.49-2.04-2.45-2.04-1.2 0-1.54.74-1.54 1.26 0 .73.67 1.14 1.15 1.25l1.74.37c1.09.23 2.06 1.2 2.06 2.53 0 1.21-.74 2.57-2.72 2.57ZM158.24 158.16l-1.46.04v-.56h.83v-3.71c0-.47-.08-.47-.79-.47v-.56l2.09-.1v4.83h.74v.56l-1.4-.04Zm-.11-6.31a.939.939 0 1 1 0-1.88.939.939 0 1 1 0 1.88ZM169.74 158.16l-1.51.04v-.56h.83v-3.24c0-.92-.26-1.16-.67-1.16-.74 0-1.79.59-1.79 1.89v2.51h.83v.56l-1.51-.04-1.51.04v-.56h.83v-3.24c0-.92-.26-1.16-.67-1.16-.74 0-1.79.59-1.79 1.89v2.51h.83v.56l-1.51-.04-1.51.04v-.56h.83v-3.71c0-.47-.08-.47-.83-.47v-.56l2.06-.1v1.3c.38-.76 1.07-1.3 2.11-1.3.46 0 1.56.04 1.8 1.15.31-.55.94-1.15 2.03-1.15 1.24 0 1.85.49 1.85 1.73v3.11h.83v.56l-1.51-.04ZM175.71 158.27c-.49 0-1.02-.12-1.54-.54v2.23h.83v.56l-1.51-.04-1.51.04v-.56h.83v-6.04c0-.46-.08-.46-.83-.46v-.56l2.12-.1v.59c.28-.22.91-.59 1.81-.59 1.73 0 2.82 1.13 2.82 2.72s-1.22 2.75-3.02 2.75Zm.01-4.99c-.26 0-.89.07-1.37.56-.17.17-.18.18-.18.41v2.54c0 .23 0 .24.13.4.54.65 1.1.65 1.27.65.78 0 1.62-.62 1.62-2.32 0-1.51-.67-2.24-1.48-2.24ZM181.24 158.16l-1.48.04v-.56h.83v-6.63c0-.47-.08-.47-.83-.47v-.56l2.12-.1v7.76h.83v.56l-1.47-.04ZM186.54 158.27c-1.93 0-3.13-1.16-3.13-2.77 0-1.5 1.04-2.73 2.96-2.73.83 0 1.46.22 1.91.65.6.6.67 1.47.67 1.85 0 .32-.12.32-.38.32h-3.62c0 .61.01 2.21 1.7 2.21.78 0 1.46-.38 1.71-.96.07-.19.1-.25.3-.25.06 0 .29 0 .29.22 0 .2-.52 1.48-2.41 1.48Zm-.16-5.08c-.35 0-.83.14-1.14.62-.25.4-.26.9-.29 1.37h2.87c-.01-.42-.04-1.99-1.44-1.99ZM197.46 158.27c-1.93 0-3.13-1.16-3.13-2.77 0-1.5 1.04-2.73 2.96-2.73.83 0 1.46.22 1.91.65.6.6.67 1.47.67 1.85 0 .32-.12.32-.38.32h-3.62c0 .61.01 2.21 1.7 2.21.78 0 1.46-.38 1.71-.96.07-.19.1-.25.3-.25.06 0 .29 0 .29.22 0 .2-.52 1.48-2.41 1.48Zm-.17-5.08c-.35 0-.83.14-1.14.62-.25.4-.26.9-.29 1.37h2.87c-.01-.42-.04-1.99-1.44-1.99ZM205.29 158.27v-.59c-.37.3-.95.59-1.68.59-1.77 0-2.88-1.14-2.88-2.72 0-1.69 1.26-2.75 3.01-2.75.4 0 1.02.07 1.62.54V151c0-.47-.08-.47-.83-.47v-.56l2.12-.1v7.29c0 .47.08.47.83.47v.56l-2.19.07Zm0-4.31c-.26-.35-.74-.73-1.43-.73-.37 0-.94.12-1.28.62-.31.47-.31 1.12-.31 1.69 0 .84 0 2.29 1.46 2.29.91 0 1.4-.66 1.56-.88v-3ZM214.12 153.95c-.31 0-.52-.22-.52-.52 0-.07.02-.18.05-.24-.13.01-.38.04-.74.23.18.19.48.59.48 1.15 0 .84-.66 1.78-2.39 1.78-.3 0-.91-.02-1.46-.31-.07.1-.12.28-.12.4 0 .22.13.67.66.75.06.01.61.01.92.01 1.15 0 1.87 0 2.54.34.8.41.9 1.16.9 1.52 0 .84-.93 1.55-3.06 1.55-2.4 0-3.06-.9-3.06-1.51 0-.76.88-1.01 1.03-1.04-.48-.38-.53-.97-.53-1.15 0-.25.07-.65.41-1.07-.38-.28-.62-.77-.62-1.26 0-.84.66-1.78 2.39-1.78.89 0 1.39.25 1.61.4.53-.42 1.09-.46 1.27-.46.55 0 .76.42.76.7s-.2.52-.52.52Zm-2.44 4.4h-1.4c-.17 0-.92 0-.92.72 0 .55.59 1.1 2.03 1.1 1.56 0 2.03-.65 2.03-1.08 0-.74-1.36-.74-1.73-.74Zm-.68-5.12c-1.06 0-1.06.8-1.06 1.34s0 1.34 1.06 1.34 1.05-.8 1.05-1.34 0-1.34-1.05-1.34ZM218.35 158.27c-1.93 0-3.13-1.16-3.13-2.77 0-1.5 1.04-2.73 2.96-2.73.83 0 1.46.22 1.91.65.6.6.67 1.47.67 1.85 0 .32-.12.32-.38.32h-3.62c0 .61.01 2.21 1.7 2.21.78 0 1.46-.38 1.71-.96.07-.19.1-.25.3-.25.06 0 .29 0 .29.22 0 .2-.52 1.48-2.41 1.48Zm-.16-5.08c-.35 0-.83.14-1.14.62-.25.4-.26.9-.29 1.37h2.87c-.01-.42-.04-1.99-1.44-1.99ZM210.73 334.85c-2.99 0-4.82-1.79-4.82-4.25s1.83-4.25 4.82-4.25c.82 0 1.62.22 2.36.82l.79-.71c.1-.08.12-.11.23-.11.22 0 .22.11.22.34v2.58c0 .31-.01.34-.32.34-.28 0-.29-.02-.32-.25-.26-1.52-1.4-2.43-2.7-2.43-.62 0-1.67.13-2.45.92-.76.79-.79 2.09-.79 2.76 0 1.08.14 1.98.71 2.66.62.73 1.63 1.02 2.57 1.02 1.21 0 2.66-.73 2.75-2.34.01-.2.12-.2.28-.2.2 0 .29.01.29.25 0 1.38-1.35 2.85-3.6 2.85ZM218.55 334.79c-2 0-3.06-1.2-3.06-2.69 0-1.6 1.09-2.82 3.06-2.82s3.06 1.21 3.06 2.82c0 1.47-1.04 2.69-3.06 2.69Zm1.28-4.46c-.26-.42-.77-.61-1.27-.61-.59 0-1.09.25-1.32.7-.2.41-.2 1.02-.2 1.56 0 1.04 0 2.34 1.52 2.34s1.52-1.29 1.52-2.34c0-.58 0-1.24-.25-1.64ZM231.71 334.68l-1.51.04v-.56h.83v-3.24c0-.92-.26-1.16-.67-1.16-.74 0-1.79.59-1.79 1.89v2.51h.83v.56l-1.51-.04-1.51.04v-.56h.83v-3.24c0-.92-.26-1.16-.67-1.16-.74 0-1.79.59-1.79 1.89v2.51h.83v.56l-1.51-.04-1.51.04v-.56h.83v-3.71c0-.47-.08-.47-.83-.47v-.56l2.06-.1v1.3c.38-.76 1.07-1.3 2.11-1.3.46 0 1.56.04 1.8 1.15.31-.55.94-1.15 2.03-1.15 1.24 0 1.85.49 1.85 1.73v3.11h.83v.56l-1.51-.04ZM237.68 334.79c-.49 0-1.02-.12-1.54-.54v2.23h.83v.56l-1.51-.04-1.51.04v-.56h.83v-6.04c0-.46-.08-.46-.83-.46v-.56l2.12-.1v.59c.28-.22.91-.59 1.81-.59 1.73 0 2.82 1.13 2.82 2.72s-1.22 2.75-3.02 2.75Zm.01-4.99c-.26 0-.89.07-1.37.56-.17.17-.18.18-.18.41v2.54c0 .23 0 .24.13.4.54.65 1.1.65 1.27.65.78 0 1.62-.62 1.62-2.32 0-1.51-.67-2.24-1.48-2.24ZM243.21 334.68l-1.48.04v-.56h.83v-6.63c0-.47-.08-.47-.83-.47v-.56l2.12-.1v7.76h.83v.56l-1.47-.04ZM248.52 334.79c-1.93 0-3.13-1.16-3.13-2.77 0-1.5 1.04-2.73 2.96-2.73.83 0 1.46.22 1.91.65.6.6.67 1.47.67 1.85 0 .32-.12.32-.38.32h-3.62c0 .61.01 2.21 1.7 2.21.78 0 1.46-.38 1.71-.96.07-.19.1-.25.3-.25.06 0 .29 0 .29.22 0 .2-.52 1.48-2.41 1.48Zm-.17-5.07c-.35 0-.83.14-1.14.62-.25.4-.26.9-.29 1.37h2.87c-.01-.42-.04-1.99-1.44-1.99ZM257.02 334.68l-1.44.04v-.56h.47l-1.32-1.56-1.16 1.31c-.08.1-.08.12-.08.12 0 .07.23.13.44.13v.56l-1.24-.04-1.1.04v-.56c.58 0 1.01 0 1.21-.23l1.57-1.76-1.87-2.21h-.85v-.56l1.32.04 1.45-.04v.56h-.48l1.18 1.38 1.01-1.13.1-.14a.895.895 0 0 0-.46-.11v-.56l1.24.04 1.1-.04v.56c-1 0-1.07.08-1.22.25l-1.4 1.56 2.02 2.39h.85v.56l-1.32-.04ZM266.72 334.79c-1.93 0-3.13-1.16-3.13-2.77 0-1.5 1.04-2.73 2.96-2.73.83 0 1.46.22 1.91.65.6.6.67 1.47.67 1.85 0 .32-.12.32-.38.32h-3.62c0 .61.01 2.21 1.7 2.21.78 0 1.46-.38 1.71-.96.07-.19.1-.25.3-.25.06 0 .29 0 .29.22 0 .2-.52 1.48-2.41 1.48Zm-.17-5.07c-.35 0-.83.14-1.14.62-.25.4-.26.9-.29 1.37h2.87c-.01-.42-.04-1.99-1.44-1.99ZM274.54 334.79v-.59c-.37.3-.95.59-1.68.59-1.77 0-2.88-1.14-2.88-2.72 0-1.69 1.26-2.75 3.01-2.75.4 0 1.02.07 1.62.54v-2.34c0-.47-.08-.47-.83-.47v-.56l2.12-.1v7.29c0 .47.08.47.83.47v.56l-2.19.07Zm0-4.3c-.26-.35-.74-.73-1.43-.73-.37 0-.94.12-1.28.62-.31.47-.31 1.12-.31 1.69 0 .84 0 2.29 1.46 2.29.91 0 1.4-.66 1.56-.88v-3ZM283.38 330.47c-.31 0-.52-.22-.52-.52 0-.07.02-.18.05-.24-.13.01-.38.04-.74.23.18.19.48.59.48 1.15 0 .84-.66 1.78-2.39 1.78-.3 0-.91-.02-1.46-.31-.07.1-.12.28-.12.4 0 .22.13.67.66.75.06.01.61.01.92.01 1.15 0 1.87 0 2.54.34.8.41.9 1.16.9 1.52 0 .84-.93 1.55-3.06 1.55-2.4 0-3.06-.9-3.06-1.51 0-.76.88-1.01 1.03-1.04-.48-.38-.53-.97-.53-1.15 0-.25.07-.65.41-1.07-.38-.28-.62-.77-.62-1.26 0-.84.66-1.78 2.39-1.78.89 0 1.39.25 1.61.4.53-.42 1.09-.46 1.27-.46.55 0 .76.42.76.7s-.2.52-.52.52Zm-2.44 4.41h-1.4c-.17 0-.92 0-.92.72 0 .55.59 1.1 2.03 1.1 1.56 0 2.03-.65 2.03-1.08 0-.74-1.36-.74-1.73-.74Zm-.68-5.13c-1.06 0-1.06.8-1.06 1.34s0 1.34 1.06 1.34 1.05-.8 1.05-1.34 0-1.34-1.05-1.34ZM287.61 334.79c-1.93 0-3.13-1.16-3.13-2.77 0-1.5 1.04-2.73 2.96-2.73.83 0 1.46.22 1.91.65.6.6.67 1.47.67 1.85 0 .32-.12.32-.38.32h-3.62c0 .61.01 2.21 1.7 2.21.78 0 1.46-.38 1.71-.96.07-.19.1-.25.3-.25.06 0 .29 0 .29.22 0 .2-.52 1.48-2.41 1.48Zm-.17-5.07c-.35 0-.83.14-1.14.62-.25.4-.26.9-.29 1.37h2.87c-.01-.42-.04-1.99-1.44-1.99Z" class="cls-2"/><path d="m150.33 235.03 2.28 1.94" class="cls-4"/><path d="m157.14 240.84 88.33 75.43" style="stroke-dasharray:0 0 5.96 5.96;stroke:#6d8dbe;stroke-miterlimit:10;fill:none"/><path d="m247.74 318.2 2.28 1.95 2.29-1.94" class="cls-4"/><path d="m256.99 314.24 156.67-132.86" style="stroke:#6d8dbe;stroke-miterlimit:10;fill:none;stroke-dasharray:0 0 6.13 6.13"/><path d="m416 179.4 2.29-1.94" class="cls-4"/><path d="m144.96 230.44 4.93 9.55.84-4.62 4.44-1.56-10.21-3.37zM423.68 172.89l-4.96 9.54-.83-4.63-4.43-1.57 10.22-3.34z" class="cls-1"/><path d="m281.51 237.04-1.06 2.81" class="cls-4"/><path d="m278.19 245.81-25.98 68.55" style="stroke-dasharray:0 0 6.37 6.37;stroke:#6d8dbe;stroke-miterlimit:10;fill:none"/><path d="m251.08 317.34-1.06 2.81" class="cls-4"/><path d="m284.02 230.44-7.33 7.87 4.64-.77 2.96 3.65-.27-10.75z" class="cls-1"/><path d="m226.2 185.1-40.18-21.55" style="stroke-dasharray:0 0 6 6;stroke:#6d8dbe;stroke-miterlimit:10;fill:none"/><path d="m232.42 188.44-6.84-8.29.16 4.7-4.01 2.47 10.69 1.12z" class="cls-1"/></svg>