<svg id="Layer_10" data-name="Layer 10" xmlns="http://www.w3.org/2000/svg" viewBox="0 0 576 432"><defs><style>.cls-1{fill:none;stroke:#000}.cls-1,.cls-2{stroke-miterlimit:10}.cls-3{fill:#231f20;stroke-width:0}.cls-2{fill:#d9e7f5;stroke:#6d8dbe}</style></defs><rect class="cls-2" x="60.86" y="205.25" width="116.56" height="34.97" rx="2.04" ry="2.04"/><path class="cls-3" d="M93.6 218.81c-.49 0-1.24-.05-1.76-.31-.84-.41-.84-1-.84-1.79 0-.88 0-1.1-.38-1.52-.37-.41-.9-.41-1.07-.41h-1.4v3.33h1.29v.56c-.43-.04-1.61-.04-2.11-.04s-1.68 0-2.11.04v-.56h1.29v-7.1h-1.29v-.56h4.56c2.25 0 3.57 1.01 3.57 2.22 0 .79-.61 1.57-2 1.93.52.19 1.17.56 1.34 1.4.01.06.11.89.13 1.02.06.5.17 1.36.89 1.36.36 0 .71-.26.77-.83.01-.16.02-.28.28-.28.12 0 .29 0 .29.26 0 .19-.16 1.27-1.44 1.27Zm-4.04-7.8h-1.42v3.33h1.39c1.98 0 1.98-1 1.98-1.67 0-.73-.02-1.67-1.96-1.67ZM98.62 218.75c-1.93 0-3.13-1.16-3.13-2.77 0-1.5 1.04-2.73 2.96-2.73.83 0 1.46.22 1.91.65.6.6.67 1.47.67 1.85 0 .32-.12.32-.38.32h-3.62c0 .61.01 2.21 1.7 2.21.78 0 1.46-.38 1.71-.96.07-.19.1-.25.3-.25.06 0 .29 0 .29.22 0 .2-.52 1.48-2.41 1.48Zm-.17-5.08c-.35 0-.83.14-1.14.62-.25.4-.26.9-.29 1.37h2.87c-.01-.42-.04-1.99-1.44-1.99ZM104.56 218.75c-.85 0-1.89-.26-1.89-1.55v-3.29h-.98v-.43c1.19-.04 1.78-1.22 1.79-2.42h.56v2.29h1.75v.56h-1.75v3.31c0 .28 0 1.04.7 1.04.34 0 .72-.29.72-1.1v-.61h.56v.64c0 .88-.54 1.56-1.45 1.56ZM113.1 218.67h-.58c-1.25 0-1.25-.55-1.25-.92-.26.5-.83 1-1.79 1-.83 0-2.31-.22-2.31-1.37 0-1.74 3.05-1.85 3.9-1.88v-.41c0-.91-.42-1.42-1.32-1.42-.14 0-.53.01-.86.08.04.02.26.23.26.59 0 .5-.38.76-.75.76-.32 0-.74-.23-.74-.76 0-1.05 1.46-1.1 2.15-1.1 1.79 0 2.64.78 2.64 1.85v2.58c0 .28 0 .43.73.44.16 0 .31 0 .31.28s-.14.29-.38.29Zm-2.02-2.8c-.6.04-2.49.2-2.49 1.5 0 .53.48.95 1.09.95.3 0 1.4-.16 1.4-1.31v-1.14ZM115.53 218.64l-1.46.04v-.56h.83v-3.71c0-.47-.08-.47-.79-.47v-.56l2.09-.1v4.83h.74v.56l-1.4-.04Zm-.11-6.31a.939.939 0 1 1 0-1.88.939.939 0 1 1 0 1.88ZM119.37 218.64l-1.48.04v-.56h.83v-6.63c0-.47-.08-.47-.83-.47v-.56l2.12-.1v7.76h.83v.56l-1.47-.04ZM129.92 218.81c-.49 0-1.61-.07-2.4-.66l-.55.55c-.1.08-.12.11-.23.11-.22 0-.22-.11-.22-.34v-2.18c0-.28 0-.35.29-.35.26 0 .26.06.28.28.1 1.79 1.92 2.03 2.83 2.03 1.25 0 1.56-.83 1.56-1.4s-.3-.86-.48-1.04c-.26-.25-.47-.29-1.52-.52-1.31-.29-1.71-.37-2.3-.96-.25-.26-.65-.82-.65-1.59 0-1.26.86-2.41 2.69-2.41.58 0 1.36.11 2.05.66l.54-.53c.13-.12.14-.13.24-.13.22 0 .22.11.22.34v2.19c0 .28 0 .34-.29.34-.25 0-.25-.02-.3-.31-.28-1.63-1.49-2.04-2.45-2.04-1.2 0-1.54.74-1.54 1.26 0 .73.67 1.14 1.15 1.25l1.74.37c1.09.23 2.06 1.2 2.06 2.53 0 1.21-.74 2.57-2.72 2.57ZM135.45 218.64l-1.46.04v-.56h.83v-3.71c0-.47-.08-.47-.79-.47v-.56l2.09-.1v4.83h.74v.56l-1.4-.04Zm-.11-6.31a.939.939 0 1 1 0-1.88.939.939 0 1 1 0 1.88ZM140.38 218.75c-.85 0-1.89-.26-1.89-1.55v-3.29h-.98v-.43c1.19-.04 1.78-1.22 1.79-2.42h.56v2.29h1.75v.56h-1.75v3.31c0 .28 0 1.04.7 1.04.34 0 .72-.29.72-1.1v-.61h.56v.64c0 .88-.54 1.56-1.45 1.56ZM146.13 218.75c-1.93 0-3.13-1.16-3.13-2.77 0-1.5 1.04-2.73 2.96-2.73.83 0 1.46.22 1.91.65.6.6.67 1.47.67 1.85 0 .32-.12.32-.38.32h-3.62c0 .61.01 2.21 1.7 2.21.78 0 1.46-.38 1.71-.96.07-.19.1-.25.3-.25.06 0 .29 0 .29.22 0 .2-.52 1.48-2.41 1.48Zm-.17-5.08c-.35 0-.83.14-1.14.62-.25.4-.26.9-.29 1.37h2.87c-.01-.42-.04-1.99-1.44-1.99ZM100.39 233.07h-6.87v-.56h1.29v-7.1h-1.29v-.56c.46.04 1.67.04 2.19.04.59 0 1.9 0 2.42-.04v.56h-1.62v7.1h1.24c2.15 0 2.35-1.9 2.45-2.72h.56l-.37 3.29ZM104.79 233.15c-2 0-3.06-1.2-3.06-2.69 0-1.6 1.09-2.82 3.06-2.82s3.06 1.21 3.06 2.82c0 1.47-1.04 2.69-3.06 2.69Zm1.28-4.47c-.26-.42-.77-.61-1.27-.61-.59 0-1.09.25-1.32.7-.2.41-.2 1.02-.2 1.56 0 1.04 0 2.34 1.52 2.34s1.52-1.29 1.52-2.34c0-.58 0-1.24-.25-1.64ZM112.07 233.15c-1.85 0-2.97-1.14-2.97-2.73 0-1.39.89-2.77 3.03-2.77.7 0 2.09.07 2.09 1.1 0 .5-.38.76-.76.76-.32 0-.74-.23-.74-.76 0-.11.02-.36.24-.55-.16-.04-.36-.07-.78-.07-1.55 0-1.55 1.56-1.55 2.23 0 .55 0 2.31 1.67 2.31.61 0 1.19-.23 1.5-.98.06-.16.07-.18.29-.18.12 0 .29 0 .29.17 0 .08-.36 1.48-2.3 1.48ZM121.08 233.07h-.58c-1.25 0-1.25-.55-1.25-.92-.26.5-.83 1-1.79 1-.83 0-2.31-.22-2.31-1.37 0-1.74 3.05-1.85 3.9-1.88v-.41c0-.91-.42-1.42-1.32-1.42-.14 0-.53.01-.86.08.04.02.26.23.26.59 0 .5-.38.76-.75.76-.32 0-.74-.23-.74-.76 0-1.05 1.46-1.1 2.15-1.1 1.79 0 2.64.78 2.64 1.85v2.58c0 .28 0 .43.73.44.16 0 .31 0 .31.28s-.14.29-.38.29Zm-2.03-2.8c-.6.04-2.49.2-2.49 1.5 0 .53.48.95 1.09.95.3 0 1.4-.16 1.4-1.31v-1.14ZM124.61 233.15c-.85 0-1.89-.26-1.89-1.55v-3.29h-.98v-.43c1.19-.04 1.78-1.22 1.79-2.42h.56v2.29h1.75v.56h-1.75v3.31c0 .28 0 1.04.7 1.04.34 0 .72-.29.72-1.1v-.61h.56v.64c0 .88-.54 1.56-1.45 1.56ZM128.87 233.04l-1.46.04v-.56h.83v-3.71c0-.47-.08-.47-.79-.47v-.56l2.09-.1v4.83h.74v.56l-1.4-.04Zm-.11-6.31a.939.939 0 1 1 0-1.88.939.939 0 1 1 0 1.88ZM134.11 233.15c-2 0-3.06-1.2-3.06-2.69 0-1.6 1.09-2.82 3.06-2.82s3.06 1.21 3.06 2.82c0 1.47-1.04 2.69-3.06 2.69Zm1.27-4.47c-.26-.42-.77-.61-1.27-.61-.59 0-1.09.25-1.32.7-.2.41-.2 1.02-.2 1.56 0 1.04 0 2.34 1.52 2.34s1.52-1.29 1.52-2.34c0-.58 0-1.24-.25-1.64ZM143.43 233.04l-1.51.04v-.56h.83v-3.24c0-.91-.25-1.16-.66-1.16-.76 0-1.79.59-1.79 1.89v2.51h.83v.56l-1.51-.04-1.51.04v-.56h.83v-3.71c0-.47-.08-.47-.83-.47v-.56l2.06-.1v1.3c.31-.61.95-1.3 2.1-1.3s1.85.47 1.85 1.73v3.11h.83v.56l-1.51-.04Z"/><rect class="cls-2" x="218.81" y="74.47" width="131.91" height="24.51" rx="2.04" ry="2.04"/><path class="cls-3" d="M249.4 91.03h-7.65v-.56h1.29v-7.03h-1.29v-.56h7.45l.37 2.89h-.56c-.19-1.45-.5-2.33-2.43-2.33h-1.82v3.08h.66c1.16 0 1.27-.52 1.27-1.4h.56v3.37h-.56c0-.89-.12-1.4-1.27-1.4h-.66v3.38h1.82c2.22 0 2.55-1.07 2.82-2.72h.56l-.55 3.29ZM253.11 91.1c-.24 0-.86 0-1.42-.38l-.31.2c-.25.18-.28.18-.36.18-.22 0-.22-.11-.22-.34v-1.31c0-.28 0-.35.29-.35.17 0 .23 0 .29.17.14.52.46 1.39 1.73 1.39.26 0 1.37 0 1.37-.9 0-.71-.9-.86-1.33-.93-.92-.17-1.38-.24-1.86-.66-.24-.2-.48-.53-.48-1.01 0-1.57 1.85-1.57 2.21-1.57.48 0 .9.07 1.21.23.47-.23.49-.23.54-.23.22 0 .22.11.22.33v.96c0 .28 0 .34-.29.34-.25 0-.26-.06-.28-.24-.06-.66-.52-1.01-1.42-1.01-.23 0-1.34 0-1.34.74 0 .56.78.7 1.22.78.94.16 1.32.23 1.79.58.42.34.66.76.66 1.27 0 1.75-1.85 1.75-2.22 1.75ZM258.93 91.1c-.85 0-1.89-.26-1.89-1.55v-3.29h-.98v-.43c1.19-.04 1.78-1.22 1.79-2.42h.56v2.29h1.75v.56h-1.75v3.31c0 .28 0 1.04.7 1.04.34 0 .72-.29.72-1.1v-.61h.56v.64c0 .88-.54 1.56-1.45 1.56ZM267.47 91.03h-.58c-1.25 0-1.25-.55-1.25-.92-.26.5-.83 1-1.79 1-.83 0-2.31-.22-2.31-1.37 0-1.74 3.05-1.85 3.9-1.88v-.41c0-.91-.42-1.42-1.32-1.42-.14 0-.53.01-.86.08.04.02.26.23.26.59 0 .5-.38.76-.75.76-.32 0-.74-.23-.74-.76 0-1.05 1.46-1.1 2.15-1.1 1.79 0 2.64.78 2.64 1.85v2.58c0 .28 0 .43.73.44.16 0 .31 0 .31.28s-.14.29-.38.29Zm-2.03-2.81c-.6.04-2.49.2-2.49 1.5 0 .53.48.95 1.09.95.3 0 1.4-.16 1.4-1.31v-1.14ZM272.04 91.1c-1.07 0-1.66-.65-1.75-.74-.19.23-.4.44-.59.67h-.56v-7.2c0-.47-.08-.47-.83-.47v-.56l2.12-.1v3.51c.29-.24.89-.59 1.76-.59 1.74 0 2.87 1.13 2.87 2.72s-1.24 2.75-3.02 2.75Zm.03-5.03c-.66 0-1.24.35-1.56.77v3.01c.12.18.59.83 1.43.83.38 0 .94-.13 1.28-.62.31-.47.31-1.13.31-1.69 0-.84 0-2.29-1.46-2.29ZM277.58 90.99l-1.48.04v-.56h.83v-6.63c0-.47-.08-.47-.83-.47v-.56l2.12-.1v7.76h.83v.56l-1.47-.04ZM281.39 90.99l-1.46.04v-.56h.83v-3.71c0-.47-.08-.47-.79-.47v-.56l2.09-.1v4.83h.74v.56l-1.4-.04Zm-.1-6.3a.939.939 0 1 1 0-1.88.939.939 0 1 1 0 1.88ZM285.95 91.1c-.24 0-.86 0-1.42-.38l-.31.2c-.25.18-.28.18-.36.18-.22 0-.22-.11-.22-.34v-1.31c0-.28 0-.35.29-.35.17 0 .23 0 .29.17.14.52.46 1.39 1.73 1.39.26 0 1.37 0 1.37-.9 0-.71-.9-.86-1.33-.93-.92-.17-1.38-.24-1.86-.66-.24-.2-.48-.53-.48-1.01 0-1.57 1.85-1.57 2.21-1.57.48 0 .9.07 1.21.23.47-.23.49-.23.54-.23.22 0 .22.11.22.33v.96c0 .28 0 .34-.29.34-.25 0-.26-.06-.28-.24-.06-.66-.52-1.01-1.42-1.01-.23 0-1.34 0-1.34.74 0 .56.78.7 1.22.78.94.16 1.32.23 1.79.58.42.34.66.76.66 1.27 0 1.75-1.85 1.75-2.22 1.75ZM294.51 90.99l-1.51.04v-.56h.83v-3.24c0-.91-.25-1.16-.66-1.16-.76 0-1.79.59-1.79 1.89v2.51h.83v.56l-1.51-.04-1.51.04v-.56h.83v-6.63c0-.47-.08-.47-.83-.47v-.56l2.12-.1v4.08h.01c.26-.46.88-1.15 2.03-1.15s1.85.47 1.85 1.73v3.11h.83v.56l-1.51-.04ZM306.01 90.99l-1.51.04v-.56h.83v-3.24c0-.92-.26-1.16-.67-1.16-.74 0-1.79.59-1.79 1.89v2.51h.83v.56l-1.51-.04-1.51.04v-.56h.83v-3.24c0-.92-.26-1.16-.67-1.16-.74 0-1.79.59-1.79 1.89v2.51h.83v.56l-1.51-.04-1.51.04v-.56h.83v-3.71c0-.47-.08-.47-.83-.47v-.56l2.06-.1v1.3c.38-.76 1.07-1.3 2.11-1.3.46 0 1.56.04 1.8 1.15.31-.55.94-1.15 2.03-1.15 1.24 0 1.85.49 1.85 1.73v3.11h.83v.56l-1.51-.04ZM311.32 91.1c-1.93 0-3.13-1.16-3.13-2.77 0-1.5 1.04-2.73 2.96-2.73.83 0 1.46.22 1.91.65.6.6.67 1.47.67 1.85 0 .32-.12.32-.38.32h-3.62c0 .61.01 2.21 1.7 2.21.78 0 1.46-.38 1.71-.96.07-.19.1-.25.3-.25.06 0 .29 0 .29.22 0 .2-.52 1.48-2.41 1.48Zm-.17-5.07c-.35 0-.83.14-1.14.62-.25.4-.26.9-.29 1.37h2.87c-.01-.42-.04-1.99-1.44-1.99ZM320 90.99l-1.51.04v-.56h.83v-3.24c0-.91-.25-1.16-.66-1.16-.76 0-1.79.59-1.79 1.89v2.51h.83v.56l-1.51-.04-1.51.04v-.56h.83v-3.71c0-.47-.08-.47-.83-.47v-.56l2.06-.1v1.3c.31-.61.95-1.3 2.1-1.3s1.85.47 1.85 1.73v3.11h.83v.56l-1.51-.04ZM324.54 91.1c-.85 0-1.89-.26-1.89-1.55v-3.29h-.98v-.43c1.19-.04 1.78-1.22 1.79-2.42h.56v2.29h1.75v.56h-1.75v3.31c0 .28 0 1.04.7 1.04.34 0 .72-.29.72-1.1v-.61h.56v.64c0 .88-.54 1.56-1.45 1.56Z"/><rect class="cls-2" x="218.81" y="165.14" width="131.91" height="24.51" rx="2.04" ry="2.04"/><path class="cls-3" d="M264.53 181.7h-6.87v-.56h1.29v-7.1h-1.29v-.56c.46.04 1.67.04 2.19.04.59 0 1.9 0 2.42-.04v.56h-1.62v7.1h1.24c2.15 0 2.35-1.9 2.45-2.72h.56l-.37 3.29ZM268.94 181.77c-2 0-3.06-1.2-3.06-2.69 0-1.6 1.09-2.82 3.06-2.82s3.06 1.21 3.06 2.82c0 1.47-1.04 2.69-3.06 2.69Zm1.27-4.46c-.26-.42-.77-.61-1.27-.61-.59 0-1.09.25-1.32.7-.2.41-.2 1.02-.2 1.56 0 1.04 0 2.34 1.52 2.34s1.52-1.29 1.52-2.34c0-.58 0-1.24-.25-1.64ZM276.21 181.77c-1.85 0-2.97-1.14-2.97-2.73 0-1.39.89-2.77 3.03-2.77.7 0 2.09.07 2.09 1.1 0 .5-.38.76-.76.76-.32 0-.74-.23-.74-.76 0-.11.02-.36.24-.55-.16-.04-.36-.07-.78-.07-1.55 0-1.55 1.56-1.55 2.23 0 .55 0 2.31 1.67 2.31.61 0 1.19-.23 1.5-.98.06-.16.07-.18.29-.18.12 0 .29 0 .29.17 0 .08-.36 1.48-2.3 1.48ZM285.22 181.7h-.58c-1.25 0-1.25-.55-1.25-.92-.26.5-.83 1-1.79 1-.83 0-2.31-.22-2.31-1.37 0-1.74 3.05-1.85 3.9-1.88v-.41c0-.91-.42-1.42-1.32-1.42-.14 0-.53.01-.86.08.04.02.26.23.26.59 0 .5-.38.76-.75.76-.32 0-.74-.23-.74-.76 0-1.05 1.46-1.1 2.15-1.1 1.79 0 2.64.78 2.64 1.85v2.58c0 .28 0 .43.73.44.16 0 .31 0 .31.28s-.14.29-.38.29Zm-2.03-2.8c-.6.04-2.49.2-2.49 1.5 0 .53.48.95 1.09.95.3 0 1.4-.16 1.4-1.31v-1.14ZM288.75 181.77c-.85 0-1.89-.26-1.89-1.55v-3.29h-.98v-.43c1.19-.04 1.78-1.22 1.79-2.42h.56v2.29h1.75v.56h-1.75v3.31c0 .28 0 1.04.7 1.04.34 0 .72-.29.72-1.1v-.61h.56v.64c0 .88-.54 1.56-1.45 1.56ZM293.01 181.67l-1.46.04v-.56h.83v-3.71c0-.47-.08-.47-.79-.47v-.56l2.09-.1v4.83h.74v.56l-1.4-.04Zm-.11-6.31a.939.939 0 1 1 0-1.88.939.939 0 1 1 0 1.88ZM298.25 181.77c-2 0-3.06-1.2-3.06-2.69 0-1.6 1.09-2.82 3.06-2.82s3.06 1.21 3.06 2.82c0 1.47-1.04 2.69-3.06 2.69Zm1.27-4.46c-.26-.42-.77-.61-1.27-.61-.59 0-1.09.25-1.32.7-.2.41-.2 1.02-.2 1.56 0 1.04 0 2.34 1.52 2.34s1.52-1.29 1.52-2.34c0-.58 0-1.24-.25-1.64ZM307.57 181.67l-1.51.04v-.56h.83v-3.24c0-.91-.25-1.16-.66-1.16-.76 0-1.79.59-1.79 1.89v2.51h.83v.56l-1.51-.04-1.51.04v-.56h.83v-3.71c0-.47-.08-.47-.83-.47v-.56l2.06-.1v1.3c.31-.61.95-1.3 2.1-1.3s1.85.47 1.85 1.73v3.11h.83v.56l-1.51-.04Z"/><rect class="cls-2" x="218.81" y="255.82" width="131.91" height="24.51" rx="2.04" ry="2.04"/><path class="cls-3" d="M250.04 272.37h-5.17v-.56h1.29v-7.1h-1.29v-.56h5.16c2.38 0 4.17 1.55 4.17 4.19s-1.8 4.04-4.16 4.04Zm1.89-6.59c-.59-.84-1.58-1.07-2.37-1.07h-1.75v7.1h1.75c.73 0 1.79-.19 2.36-1.01.38-.54.53-1.17.53-2.48 0-1.12-.1-1.93-.52-2.54ZM258.5 272.45c-1.93 0-3.13-1.16-3.13-2.77 0-1.5 1.04-2.73 2.96-2.73.83 0 1.46.22 1.91.65.6.6.67 1.47.67 1.85 0 .32-.12.32-.38.32h-3.62c0 .61.01 2.21 1.7 2.21.78 0 1.46-.38 1.71-.96.07-.19.1-.25.3-.25.06 0 .29 0 .29.22 0 .2-.52 1.48-2.41 1.48Zm-.16-5.08c-.35 0-.83.14-1.14.62-.25.4-.26.9-.29 1.37h2.87c-.01-.42-.04-1.99-1.44-1.99ZM271.02 272.34l-1.51.04v-.56h.83v-3.24c0-.92-.26-1.16-.67-1.16-.74 0-1.79.59-1.79 1.89v2.51h.83v.56l-1.51-.04-1.51.04v-.56h.83v-3.24c0-.92-.26-1.16-.67-1.16-.74 0-1.79.59-1.79 1.89v2.51h.83v.56l-1.51-.04-1.51.04v-.56h.83v-3.71c0-.47-.08-.47-.83-.47v-.56l2.06-.1v1.3c.38-.76 1.07-1.3 2.11-1.3.46 0 1.56.04 1.8 1.15.31-.55.94-1.15 2.03-1.15 1.24 0 1.85.49 1.85 1.73v3.11h.83v.56l-1.51-.04ZM276.25 272.45c-2 0-3.06-1.2-3.06-2.69 0-1.6 1.09-2.82 3.06-2.82s3.06 1.21 3.06 2.82c0 1.47-1.04 2.69-3.06 2.69Zm1.27-4.47c-.26-.42-.77-.61-1.27-.61-.59 0-1.09.25-1.32.7-.2.41-.2 1.02-.2 1.56 0 1.04 0 2.34 1.52 2.34s1.52-1.29 1.52-2.34c0-.58 0-1.24-.25-1.64ZM285.89 268.13c-.31 0-.52-.22-.52-.52 0-.07.02-.18.05-.24-.13.01-.38.04-.74.23.18.19.48.59.48 1.15 0 .84-.66 1.78-2.39 1.78-.3 0-.91-.02-1.46-.31-.07.1-.12.28-.12.4 0 .22.13.67.66.75.06.01.61.01.92.01 1.15 0 1.87 0 2.54.34.8.41.9 1.16.9 1.52 0 .84-.94 1.55-3.06 1.55-2.4 0-3.06-.9-3.06-1.51 0-.76.88-1.01 1.03-1.04-.48-.38-.53-.97-.53-1.15 0-.25.07-.65.41-1.07-.38-.28-.62-.77-.62-1.26 0-.84.66-1.78 2.39-1.78.89 0 1.39.25 1.61.4.53-.42 1.09-.46 1.27-.46.55 0 .76.42.76.7s-.2.52-.52.52Zm-2.44 4.4h-1.4c-.17 0-.92 0-.92.72 0 .55.59 1.1 2.03 1.1 1.56 0 2.03-.65 2.03-1.08 0-.74-1.36-.74-1.73-.74Zm-.68-5.12c-1.06 0-1.06.8-1.06 1.34s0 1.34 1.06 1.34 1.05-.8 1.05-1.34 0-1.34-1.05-1.34ZM291.18 268.69c-.35 0-.73-.24-.73-.73 0-.35.23-.55.23-.55-1.2 0-1.5 1.46-1.5 2.3v2.1h1.04v.56c-.43-.04-1.2-.04-1.66-.04l-1.51.04v-.56h.83v-3.71c0-.47-.08-.47-.83-.47v-.56l1.99-.1v1.36c.28-.76.76-1.36 1.59-1.36.62 0 1.27.35 1.27.98 0 .48-.38.73-.73.73ZM298.61 272.37h-.58c-1.25 0-1.25-.55-1.25-.92-.26.5-.83 1-1.79 1-.83 0-2.31-.22-2.31-1.37 0-1.74 3.05-1.85 3.9-1.88v-.41c0-.91-.42-1.42-1.32-1.42-.14 0-.53.01-.86.08.04.02.26.23.26.59 0 .5-.38.76-.75.76-.32 0-.74-.23-.74-.76 0-1.05 1.46-1.1 2.15-1.1 1.79 0 2.64.78 2.64 1.85v2.58c0 .28 0 .43.73.44.16 0 .31 0 .31.28s-.14.29-.38.29Zm-2.03-2.8c-.6.04-2.49.2-2.49 1.5 0 .53.48.95 1.09.95.3 0 1.4-.16 1.4-1.31v-1.14ZM303.18 272.45c-.49 0-1.02-.12-1.54-.54v2.23h.83v.56l-1.51-.04-1.51.04v-.56h.83v-6.04c0-.46-.08-.46-.83-.46v-.56l2.12-.1v.59c.28-.22.91-.59 1.81-.59 1.73 0 2.82 1.13 2.82 2.72s-1.22 2.75-3.02 2.75Zm.01-4.99c-.26 0-.89.07-1.37.56-.17.17-.18.18-.18.41v2.54c0 .23 0 .24.13.4.54.65 1.1.65 1.27.65.78 0 1.62-.62 1.62-2.32 0-1.51-.67-2.24-1.48-2.24ZM312.54 272.34l-1.51.04v-.56h.83v-3.24c0-.91-.25-1.16-.66-1.16-.76 0-1.79.59-1.79 1.89v2.51h.83v.56l-1.51-.04-1.51.04v-.56h.83v-6.63c0-.47-.08-.47-.83-.47v-.56l2.12-.1v4.08h.01c.26-.46.88-1.15 2.03-1.15s1.85.47 1.85 1.73v3.11h.83v.56l-1.51-.04ZM316.37 272.34l-1.46.04v-.56h.83v-3.71c0-.47-.08-.47-.79-.47v-.56l2.09-.1v4.83h.74v.56l-1.4-.04Zm-.11-6.31a.939.939 0 1 1 0-1.88.939.939 0 1 1 0 1.88ZM321.6 272.45c-1.85 0-2.97-1.14-2.97-2.73 0-1.39.89-2.77 3.03-2.77.7 0 2.09.07 2.09 1.1 0 .5-.38.76-.76.76-.32 0-.74-.23-.74-.76 0-.11.02-.36.24-.55-.16-.04-.36-.07-.78-.07-1.55 0-1.55 1.56-1.55 2.23 0 .55 0 2.31 1.67 2.31.61 0 1.19-.23 1.5-.98.06-.16.07-.18.29-.18.12 0 .29 0 .29.17 0 .08-.36 1.48-2.3 1.48ZM327.06 272.45c-.24 0-.86 0-1.42-.38l-.31.2c-.25.18-.28.18-.36.18-.22 0-.22-.11-.22-.34v-1.31c0-.28 0-.35.29-.35.17 0 .23 0 .29.17.14.52.46 1.39 1.73 1.39.26 0 1.37 0 1.37-.9 0-.71-.9-.86-1.33-.93-.92-.17-1.38-.24-1.86-.66-.24-.2-.48-.53-.48-1.01 0-1.57 1.85-1.57 2.21-1.57.48 0 .9.07 1.21.23.47-.23.49-.23.54-.23.22 0 .22.11.22.33v.96c0 .28 0 .34-.29.34-.25 0-.26-.06-.28-.24-.06-.66-.52-1.01-1.42-1.01-.23 0-1.34 0-1.34.74 0 .56.78.7 1.22.78.94.16 1.32.23 1.79.58.42.34.66.76.66 1.27 0 1.75-1.85 1.75-2.22 1.75Z"/><rect class="cls-2" x="218.81" y="346.49" width="131.91" height="24.51" rx="2.04" ry="2.04"/><path class="cls-3" d="M251.23 362.16c-2.99 0-4.82-1.79-4.82-4.25s1.83-4.25 4.82-4.25c.82 0 1.62.22 2.36.82l.79-.71c.1-.08.12-.11.23-.11.21 0 .21.11.21.34v2.58c0 .31-.01.34-.32.34-.28 0-.29-.02-.32-.25-.26-1.52-1.4-2.43-2.7-2.43-.62 0-1.67.13-2.45.92-.76.79-.79 2.09-.79 2.76 0 1.08.14 1.98.71 2.66.62.73 1.63 1.02 2.57 1.02 1.21 0 2.66-.73 2.75-2.34.01-.2.12-.2.28-.2.2 0 .29.01.29.25 0 1.38-1.35 2.85-3.6 2.85ZM259.06 362.1c-2 0-3.06-1.2-3.06-2.69 0-1.6 1.09-2.82 3.06-2.82s3.06 1.21 3.06 2.82c0 1.47-1.04 2.69-3.06 2.69Zm1.27-4.46c-.27-.42-.77-.61-1.27-.61-.59 0-1.09.25-1.32.7-.2.41-.2 1.02-.2 1.56 0 1.04 0 2.34 1.52 2.34s1.52-1.29 1.52-2.34c0-.58 0-1.24-.25-1.64ZM272.22 361.99l-1.51.04v-.56h.83v-3.24c0-.92-.26-1.16-.67-1.16-.74 0-1.79.59-1.79 1.89v2.51h.83v.56l-1.51-.04-1.51.04v-.56h.83v-3.24c0-.92-.26-1.16-.67-1.16-.74 0-1.79.59-1.79 1.89v2.51h.83v.56l-1.51-.04-1.51.04v-.56h.83v-3.71c0-.47-.08-.47-.83-.47v-.56l2.06-.1v1.3c.38-.76 1.07-1.3 2.11-1.3.46 0 1.56.04 1.8 1.15.31-.55.94-1.15 2.03-1.15 1.24 0 1.85.49 1.85 1.73v3.11h.83v.56l-1.51-.04ZM278.18 362.1c-.49 0-1.02-.12-1.54-.54v2.23h.83v.56l-1.51-.04-1.51.04v-.56h.83v-6.04c0-.46-.08-.46-.83-.46v-.56l2.12-.1v.59c.28-.22.91-.59 1.81-.59 1.73 0 2.82 1.13 2.82 2.72s-1.22 2.75-3.02 2.75Zm.02-4.99c-.26 0-.89.07-1.37.56-.17.17-.18.18-.18.41v2.54c0 .23 0 .24.13.4.54.65 1.1.65 1.27.65.78 0 1.62-.62 1.62-2.32 0-1.51-.67-2.24-1.48-2.24ZM285.58 362.1c-1.93 0-3.13-1.16-3.13-2.77 0-1.5 1.04-2.73 2.96-2.73.83 0 1.46.22 1.91.65.6.6.67 1.47.67 1.85 0 .32-.12.32-.38.32h-3.62c0 .61.01 2.21 1.7 2.21.78 0 1.46-.38 1.71-.96.07-.19.1-.25.3-.25.06 0 .29 0 .29.22 0 .2-.52 1.48-2.41 1.48Zm-.17-5.07c-.35 0-.83.14-1.14.62-.25.4-.26.9-.29 1.37h2.87c-.01-.42-.04-1.99-1.44-1.99ZM291.52 362.1c-.85 0-1.89-.26-1.89-1.55v-3.29h-.98v-.43c1.19-.04 1.78-1.22 1.79-2.42h.56v2.29h1.75v.56H291v3.31c0 .28 0 1.04.7 1.04.34 0 .72-.29.72-1.1v-.61h.56v.64c0 .88-.54 1.56-1.45 1.56ZM295.78 361.99l-1.46.04v-.56h.83v-3.71c0-.47-.08-.47-.79-.47v-.56l2.09-.1v4.83h.74v.56l-1.4-.04Zm-.11-6.31a.939.939 0 1 1 0-1.88.939.939 0 1 1 0 1.88ZM300.71 362.1c-.85 0-1.89-.26-1.89-1.55v-3.29h-.98v-.43c1.19-.04 1.78-1.22 1.79-2.42h.56v2.29h1.75v.56h-1.75v3.31c0 .28 0 1.04.7 1.04.34 0 .72-.29.72-1.1v-.61h.56v.64c0 .88-.54 1.56-1.45 1.56ZM304.97 361.99l-1.46.04v-.56h.83v-3.71c0-.47-.08-.47-.79-.47v-.56l2.09-.1v4.83h.74v.56l-1.4-.04Zm-.11-6.31a.939.939 0 1 1 0-1.88.939.939 0 1 1 0 1.88ZM310.21 362.1c-2 0-3.06-1.2-3.06-2.69 0-1.6 1.09-2.82 3.06-2.82s3.06 1.21 3.06 2.82c0 1.47-1.04 2.69-3.06 2.69Zm1.27-4.46c-.26-.42-.77-.61-1.27-.61-.59 0-1.09.25-1.32.7-.21.41-.21 1.02-.21 1.56 0 1.04 0 2.34 1.52 2.34s1.52-1.29 1.52-2.34c0-.58 0-1.24-.25-1.64ZM319.54 361.99l-1.51.04v-.56h.83v-3.24c0-.91-.25-1.16-.66-1.16-.76 0-1.79.59-1.79 1.89v2.51h.83v.56l-1.51-.04-1.51.04v-.56h.83v-3.71c0-.47-.08-.47-.83-.47v-.56l2.06-.1v1.3c.31-.61.95-1.3 2.1-1.3s1.85.47 1.85 1.73v3.11h.83v.56l-1.51-.04Z"/><path class="cls-1" d="M230.36 35.33h-26.04v374.81h26.04"/><path class="cls-3" d="M397.25 61.54c-.49 0-1.61-.07-2.4-.66l-.55.55c-.1.08-.12.11-.23.11-.21 0-.21-.11-.21-.34v-2.18c0-.28 0-.35.29-.35.26 0 .26.06.28.28.1 1.79 1.92 2.03 2.83 2.03 1.25 0 1.56-.83 1.56-1.4s-.3-.86-.48-1.04c-.26-.25-.47-.29-1.52-.52-1.31-.29-1.71-.37-2.3-.96-.25-.26-.65-.82-.65-1.59 0-1.26.86-2.41 2.69-2.41.58 0 1.36.11 2.05.66l.54-.53c.13-.12.14-.13.24-.13.22 0 .22.11.22.34v2.19c0 .28 0 .34-.29.34-.25 0-.25-.02-.3-.31-.28-1.63-1.49-2.04-2.45-2.04-1.2 0-1.54.74-1.54 1.26 0 .73.67 1.14 1.15 1.25l1.74.37c1.09.23 2.06 1.2 2.06 2.53 0 1.21-.74 2.57-2.72 2.57ZM407.06 61.4h-.58c-1.25 0-1.25-.55-1.25-.92-.26.5-.83 1-1.79 1-.83 0-2.31-.22-2.31-1.37 0-1.74 3.05-1.85 3.9-1.88v-.41c0-.91-.42-1.42-1.32-1.42-.14 0-.53.01-.86.08.04.02.26.23.26.59 0 .5-.38.76-.75.76-.32 0-.74-.23-.74-.76 0-1.05 1.46-1.1 2.15-1.1 1.79 0 2.64.78 2.64 1.85v2.58c0 .28 0 .43.73.44.15 0 .31 0 .31.28s-.14.29-.38.29Zm-2.02-2.8c-.6.04-2.49.2-2.49 1.5 0 .53.48.95 1.09.95.3 0 1.4-.16 1.4-1.31V58.6ZM409.5 61.37l-1.47.04v-.56h.83v-6.63c0-.47-.08-.47-.83-.47v-.56l2.12-.1v7.76h.83v.56l-1.47-.04ZM414.8 61.48c-1.93 0-3.13-1.16-3.13-2.77 0-1.5 1.04-2.73 2.96-2.73.83 0 1.46.22 1.91.65.6.6.67 1.47.67 1.85 0 .32-.12.32-.38.32h-3.62c0 .61.01 2.21 1.7 2.21.78 0 1.46-.38 1.71-.96.07-.19.1-.25.3-.25.06 0 .29 0 .29.22 0 .2-.52 1.48-2.41 1.48Zm-.17-5.08c-.35 0-.83.14-1.14.62-.25.4-.26.9-.29 1.37h2.87c-.01-.42-.04-1.99-1.44-1.99ZM420.37 61.48c-.24 0-.86 0-1.42-.38l-.31.2c-.25.18-.28.18-.36.18-.22 0-.22-.11-.22-.34v-1.31c0-.28 0-.35.29-.35.17 0 .23 0 .29.17.14.52.46 1.39 1.73 1.39.26 0 1.37 0 1.37-.9 0-.71-.9-.86-1.33-.93-.92-.17-1.38-.24-1.86-.66-.24-.2-.48-.53-.48-1.01 0-1.57 1.85-1.57 2.21-1.57.48 0 .9.07 1.21.23.47-.23.49-.23.54-.23.22 0 .22.11.22.33v.96c0 .28 0 .34-.29.34-.25 0-.26-.06-.28-.24-.06-.66-.52-1.01-1.41-1.01-.23 0-1.34 0-1.34.74 0 .56.78.7 1.22.78.94.16 1.32.23 1.79.58.42.34.66.76.66 1.27 0 1.75-1.85 1.75-2.22 1.75ZM433.39 61.37l-1.47.04v-.56h.83v-4.2h-2.52v4.2h.83v.56l-1.47-.04-1.48.04v-.56h.83v-4.2h-.9v-.56h.9v-1.2c0-1.38 1.64-1.87 3.2-1.87.23 0 .54 0 .92.11.07.02.08.02.17.02.05 0 .71-.05.82-.06v7.76h.83v.56l-1.48-.04Zm-.65-6.5c0-.19 0-.22-.06-.26-.19-.16-.24-.41-.24-.55 0-.19.07-.36.19-.5.02-.02.02-.05.02-.05s-.32-.06-.59-.06c-.76 0-1.92.22-1.92 1.46v1.17h2.59v-1.21ZM438.77 61.48c-2 0-3.06-1.2-3.06-2.69 0-1.6 1.09-2.82 3.06-2.82s3.06 1.21 3.06 2.82c0 1.47-1.04 2.69-3.06 2.69Zm1.27-4.47c-.27-.42-.77-.61-1.27-.61-.59 0-1.09.25-1.32.7-.2.41-.2 1.02-.2 1.56 0 1.04 0 2.34 1.52 2.34s1.52-1.29 1.52-2.34c0-.58 0-1.24-.25-1.64ZM446.05 61.48c-2 0-3.06-1.2-3.06-2.69 0-1.6 1.09-2.82 3.06-2.82s3.06 1.21 3.06 2.82c0 1.47-1.04 2.69-3.06 2.69Zm1.27-4.47c-.26-.42-.77-.61-1.27-.61-.59 0-1.09.25-1.32.7-.21.41-.21 1.02-.21 1.56 0 1.04 0 2.34 1.52 2.34s1.52-1.29 1.52-2.34c0-.58 0-1.24-.25-1.64ZM454.08 57.72c-.35 0-.73-.24-.73-.73 0-.35.23-.55.23-.55-1.2 0-1.5 1.46-1.5 2.3v2.1h1.04v.56c-.43-.04-1.2-.04-1.66-.04l-1.51.04v-.56h.83v-3.71c0-.47-.08-.47-.83-.47v-.56l1.99-.1v1.36c.28-.76.76-1.36 1.59-1.36.62 0 1.27.35 1.27.98 0 .48-.38.73-.73.73ZM466.1 61.4h-.58c-1.25 0-1.25-.55-1.25-.92-.26.5-.83 1-1.79 1-.83 0-2.31-.22-2.31-1.37 0-1.74 3.05-1.85 3.9-1.88v-.41c0-.91-.42-1.42-1.32-1.42-.14 0-.53.01-.86.08.04.02.26.23.26.59 0 .5-.38.76-.75.76-.32 0-.74-.23-.74-.76 0-1.05 1.46-1.1 2.15-1.1 1.79 0 2.64.78 2.64 1.85v2.58c0 .28 0 .43.73.44.15 0 .31 0 .31.28s-.14.29-.38.29Zm-2.03-2.8c-.6.04-2.49.2-2.49 1.5 0 .53.48.95 1.09.95.3 0 1.4-.16 1.4-1.31V58.6ZM471.07 57.72c-.35 0-.73-.24-.73-.73 0-.35.23-.55.23-.55-1.2 0-1.5 1.46-1.5 2.3v2.1h1.04v.56c-.43-.04-1.2-.04-1.66-.04l-1.51.04v-.56h.83v-3.71c0-.47-.08-.47-.83-.47v-.56l1.99-.1v1.36c.28-.76.76-1.36 1.59-1.36.62 0 1.27.35 1.27.98 0 .48-.38.73-.73.73ZM475.7 61.48c-1.93 0-3.13-1.16-3.13-2.77 0-1.5 1.04-2.73 2.96-2.73.83 0 1.46.22 1.91.65.6.6.67 1.47.67 1.85 0 .32-.12.32-.38.32h-3.62c0 .61.01 2.21 1.7 2.21.78 0 1.46-.38 1.71-.96.07-.19.1-.25.3-.25.06 0 .29 0 .29.22 0 .2-.52 1.48-2.41 1.48Zm-.17-5.08c-.35 0-.83.14-1.14.62-.25.4-.26.9-.29 1.37h2.87c-.01-.42-.04-1.99-1.44-1.99ZM484.82 61.4h-.58c-1.25 0-1.25-.55-1.25-.92-.26.5-.83 1-1.79 1-.83 0-2.31-.22-2.31-1.37 0-1.74 3.04-1.85 3.9-1.88v-.41c0-.91-.42-1.42-1.32-1.42-.14 0-.53.01-.86.08.04.02.26.23.26.59 0 .5-.38.76-.76.76-.32 0-.74-.23-.74-.76 0-1.05 1.46-1.1 2.15-1.1 1.79 0 2.64.78 2.64 1.85v2.58c0 .28 0 .43.73.44.16 0 .31 0 .31.28s-.14.29-.38.29Zm-2.03-2.8c-.6.04-2.49.2-2.49 1.5 0 .53.48.95 1.09.95.3 0 1.4-.16 1.4-1.31V58.6ZM399.44 75.11h-2.12v3.06h1.3v.56c-.46-.04-1.63-.04-2.15-.04s-1.69 0-2.15.04v-.56h1.29v-7.1h-1.29v-.56h5c1.99 0 3.18 1.02 3.18 2.34 0 1.4-1.39 2.27-3.06 2.27Zm-.57-4.04h-1.62v3.55h1.61c1.81 0 1.81-.92 1.81-1.78s0-1.78-1.8-1.78ZM409.21 78.74h-.58c-1.25 0-1.25-.55-1.25-.92-.26.5-.83 1-1.79 1-.83 0-2.31-.22-2.31-1.37 0-1.74 3.05-1.85 3.9-1.88v-.41c0-.91-.42-1.42-1.32-1.42-.14 0-.53.01-.86.08.04.02.26.23.26.59 0 .5-.38.76-.75.76-.32 0-.74-.23-.74-.76 0-1.05 1.46-1.1 2.15-1.1 1.79 0 2.64.78 2.64 1.85v2.58c0 .28 0 .43.73.44.16 0 .31 0 .31.28s-.14.29-.38.29Zm-2.03-2.81c-.6.04-2.49.2-2.49 1.5 0 .53.48.95 1.09.95.3 0 1.4-.16 1.4-1.31v-1.14ZM414.18 75.05c-.35 0-.73-.24-.73-.73 0-.35.23-.55.23-.55-1.2 0-1.5 1.46-1.5 2.3v2.1h1.04v.56c-.43-.04-1.2-.04-1.66-.04l-1.51.04v-.56h.83v-3.71c0-.47-.08-.47-.83-.47v-.56l1.99-.1v1.36c.28-.76.76-1.36 1.6-1.36.62 0 1.27.35 1.27.98 0 .48-.38.73-.73.73ZM421.09 78.7c-.06 0-1.1.01-1.46.04v-.56c.16 0 .37 0 .37-.11 0-.04-.19-.28-.3-.42l-1.21-1.51c-.24.17-.34.24-.68.52v1.52h.83v.56l-1.45-.04-1.44.04v-.56h.83v-6.63c0-.47-.08-.47-.83-.47v-.56l2.12-.1v5.48l2.27-1.79c-.1-.1-.13-.13-.41-.13v-.56l1.38.04c.31 0 .61 0 .94-.04v.56c-.8 0-.91.08-1.08.22l-1.56 1.21 2.03 2.53c.16.19.19.24.71.24h.2v.56c-.41-.02-.82-.04-1.25-.04ZM424.61 78.7l-1.46.04v-.56h.83v-3.71c0-.47-.08-.47-.79-.47v-.56l2.09-.1v4.83h.74v.56l-1.4-.04Zm-.11-6.31a.939.939 0 1 1 0-1.88.939.939 0 1 1 0 1.88ZM432.27 78.7l-1.51.04v-.56h.83v-3.24c0-.91-.25-1.16-.66-1.16-.76 0-1.79.59-1.79 1.89v2.51h.83v.56l-1.51-.04-1.51.04v-.56h.83v-3.71c0-.47-.08-.47-.83-.47v-.56l2.06-.1v1.3c.31-.61.95-1.3 2.1-1.3s1.85.47 1.85 1.73v3.11h.83v.56l-1.51-.04ZM440.25 74.49c-.31 0-.52-.22-.52-.52 0-.07.02-.18.05-.24-.13.01-.38.04-.74.23.18.19.48.59.48 1.15 0 .84-.66 1.78-2.39 1.78-.3 0-.91-.02-1.46-.31-.07.1-.12.28-.12.4 0 .22.13.67.66.75.06.01.61.01.92.01 1.15 0 1.87 0 2.54.34.8.41.9 1.16.9 1.52 0 .84-.94 1.55-3.06 1.55-2.4 0-3.06-.9-3.06-1.51 0-.76.88-1.01 1.03-1.04-.48-.38-.53-.97-.53-1.15 0-.25.07-.65.41-1.07-.38-.28-.62-.77-.62-1.26 0-.84.66-1.78 2.39-1.78.89 0 1.39.25 1.61.4.53-.42 1.09-.46 1.27-.46.55 0 .76.42.76.7s-.2.52-.52.52Zm-2.43 4.4h-1.4c-.17 0-.92 0-.92.72 0 .55.59 1.1 2.03 1.1 1.56 0 2.03-.65 2.03-1.08 0-.74-1.36-.74-1.73-.74Zm-.69-5.12c-1.06 0-1.06.8-1.06 1.34s0 1.34 1.06 1.34 1.05-.8 1.05-1.34 0-1.34-1.05-1.34ZM403.87 88.02c-.34 0-.36 0-.65.04-.34.04-.35.05-.35.31v6.93c0 .28 0 .38-.32.38-.19 0-.2-.01-.32-.16l-5.97-7.03v6.27c0 .26.01.28.36.31.22.02.42.04.64.04h.3v.56c-.49-.04-1.12-.04-1.62-.04-.47 0-1.15 0-1.61.04v-.56h.3c.34 0 .36 0 .65-.04.34-.04.35-.05.35-.31v-6.75h-1.29v-.56h2.75c.25 0 .26.01.4.16l4.77 5.61v-4.86c0-.26-.01-.28-.36-.31-.22-.02-.42-.04-.64-.04h-.3v-.56c.49.04 1.12.04 1.62.04.47 0 1.15 0 1.61-.04v.56h-.3ZM409.91 95.76v-.94c-.55.94-1.42.94-1.73.94-1.19 0-2.16-.26-2.16-1.55v-2.79c0-.47-.08-.47-.83-.47v-.56l2.19-.1v4.09c0 .65.04.95.96.95.88 0 1.49-.64 1.49-1.62v-2.29c0-.47-.08-.47-.83-.47v-.56l2.2-.1v4.37c0 .47.08.47.83.47v.56l-2.12.07ZM422.02 95.65l-1.51.04v-.56h.83v-3.24c0-.92-.26-1.16-.67-1.16-.74 0-1.79.59-1.79 1.89v2.51h.83v.56l-1.51-.04-1.51.04v-.56h.83v-3.24c0-.92-.26-1.16-.67-1.16-.74 0-1.79.59-1.79 1.89v2.51h.83v.56l-1.51-.04-1.51.04v-.56h.83v-3.71c0-.47-.08-.47-.83-.47v-.56l2.06-.1v1.3c.38-.76 1.07-1.3 2.11-1.3.46 0 1.56.04 1.8 1.15.31-.55.94-1.15 2.03-1.15 1.24 0 1.85.49 1.85 1.73v3.11h.83v.56l-1.51-.04ZM427.61 95.76c-1.07 0-1.66-.65-1.75-.74-.19.23-.4.44-.59.67h-.56v-7.2c0-.47-.08-.47-.83-.47v-.56l2.12-.1v3.51c.29-.24.89-.59 1.76-.59 1.74 0 2.87 1.13 2.87 2.72s-1.24 2.75-3.02 2.75Zm.02-5.04c-.66 0-1.24.35-1.56.77v3.01c.12.18.59.83 1.43.83.38 0 .94-.13 1.28-.62.31-.47.31-1.13.31-1.69 0-.84 0-2.29-1.46-2.29ZM435 95.76c-1.93 0-3.13-1.16-3.13-2.77 0-1.5 1.04-2.73 2.96-2.73.83 0 1.46.22 1.91.65.6.6.67 1.47.67 1.85 0 .32-.12.32-.38.32h-3.62c0 .61.01 2.21 1.7 2.21.78 0 1.46-.38 1.71-.96.07-.19.1-.25.3-.25.06 0 .29 0 .29.22 0 .2-.52 1.48-2.41 1.48Zm-.17-5.07c-.35 0-.83.14-1.14.62-.25.4-.26.9-.29 1.37h2.87c-.01-.42-.04-1.99-1.44-1.99ZM442.38 92.01c-.35 0-.73-.24-.73-.73 0-.35.23-.55.23-.55-1.2 0-1.5 1.46-1.5 2.3v2.1h1.04v.56c-.43-.04-1.2-.04-1.66-.04l-1.51.04v-.56h.83v-3.71c0-.47-.08-.47-.83-.47v-.56l1.99-.1v1.36c.28-.76.76-1.36 1.59-1.36.62 0 1.27.35 1.27.98 0 .48-.38.73-.73.73ZM451.53 95.76c-2 0-3.06-1.2-3.06-2.69 0-1.6 1.09-2.82 3.06-2.82s3.06 1.21 3.06 2.82c0 1.47-1.04 2.69-3.06 2.69Zm1.28-4.46c-.26-.42-.77-.61-1.27-.61-.59 0-1.09.25-1.32.7-.2.41-.2 1.02-.2 1.56 0 1.04 0 2.34 1.52 2.34s1.52-1.29 1.52-2.34c0-.58 0-1.24-.25-1.64ZM459.49 89.08c-.31 0-.73-.23-.73-.74 0-.23.1-.46.28-.59-.08-.02-.14-.02-.2-.02-.3 0-1.21.11-1.21 1.43v1.21h1.45v.56h-1.38v4.2h1.04v.56c-.43-.04-1.2-.04-1.66-.04l-1.51.04v-.56h.83v-4.2h-.9v-.56h.9v-1.21c0-1.36 1.29-1.86 2.47-1.86.94 0 1.37.54 1.37 1.04s-.38.74-.74.74ZM468.81 95.76v-.59c-.37.3-.95.59-1.68.59-1.77 0-2.88-1.14-2.88-2.72 0-1.69 1.26-2.75 3.01-2.75.4 0 1.02.07 1.62.54v-2.34c0-.47-.08-.47-.83-.47v-.56l2.12-.1v7.29c0 .47.08.47.83.47v.56l-2.19.07Zm0-4.31c-.26-.35-.74-.73-1.43-.73-.37 0-.94.12-1.28.62-.31.47-.31 1.12-.31 1.69 0 .84 0 2.29 1.46 2.29.91 0 1.4-.66 1.56-.88v-3ZM474.98 95.76c-1.93 0-3.13-1.16-3.13-2.77 0-1.5 1.04-2.73 2.96-2.73.83 0 1.46.22 1.91.65.6.6.67 1.47.67 1.85 0 .32-.12.32-.38.32h-3.62c0 .61.01 2.21 1.7 2.21.78 0 1.46-.38 1.71-.96.07-.19.1-.25.3-.25.06 0 .29 0 .29.22 0 .2-.52 1.48-2.41 1.48Zm-.17-5.07c-.35 0-.83.14-1.14.62-.25.4-.26.9-.29 1.37h2.87c-.01-.42-.04-1.99-1.44-1.99ZM481.97 95.76c-.49 0-1.02-.12-1.54-.54v2.23h.83v.56l-1.51-.04-1.51.04v-.56h.83v-6.04c0-.46-.08-.46-.83-.46v-.56l2.12-.1v.59c.28-.22.91-.59 1.81-.59 1.73 0 2.82 1.13 2.82 2.72s-1.22 2.75-3.02 2.75Zm.01-4.99c-.26 0-.89.07-1.37.56-.17.17-.18.18-.18.41v2.54c0 .23 0 .24.13.4.54.65 1.1.65 1.27.65.78 0 1.62-.62 1.62-2.32 0-1.51-.67-2.24-1.48-2.24ZM491.77 95.69h-.58c-1.25 0-1.25-.55-1.25-.92-.26.5-.83 1-1.79 1-.83 0-2.31-.22-2.31-1.37 0-1.74 3.05-1.85 3.9-1.88v-.41c0-.91-.42-1.42-1.32-1.42-.14 0-.53.01-.86.08.04.02.26.23.26.59 0 .5-.38.76-.75.76-.32 0-.74-.23-.74-.76 0-1.05 1.46-1.1 2.15-1.1 1.79 0 2.64.78 2.64 1.85v2.58c0 .28 0 .43.73.44.16 0 .31 0 .31.28s-.14.29-.38.29Zm-2.03-2.81c-.6.04-2.49.2-2.49 1.5 0 .53.48.95 1.09.95.3 0 1.4-.16 1.4-1.31v-1.14ZM496.74 92.01c-.35 0-.73-.24-.73-.73 0-.35.23-.55.23-.55-1.2 0-1.5 1.46-1.5 2.3v2.1h1.04v.56c-.43-.04-1.2-.04-1.66-.04l-1.51.04v-.56h.83v-3.71c0-.47-.08-.47-.83-.47v-.56l1.99-.1v1.36c.28-.76.76-1.36 1.59-1.36.62 0 1.27.35 1.27.98 0 .48-.38.73-.73.73ZM500.99 95.76c-.85 0-1.89-.26-1.89-1.55v-3.29h-.98v-.43c1.19-.04 1.78-1.22 1.79-2.42h.56v2.29h1.75v.56h-1.75v3.31c0 .28 0 1.04.7 1.04.34 0 .72-.29.72-1.1v-.61h.56v.64c0 .88-.54 1.56-1.45 1.56ZM512.92 95.65l-1.51.04v-.56h.83v-3.24c0-.92-.26-1.16-.67-1.16-.74 0-1.79.59-1.79 1.89v2.51h.83v.56l-1.51-.04-1.51.04v-.56h.83v-3.24c0-.92-.26-1.16-.67-1.16-.74 0-1.79.59-1.79 1.89v2.51h.83v.56l-1.51-.04-1.51.04v-.56h.83v-3.71c0-.47-.08-.47-.83-.47v-.56l2.06-.1v1.3c.38-.76 1.07-1.3 2.11-1.3.46 0 1.56.04 1.8 1.15.31-.55.94-1.15 2.03-1.15 1.24 0 1.85.49 1.85 1.73v3.11h.83v.56l-1.51-.04ZM518.23 95.76c-1.93 0-3.13-1.16-3.13-2.77 0-1.5 1.04-2.73 2.96-2.73.83 0 1.46.22 1.91.65.6.6.67 1.47.67 1.85 0 .32-.12.32-.38.32h-3.62c0 .61.01 2.21 1.7 2.21.78 0 1.46-.38 1.71-.96.07-.19.1-.25.3-.25.06 0 .29 0 .29.22 0 .2-.52 1.48-2.41 1.48Zm-.17-5.07c-.35 0-.83.14-1.14.62-.25.4-.26.9-.29 1.37h2.87c-.01-.42-.04-1.99-1.44-1.99ZM526.9 95.65l-1.51.04v-.56h.83v-3.24c0-.91-.25-1.16-.66-1.16-.76 0-1.79.59-1.79 1.89v2.51h.83v.56l-1.51-.04-1.51.04v-.56h.83v-3.71c0-.47-.08-.47-.83-.47v-.56l2.06-.1v1.3c.31-.61.95-1.3 2.1-1.3s1.85.47 1.85 1.73v3.11h.83v.56l-1.51-.04ZM531.45 95.76c-.85 0-1.89-.26-1.89-1.55v-3.29h-.98v-.43c1.19-.04 1.78-1.22 1.79-2.42h.56v2.29h1.75v.56h-1.75v3.31c0 .28 0 1.04.7 1.04.34 0 .72-.29.72-1.1v-.61h.56v.64c0 .88-.54 1.56-1.45 1.56ZM536.45 95.76c-.24 0-.86 0-1.42-.38l-.31.2c-.25.18-.28.18-.36.18-.22 0-.22-.11-.22-.34v-1.31c0-.28 0-.35.29-.35.17 0 .23 0 .29.17.14.52.46 1.39 1.73 1.39.26 0 1.37 0 1.37-.9 0-.71-.9-.86-1.33-.93-.92-.17-1.38-.24-1.86-.66-.24-.2-.48-.53-.48-1.01 0-1.57 1.85-1.57 2.21-1.57.48 0 .9.07 1.21.23.47-.23.49-.23.54-.23.22 0 .22.11.22.33v.96c0 .28 0 .34-.29.34-.25 0-.26-.06-.28-.24-.06-.66-.52-1.01-1.42-1.01-.23 0-1.34 0-1.34.74 0 .56.78.7 1.22.78.94.16 1.32.23 1.79.58.42.34.66.76.66 1.27 0 1.75-1.85 1.75-2.22 1.75ZM403.87 104.79c-.34 0-.36 0-.65.04-.34.04-.35.05-.35.31v6.93c0 .28 0 .38-.32.38-.19 0-.2-.01-.32-.16l-5.97-7.03v6.27c0 .26.01.28.36.31.22.02.42.04.64.04h.3v.56c-.49-.04-1.12-.04-1.62-.04-.47 0-1.15 0-1.61.04v-.56h.3c.34 0 .36 0 .65-.04.34-.04.35-.05.35-.31v-6.75h-1.29v-.56h2.75c.25 0 .26.01.4.16l4.77 5.61v-4.86c0-.26-.01-.28-.36-.31-.22-.02-.42-.04-.64-.04h-.3v-.56c.49.04 1.12.04 1.62.04.47 0 1.15 0 1.61-.04v.56h-.3ZM409.91 112.53v-.94c-.55.94-1.42.94-1.73.94-1.19 0-2.16-.26-2.16-1.55v-2.79c0-.47-.08-.47-.83-.47v-.56l2.19-.1v4.09c0 .65.04.95.96.95.88 0 1.49-.64 1.49-1.62v-2.29c0-.47-.08-.47-.83-.47v-.56l2.2-.1v4.37c0 .47.08.47.83.47v.56l-2.12.07ZM422.02 112.42l-1.51.04v-.56h.83v-3.24c0-.92-.26-1.16-.67-1.16-.74 0-1.79.59-1.79 1.89v2.51h.83v.56l-1.51-.04-1.51.04v-.56h.83v-3.24c0-.92-.26-1.16-.67-1.16-.74 0-1.79.59-1.79 1.89v2.51h.83v.56l-1.51-.04-1.51.04v-.56h.83v-3.71c0-.47-.08-.47-.83-.47v-.56l2.06-.1v1.3c.38-.76 1.07-1.3 2.11-1.3.46 0 1.56.04 1.8 1.15.31-.55.94-1.15 2.03-1.15 1.24 0 1.85.49 1.85 1.73v3.11h.83v.56l-1.51-.04ZM427.61 112.53c-1.07 0-1.66-.65-1.75-.74-.19.23-.4.44-.59.67h-.56v-7.2c0-.47-.08-.47-.83-.47v-.56l2.12-.1v3.51c.29-.24.89-.59 1.76-.59 1.74 0 2.87 1.13 2.87 2.72s-1.24 2.75-3.02 2.75Zm.02-5.04c-.66 0-1.24.35-1.56.77v3.01c.12.18.59.83 1.43.83.38 0 .94-.13 1.28-.62.31-.47.31-1.13.31-1.69 0-.84 0-2.29-1.46-2.29ZM435 112.53c-1.93 0-3.13-1.16-3.13-2.77 0-1.5 1.04-2.73 2.96-2.73.83 0 1.46.22 1.91.65.6.6.67 1.47.67 1.85 0 .32-.12.32-.38.32h-3.62c0 .61.01 2.21 1.7 2.21.78 0 1.46-.38 1.71-.96.07-.19.1-.25.3-.25.06 0 .29 0 .29.22 0 .2-.52 1.48-2.41 1.48Zm-.17-5.07c-.35 0-.83.14-1.14.62-.25.4-.26.9-.29 1.37h2.87c-.01-.42-.04-1.99-1.44-1.99ZM442.38 108.78c-.35 0-.73-.24-.73-.73 0-.35.23-.55.23-.55-1.2 0-1.5 1.46-1.5 2.3v2.1h1.04v.56c-.43-.04-1.2-.04-1.66-.04l-1.51.04v-.56h.83v-3.71c0-.47-.08-.47-.83-.47v-.56l1.99-.1v1.36c.28-.76.76-1.36 1.59-1.36.62 0 1.27.35 1.27.98 0 .48-.38.73-.73.73ZM451.54 112.53c-2 0-3.06-1.2-3.06-2.69 0-1.6 1.09-2.82 3.06-2.82s3.06 1.21 3.06 2.82c0 1.47-1.04 2.69-3.06 2.69Zm1.27-4.46c-.26-.42-.77-.61-1.27-.61-.59 0-1.09.25-1.32.7-.2.41-.2 1.02-.2 1.56 0 1.04 0 2.34 1.52 2.34s1.52-1.29 1.52-2.34c0-.58 0-1.24-.25-1.64ZM459.49 105.85c-.31 0-.73-.23-.73-.74 0-.23.1-.46.28-.59-.08-.02-.14-.02-.2-.02-.3 0-1.21.11-1.21 1.43v1.21h1.45v.56h-1.38v4.2h1.04v.56c-.43-.04-1.2-.04-1.66-.04l-1.51.04v-.56h.83v-4.2h-.9v-.56h.9v-1.21c0-1.36 1.29-1.86 2.47-1.86.94 0 1.37.54 1.37 1.04s-.38.74-.74.74ZM467.23 112.53c-1.85 0-2.97-1.14-2.97-2.73 0-1.39.89-2.77 3.03-2.77.7 0 2.09.07 2.09 1.1 0 .5-.38.76-.76.76-.32 0-.74-.23-.74-.76 0-.11.02-.36.24-.55-.16-.04-.36-.07-.78-.07-1.55 0-1.55 1.56-1.55 2.23 0 .55 0 2.31 1.67 2.31.61 0 1.19-.23 1.5-.98.06-.16.07-.18.29-.18.12 0 .29 0 .29.17 0 .08-.36 1.48-2.3 1.48ZM475.41 112.42l-1.51.04v-.56h.83v-3.24c0-.91-.25-1.16-.66-1.16-.76 0-1.79.59-1.79 1.89v2.51h.83v.56l-1.51-.04-1.51.04v-.56h.83v-6.63c0-.47-.08-.47-.83-.47v-.56l2.12-.1v4.08h.01c.26-.46.88-1.15 2.03-1.15s1.85.47 1.85 1.73v3.11h.83v.56l-1.51-.04ZM480.73 112.53c-1.93 0-3.13-1.16-3.13-2.77 0-1.5 1.04-2.73 2.96-2.73.83 0 1.46.22 1.91.65.6.6.67 1.47.67 1.85 0 .32-.12.32-.38.32h-3.62c0 .61.01 2.21 1.7 2.21.78 0 1.46-.38 1.71-.96.07-.19.1-.25.3-.25.06 0 .29 0 .29.22 0 .2-.52 1.48-2.41 1.48Zm-.17-5.07c-.35 0-.83.14-1.14.62-.25.4-.26.9-.29 1.37H482c-.01-.42-.04-1.99-1.44-1.99ZM486.97 112.53c-1.85 0-2.97-1.14-2.97-2.73 0-1.39.89-2.77 3.03-2.77.7 0 2.09.07 2.09 1.1 0 .5-.38.76-.76.76-.32 0-.74-.23-.74-.76 0-.11.02-.36.24-.55-.16-.04-.36-.07-.78-.07-1.55 0-1.55 1.56-1.55 2.23 0 .55 0 2.31 1.67 2.31.61 0 1.19-.23 1.5-.98.06-.16.07-.18.29-.18.12 0 .29 0 .29.17 0 .08-.36 1.48-2.3 1.48ZM495.08 112.42c-.06 0-1.1.01-1.46.04v-.56c.16 0 .37 0 .37-.11 0-.04-.19-.28-.3-.42l-1.21-1.51c-.24.17-.34.24-.68.52v1.52h.83v.56l-1.45-.04-1.44.04v-.56h.83v-6.63c0-.47-.08-.47-.83-.47v-.56l2.12-.1v5.48l2.27-1.79c-.1-.1-.13-.13-.41-.13v-.56l1.38.04c.31 0 .61 0 .94-.04v.56c-.8 0-.91.08-1.08.22l-1.56 1.21 2.03 2.53c.16.19.19.24.71.24h.2v.56c-.41-.02-.82-.04-1.25-.04ZM499.63 112.53c-2 0-3.06-1.2-3.06-2.69 0-1.6 1.09-2.82 3.06-2.82s3.06 1.21 3.06 2.82c0 1.47-1.04 2.69-3.06 2.69Zm1.27-4.46c-.26-.42-.77-.61-1.27-.61-.59 0-1.09.25-1.32.7-.2.41-.2 1.02-.2 1.56 0 1.04 0 2.34 1.52 2.34s1.52-1.29 1.52-2.34c0-.58 0-1.24-.25-1.64ZM508.34 112.53v-.94c-.55.94-1.42.94-1.73.94-1.19 0-2.16-.26-2.16-1.55v-2.79c0-.47-.08-.47-.83-.47v-.56l2.19-.1v4.09c0 .65.04.95.96.95.88 0 1.49-.64 1.49-1.62v-2.29c0-.47-.08-.47-.83-.47v-.56l2.2-.1v4.37c0 .47.08.47.83.47v.56l-2.12.07ZM513.89 112.53c-.85 0-1.89-.26-1.89-1.55v-3.29h-.98v-.43c1.19-.04 1.78-1.22 1.79-2.42h.56v2.29h1.75v.56h-1.75V111c0 .28 0 1.04.7 1.04.34 0 .72-.29.72-1.1v-.61h.56v.64c0 .88-.54 1.56-1.45 1.56ZM518.88 112.53c-.24 0-.86 0-1.42-.38l-.31.2c-.25.18-.28.18-.36.18-.22 0-.22-.11-.22-.34v-1.31c0-.28 0-.35.29-.35.17 0 .23 0 .29.17.14.52.46 1.39 1.73 1.39.26 0 1.37 0 1.37-.9 0-.71-.9-.86-1.33-.93-.92-.17-1.38-.24-1.86-.66-.24-.2-.48-.53-.48-1.01 0-1.57 1.85-1.57 2.21-1.57.48 0 .9.07 1.21.23.47-.23.49-.23.54-.23.22 0 .22.11.22.33v.96c0 .28 0 .34-.29.34-.25 0-.26-.06-.28-.24-.06-.66-.52-1.01-1.42-1.01-.23 0-1.34 0-1.34.74 0 .56.78.7 1.22.78.94.16 1.32.23 1.79.58.42.34.66.76.66 1.27 0 1.75-1.85 1.75-2.22 1.75Z"/><path class="cls-1" d="M388.72 45.26h-26.04v74.89h26.04"/><path class="cls-3" d="M401.05 156.06c-.52 0-1.65 0-2.11.04v-.56h1.14l-.72-1.75h-3.21l-.6 1.45-.05.14c0 .16 1.07.16 1.07.16v.56c-.45-.04-1.12-.04-1.58-.04l-1.4.04v-.56h.25c.91 0 .95-.1 1.02-.28l2.97-7.22c.08-.22.13-.31.47-.31.2 0 .35 0 .48.31l3.07 7.5h1.16v.56c-.42-.04-1.47-.04-1.96-.04Zm-3.3-6.17-1.37 3.33h2.73l-1.37-3.33ZM406.56 156.17c-1.85 0-2.97-1.14-2.97-2.73 0-1.39.89-2.77 3.03-2.77.7 0 2.09.07 2.09 1.1 0 .5-.38.76-.76.76-.32 0-.74-.23-.74-.76 0-.11.02-.36.24-.55-.16-.04-.36-.07-.78-.07-1.55 0-1.55 1.56-1.55 2.23 0 .55 0 2.31 1.67 2.31.61 0 1.19-.23 1.5-.98.06-.16.07-.18.29-.18.12 0 .29 0 .29.17 0 .08-.36 1.48-2.3 1.48ZM412.69 156.17c-1.85 0-2.97-1.14-2.97-2.73 0-1.39.89-2.77 3.04-2.77.7 0 2.09.07 2.09 1.1 0 .5-.38.76-.76.76-.32 0-.74-.23-.74-.76 0-.11.02-.36.24-.55-.15-.04-.36-.07-.78-.07-1.55 0-1.55 1.56-1.55 2.23 0 .55 0 2.31 1.67 2.31.61 0 1.19-.23 1.5-.98.06-.16.07-.18.29-.18.12 0 .29 0 .29.17 0 .08-.36 1.48-2.3 1.48ZM418.91 156.17c-1.93 0-3.13-1.16-3.13-2.77 0-1.5 1.04-2.73 2.96-2.73.83 0 1.46.22 1.91.65.6.6.67 1.47.67 1.85 0 .32-.12.32-.38.32h-3.62c0 .61.01 2.21 1.7 2.21.78 0 1.46-.38 1.71-.96.07-.19.1-.25.3-.25.06 0 .29 0 .29.22 0 .2-.52 1.48-2.41 1.48Zm-.17-5.07c-.35 0-.83.14-1.14.62-.25.4-.26.9-.29 1.37h2.87c-.01-.42-.04-1.99-1.44-1.99ZM424.48 156.17c-.24 0-.87 0-1.42-.38l-.31.2c-.25.18-.28.18-.36.18-.21 0-.21-.11-.21-.34v-1.31c0-.28 0-.35.29-.35.17 0 .23 0 .29.17.14.52.46 1.39 1.73 1.39.26 0 1.37 0 1.37-.9 0-.71-.9-.86-1.33-.93-.92-.17-1.38-.24-1.86-.66-.24-.2-.48-.53-.48-1.01 0-1.57 1.85-1.57 2.21-1.57.48 0 .9.07 1.21.23.47-.23.49-.23.54-.23.22 0 .22.11.22.33v.96c0 .28 0 .34-.29.34-.25 0-.26-.06-.28-.24-.06-.66-.52-1.01-1.42-1.01-.23 0-1.34 0-1.34.74 0 .56.78.7 1.22.78.94.16 1.32.23 1.79.58.42.34.66.76.66 1.27 0 1.75-1.85 1.75-2.22 1.75ZM429.92 156.17c-.24 0-.87 0-1.42-.38l-.31.2c-.25.18-.28.18-.36.18-.21 0-.21-.11-.21-.34v-1.31c0-.28 0-.35.29-.35.17 0 .23 0 .29.17.14.52.46 1.39 1.73 1.39.26 0 1.37 0 1.37-.9 0-.71-.9-.86-1.33-.93-.92-.17-1.38-.24-1.86-.66-.24-.2-.48-.53-.48-1.01 0-1.57 1.85-1.57 2.21-1.57.48 0 .9.07 1.21.23.47-.23.49-.23.54-.23.22 0 .22.11.22.33v.96c0 .28 0 .34-.29.34-.25 0-.26-.06-.28-.24-.06-.66-.52-1.01-1.42-1.01-.23 0-1.34 0-1.34.74 0 .56.78.7 1.22.78.94.16 1.32.23 1.79.58.42.34.66.76.66 1.27 0 1.75-1.85 1.75-2.22 1.75ZM434.64 156.06l-1.46.04v-.56h.83v-3.71c0-.47-.08-.47-.79-.47v-.56l2.09-.1v4.83h.74v.56l-1.4-.04Zm-.11-6.3a.939.939 0 1 1 0-1.88.939.939 0 1 1 0 1.88ZM440.62 156.17c-1.07 0-1.66-.65-1.75-.74-.19.23-.39.44-.59.67h-.56v-7.2c0-.47-.08-.47-.83-.47v-.56l2.12-.1v3.51c.29-.24.89-.59 1.76-.59 1.74 0 2.87 1.13 2.87 2.72s-1.23 2.75-3.02 2.75Zm.02-5.03c-.66 0-1.24.35-1.56.77v3.01c.12.18.59.83 1.43.83.38 0 .94-.13 1.28-.62.31-.47.31-1.13.31-1.69 0-.84 0-2.29-1.46-2.29ZM446.14 156.06l-1.46.04v-.56h.83v-3.71c0-.47-.08-.47-.79-.47v-.56l2.09-.1v4.83h.74v.56l-1.4-.04Zm-.11-6.3a.939.939 0 1 1 0-1.88.939.939 0 1 1 0 1.88ZM449.97 156.06l-1.47.04v-.56h.83v-6.63c0-.47-.08-.47-.83-.47v-.56l2.12-.1v7.76h.83v.56l-1.47-.04ZM453.79 156.06l-1.46.04v-.56h.83v-3.71c0-.47-.08-.47-.79-.47v-.56l2.09-.1v4.83h.74v.56l-1.4-.04Zm-.11-6.3a.939.939 0 1 1 0-1.88.939.939 0 1 1 0 1.88ZM458.72 156.17c-.85 0-1.89-.26-1.89-1.55v-3.29h-.98v-.43c1.19-.04 1.78-1.22 1.79-2.42h.56v2.29h1.75v.56h-1.75v3.31c0 .28 0 1.04.7 1.04.34 0 .72-.29.72-1.1v-.61h.56v.64c0 .88-.54 1.56-1.45 1.56ZM466.64 151.59l-2.58 5.48c-.32.68-1.02 1.43-1.94 1.43-.72 0-1.28-.49-1.28-1.1 0-.47.35-.7.68-.7.41 0 .7.29.7.68 0 .42-.28.59-.38.64.1.04.12.05.29.05.85 0 1.23-.82 1.5-1.39l.28-.58-2.24-4.76h-.77v-.56l1.37.04 1.49-.04v.56h-.65l1.52 3.24 1.38-2.95.06-.14c0-.14-.56-.14-.56-.14v-.56l1.09.04c.3 0 .66-.01.95-.04v.56c-.77 0-.8.08-.89.25ZM476.62 156.17c-1.07 0-1.65-.65-1.75-.74-.19.23-.4.44-.59.67h-.56v-7.2c0-.47-.08-.47-.83-.47v-.56l2.12-.1v3.51c.29-.24.89-.59 1.76-.59 1.74 0 2.87 1.13 2.87 2.72s-1.24 2.75-3.02 2.75Zm.03-5.03c-.66 0-1.23.35-1.56.77v3.01c.12.18.59.83 1.43.83.38 0 .94-.13 1.28-.62.31-.47.31-1.13.31-1.69 0-.84 0-2.29-1.46-2.29ZM485.8 151.59l-2.58 5.48c-.32.68-1.02 1.43-1.94 1.43-.72 0-1.28-.49-1.28-1.1 0-.47.35-.7.68-.7.41 0 .7.29.7.68 0 .42-.28.59-.38.64.1.04.12.05.29.05.85 0 1.23-.82 1.5-1.39l.28-.58-2.24-4.76h-.77v-.56l1.37.04 1.49-.04v.56h-.65l1.52 3.24 1.38-2.95.06-.14c0-.14-.56-.14-.56-.14v-.56l1.09.04c.3 0 .66-.01.95-.04v.56c-.77 0-.8.08-.89.25ZM495.04 156.17c-1.85 0-2.97-1.14-2.97-2.73 0-1.39.89-2.77 3.03-2.77.7 0 2.09.07 2.09 1.1 0 .5-.38.76-.76.76-.32 0-.74-.23-.74-.76 0-.11.02-.36.24-.55-.16-.04-.36-.07-.78-.07-1.55 0-1.55 1.56-1.55 2.23 0 .55 0 2.31 1.67 2.31.61 0 1.19-.23 1.5-.98.06-.16.07-.18.29-.18.12 0 .29 0 .29.17 0 .08-.36 1.48-2.3 1.48ZM504.06 156.1h-.58c-1.25 0-1.25-.55-1.25-.92-.26.5-.83 1-1.79 1-.83 0-2.31-.22-2.31-1.37 0-1.74 3.05-1.85 3.9-1.88v-.41c0-.91-.42-1.42-1.32-1.42-.14 0-.53.01-.86.08.04.02.26.23.26.59 0 .5-.38.76-.75.76-.32 0-.74-.23-.74-.76 0-1.05 1.46-1.1 2.15-1.1 1.79 0 2.64.78 2.64 1.85v2.58c0 .28 0 .43.73.44.15 0 .31 0 .31.28s-.14.29-.38.29Zm-2.03-2.81c-.6.04-2.49.2-2.49 1.5 0 .53.48.95 1.09.95.3 0 1.4-.16 1.4-1.31v-1.14ZM509.03 152.42c-.35 0-.73-.24-.73-.73 0-.35.23-.55.23-.55-1.2 0-1.5 1.46-1.5 2.3v2.1h1.04v.56c-.43-.04-1.2-.04-1.66-.04l-1.51.04v-.56h.83v-3.71c0-.47-.08-.47-.83-.47v-.56l1.99-.1v1.36c.28-.76.76-1.36 1.59-1.36.62 0 1.27.35 1.27.98 0 .48-.38.73-.73.73ZM401.82 173.4c-.52 0-1.66 0-2.11.04v-.56h1.14l-.72-1.75h-3.21l-.6 1.45-.05.14c0 .16 1.07.16 1.07.16v.56c-.44-.04-1.12-.04-1.58-.04l-1.4.04v-.56h.25c.91 0 .95-.1 1.02-.28l2.97-7.22c.08-.22.13-.31.47-.31.2 0 .35 0 .48.31l3.07 7.5h1.16v.56c-.42-.04-1.48-.04-1.96-.04Zm-3.3-6.18-1.37 3.33h2.73l-1.37-3.33ZM407.33 173.51c-1.85 0-2.97-1.14-2.97-2.73 0-1.39.89-2.77 3.03-2.77.7 0 2.09.07 2.09 1.1 0 .5-.38.76-.76.76-.32 0-.74-.23-.74-.76 0-.11.02-.36.24-.55-.16-.04-.36-.07-.78-.07-1.55 0-1.55 1.56-1.55 2.23 0 .55 0 2.31 1.67 2.31.61 0 1.19-.23 1.5-.98.06-.16.07-.18.29-.18.12 0 .29 0 .29.17 0 .08-.36 1.48-2.3 1.48ZM413.46 173.51c-1.85 0-2.97-1.14-2.97-2.73 0-1.39.89-2.77 3.03-2.77.7 0 2.09.07 2.09 1.1 0 .5-.38.76-.76.76-.32 0-.74-.23-.74-.76 0-.11.02-.36.24-.55-.16-.04-.36-.07-.78-.07-1.55 0-1.55 1.56-1.55 2.23 0 .55 0 2.31 1.67 2.31.61 0 1.19-.23 1.5-.98.06-.16.07-.18.29-.18.12 0 .29 0 .29.17 0 .08-.36 1.48-2.3 1.48ZM419.67 173.51c-1.93 0-3.13-1.16-3.13-2.77 0-1.5 1.04-2.73 2.96-2.73.83 0 1.46.22 1.91.65.6.6.67 1.47.67 1.85 0 .32-.12.32-.38.32h-3.62c0 .61.01 2.21 1.7 2.21.78 0 1.46-.38 1.71-.96.07-.19.1-.25.3-.25.06 0 .29 0 .29.22 0 .2-.52 1.48-2.41 1.48Zm-.16-5.08c-.35 0-.83.14-1.14.62-.25.4-.26.9-.29 1.37h2.87c-.01-.42-.04-1.99-1.44-1.99ZM425.24 173.51c-.24 0-.86 0-1.42-.38l-.31.2c-.25.18-.28.18-.36.18-.22 0-.22-.11-.22-.34v-1.31c0-.28 0-.35.29-.35.17 0 .23 0 .29.17.14.52.46 1.39 1.73 1.39.26 0 1.37 0 1.37-.9 0-.71-.9-.86-1.33-.93-.92-.17-1.38-.24-1.86-.66-.24-.2-.48-.53-.48-1.01 0-1.57 1.85-1.57 2.21-1.57.48 0 .9.07 1.21.23.47-.23.49-.23.54-.23.22 0 .22.11.22.33v.96c0 .28 0 .34-.29.34-.25 0-.26-.06-.28-.24-.06-.66-.52-1.01-1.42-1.01-.23 0-1.34 0-1.34.74 0 .56.78.7 1.22.78.94.16 1.32.23 1.79.58.42.34.66.76.66 1.27 0 1.75-1.85 1.75-2.22 1.75ZM430.69 173.51c-.24 0-.86 0-1.42-.38l-.31.2c-.25.18-.28.18-.36.18-.22 0-.22-.11-.22-.34v-1.31c0-.28 0-.35.29-.35.17 0 .23 0 .29.17.14.52.46 1.39 1.73 1.39.26 0 1.37 0 1.37-.9 0-.71-.9-.86-1.33-.93-.92-.17-1.38-.24-1.86-.66-.24-.2-.48-.53-.48-1.01 0-1.57 1.85-1.57 2.21-1.57.48 0 .9.07 1.21.23.47-.23.49-.23.54-.23.22 0 .22.11.22.33v.96c0 .28 0 .34-.29.34-.25 0-.26-.06-.28-.24-.06-.66-.52-1.01-1.42-1.01-.23 0-1.34 0-1.34.74 0 .56.78.7 1.22.78.94.16 1.32.23 1.79.58.42.34.66.76.66 1.27 0 1.75-1.85 1.75-2.22 1.75ZM435.41 173.4l-1.46.04v-.56h.83v-3.71c0-.47-.08-.47-.79-.47v-.56l2.09-.1v4.83h.74v.56l-1.4-.04Zm-.11-6.31a.939.939 0 1 1 0-1.88.939.939 0 1 1 0 1.88ZM441.38 173.51c-1.07 0-1.66-.65-1.75-.74-.19.23-.4.44-.59.67h-.56v-7.2c0-.47-.08-.47-.83-.47v-.56l2.12-.1v3.51c.29-.24.89-.59 1.76-.59 1.74 0 2.87 1.13 2.87 2.72s-1.24 2.75-3.02 2.75Zm.03-5.04c-.66 0-1.24.35-1.56.77v3.01c.12.18.59.83 1.43.83.38 0 .94-.13 1.28-.62.31-.47.31-1.13.31-1.69 0-.84 0-2.29-1.46-2.29ZM446.9 173.4l-1.46.04v-.56h.83v-3.71c0-.47-.08-.47-.79-.47v-.56l2.09-.1v4.83h.74v.56l-1.4-.04Zm-.11-6.31a.939.939 0 1 1 0-1.88.939.939 0 1 1 0 1.88ZM450.74 173.4l-1.48.04v-.56h.83v-6.63c0-.47-.08-.47-.83-.47v-.56l2.12-.1v7.76h.83v.56l-1.47-.04ZM454.56 173.4l-1.46.04v-.56h.83v-3.71c0-.47-.08-.47-.79-.47v-.56l2.09-.1v4.83h.74v.56l-1.4-.04Zm-.11-6.31a.939.939 0 1 1 0-1.88.939.939 0 1 1 0 1.88ZM459.49 173.51c-.85 0-1.89-.26-1.89-1.55v-3.29h-.98v-.43c1.19-.04 1.78-1.22 1.79-2.42h.56v2.29h1.75v.56h-1.75v3.31c0 .28 0 1.04.7 1.04.34 0 .72-.29.72-1.1v-.61h.56v.64c0 .88-.54 1.56-1.45 1.56ZM467.41 168.92l-2.58 5.48c-.32.68-1.02 1.43-1.94 1.43-.72 0-1.28-.49-1.28-1.1 0-.47.35-.7.68-.7.41 0 .7.29.7.68 0 .42-.28.59-.38.64.1.04.12.05.29.05.85 0 1.24-.82 1.5-1.39l.28-.58-2.24-4.76h-.77v-.56l1.37.04 1.49-.04v.56h-.65l1.52 3.24 1.38-2.95.06-.14c0-.14-.56-.14-.56-.14v-.56l1.09.04c.3 0 .66-.01.95-.04v.56c-.77 0-.8.08-.89.25ZM477.39 173.51c-1.07 0-1.66-.65-1.75-.74-.19.23-.4.44-.59.67h-.56v-7.2c0-.47-.08-.47-.83-.47v-.56l2.12-.1v3.51c.29-.24.89-.59 1.76-.59 1.74 0 2.87 1.13 2.87 2.72s-1.24 2.75-3.02 2.75Zm.03-5.04c-.66 0-1.24.35-1.56.77v3.01c.12.18.59.83 1.43.83.38 0 .94-.13 1.28-.62.31-.47.31-1.13.31-1.69 0-.84 0-2.29-1.46-2.29ZM486.57 168.92l-2.58 5.48c-.32.68-1.02 1.43-1.94 1.43-.72 0-1.28-.49-1.28-1.1 0-.47.35-.7.68-.7.41 0 .7.29.7.68 0 .42-.28.59-.38.64.1.04.12.05.29.05.85 0 1.24-.82 1.5-1.39l.28-.58-2.24-4.76h-.77v-.56l1.37.04 1.49-.04v.56h-.65l1.52 3.24 1.38-2.95.06-.14c0-.14-.56-.14-.56-.14v-.56l1.09.04c.3 0 .66-.01.95-.04v.56c-.77 0-.8.08-.89.25ZM496.88 166.82c-.31 0-.73-.23-.73-.74 0-.23.1-.46.28-.59-.08-.02-.14-.02-.2-.02-.3 0-1.21.11-1.21 1.43v1.21h1.45v.56h-1.38v4.2h1.04v.56c-.43-.04-1.2-.04-1.66-.04l-1.51.04v-.56h.83v-4.2h-.9v-.56h.9v-1.21c0-1.36 1.29-1.86 2.47-1.86.94 0 1.37.54 1.37 1.04s-.38.74-.74.74ZM500.04 173.51c-2 0-3.06-1.2-3.06-2.69 0-1.6 1.09-2.82 3.06-2.82s3.06 1.21 3.06 2.82c0 1.47-1.04 2.69-3.06 2.69Zm1.27-4.47c-.26-.42-.77-.61-1.27-.61-.59 0-1.09.25-1.32.7-.2.41-.2 1.02-.2 1.56 0 1.04 0 2.34 1.52 2.34s1.52-1.29 1.52-2.34c0-.58 0-1.24-.25-1.64ZM507.32 173.51c-2 0-3.06-1.2-3.06-2.69 0-1.6 1.09-2.82 3.06-2.82s3.06 1.21 3.06 2.82c0 1.47-1.04 2.69-3.06 2.69Zm1.27-4.47c-.26-.42-.77-.61-1.27-.61-.59 0-1.09.25-1.32.7-.2.41-.2 1.02-.2 1.56 0 1.04 0 2.34 1.52 2.34s1.52-1.29 1.52-2.34c0-.58 0-1.24-.25-1.64ZM513.91 173.51c-.85 0-1.89-.26-1.89-1.55v-3.29h-.98v-.43c1.19-.04 1.78-1.22 1.79-2.42h.56v2.29h1.75v.56h-1.75v3.31c0 .28 0 1.04.7 1.04.34 0 .72-.29.72-1.1v-.61h.56v.64c0 .88-.54 1.56-1.45 1.56ZM403.72 182.72c-.88 0-.92.11-1 .26l-3.19 7.21c-.13.29-.29.29-.48.29-.34 0-.38-.1-.48-.31l-3.31-7.45h-1.1v-.56c.42.04 1.43.04 1.9.04.52 0 1.67 0 2.12-.04v.56h-1.13l2.55 5.75 2.42-5.46s.05-.1.05-.14c0-.14-.95-.14-1.06-.14v-.56c.47.04 1.09.04 1.57.04l1.36-.04v.56h-.23ZM406.31 190.35l-1.46.04v-.56h.83v-3.71c0-.47-.08-.47-.79-.47v-.56l2.09-.1v4.83h.74v.56l-1.4-.04Zm-.11-6.31a.939.939 0 1 1 0-1.88.939.939 0 1 1 0 1.88ZM410.87 190.46c-.24 0-.86 0-1.42-.38l-.31.2c-.25.18-.28.18-.36.18-.22 0-.22-.11-.22-.34v-1.31c0-.28 0-.35.29-.35.17 0 .23 0 .29.17.14.52.46 1.39 1.73 1.39.26 0 1.37 0 1.37-.9 0-.71-.9-.86-1.33-.93-.92-.17-1.38-.24-1.86-.66-.24-.2-.48-.53-.48-1.01 0-1.57 1.85-1.57 2.21-1.57.48 0 .9.07 1.21.23.47-.23.49-.23.54-.23.22 0 .22.11.22.33v.96c0 .28 0 .34-.29.34-.25 0-.26-.06-.28-.24-.06-.66-.52-1.01-1.42-1.01-.23 0-1.34 0-1.34.74 0 .56.78.7 1.22.78.94.16 1.32.23 1.79.58.42.34.66.76.66 1.27 0 1.75-1.85 1.75-2.22 1.75ZM415.58 190.35l-1.46.04v-.56h.83v-3.71c0-.47-.08-.47-.79-.47v-.56l2.09-.1v4.83h.74v.56l-1.4-.04Zm-.1-6.31a.939.939 0 1 1 0-1.88.939.939 0 1 1 0 1.88ZM421.56 190.46c-1.07 0-1.66-.65-1.75-.74-.19.23-.4.44-.59.67h-.56v-7.2c0-.47-.08-.47-.83-.47v-.56l2.12-.1v3.51c.29-.24.89-.59 1.76-.59 1.74 0 2.87 1.13 2.87 2.72s-1.24 2.75-3.02 2.75Zm.02-5.04c-.66 0-1.24.35-1.56.77v3.01c.12.18.59.83 1.43.83.38 0 .94-.13 1.28-.62.31-.47.31-1.13.31-1.69 0-.84 0-2.29-1.46-2.29ZM427.08 190.35l-1.46.04v-.56h.83v-3.71c0-.47-.08-.47-.79-.47v-.56l2.09-.1v4.83h.74v.56l-1.4-.04Zm-.11-6.31a.939.939 0 1 1 0-1.88.939.939 0 1 1 0 1.88ZM430.92 190.35l-1.48.04v-.56h.83v-6.63c0-.47-.08-.47-.83-.47v-.56l2.12-.1v7.76h.83v.56l-1.47-.04ZM434.73 190.35l-1.46.04v-.56h.83v-3.71c0-.47-.08-.47-.79-.47v-.56l2.09-.1v4.83h.74v.56l-1.4-.04Zm-.1-6.31a.939.939 0 1 1 0-1.88.939.939 0 1 1 0 1.88ZM439.67 190.46c-.85 0-1.89-.26-1.89-1.55v-3.29h-.98v-.43c1.19-.04 1.78-1.22 1.79-2.42h.56v2.29h1.75v.56h-1.75v3.31c0 .28 0 1.04.7 1.04.34 0 .72-.29.72-1.1v-.61h.56v.64c0 .88-.54 1.56-1.45 1.56ZM447.58 185.88l-2.58 5.48c-.32.68-1.02 1.43-1.94 1.43-.72 0-1.28-.49-1.28-1.1 0-.47.35-.7.68-.7.41 0 .7.29.7.68 0 .42-.28.59-.38.64.1.04.12.05.29.05.85 0 1.24-.82 1.5-1.39l.28-.58-2.24-4.76h-.77v-.56l1.37.04 1.49-.04v.56h-.65l1.52 3.24 1.38-2.95.06-.14c0-.14-.56-.14-.56-.14v-.56l1.09.04c.3 0 .66-.01.95-.04v.56c-.77 0-.8.08-.89.25ZM403.72 199.49c-.88 0-.92.11-1 .26l-3.19 7.21c-.13.29-.29.29-.48.29-.34 0-.38-.1-.48-.31l-3.31-7.45h-1.1v-.56c.42.04 1.43.04 1.9.04.52 0 1.67 0 2.12-.04v.56h-1.13l2.55 5.75 2.42-5.46s.05-.1.05-.14c0-.14-.95-.14-1.06-.14v-.56c.47.04 1.09.04 1.57.04l1.36-.04v.56h-.23ZM406.57 207.23c-2 0-3.06-1.2-3.06-2.69 0-1.6 1.09-2.82 3.06-2.82s3.06 1.21 3.06 2.82c0 1.47-1.04 2.69-3.06 2.69Zm1.27-4.46c-.26-.42-.77-.61-1.27-.61-.59 0-1.09.25-1.32.7-.2.41-.2 1.02-.2 1.56 0 1.04 0 2.34 1.52 2.34s1.52-1.29 1.52-2.34c0-.58 0-1.24-.25-1.64ZM412.07 207.12l-1.48.04v-.56h.83v-6.63c0-.47-.08-.47-.83-.47v-.56l2.12-.1v7.76h.83v.56l-1.47-.04ZM419.11 207.23v-.94c-.55.94-1.42.94-1.73.94-1.19 0-2.16-.26-2.16-1.55v-2.79c0-.47-.08-.47-.83-.47v-.56l2.19-.1v4.09c0 .65.04.95.96.95.88 0 1.49-.64 1.49-1.62v-2.29c0-.47-.08-.47-.83-.47v-.56l2.2-.1v4.37c0 .47.08.47.83.47v.56l-2.12.07ZM431.23 207.12l-1.51.04v-.56h.83v-3.24c0-.92-.26-1.16-.67-1.16-.74 0-1.79.59-1.79 1.89v2.51h.83v.56l-1.51-.04-1.51.04v-.56h.83v-3.24c0-.92-.26-1.16-.67-1.16-.74 0-1.79.59-1.79 1.89v2.51h.83v.56l-1.51-.04-1.51.04v-.56h.83v-3.71c0-.47-.08-.47-.83-.47v-.56l2.06-.1v1.3c.38-.76 1.07-1.3 2.11-1.3.46 0 1.56.04 1.8 1.15.31-.55.94-1.15 2.03-1.15 1.24 0 1.85.49 1.85 1.73v3.11h.83v.56l-1.51-.04ZM436.54 207.23c-1.93 0-3.13-1.16-3.13-2.77 0-1.5 1.04-2.73 2.96-2.73.83 0 1.46.22 1.91.65.6.6.67 1.47.67 1.85 0 .32-.12.32-.38.32h-3.62c0 .61.01 2.21 1.7 2.21.78 0 1.46-.38 1.71-.96.07-.19.1-.25.3-.25.06 0 .29 0 .29.22 0 .2-.52 1.48-2.41 1.48Zm-.17-5.08c-.35 0-.83.14-1.14.62-.25.4-.26.9-.29 1.37h2.87c-.01-.42-.04-1.99-1.44-1.99ZM447.38 207.23c-2 0-3.06-1.2-3.06-2.69 0-1.6 1.09-2.82 3.06-2.82s3.06 1.21 3.06 2.82c0 1.47-1.04 2.69-3.06 2.69Zm1.27-4.46c-.26-.42-.77-.61-1.27-.61-.59 0-1.09.25-1.32.7-.2.41-.2 1.02-.2 1.56 0 1.04 0 2.34 1.52 2.34s1.52-1.29 1.52-2.34c0-.58 0-1.24-.25-1.64ZM455.34 200.55c-.31 0-.73-.23-.73-.74 0-.23.1-.46.28-.59-.08-.02-.14-.02-.2-.02-.3 0-1.21.11-1.21 1.43v1.21h1.45v.56h-1.38v4.2h1.04v.56c-.43-.04-1.2-.04-1.66-.04l-1.51.04v-.56h.83v-4.2h-.9v-.56h.9v-1.21c0-1.36 1.29-1.86 2.47-1.86.94 0 1.37.54 1.37 1.04s-.38.74-.74.74ZM463.82 207.23c-.49 0-1.02-.12-1.54-.54v2.23h.83v.56l-1.51-.04-1.51.04v-.56h.83v-6.04c0-.46-.08-.46-.83-.46v-.56l2.12-.1v.59c.28-.22.91-.59 1.81-.59 1.73 0 2.82 1.13 2.82 2.72s-1.22 2.75-3.02 2.75Zm.01-4.99c-.26 0-.89.07-1.37.56-.17.17-.18.18-.18.41v2.54c0 .23 0 .24.13.4.54.65 1.1.65 1.27.65.78 0 1.62-.62 1.62-2.32 0-1.51-.67-2.24-1.48-2.24ZM473.62 207.16h-.58c-1.25 0-1.25-.55-1.25-.92-.26.5-.83 1-1.79 1-.83 0-2.31-.22-2.31-1.37 0-1.74 3.05-1.85 3.9-1.88v-.41c0-.91-.42-1.42-1.32-1.42-.14 0-.53.01-.86.08.04.02.26.23.26.59 0 .5-.38.76-.75.76-.32 0-.74-.23-.74-.76 0-1.05 1.46-1.1 2.15-1.1 1.79 0 2.64.78 2.64 1.85v2.58c0 .28 0 .43.73.44.16 0 .31 0 .31.28s-.14.29-.38.29Zm-2.02-2.81c-.6.04-2.49.2-2.49 1.5 0 .53.48.95 1.09.95.3 0 1.4-.16 1.4-1.31v-1.14ZM476.78 207.23c-.24 0-.86 0-1.42-.38l-.31.2c-.25.18-.28.18-.36.18-.22 0-.22-.11-.22-.34v-1.31c0-.28 0-.35.29-.35.17 0 .23 0 .29.17.14.52.46 1.39 1.73 1.39.26 0 1.37 0 1.37-.9 0-.71-.9-.86-1.33-.93-.92-.17-1.38-.24-1.86-.66-.24-.2-.48-.53-.48-1.01 0-1.57 1.85-1.57 2.21-1.57.48 0 .9.07 1.21.23.47-.23.49-.23.54-.23.22 0 .22.11.22.33v.96c0 .28 0 .34-.29.34-.25 0-.26-.06-.28-.24-.06-.66-.52-1.01-1.42-1.01-.23 0-1.34 0-1.34.74 0 .56.78.7 1.22.78.94.16 1.32.23 1.79.58.42.34.66.76.66 1.27 0 1.75-1.85 1.75-2.22 1.75ZM482.23 207.23c-.24 0-.86 0-1.42-.38l-.31.2c-.25.18-.28.18-.36.18-.22 0-.22-.11-.22-.34v-1.31c0-.28 0-.35.29-.35.17 0 .23 0 .29.17.14.52.46 1.39 1.73 1.39.26 0 1.37 0 1.37-.9 0-.71-.9-.86-1.33-.93-.92-.17-1.38-.24-1.86-.66-.24-.2-.48-.53-.48-1.01 0-1.57 1.85-1.57 2.21-1.57.48 0 .9.07 1.21.23.47-.23.49-.23.54-.23.22 0 .22.11.22.33v.96c0 .28 0 .34-.29.34-.25 0-.26-.06-.28-.24-.06-.66-.52-1.01-1.42-1.01-.23 0-1.34 0-1.34.74 0 .56.78.7 1.22.78.94.16 1.32.23 1.79.58.42.34.66.76.66 1.27 0 1.75-1.85 1.75-2.22 1.75ZM486.95 207.12l-1.46.04v-.56h.83v-3.71c0-.47-.08-.47-.79-.47v-.56l2.09-.1v4.83h.74v.56l-1.4-.04Zm-.11-6.31a.939.939 0 1 1 0-1.88.939.939 0 1 1 0 1.88ZM494.61 207.12l-1.51.04v-.56h.83v-3.24c0-.91-.25-1.16-.66-1.16-.76 0-1.79.59-1.79 1.89v2.51h.83v.56l-1.51-.04-1.51.04v-.56h.83v-3.71c0-.47-.08-.47-.83-.47v-.56l2.06-.1v1.3c.31-.61.95-1.3 2.1-1.3s1.85.47 1.85 1.73v3.11h.83v.56l-1.51-.04ZM502.59 202.91c-.31 0-.52-.22-.52-.52 0-.07.02-.18.05-.24-.13.01-.38.04-.74.23.18.19.48.59.48 1.15 0 .84-.66 1.78-2.39 1.78-.3 0-.91-.02-1.46-.31-.07.1-.12.28-.12.4 0 .22.13.67.66.75.06.01.61.01.92.01 1.15 0 1.87 0 2.54.34.8.41.9 1.16.9 1.52 0 .84-.93 1.55-3.06 1.55-2.4 0-3.06-.9-3.06-1.51 0-.76.88-1.01 1.03-1.04-.48-.38-.53-.97-.53-1.15 0-.25.07-.65.41-1.07-.38-.28-.62-.77-.62-1.26 0-.84.66-1.78 2.39-1.78.89 0 1.39.25 1.61.4.53-.42 1.09-.46 1.27-.46.55 0 .76.42.76.7s-.2.52-.52.52Zm-2.43 4.4h-1.4c-.17 0-.92 0-.92.72 0 .55.59 1.1 2.03 1.1 1.56 0 2.03-.65 2.03-1.08 0-.74-1.36-.74-1.73-.74Zm-.69-5.12c-1.06 0-1.06.8-1.06 1.34s0 1.34 1.06 1.34 1.05-.8 1.05-1.34 0-1.34-1.05-1.34ZM511.04 207.23c-.85 0-1.89-.26-1.89-1.55v-3.29h-.98v-.43c1.19-.04 1.78-1.22 1.79-2.42h.56v2.29h1.75v.56h-1.75v3.31c0 .28 0 1.04.7 1.04.34 0 .72-.29.72-1.1v-.61h.56v.64c0 .88-.54 1.56-1.45 1.56ZM517.85 203.47c-.35 0-.73-.24-.73-.73 0-.35.23-.55.23-.55-1.2 0-1.5 1.46-1.5 2.3v2.1h1.04v.56c-.43-.04-1.2-.04-1.66-.04l-1.51.04v-.56h.83v-3.71c0-.47-.08-.47-.83-.47v-.56l1.99-.1v1.36c.28-.76.76-1.36 1.59-1.36.62 0 1.27.35 1.27.98 0 .48-.38.73-.73.73ZM525.27 207.16h-.58c-1.25 0-1.25-.55-1.25-.92-.26.5-.83 1-1.79 1-.83 0-2.31-.22-2.31-1.37 0-1.74 3.05-1.85 3.9-1.88v-.41c0-.91-.42-1.42-1.32-1.42-.14 0-.53.01-.86.08.04.02.26.23.26.59 0 .5-.38.76-.75.76-.32 0-.74-.23-.74-.76 0-1.05 1.46-1.1 2.15-1.1 1.79 0 2.64.78 2.64 1.85v2.58c0 .28 0 .43.73.44.16 0 .31 0 .31.28s-.14.29-.38.29Zm-2.02-2.81c-.6.04-2.49.2-2.49 1.5 0 .53.48.95 1.09.95.3 0 1.4-.16 1.4-1.31v-1.14ZM530.69 207.23v-.59c-.37.3-.95.59-1.68.59-1.77 0-2.88-1.14-2.88-2.72 0-1.69 1.26-2.75 3.01-2.75.4 0 1.02.07 1.62.54v-2.34c0-.47-.08-.47-.83-.47v-.56l2.12-.1v7.29c0 .47.08.47.83.47v.56l-2.19.07Zm0-4.31c-.26-.35-.74-.73-1.43-.73-.37 0-.94.12-1.28.62-.31.47-.31 1.12-.31 1.69 0 .84 0 2.29 1.46 2.29.91 0 1.4-.66 1.56-.88v-3ZM536.85 207.23c-1.93 0-3.13-1.16-3.13-2.77 0-1.5 1.04-2.73 2.96-2.73.83 0 1.46.22 1.91.65.6.6.67 1.47.67 1.85 0 .32-.12.32-.38.32h-3.62c0 .61.01 2.21 1.7 2.21.78 0 1.46-.38 1.71-.96.07-.19.1-.25.3-.25.06 0 .29 0 .29.22 0 .2-.52 1.48-2.41 1.48Zm-.16-5.08c-.35 0-.83.14-1.14.62-.25.4-.26.9-.29 1.37h2.87c-.01-.42-.04-1.99-1.44-1.99Z"/><path class="cls-1" d="M388.72 139.96h-26.04v74.88h26.04"/><path class="cls-3" d="M398.67 243.15h-2.12v3.06h1.3v.56c-.46-.04-1.63-.04-2.15-.04s-1.69 0-2.15.04v-.56h1.29v-7.1h-1.29v-.56h5c1.99 0 3.18 1.02 3.18 2.34 0 1.4-1.39 2.27-3.06 2.27Zm-.57-4.04h-1.62v3.55h1.61c1.81 0 1.81-.92 1.81-1.78s0-1.78-1.8-1.78ZM405.58 246.85c-2 0-3.06-1.2-3.06-2.69 0-1.6 1.09-2.82 3.06-2.82s3.06 1.21 3.06 2.82c0 1.47-1.04 2.69-3.06 2.69Zm1.27-4.47c-.27-.42-.77-.61-1.27-.61-.59 0-1.09.25-1.32.7-.2.41-.2 1.02-.2 1.56 0 1.04 0 2.34 1.52 2.34s1.52-1.29 1.52-2.34c0-.58 0-1.24-.25-1.64ZM412.16 246.85c-.85 0-1.89-.27-1.89-1.55v-3.29h-.98v-.43c1.19-.04 1.78-1.22 1.79-2.42h.56v2.29h1.75v.56h-1.75v3.31c0 .28 0 1.04.7 1.04.34 0 .72-.29.72-1.1v-.61h.56v.63c0 .88-.54 1.56-1.45 1.56ZM417.91 246.85c-1.93 0-3.13-1.16-3.13-2.77 0-1.5 1.04-2.73 2.96-2.73.83 0 1.46.22 1.91.65.6.6.67 1.47.67 1.85 0 .32-.12.32-.38.32h-3.62c0 .61.01 2.21 1.7 2.21.78 0 1.46-.38 1.71-.96.07-.19.1-.25.3-.25.06 0 .29 0 .29.21s-.52 1.48-2.41 1.48Zm-.17-5.08c-.35 0-.83.14-1.14.62-.25.4-.26.9-.29 1.37h2.87c-.01-.42-.04-1.99-1.44-1.99ZM426.59 246.74l-1.51.04v-.56h.83v-3.24c0-.91-.25-1.16-.66-1.16-.76 0-1.79.59-1.79 1.89v2.51h.83v.56l-1.51-.04-1.51.04v-.56h.83v-3.71c0-.47-.08-.47-.83-.47v-.56l2.06-.1v1.3c.31-.61.95-1.3 2.1-1.3s1.85.47 1.85 1.73v3.11h.83v.56l-1.51-.04ZM431.13 246.85c-.85 0-1.89-.27-1.89-1.55v-3.29h-.98v-.43c1.19-.04 1.78-1.22 1.79-2.42h.56v2.29h1.75v.56h-1.75v3.31c0 .28 0 1.04.7 1.04.34 0 .72-.29.72-1.1v-.61h.56v.63c0 .88-.54 1.56-1.45 1.56ZM435.4 246.74l-1.46.04v-.56h.83v-3.71c0-.47-.08-.47-.79-.47v-.56l2.09-.1v4.83h.74v.56l-1.4-.04Zm-.11-6.31a.939.939 0 1 1 0-1.88.939.939 0 1 1 0 1.88ZM443.51 246.77h-.58c-1.25 0-1.25-.55-1.25-.92-.26.5-.83 1-1.79 1-.83 0-2.31-.22-2.31-1.37 0-1.74 3.05-1.85 3.9-1.88v-.41c0-.91-.42-1.42-1.32-1.42-.14 0-.53.01-.86.08.04.02.26.23.26.59 0 .5-.38.76-.75.76-.32 0-.74-.23-.74-.76 0-1.05 1.46-1.1 2.15-1.1 1.79 0 2.64.78 2.64 1.85v2.58c0 .28 0 .43.73.44.15 0 .31 0 .31.28 0 .29-.14.29-.38.29Zm-2.03-2.8c-.6.04-2.49.2-2.49 1.5 0 .53.48.95 1.09.95.3 0 1.4-.16 1.4-1.31v-1.14ZM445.94 246.74l-1.47.04v-.56h.83v-6.63c0-.47-.08-.47-.83-.47v-.56l2.12-.1v7.76h.83v.56l-1.47-.04ZM462.03 246.74l-1.51.04v-.56h.83v-3.24c0-.92-.26-1.16-.67-1.16-.74 0-1.79.59-1.79 1.89v2.51h.83v.56l-1.51-.04-1.51.04v-.56h.83v-3.24c0-.92-.26-1.16-.67-1.16-.74 0-1.79.59-1.79 1.89v2.51h.83v.56l-1.51-.04-1.51.04v-.56h.83v-3.71c0-.47-.08-.47-.83-.47v-.56l2.06-.1v1.3c.38-.76 1.07-1.3 2.11-1.3.46 0 1.56.04 1.8 1.15.31-.55.94-1.15 2.03-1.15 1.24 0 1.85.49 1.85 1.73v3.11h.83v.56l-1.51-.04ZM470.13 246.77h-.58c-1.25 0-1.25-.55-1.25-.92-.26.5-.83 1-1.79 1-.83 0-2.31-.22-2.31-1.37 0-1.74 3.04-1.85 3.9-1.88v-.41c0-.91-.42-1.42-1.32-1.42-.14 0-.53.01-.86.08.04.02.26.23.26.59 0 .5-.38.76-.76.76-.32 0-.74-.23-.74-.76 0-1.05 1.46-1.1 2.15-1.1 1.79 0 2.64.78 2.64 1.85v2.58c0 .28 0 .43.73.44.16 0 .31 0 .31.28 0 .29-.14.29-.38.29Zm-2.02-2.8c-.6.04-2.49.2-2.49 1.5 0 .53.48.95 1.09.95.3 0 1.4-.16 1.4-1.31v-1.14ZM475.1 243.09c-.35 0-.73-.24-.73-.73 0-.35.23-.55.23-.55-1.2 0-1.5 1.46-1.5 2.3v2.1h1.04v.56c-.43-.04-1.2-.04-1.65-.04l-1.51.04v-.56h.83v-3.71c0-.47-.08-.47-.83-.47v-.56l1.99-.1v1.36c.28-.76.76-1.36 1.6-1.36.62 0 1.27.35 1.27.98 0 .48-.38.73-.73.73ZM482.01 246.74c-.06 0-1.1.01-1.46.04v-.56c.15 0 .37 0 .37-.11 0-.04-.19-.28-.3-.42l-1.21-1.51c-.24.17-.34.24-.68.52v1.52h.83v.56l-1.45-.04-1.44.04v-.56h.83v-6.63c0-.47-.08-.47-.83-.47v-.56l2.12-.1v5.48l2.27-1.79c-.1-.1-.13-.13-.41-.13v-.56l1.38.04c.31 0 .61 0 .94-.04v.56c-.8 0-.91.08-1.08.21l-1.56 1.21 2.03 2.53c.15.19.19.24.71.24h.2v.56c-.41-.03-.81-.04-1.25-.04ZM486.63 246.85c-1.93 0-3.13-1.16-3.13-2.77 0-1.5 1.04-2.73 2.96-2.73.83 0 1.46.22 1.91.65.6.6.67 1.47.67 1.85 0 .32-.12.32-.38.32h-3.62c0 .61.01 2.21 1.7 2.21.78 0 1.46-.38 1.71-.96.07-.19.1-.25.3-.25.06 0 .29 0 .29.21s-.52 1.48-2.41 1.48Zm-.16-5.08c-.35 0-.83.14-1.14.62-.25.4-.26.9-.29 1.37h2.87c-.01-.42-.04-1.99-1.44-1.99ZM492.57 246.85c-.85 0-1.89-.27-1.89-1.55v-3.29h-.98v-.43c1.19-.04 1.78-1.22 1.79-2.42h.56v2.29h1.75v.56h-1.75v3.31c0 .28 0 1.04.7 1.04.34 0 .72-.29.72-1.1v-.61h.56v.63c0 .88-.54 1.56-1.45 1.56ZM398.01 264.24c-.49 0-1.61-.07-2.4-.66l-.55.55c-.1.08-.12.11-.23.11-.22 0-.22-.11-.22-.34v-2.18c0-.28 0-.35.29-.35.26 0 .26.06.28.28.1 1.79 1.92 2.03 2.83 2.03 1.25 0 1.56-.83 1.56-1.4s-.3-.86-.48-1.04c-.26-.25-.47-.29-1.52-.52-1.31-.29-1.71-.37-2.3-.96-.25-.26-.65-.82-.65-1.59 0-1.26.86-2.41 2.69-2.41.58 0 1.36.11 2.05.66l.54-.53c.13-.12.14-.13.24-.13.22 0 .22.11.22.34v2.19c0 .28 0 .34-.29.34-.25 0-.25-.02-.3-.31-.28-1.63-1.49-2.04-2.45-2.04-1.2 0-1.54.74-1.54 1.26 0 .73.67 1.14 1.15 1.25l1.74.37c1.09.23 2.06 1.2 2.06 2.53 0 1.21-.74 2.57-2.72 2.57ZM404.96 264.18c-2 0-3.06-1.2-3.06-2.69 0-1.6 1.09-2.82 3.06-2.82s3.06 1.21 3.06 2.82c0 1.47-1.04 2.69-3.06 2.69Zm1.27-4.47c-.26-.42-.77-.61-1.27-.61-.59 0-1.09.25-1.32.7-.2.41-.2 1.02-.2 1.56 0 1.04 0 2.34 1.52 2.34s1.52-1.29 1.52-2.34c0-.58 0-1.24-.25-1.64ZM412.23 264.18c-1.85 0-2.97-1.14-2.97-2.73 0-1.39.89-2.77 3.03-2.77.7 0 2.09.07 2.09 1.1 0 .5-.38.76-.76.76-.32 0-.74-.23-.74-.76 0-.11.02-.36.24-.55-.16-.04-.36-.07-.78-.07-1.55 0-1.55 1.56-1.55 2.23 0 .55 0 2.31 1.67 2.31.61 0 1.19-.23 1.5-.98.06-.16.07-.18.29-.18.12 0 .29 0 .29.17 0 .08-.36 1.48-2.3 1.48ZM416.96 264.07l-1.46.04v-.56h.83v-3.71c0-.47-.08-.47-.79-.47v-.56l2.09-.1v4.83h.74v.56l-1.4-.04Zm-.1-6.31a.939.939 0 1 1 0-1.88.939.939 0 1 1 0 1.88ZM422.21 264.18c-2 0-3.06-1.2-3.06-2.69 0-1.6 1.09-2.82 3.06-2.82s3.06 1.21 3.06 2.82c0 1.47-1.04 2.69-3.06 2.69Zm1.27-4.47c-.26-.42-.77-.61-1.27-.61-.59 0-1.09.25-1.32.7-.2.41-.2 1.02-.2 1.56 0 1.04 0 2.34 1.52 2.34s1.52-1.29 1.52-2.34c0-.58 0-1.24-.25-1.64ZM425.82 262.02v-1.16h3.66v1.16h-3.66ZM435.27 264.18v-.59c-.37.3-.95.59-1.68.59-1.77 0-2.88-1.14-2.88-2.72 0-1.69 1.26-2.75 3.01-2.75.4 0 1.02.07 1.62.54v-2.34c0-.47-.08-.47-.83-.47v-.56l2.12-.1v7.29c0 .47.08.47.83.47v.56l-2.19.07Zm0-4.31c-.26-.35-.74-.73-1.43-.73-.37 0-.94.12-1.28.62-.31.47-.31 1.12-.31 1.69 0 .84 0 2.29 1.46 2.29.91 0 1.4-.66 1.56-.88v-3ZM441.44 264.18c-1.93 0-3.13-1.16-3.13-2.77 0-1.5 1.04-2.73 2.96-2.73.83 0 1.46.22 1.91.65.6.6.67 1.47.67 1.85 0 .32-.12.32-.38.32h-3.62c0 .61.01 2.21 1.7 2.21.78 0 1.46-.38 1.71-.96.07-.19.1-.25.3-.25.06 0 .29 0 .29.22 0 .2-.52 1.48-2.41 1.48Zm-.17-5.08c-.35 0-.83.14-1.14.62-.25.4-.26.9-.29 1.37h2.87c-.01-.42-.04-1.99-1.44-1.99ZM453.96 264.07l-1.51.04v-.56h.83v-3.24c0-.92-.26-1.16-.67-1.16-.74 0-1.79.59-1.79 1.89v2.51h.83v.56l-1.51-.04-1.51.04v-.56h.83v-3.24c0-.92-.26-1.16-.67-1.16-.74 0-1.79.59-1.79 1.89v2.51h.83v.56l-1.51-.04-1.51.04v-.56h.83v-3.71c0-.47-.08-.47-.83-.47v-.56l2.06-.1v1.3c.38-.76 1.07-1.3 2.11-1.3.46 0 1.56.04 1.8 1.15.31-.55.94-1.15 2.03-1.15 1.24 0 1.85.49 1.85 1.73v3.11h.83v.56l-1.51-.04ZM459.19 264.18c-2 0-3.06-1.2-3.06-2.69 0-1.6 1.09-2.82 3.06-2.82s3.06 1.21 3.06 2.82c0 1.47-1.04 2.69-3.06 2.69Zm1.27-4.47c-.26-.42-.77-.61-1.27-.61-.59 0-1.09.25-1.32.7-.2.41-.2 1.02-.2 1.56 0 1.04 0 2.34 1.52 2.34s1.52-1.29 1.52-2.34c0-.58 0-1.24-.25-1.64ZM468.82 259.86c-.31 0-.52-.22-.52-.52 0-.07.02-.18.05-.24-.13.01-.38.04-.74.23.18.19.48.59.48 1.15 0 .84-.66 1.78-2.39 1.78-.3 0-.91-.02-1.46-.31-.07.1-.12.28-.12.4 0 .22.13.67.66.75.06.01.61.01.92.01 1.15 0 1.87 0 2.54.34.8.41.9 1.16.9 1.52 0 .84-.93 1.55-3.06 1.55-2.4 0-3.06-.9-3.06-1.51 0-.76.88-1.01 1.03-1.04-.48-.38-.53-.97-.53-1.15 0-.25.07-.65.41-1.07-.38-.28-.62-.77-.62-1.26 0-.84.66-1.78 2.39-1.78.89 0 1.39.25 1.61.4.53-.42 1.09-.46 1.27-.46.55 0 .76.42.76.7s-.2.52-.52.52Zm-2.43 4.4h-1.4c-.17 0-.92 0-.92.72 0 .55.59 1.1 2.03 1.1 1.56 0 2.03-.65 2.03-1.08 0-.74-1.36-.74-1.73-.74Zm-.68-5.12c-1.06 0-1.06.8-1.06 1.34s0 1.34 1.06 1.34 1.05-.8 1.05-1.34 0-1.34-1.05-1.34ZM471.46 264.1a.939.939 0 1 1 0-1.88.939.939 0 1 1 0 1.88ZM481.4 264.18c-1.85 0-2.97-1.14-2.97-2.73 0-1.39.89-2.77 3.03-2.77.7 0 2.09.07 2.09 1.1 0 .5-.38.76-.76.76-.32 0-.74-.23-.74-.76 0-.11.02-.36.24-.55-.16-.04-.36-.07-.78-.07-1.55 0-1.55 1.56-1.55 2.23 0 .55 0 2.31 1.67 2.31.61 0 1.19-.23 1.5-.98.06-.16.07-.18.29-.18.12 0 .29 0 .29.17 0 .08-.36 1.48-2.3 1.48ZM489.58 264.07l-1.51.04v-.56h.83v-3.24c0-.91-.25-1.16-.66-1.16-.76 0-1.79.59-1.79 1.89v2.51h.83v.56l-1.51-.04-1.51.04v-.56h.83v-6.63c0-.47-.08-.47-.83-.47v-.56l2.12-.1v4.08h.01c.26-.46.88-1.15 2.03-1.15s1.85.47 1.85 1.73v3.11h.83v.56l-1.51-.04ZM497.7 264.1h-.58c-1.25 0-1.25-.55-1.25-.92-.26.5-.83 1-1.79 1-.83 0-2.31-.22-2.31-1.37 0-1.74 3.05-1.85 3.9-1.88v-.41c0-.91-.42-1.42-1.32-1.42-.14 0-.53.01-.86.08.04.02.26.23.26.59 0 .5-.38.76-.75.76-.32 0-.74-.23-.74-.76 0-1.05 1.46-1.1 2.15-1.1 1.79 0 2.64.78 2.64 1.85v2.58c0 .28 0 .43.73.44.16 0 .31 0 .31.28s-.14.29-.38.29Zm-2.03-2.8c-.6.04-2.49.2-2.49 1.5 0 .53.48.95 1.09.95.3 0 1.4-.16 1.4-1.31v-1.14ZM502.66 260.42c-.35 0-.73-.24-.73-.73 0-.35.23-.55.23-.55-1.2 0-1.5 1.46-1.5 2.3v2.1h1.04v.56c-.43-.04-1.2-.04-1.66-.04l-1.51.04v-.56h.83v-3.71c0-.47-.08-.47-.83-.47v-.56l1.99-.1v1.36c.28-.76.76-1.36 1.6-1.36.62 0 1.27.35 1.27.98 0 .48-.38.73-.73.73ZM510.09 264.1h-.58c-1.25 0-1.25-.55-1.25-.92-.26.5-.83 1-1.79 1-.83 0-2.31-.22-2.31-1.37 0-1.74 3.05-1.85 3.9-1.88v-.41c0-.91-.42-1.42-1.32-1.42-.14 0-.53.01-.86.08.04.02.26.23.26.59 0 .5-.38.76-.75.76-.32 0-.74-.23-.74-.76 0-1.05 1.46-1.1 2.15-1.1 1.79 0 2.64.78 2.64 1.85v2.58c0 .28 0 .43.73.44.16 0 .31 0 .31.28s-.14.29-.38.29Zm-2.03-2.8c-.6.04-2.49.2-2.49 1.5 0 .53.48.95 1.09.95.3 0 1.4-.16 1.4-1.31v-1.14ZM513.92 264.18c-1.85 0-2.97-1.14-2.97-2.73 0-1.39.89-2.77 3.03-2.77.7 0 2.09.07 2.09 1.1 0 .5-.38.76-.76.76-.32 0-.74-.23-.74-.76 0-.11.02-.36.24-.55-.16-.04-.36-.07-.78-.07-1.55 0-1.55 1.56-1.55 2.23 0 .55 0 2.31 1.67 2.31.61 0 1.19-.23 1.5-.98.06-.16.07-.18.29-.18.12 0 .29 0 .29.17 0 .08-.36 1.48-2.3 1.48ZM519.75 264.18c-.85 0-1.89-.26-1.89-1.55v-3.29h-.98v-.43c1.19-.04 1.78-1.22 1.79-2.42h.56v2.29h1.75v.56h-1.75v3.31c0 .28 0 1.04.7 1.04.34 0 .72-.29.72-1.1v-.61h.56v.64c0 .88-.54 1.56-1.45 1.56ZM523.89 264.1a.939.939 0 1 1 0-1.88.939.939 0 1 1 0 1.88ZM403.03 278.31v2.41c0 .18 0 .34-.17.34-.08 0-.8-.31-1.17-.64-.6.74-1.83.77-2.23.77-3.09 0-4.83-1.86-4.83-4.25s1.86-4.25 4.81-4.25c.62 0 1.49.12 2.36.82l.79-.71c.1-.08.12-.11.23-.11.22 0 .22.11.22.34v2.58c0 .31-.01.34-.32.34-.28 0-.29-.02-.32-.25-.26-1.52-1.4-2.43-2.69-2.43-1.15 0-2.08.44-2.55 1.04-.44.59-.68 1.28-.68 2.63 0 1.09.16 1.94.67 2.6.59.74 1.62 1.09 2.65 1.09.38 0 .77-.07 1.08-.25.47-.28.47-.62.47-.85v-1.21h-1.73v-.56c.65.04 1.76.04 2.46.04.47 0 1.51 0 1.93-.04v.56h-.96ZM409.27 277.38c-.35 0-.73-.24-.73-.73 0-.35.23-.55.23-.55-1.2 0-1.5 1.46-1.5 2.3v2.1h1.04v.56c-.43-.04-1.2-.04-1.66-.04l-1.51.04v-.56h.83v-3.71c0-.47-.08-.47-.83-.47v-.56l1.99-.1v1.36c.28-.76.76-1.36 1.6-1.36.62 0 1.27.35 1.27.98 0 .48-.38.73-.73.73ZM413.83 281.13c-2 0-3.06-1.2-3.06-2.69 0-1.6 1.09-2.82 3.06-2.82s3.06 1.21 3.06 2.82c0 1.47-1.04 2.69-3.06 2.69Zm1.27-4.46c-.26-.42-.77-.61-1.27-.61-.59 0-1.09.25-1.32.7-.2.41-.2 1.02-.2 1.56 0 1.04 0 2.34 1.52 2.34s1.52-1.29 1.52-2.34c0-.58 0-1.24-.25-1.64ZM425.74 276.55l-1.73 4.23c-.08.2-.13.32-.43.32s-.35-.12-.43-.32l-1.27-3.11-1.27 3.11c-.08.2-.13.32-.43.32s-.35-.12-.43-.32l-1.83-4.49h-.71v-.56l1.31.04 1.47-.04v.56h-.67l1.26 3.09.95-2.3s.05-.11.05-.16c0 0 0-.04-.25-.64h-.71v-.56c.19.01.7.04 1.2.04l1.37-.04v.56h-.67l1.37 3.36 1.26-3.07s.05-.11.05-.14c0-.13-.59-.14-.7-.14v-.56l1.15.04c.29 0 .65-.01.92-.04v.56c-.71 0-.75.1-.82.25ZM430.01 281.13c-.85 0-1.89-.26-1.89-1.55v-3.29h-.98v-.43c1.19-.04 1.78-1.22 1.79-2.42h.56v2.29h1.75v.56h-1.75v3.31c0 .28 0 1.04.7 1.04.34 0 .72-.29.72-1.1v-.61h.56v.64c0 .88-.54 1.56-1.45 1.56ZM438.11 281.02l-1.51.04v-.56h.83v-3.24c0-.91-.25-1.16-.66-1.16-.76 0-1.79.59-1.79 1.89v2.51h.83v.56l-1.51-.04-1.51.04v-.56h.83v-6.63c0-.47-.08-.47-.83-.47v-.56l2.12-.1v4.08h.01c.26-.46.88-1.15 2.03-1.15s1.85.47 1.85 1.73v3.11h.83v.56l-1.51-.04ZM446.53 281.02l-1.46.04v-.56h.83v-3.71c0-.47-.08-.47-.79-.47v-.56l2.09-.1v4.83h.74v.56l-1.4-.04Zm-.11-6.31a.939.939 0 1 1 0-1.88.939.939 0 1 1 0 1.88ZM454.2 281.02l-1.51.04v-.56h.83v-3.24c0-.91-.25-1.16-.66-1.16-.76 0-1.79.59-1.79 1.89v2.51h.83v.56l-1.51-.04-1.51.04v-.56h.83v-3.71c0-.47-.08-.47-.83-.47v-.56l2.06-.1v1.3c.31-.61.95-1.3 2.1-1.3s1.85.47 1.85 1.73v3.11h.83v.56l-1.51-.04ZM463.73 281.13c-.85 0-1.89-.26-1.89-1.55v-3.29h-.98v-.43c1.19-.04 1.78-1.22 1.79-2.42h.56v2.29h1.75v.56h-1.75v3.31c0 .28 0 1.04.7 1.04.34 0 .72-.29.72-1.1v-.61h.56v.64c0 .88-.54 1.56-1.45 1.56ZM471.83 281.02l-1.51.04v-.56h.83v-3.24c0-.91-.25-1.16-.66-1.16-.76 0-1.79.59-1.79 1.89v2.51h.83v.56l-1.51-.04-1.51.04v-.56h.83v-6.63c0-.47-.08-.47-.83-.47v-.56l2.12-.1v4.08h.01c.26-.46.88-1.15 2.03-1.15s1.85.47 1.85 1.73v3.11h.83v.56l-1.51-.04ZM477.14 281.13c-1.93 0-3.13-1.16-3.13-2.77 0-1.5 1.04-2.73 2.96-2.73.83 0 1.46.22 1.91.65.6.6.67 1.47.67 1.85 0 .32-.12.32-.38.32h-3.62c0 .61.01 2.21 1.7 2.21.78 0 1.46-.38 1.71-.96.07-.19.1-.25.3-.25.06 0 .29 0 .29.22 0 .2-.52 1.48-2.41 1.48Zm-.17-5.07c-.35 0-.83.14-1.14.62-.25.4-.26.9-.29 1.37h2.87c-.01-.42-.04-1.99-1.44-1.99ZM490.86 281.06h-.58c-1.25 0-1.25-.55-1.25-.92-.26.5-.83 1-1.79 1-.83 0-2.31-.22-2.31-1.37 0-1.74 3.05-1.85 3.9-1.88v-.41c0-.91-.42-1.42-1.32-1.42-.14 0-.53.01-.86.08.04.02.26.23.26.59 0 .5-.38.76-.75.76-.32 0-.74-.23-.74-.76 0-1.05 1.46-1.1 2.15-1.1 1.79 0 2.64.78 2.64 1.85v2.58c0 .28 0 .43.73.44.16 0 .31 0 .31.28s-.14.29-.38.29Zm-2.03-2.81c-.6.04-2.49.2-2.49 1.5 0 .53.48.95 1.09.95.3 0 1.4-.16 1.4-1.31v-1.14ZM495.82 277.38c-.35 0-.73-.24-.73-.73 0-.35.23-.55.23-.55-1.2 0-1.5 1.46-1.5 2.3v2.1h1.04v.56c-.43-.04-1.2-.04-1.66-.04l-1.51.04v-.56h.83v-3.71c0-.47-.08-.47-.83-.47v-.56l1.99-.1v1.36c.28-.76.76-1.36 1.6-1.36.62 0 1.27.35 1.27.98 0 .48-.38.73-.73.73ZM500.46 281.13c-1.93 0-3.13-1.16-3.13-2.77 0-1.5 1.04-2.73 2.96-2.73.83 0 1.46.22 1.91.65.6.6.67 1.47.67 1.85 0 .32-.12.32-.38.32h-3.62c0 .61.01 2.21 1.7 2.21.78 0 1.46-.38 1.71-.96.07-.19.1-.25.3-.25.06 0 .29 0 .29.22 0 .2-.52 1.48-2.41 1.48Zm-.17-5.07c-.35 0-.83.14-1.14.62-.25.4-.26.9-.29 1.37h2.87c-.01-.42-.04-1.99-1.44-1.99ZM509.58 281.06H509c-1.25 0-1.25-.55-1.25-.92-.26.5-.83 1-1.79 1-.83 0-2.31-.22-2.31-1.37 0-1.74 3.05-1.85 3.9-1.88v-.41c0-.91-.42-1.42-1.32-1.42-.14 0-.53.01-.86.08.04.02.26.23.26.59 0 .5-.38.76-.75.76-.32 0-.74-.23-.74-.76 0-1.05 1.46-1.1 2.15-1.1 1.79 0 2.64.78 2.64 1.85v2.58c0 .28 0 .43.73.44.16 0 .31 0 .31.28s-.14.29-.38.29Zm-2.03-2.81c-.6.04-2.49.2-2.49 1.5 0 .53.48.95 1.09.95.3 0 1.4-.16 1.4-1.31v-1.14ZM398.02 297.96c-.49 0-1.61-.07-2.4-.66l-.55.55c-.1.08-.12.11-.23.11-.22 0-.22-.11-.22-.34v-2.18c0-.28 0-.35.29-.35.26 0 .26.06.28.28.1 1.79 1.92 2.03 2.83 2.03 1.25 0 1.56-.83 1.56-1.4s-.3-.86-.48-1.04c-.26-.25-.47-.29-1.52-.52-1.31-.29-1.71-.37-2.3-.96-.25-.26-.65-.82-.65-1.59 0-1.26.86-2.41 2.69-2.41.58 0 1.36.11 2.05.66l.54-.53c.13-.12.14-.13.24-.13.22 0 .22.11.22.34v2.19c0 .28 0 .34-.29.34-.25 0-.25-.02-.3-.31-.28-1.63-1.49-2.04-2.45-2.04-1.2 0-1.54.74-1.54 1.26 0 .73.67 1.14 1.15 1.25l1.74.37c1.09.23 2.06 1.2 2.06 2.53 0 1.21-.74 2.57-2.72 2.57ZM405.04 297.9c-1.93 0-3.13-1.16-3.13-2.77 0-1.5 1.04-2.73 2.96-2.73.83 0 1.46.22 1.91.65.6.6.67 1.47.67 1.85 0 .32-.12.32-.38.32h-3.62c0 .61.01 2.21 1.7 2.21.78 0 1.46-.38 1.71-.96.07-.19.1-.25.3-.25.06 0 .29 0 .29.22 0 .2-.52 1.48-2.41 1.48Zm-.17-5.07c-.35 0-.83.14-1.14.62-.25.4-.26.9-.29 1.37h2.87c-.01-.42-.04-1.99-1.44-1.99ZM414.15 297.83h-.58c-1.25 0-1.25-.55-1.25-.92-.26.5-.83 1-1.79 1-.83 0-2.31-.22-2.31-1.37 0-1.74 3.05-1.85 3.9-1.88v-.41c0-.91-.42-1.42-1.32-1.42-.14 0-.53.01-.86.08.04.02.26.23.26.59 0 .5-.38.76-.75.76-.32 0-.74-.23-.74-.76 0-1.05 1.46-1.1 2.15-1.1 1.79 0 2.64.78 2.64 1.85v2.58c0 .28 0 .43.73.44.16 0 .31 0 .31.28s-.14.29-.38.29Zm-2.02-2.81c-.6.04-2.49.2-2.49 1.5 0 .53.48.95 1.09.95.3 0 1.4-.16 1.4-1.31v-1.14ZM417.31 297.9c-.24 0-.86 0-1.42-.38l-.31.2c-.25.18-.28.18-.36.18-.22 0-.22-.11-.22-.34v-1.31c0-.28 0-.35.29-.35.17 0 .23 0 .29.17.14.52.46 1.39 1.73 1.39.26 0 1.37 0 1.37-.9 0-.71-.9-.86-1.33-.93-.92-.17-1.38-.24-1.86-.66-.24-.2-.48-.53-.48-1.01 0-1.57 1.85-1.57 2.21-1.57.48 0 .9.07 1.21.23.47-.23.49-.23.54-.23.22 0 .22.11.22.33v.96c0 .28 0 .34-.29.34-.25 0-.26-.06-.28-.24-.06-.66-.52-1.01-1.42-1.01-.23 0-1.34 0-1.34.74 0 .56.78.7 1.22.78.94.16 1.32.23 1.79.58.42.34.66.76.66 1.27 0 1.75-1.85 1.75-2.22 1.75ZM423.44 297.9c-2 0-3.06-1.2-3.06-2.69 0-1.6 1.09-2.82 3.06-2.82s3.06 1.21 3.06 2.82c0 1.47-1.04 2.69-3.06 2.69Zm1.27-4.46c-.26-.42-.77-.61-1.27-.61-.59 0-1.09.25-1.32.7-.2.41-.2 1.02-.2 1.56 0 1.04 0 2.34 1.52 2.34s1.52-1.29 1.52-2.34c0-.58 0-1.24-.25-1.64ZM432.77 297.79l-1.51.04v-.56h.83v-3.24c0-.91-.25-1.16-.66-1.16-.76 0-1.79.59-1.79 1.89v2.51h.83v.56l-1.51-.04-1.51.04v-.56h.83v-3.71c0-.47-.08-.47-.83-.47v-.56l2.06-.1v1.3c.31-.61.95-1.3 2.1-1.3s1.85.47 1.85 1.73v3.11h.83v.56l-1.51-.04ZM440.88 297.83h-.58c-1.25 0-1.25-.55-1.25-.92-.26.5-.83 1-1.79 1-.83 0-2.31-.22-2.31-1.37 0-1.74 3.05-1.85 3.9-1.88v-.41c0-.91-.42-1.42-1.32-1.42-.14 0-.53.01-.86.08.04.02.26.23.26.59 0 .5-.38.76-.75.76-.32 0-.74-.23-.74-.76 0-1.05 1.46-1.1 2.15-1.1 1.79 0 2.64.78 2.64 1.85v2.58c0 .28 0 .43.73.44.16 0 .31 0 .31.28s-.14.29-.38.29Zm-2.03-2.81c-.6.04-2.49.2-2.49 1.5 0 .53.48.95 1.09.95.3 0 1.4-.16 1.4-1.31v-1.14ZM443.32 297.79l-1.48.04v-.56h.83v-6.63c0-.47-.08-.47-.83-.47v-.56l2.12-.1v7.76h.83v.56l-1.47-.04ZM447.13 297.79l-1.46.04v-.56h.83v-3.71c0-.47-.08-.47-.79-.47v-.56l2.09-.1v4.83h.74v.56l-1.4-.04Zm-.11-6.31a.939.939 0 1 1 0-1.88.939.939 0 1 1 0 1.88ZM452.06 297.9c-.85 0-1.89-.26-1.89-1.55v-3.29h-.98v-.43c1.19-.04 1.78-1.22 1.79-2.42h.56v2.29h1.75v.56h-1.75v3.31c0 .28 0 1.04.7 1.04.34 0 .72-.29.72-1.1v-.61h.56v.64c0 .88-.54 1.56-1.45 1.56ZM459.98 293.32l-2.58 5.48c-.32.68-1.02 1.43-1.94 1.43-.72 0-1.28-.49-1.28-1.1 0-.47.35-.7.68-.7.41 0 .7.29.7.68 0 .42-.28.59-.38.64.1.04.12.05.29.05.85 0 1.24-.82 1.5-1.39l.28-.58-2.24-4.76h-.77v-.56l1.37.04 1.49-.04v.56h-.65l1.52 3.24 1.38-2.95.06-.14c0-.14-.56-.14-.56-.14v-.56l1.09.04c.3 0 .66-.01.95-.04v.56c-.77 0-.8.08-.89.25Z"/><path class="cls-1" d="M388.72 230.63h-26.04v74.89h26.04"/><path class="cls-3" d="M398.72 337.45h-5.17v-.56h1.29v-7.1h-1.29v-.56h5.16c2.38 0 4.17 1.55 4.17 4.19s-1.8 4.04-4.16 4.04Zm1.89-6.6c-.59-.84-1.58-1.07-2.38-1.07h-1.75v7.1h1.75c.73 0 1.79-.19 2.36-1.01.38-.54.53-1.17.53-2.48 0-1.12-.1-1.93-.52-2.54ZM405.7 337.41l-1.46.04v-.56h.83v-3.71c0-.47-.08-.47-.79-.47v-.56l2.09-.1v4.83h.74v.56l-1.4-.04Zm-.11-6.31a.939.939 0 1 1 0-1.88.939.939 0 1 1 0 1.88ZM410.26 337.52c-.24 0-.86 0-1.42-.38l-.31.2c-.25.18-.28.18-.36.18-.22 0-.22-.11-.22-.34v-1.31c0-.28 0-.35.29-.35.17 0 .23 0 .29.17.14.52.46 1.39 1.73 1.39.26 0 1.37 0 1.37-.9 0-.71-.9-.86-1.33-.93-.92-.17-1.38-.24-1.86-.66-.24-.2-.48-.53-.48-1.01 0-1.57 1.85-1.57 2.21-1.57.48 0 .9.07 1.21.23.47-.23.49-.23.54-.23.22 0 .22.11.22.33v.96c0 .28 0 .34-.29.34-.25 0-.26-.06-.28-.24-.06-.66-.52-1.01-1.41-1.01-.23 0-1.34 0-1.34.74 0 .56.78.7 1.22.78.94.16 1.32.23 1.79.58.42.34.66.76.66 1.27 0 1.75-1.85 1.75-2.22 1.75ZM416.07 337.52c-.85 0-1.89-.26-1.89-1.55v-3.29h-.98v-.43c1.19-.04 1.78-1.22 1.79-2.42h.56v2.29h1.75v.56h-1.75v3.31c0 .28 0 1.04.7 1.04.34 0 .72-.29.72-1.1v-.61h.56v.64c0 .88-.54 1.56-1.45 1.56ZM424.62 337.45h-.58c-1.25 0-1.25-.55-1.25-.92-.26.5-.83 1-1.79 1-.83 0-2.31-.22-2.31-1.37 0-1.74 3.04-1.85 3.9-1.88v-.41c0-.91-.42-1.42-1.32-1.42-.14 0-.53.01-.86.08.04.02.26.23.26.59 0 .5-.38.76-.76.76-.32 0-.74-.23-.74-.76 0-1.05 1.46-1.1 2.15-1.1 1.79 0 2.64.78 2.64 1.85v2.58c0 .28 0 .43.73.44.16 0 .31 0 .31.28s-.14.29-.38.29Zm-2.03-2.81c-.6.04-2.49.2-2.49 1.5 0 .53.48.95 1.09.95.3 0 1.4-.16 1.4-1.31v-1.14ZM430.88 337.41l-1.51.04v-.56h.83v-3.24c0-.91-.25-1.16-.66-1.16-.76 0-1.79.59-1.79 1.89v2.51h.83v.56l-1.51-.04-1.51.04v-.56h.83v-3.71c0-.47-.08-.47-.83-.47v-.56l2.06-.1v1.3c.31-.61.95-1.3 2.1-1.3s1.85.47 1.85 1.73v3.11h.83v.56l-1.51-.04ZM436.12 337.52c-1.85 0-2.97-1.14-2.97-2.73 0-1.39.89-2.77 3.04-2.77.7 0 2.09.07 2.09 1.1 0 .5-.38.76-.76.76-.32 0-.74-.23-.74-.76 0-.11.02-.36.24-.55-.15-.04-.36-.07-.78-.07-1.55 0-1.55 1.56-1.55 2.23 0 .55 0 2.31 1.67 2.31.61 0 1.19-.23 1.5-.98.06-.16.07-.18.29-.18.12 0 .29 0 .29.17 0 .08-.36 1.48-2.3 1.48ZM442.33 337.52c-1.93 0-3.13-1.16-3.13-2.77 0-1.5 1.04-2.73 2.96-2.73.83 0 1.46.22 1.91.65.6.6.67 1.47.67 1.85 0 .32-.12.32-.38.32h-3.62c0 .61.01 2.21 1.7 2.21.78 0 1.46-.38 1.71-.96.07-.19.1-.25.3-.25.06 0 .29 0 .29.22 0 .2-.52 1.48-2.41 1.48Zm-.17-5.08c-.35 0-.83.14-1.14.62-.25.4-.26.9-.29 1.37h2.87c-.01-.42-.04-1.99-1.44-1.99ZM452.87 337.52c-.85 0-1.89-.26-1.89-1.55v-3.29H450v-.43c1.19-.04 1.78-1.22 1.79-2.42h.56v2.29h1.75v.56h-1.75v3.31c0 .28 0 1.04.7 1.04.34 0 .72-.29.72-1.1v-.61h.56v.64c0 .88-.54 1.56-1.45 1.56ZM458.54 337.52c-2 0-3.06-1.2-3.06-2.69 0-1.6 1.09-2.82 3.06-2.82s3.06 1.21 3.06 2.82c0 1.47-1.04 2.69-3.06 2.69Zm1.27-4.46c-.27-.42-.77-.61-1.27-.61-.59 0-1.09.25-1.32.7-.2.41-.2 1.02-.2 1.56 0 1.04 0 2.34 1.52 2.34s1.52-1.29 1.52-2.34c0-.58 0-1.24-.25-1.64ZM470.03 337.52c-1.85 0-2.97-1.14-2.97-2.73 0-1.39.89-2.77 3.03-2.77.7 0 2.09.07 2.09 1.1 0 .5-.38.76-.76.76-.32 0-.74-.23-.74-.76 0-.11.02-.36.24-.55-.16-.04-.36-.07-.78-.07-1.55 0-1.55 1.56-1.55 2.23 0 .55 0 2.31 1.67 2.31.61 0 1.19-.23 1.5-.98.06-.16.07-.18.29-.18.12 0 .29 0 .29.17 0 .08-.36 1.48-2.3 1.48ZM476.17 337.52c-2 0-3.06-1.2-3.06-2.69 0-1.6 1.09-2.82 3.06-2.82s3.06 1.21 3.06 2.82c0 1.47-1.04 2.69-3.06 2.69Zm1.27-4.46c-.26-.42-.77-.61-1.27-.61-.59 0-1.09.25-1.32.7-.21.41-.21 1.02-.21 1.56 0 1.04 0 2.34 1.52 2.34s1.52-1.29 1.52-2.34c0-.58 0-1.24-.25-1.64ZM489.33 337.41l-1.51.04v-.56h.83v-3.24c0-.92-.26-1.16-.67-1.16-.74 0-1.79.59-1.79 1.89v2.51h.83v.56l-1.51-.04-1.51.04v-.56h.83v-3.24c0-.92-.26-1.16-.67-1.16-.74 0-1.79.59-1.79 1.89v2.51h.83v.56l-1.51-.04-1.51.04v-.56h.83v-3.71c0-.47-.08-.47-.83-.47v-.56l2.06-.1v1.3c.38-.76 1.07-1.3 2.11-1.3.46 0 1.56.04 1.8 1.15.31-.55.94-1.15 2.03-1.15 1.23 0 1.85.49 1.85 1.73v3.11h.83v.56l-1.51-.04ZM495.3 337.52c-.49 0-1.02-.12-1.54-.54v2.23h.83v.56l-1.51-.04-1.51.04v-.56h.83v-6.04c0-.46-.08-.46-.83-.46v-.56l2.12-.1v.59c.28-.22.91-.59 1.81-.59 1.73 0 2.82 1.13 2.82 2.72s-1.22 2.75-3.02 2.75Zm.01-4.99c-.26 0-.89.07-1.37.56-.17.17-.18.18-.18.41v2.54c0 .23 0 .24.13.4.54.65 1.1.65 1.27.65.78 0 1.62-.62 1.62-2.32 0-1.51-.67-2.24-1.48-2.24ZM502.69 337.52c-1.93 0-3.13-1.16-3.13-2.77 0-1.5 1.04-2.73 2.96-2.73.83 0 1.46.22 1.91.65.6.6.67 1.47.67 1.85 0 .32-.12.32-.38.32h-3.62c0 .61.01 2.21 1.7 2.21.78 0 1.46-.38 1.71-.96.07-.19.1-.25.3-.25.06 0 .29 0 .29.22 0 .2-.52 1.48-2.41 1.48Zm-.17-5.08c-.35 0-.83.14-1.14.62-.25.4-.26.9-.29 1.37h2.87c-.01-.42-.04-1.99-1.44-1.99ZM508.63 337.52c-.85 0-1.89-.26-1.89-1.55v-3.29h-.98v-.43c1.19-.04 1.78-1.22 1.79-2.42h.56v2.29h1.75v.56h-1.75v3.31c0 .28 0 1.04.7 1.04.34 0 .72-.29.72-1.1v-.61h.56v.64c0 .88-.54 1.56-1.45 1.56ZM512.89 337.41l-1.46.04v-.56h.83v-3.71c0-.47-.08-.47-.79-.47v-.56l2.09-.1v4.83h.74v.56l-1.4-.04Zm-.11-6.31a.939.939 0 1 1 0-1.88.939.939 0 1 1 0 1.88ZM517.82 337.52c-.85 0-1.89-.26-1.89-1.55v-3.29h-.98v-.43c1.19-.04 1.78-1.22 1.79-2.42h.56v2.29h1.75v.56h-1.75v3.31c0 .28 0 1.04.7 1.04.34 0 .72-.29.72-1.1v-.61h.56v.64c0 .88-.54 1.56-1.45 1.56ZM522.08 337.41l-1.46.04v-.56h.83v-3.71c0-.47-.08-.47-.79-.47v-.56l2.09-.1v4.83h.74v.56l-1.4-.04Zm-.11-6.31a.939.939 0 1 1 0-1.88.939.939 0 1 1 0 1.88ZM527.33 337.52c-2 0-3.06-1.2-3.06-2.69 0-1.6 1.09-2.82 3.06-2.82s3.06 1.21 3.06 2.82c0 1.47-1.04 2.69-3.06 2.69Zm1.27-4.46c-.27-.42-.77-.61-1.27-.61-.59 0-1.09.25-1.32.7-.2.41-.2 1.02-.2 1.56 0 1.04 0 2.34 1.52 2.34s1.52-1.29 1.52-2.34c0-.58 0-1.24-.25-1.64ZM536.65 337.41l-1.51.04v-.56h.83v-3.24c0-.91-.25-1.16-.66-1.16-.76 0-1.79.59-1.79 1.89v2.51h.83v.56l-1.51-.04-1.51.04v-.56h.83v-3.71c0-.47-.08-.47-.83-.47v-.56l2.06-.1v1.3c.31-.61.95-1.3 2.1-1.3s1.85.47 1.85 1.73v3.11h.83v.56l-1.51-.04ZM399.88 354.78h-5.56v-.56h1.29v-7.1h-1.29v-.56h5.21c1.93 0 2.97.96 2.97 2.06 0 .92-.78 1.64-2.08 1.87 1.43.11 2.46.91 2.46 2.06s-1.01 2.23-3 2.23Zm-.51-7.67h-2.18v3.17h1.87c1.16 0 1.74-.74 1.74-1.67 0-.55-.22-1.5-1.43-1.5Zm1.35 4.12c-.41-.52-.97-.52-1.21-.52h-2.33v3.5h2.21c1.73 0 1.73-1.54 1.73-1.68 0-.13 0-.8-.4-1.31ZM408.24 351.09c-.35 0-.73-.24-.73-.73 0-.35.23-.55.23-.55-1.2 0-1.5 1.46-1.5 2.3v2.1h1.04v.56c-.43-.04-1.2-.04-1.66-.04l-1.51.04v-.56h.83v-3.71c0-.47-.08-.47-.83-.47v-.56l1.99-.1v1.36c.28-.76.76-1.36 1.59-1.36.62 0 1.27.35 1.27.98 0 .48-.38.73-.73.73ZM415.67 354.78h-.58c-1.25 0-1.25-.55-1.25-.92-.26.5-.83 1-1.79 1-.83 0-2.31-.22-2.31-1.37 0-1.74 3.05-1.85 3.9-1.88v-.41c0-.91-.42-1.42-1.32-1.42-.14 0-.53.01-.86.08.04.02.26.23.26.59 0 .5-.38.76-.75.76-.32 0-.74-.23-.74-.76 0-1.05 1.46-1.1 2.15-1.1 1.79 0 2.64.78 2.64 1.85v2.58c0 .28 0 .43.73.44.16 0 .31 0 .31.28s-.14.29-.38.29Zm-2.03-2.81c-.6.04-2.49.2-2.49 1.5 0 .53.48.95 1.09.95.3 0 1.4-.16 1.4-1.31v-1.14ZM421.93 354.74l-1.51.04v-.56h.83v-3.24c0-.91-.25-1.16-.66-1.16-.76 0-1.79.59-1.79 1.89v2.51h.83v.56l-1.51-.04-1.51.04v-.56h.83v-3.71c0-.47-.08-.47-.83-.47v-.56l2.06-.1v1.3c.31-.61.95-1.3 2.1-1.3s1.85.47 1.85 1.73v3.11h.83v.56l-1.51-.04ZM428.75 354.85v-.59c-.37.3-.95.59-1.68.59-1.77 0-2.88-1.14-2.88-2.72 0-1.69 1.26-2.75 3.01-2.75.4 0 1.02.07 1.62.54v-2.34c0-.47-.08-.47-.83-.47v-.56l2.12-.1v7.29c0 .47.08.47.83.47v.56l-2.19.07Zm0-4.31c-.26-.35-.74-.73-1.43-.73-.37 0-.94.12-1.28.62-.31.47-.31 1.12-.31 1.69 0 .84 0 2.29 1.46 2.29.91 0 1.4-.66 1.56-.88v-3ZM440.57 351.09c-.35 0-.73-.24-.73-.73 0-.35.23-.55.23-.55-1.2 0-1.5 1.46-1.5 2.3v2.1h1.04v.56c-.43-.04-1.2-.04-1.66-.04l-1.51.04v-.56h.83v-3.71c0-.47-.08-.47-.83-.47v-.56l1.99-.1v1.36c.28-.76.76-1.36 1.59-1.36.62 0 1.27.35 1.27.98 0 .48-.38.73-.73.73ZM445.2 354.85c-1.93 0-3.13-1.16-3.13-2.77 0-1.5 1.04-2.73 2.96-2.73.83 0 1.46.22 1.91.65.6.6.67 1.47.67 1.85 0 .32-.12.32-.38.32h-3.62c0 .61.01 2.21 1.7 2.21.78 0 1.46-.38 1.71-.96.07-.19.1-.25.3-.25.06 0 .29 0 .29.22 0 .2-.52 1.48-2.41 1.48Zm-.17-5.07c-.35 0-.83.14-1.14.62-.25.4-.26.9-.29 1.37h2.87c-.01-.42-.04-1.99-1.44-1.99ZM451.44 354.85c-1.85 0-2.97-1.14-2.97-2.73 0-1.39.89-2.77 3.03-2.77.7 0 2.09.07 2.09 1.1 0 .5-.38.76-.76.76-.32 0-.74-.23-.74-.76 0-.11.02-.36.24-.55-.16-.04-.36-.07-.78-.07-1.55 0-1.55 1.56-1.55 2.23 0 .55 0 2.31 1.67 2.31.61 0 1.19-.23 1.5-.98.06-.16.07-.18.29-.18.12 0 .29 0 .29.17 0 .08-.36 1.48-2.3 1.48ZM457.58 354.85c-2 0-3.06-1.2-3.06-2.69 0-1.6 1.09-2.82 3.06-2.82s3.06 1.21 3.06 2.82c0 1.47-1.04 2.69-3.06 2.69Zm1.27-4.46c-.26-.42-.77-.61-1.27-.61-.59 0-1.09.25-1.32.7-.2.41-.2 1.02-.2 1.56 0 1.04 0 2.34 1.52 2.34s1.52-1.29 1.52-2.34c0-.58 0-1.24-.25-1.64ZM467.22 350.53c-.31 0-.52-.22-.52-.52 0-.07.02-.18.05-.24-.13.01-.38.04-.74.23.18.19.48.59.48 1.15 0 .84-.66 1.78-2.39 1.78-.3 0-.91-.02-1.46-.31-.07.1-.12.28-.12.4 0 .22.13.67.66.75.06.01.61.01.92.01 1.15 0 1.87 0 2.54.34.8.41.9 1.16.9 1.52 0 .84-.93 1.55-3.06 1.55-2.4 0-3.06-.9-3.06-1.51 0-.76.88-1.01 1.03-1.04-.48-.38-.53-.97-.53-1.15 0-.25.07-.65.41-1.07-.38-.28-.62-.77-.62-1.26 0-.84.66-1.78 2.39-1.78.89 0 1.39.25 1.61.4.53-.42 1.09-.46 1.27-.46.55 0 .76.42.76.7s-.2.52-.52.52Zm-2.44 4.4h-1.4c-.17 0-.92 0-.92.72 0 .55.59 1.1 2.03 1.1 1.56 0 2.03-.65 2.03-1.08 0-.74-1.36-.74-1.73-.74Zm-.68-5.12c-1.06 0-1.06.8-1.06 1.34s0 1.34 1.06 1.34 1.05-.8 1.05-1.34 0-1.34-1.05-1.34ZM473.8 354.74l-1.51.04v-.56h.83v-3.24c0-.91-.25-1.16-.66-1.16-.76 0-1.79.59-1.79 1.89v2.51h.83v.56l-1.51-.04-1.51.04v-.56h.83v-3.71c0-.47-.08-.47-.83-.47v-.56l2.06-.1v1.3c.31-.61.95-1.3 2.1-1.3s1.85.47 1.85 1.73v3.11h.83v.56l-1.51-.04ZM477.63 354.74l-1.46.04v-.56h.83v-3.71c0-.47-.08-.47-.79-.47v-.56l2.09-.1v4.83h.74v.56l-1.4-.04Zm-.1-6.31a.939.939 0 1 1 0-1.88.939.939 0 1 1 0 1.88ZM482.57 354.85c-.85 0-1.89-.26-1.89-1.55v-3.29h-.98v-.43c1.19-.04 1.78-1.22 1.79-2.42h.56v2.29h1.75v.56h-1.75v3.31c0 .28 0 1.04.7 1.04.34 0 .72-.29.72-1.1v-.61h.56v.64c0 .88-.54 1.56-1.45 1.56ZM486.83 354.74l-1.46.04v-.56h.83v-3.71c0-.47-.08-.47-.79-.47v-.56l2.09-.1v4.83h.74v.56l-1.4-.04Zm-.11-6.31a.939.939 0 1 1 0-1.88.939.939 0 1 1 0 1.88ZM492.07 354.85c-2 0-3.06-1.2-3.06-2.69 0-1.6 1.09-2.82 3.06-2.82s3.06 1.21 3.06 2.82c0 1.47-1.04 2.69-3.06 2.69Zm1.27-4.46c-.26-.42-.77-.61-1.27-.61-.59 0-1.09.25-1.32.7-.2.41-.2 1.02-.2 1.56 0 1.04 0 2.34 1.52 2.34s1.52-1.29 1.52-2.34c0-.58 0-1.24-.25-1.64ZM501.39 354.74l-1.51.04v-.56h.83v-3.24c0-.91-.25-1.16-.66-1.16-.76 0-1.79.59-1.79 1.89v2.51h.83v.56l-1.51-.04-1.51.04v-.56h.83v-3.71c0-.47-.08-.47-.83-.47v-.56l2.06-.1v1.3c.31-.61.95-1.3 2.1-1.3s1.85.47 1.85 1.73v3.11h.83v.56l-1.51-.04ZM398.01 371.86c-.49 0-1.61-.07-2.4-.66l-.55.55c-.1.08-.12.11-.23.11-.22 0-.22-.11-.22-.34v-2.18c0-.28 0-.35.29-.35.26 0 .26.06.28.28.1 1.79 1.92 2.03 2.83 2.03 1.25 0 1.56-.83 1.56-1.4s-.3-.86-.48-1.04c-.26-.25-.47-.29-1.52-.52-1.31-.29-1.71-.37-2.3-.96-.25-.26-.65-.82-.65-1.59 0-1.26.86-2.41 2.69-2.41.58 0 1.36.11 2.05.66l.54-.53c.13-.12.14-.13.24-.13.22 0 .22.11.22.34v2.19c0 .28 0 .34-.29.34-.25 0-.25-.02-.3-.31-.28-1.63-1.49-2.04-2.45-2.04-1.2 0-1.54.74-1.54 1.26 0 .73.67 1.14 1.15 1.25l1.74.37c1.09.23 2.06 1.2 2.06 2.53 0 1.21-.74 2.57-2.72 2.57ZM403.55 371.69l-1.46.04v-.56h.83v-3.71c0-.47-.08-.47-.79-.47v-.56l2.09-.1v4.83h.74v.56l-1.4-.04Zm-.11-6.31a.939.939 0 1 1 0-1.88.939.939 0 1 1 0 1.88ZM410.67 371.73h-4.56c-.23 0-.38 0-.38-.26 0-.11 0-.13.11-.26l3.35-4.37h-1.02c-1.24 0-1.61.43-1.68 1.67h-.56l.14-2.1h4.4c.22 0 .38 0 .38.25 0 .11-.02.13-.12.26l-3.32 4.33h1.03c1.58 0 1.77-.73 1.88-1.94h.56l-.22 2.42ZM414.99 371.8c-1.93 0-3.13-1.16-3.13-2.77 0-1.5 1.04-2.73 2.96-2.73.83 0 1.46.22 1.91.65.6.6.67 1.47.67 1.85 0 .32-.12.32-.38.32h-3.62c0 .61.01 2.21 1.7 2.21.78 0 1.46-.38 1.71-.96.07-.19.1-.25.3-.25.06 0 .29 0 .29.22 0 .2-.52 1.48-2.41 1.48Zm-.16-5.07c-.35 0-.83.14-1.14.62-.25.4-.26.9-.29 1.37h2.87c-.01-.42-.04-1.99-1.44-1.99ZM425.84 371.8c-2 0-3.06-1.2-3.06-2.69 0-1.6 1.09-2.82 3.06-2.82s3.06 1.21 3.06 2.82c0 1.47-1.04 2.69-3.06 2.69Zm1.27-4.46c-.26-.42-.77-.61-1.27-.61-.59 0-1.09.25-1.32.7-.2.41-.2 1.02-.2 1.56 0 1.04 0 2.34 1.52 2.34s1.52-1.29 1.52-2.34c0-.58 0-1.24-.25-1.64ZM433.8 365.12c-.31 0-.73-.23-.73-.74 0-.23.1-.46.28-.59-.08-.02-.14-.02-.2-.02-.3 0-1.21.11-1.21 1.43v1.21h1.45v.56h-1.38v4.2h1.04v.56c-.43-.04-1.2-.04-1.66-.04l-1.51.04v-.56h.83v-4.2h-.9v-.56h.9v-1.21c0-1.36 1.29-1.86 2.47-1.86.94 0 1.37.54 1.37 1.04s-.38.74-.74.74ZM441.54 371.8c-1.85 0-2.97-1.14-2.97-2.73 0-1.39.89-2.77 3.03-2.77.7 0 2.09.07 2.09 1.1 0 .5-.38.76-.76.76-.32 0-.74-.23-.74-.76 0-.11.02-.36.24-.55-.16-.04-.36-.07-.78-.07-1.55 0-1.55 1.56-1.55 2.23 0 .55 0 2.31 1.67 2.31.61 0 1.19-.23 1.5-.98.06-.16.07-.18.29-.18.12 0 .29 0 .29.17 0 .08-.36 1.48-2.3 1.48ZM447.68 371.8c-2 0-3.06-1.2-3.06-2.69 0-1.6 1.09-2.82 3.06-2.82s3.06 1.21 3.06 2.82c0 1.47-1.04 2.69-3.06 2.69Zm1.27-4.46c-.26-.42-.77-.61-1.27-.61-.59 0-1.09.25-1.32.7-.2.41-.2 1.02-.2 1.56 0 1.04 0 2.34 1.52 2.34s1.52-1.29 1.52-2.34c0-.58 0-1.24-.25-1.64ZM460.84 371.69l-1.51.04v-.56h.83v-3.24c0-.92-.26-1.16-.67-1.16-.74 0-1.79.59-1.79 1.89v2.51h.83v.56l-1.51-.04-1.51.04v-.56h.83v-3.24c0-.92-.26-1.16-.67-1.16-.74 0-1.79.59-1.79 1.89v2.51h.83v.56l-1.51-.04-1.51.04v-.56h.83v-3.71c0-.47-.08-.47-.83-.47v-.56l2.06-.1v1.3c.38-.76 1.07-1.3 2.11-1.3.46 0 1.56.04 1.8 1.15.31-.55.94-1.15 2.03-1.15 1.24 0 1.85.49 1.85 1.73v3.11h.83v.56l-1.51-.04ZM466.81 371.8c-.49 0-1.02-.12-1.54-.54v2.23h.83v.56l-1.51-.04-1.51.04v-.56h.83v-6.04c0-.46-.08-.46-.83-.46v-.56l2.12-.1v.59c.28-.22.91-.59 1.81-.59 1.73 0 2.82 1.13 2.82 2.72s-1.22 2.75-3.02 2.75Zm.01-4.99c-.26 0-.89.07-1.37.56-.17.17-.18.18-.18.41v2.54c0 .23 0 .24.13.4.54.65 1.1.65 1.27.65.78 0 1.62-.62 1.62-2.32 0-1.51-.67-2.24-1.48-2.24ZM474.2 371.8c-1.93 0-3.13-1.16-3.13-2.77 0-1.5 1.04-2.73 2.96-2.73.83 0 1.46.22 1.91.65.6.6.67 1.47.67 1.85 0 .32-.12.32-.38.32h-3.62c0 .61.01 2.21 1.7 2.21.78 0 1.46-.38 1.71-.96.07-.19.1-.25.3-.25.06 0 .29 0 .29.22 0 .2-.52 1.48-2.41 1.48Zm-.17-5.07c-.35 0-.83.14-1.14.62-.25.4-.26.9-.29 1.37h2.87c-.01-.42-.04-1.99-1.44-1.99ZM480.14 371.8c-.85 0-1.89-.26-1.89-1.55v-3.29h-.98v-.43c1.19-.04 1.78-1.22 1.79-2.42h.56v2.29h1.75v.56h-1.75v3.31c0 .28 0 1.04.7 1.04.34 0 .72-.29.72-1.1v-.61h.56v.64c0 .88-.54 1.56-1.45 1.56ZM484.4 371.69l-1.46.04v-.56h.83v-3.71c0-.47-.08-.47-.79-.47v-.56l2.09-.1v4.83h.74v.56l-1.4-.04Zm-.11-6.31a.939.939 0 1 1 0-1.88.939.939 0 1 1 0 1.88ZM489.33 371.8c-.85 0-1.89-.26-1.89-1.55v-3.29h-.98v-.43c1.19-.04 1.78-1.22 1.79-2.42h.56v2.29h1.75v.56h-1.75v3.31c0 .28 0 1.04.7 1.04.34 0 .72-.29.72-1.1v-.61h.56v.64c0 .88-.54 1.56-1.45 1.56ZM493.59 371.69l-1.46.04v-.56h.83v-3.71c0-.47-.08-.47-.79-.47v-.56l2.09-.1v4.83h.74v.56l-1.4-.04Zm-.1-6.31a.939.939 0 1 1 0-1.88.939.939 0 1 1 0 1.88ZM498.84 371.8c-2 0-3.06-1.2-3.06-2.69 0-1.6 1.09-2.82 3.06-2.82s3.06 1.21 3.06 2.82c0 1.47-1.04 2.69-3.06 2.69Zm1.27-4.46c-.26-.42-.77-.61-1.27-.61-.59 0-1.09.25-1.32.7-.2.41-.2 1.02-.2 1.56 0 1.04 0 2.34 1.52 2.34s1.52-1.29 1.52-2.34c0-.58 0-1.24-.25-1.64ZM508.16 371.69l-1.51.04v-.56h.83v-3.24c0-.91-.25-1.16-.66-1.16-.76 0-1.79.59-1.79 1.89v2.51h.83v.56l-1.51-.04-1.51.04v-.56h.83v-3.71c0-.47-.08-.47-.83-.47v-.56l2.06-.1v1.3c.31-.61.95-1.3 2.1-1.3s1.85.47 1.85 1.73v3.11h.83v.56l-1.51-.04ZM402.37 383.29c-.12-1.37-.24-2.33-1.96-2.33h-.91v6.97h1.83v.56c-.65-.04-1.98-.04-2.69-.04s-2.04 0-2.69.04v-.56h1.84v-6.97h-.92c-1.73 0-1.85.97-1.96 2.33h-.56l.25-2.89h8.07l.25 2.89h-.56ZM409.14 383.99l-2.58 5.48c-.32.68-1.02 1.43-1.94 1.43-.72 0-1.28-.49-1.28-1.1 0-.47.35-.7.68-.7.41 0 .7.29.7.68 0 .42-.28.59-.38.64.1.04.12.05.29.05.85 0 1.24-.82 1.5-1.39l.28-.58-2.24-4.76h-.77v-.56l1.37.04 1.49-.04v.56h-.65l1.52 3.24 1.38-2.95.06-.14c0-.14-.56-.14-.56-.14v-.56l1.09.04c.3 0 .66-.01.95-.04v.56c-.77 0-.8.08-.89.25ZM414.53 388.57c-.49 0-1.02-.12-1.54-.54v2.23h.83v.56l-1.51-.04-1.51.04v-.56h.83v-6.04c0-.46-.08-.46-.83-.46v-.56l2.12-.1v.59c.28-.22.91-.59 1.81-.59 1.73 0 2.82 1.13 2.82 2.72s-1.22 2.75-3.02 2.75Zm.01-4.99c-.26 0-.89.07-1.37.56-.17.17-.18.18-.18.41v2.54c0 .23 0 .24.13.4.54.65 1.1.65 1.27.65.78 0 1.62-.62 1.62-2.32 0-1.51-.67-2.24-1.48-2.24ZM421.92 388.57c-1.93 0-3.13-1.16-3.13-2.77 0-1.5 1.04-2.73 2.96-2.73.83 0 1.46.22 1.91.65.6.6.67 1.47.67 1.85 0 .32-.12.32-.38.32h-3.62c0 .61.01 2.21 1.7 2.21.78 0 1.46-.38 1.71-.96.07-.19.1-.25.3-.25.06 0 .29 0 .29.22 0 .2-.52 1.48-2.41 1.48Zm-.17-5.07c-.35 0-.83.14-1.14.62-.25.4-.26.9-.29 1.37h2.87c-.01-.42-.04-1.99-1.44-1.99ZM432.77 388.57c-2 0-3.06-1.2-3.06-2.69 0-1.6 1.09-2.82 3.06-2.82s3.06 1.21 3.06 2.82c0 1.47-1.04 2.69-3.06 2.69Zm1.27-4.46c-.26-.42-.77-.61-1.27-.61-.59 0-1.09.25-1.32.7-.2.41-.2 1.02-.2 1.56 0 1.04 0 2.34 1.52 2.34s1.52-1.29 1.52-2.34c0-.58 0-1.24-.25-1.64ZM440.72 381.89c-.31 0-.73-.23-.73-.74 0-.23.1-.46.28-.59-.08-.02-.14-.02-.2-.02-.3 0-1.21.11-1.21 1.43v1.21h1.45v.56h-1.38v4.2h1.04v.56c-.43-.04-1.2-.04-1.66-.04l-1.51.04v-.56h.83v-4.2h-.9v-.56h.9v-1.21c0-1.36 1.29-1.86 2.47-1.86.94 0 1.37.54 1.37 1.04s-.38.74-.74.74ZM448.46 388.57c-1.85 0-2.97-1.14-2.97-2.73 0-1.39.89-2.77 3.03-2.77.7 0 2.09.07 2.09 1.1 0 .5-.38.76-.76.76-.32 0-.74-.23-.74-.76 0-.11.02-.36.24-.55-.16-.04-.36-.07-.78-.07-1.55 0-1.55 1.56-1.55 2.23 0 .55 0 2.31 1.67 2.31.61 0 1.19-.23 1.5-.98.06-.16.07-.18.29-.18.12 0 .29 0 .29.17 0 .08-.36 1.48-2.3 1.48ZM454.61 388.57c-2 0-3.06-1.2-3.06-2.69 0-1.6 1.09-2.82 3.06-2.82s3.06 1.21 3.06 2.82c0 1.47-1.04 2.69-3.06 2.69Zm1.27-4.46c-.26-.42-.77-.61-1.27-.61-.59 0-1.09.25-1.32.7-.2.41-.2 1.02-.2 1.56 0 1.04 0 2.34 1.52 2.34s1.52-1.29 1.52-2.34c0-.58 0-1.24-.25-1.64ZM467.77 388.46l-1.51.04v-.56h.83v-3.24c0-.92-.26-1.16-.67-1.16-.74 0-1.79.59-1.79 1.89v2.51h.83v.56l-1.51-.04-1.51.04v-.56h.83v-3.24c0-.92-.26-1.16-.67-1.16-.74 0-1.79.59-1.79 1.89v2.51h.83v.56l-1.51-.04-1.51.04v-.56h.83v-3.71c0-.47-.08-.47-.83-.47v-.56l2.06-.1v1.3c.38-.76 1.07-1.3 2.11-1.3.46 0 1.56.04 1.8 1.15.31-.55.94-1.15 2.03-1.15 1.24 0 1.85.49 1.85 1.73v3.11h.83v.56l-1.51-.04ZM473.73 388.57c-.49 0-1.02-.12-1.54-.54v2.23h.83v.56l-1.51-.04-1.51.04v-.56h.83v-6.04c0-.46-.08-.46-.83-.46v-.56l2.12-.1v.59c.28-.22.91-.59 1.81-.59 1.73 0 2.82 1.13 2.82 2.72s-1.22 2.75-3.02 2.75Zm.02-4.99c-.26 0-.89.07-1.37.56-.17.17-.18.18-.18.41v2.54c0 .23 0 .24.13.4.54.65 1.1.65 1.27.65.78 0 1.62-.62 1.62-2.32 0-1.51-.67-2.24-1.48-2.24ZM481.13 388.57c-1.93 0-3.13-1.16-3.13-2.77 0-1.5 1.04-2.73 2.96-2.73.83 0 1.46.22 1.91.65.6.6.67 1.47.67 1.85 0 .32-.12.32-.38.32h-3.62c0 .61.01 2.21 1.7 2.21.78 0 1.46-.38 1.71-.96.07-.19.1-.25.3-.25.06 0 .29 0 .29.22 0 .2-.52 1.48-2.41 1.48Zm-.17-5.07c-.35 0-.83.14-1.14.62-.25.4-.26.9-.29 1.37h2.87c-.01-.42-.04-1.99-1.44-1.99ZM487.07 388.57c-.85 0-1.89-.26-1.89-1.55v-3.29h-.98v-.43c1.19-.04 1.78-1.22 1.79-2.42h.56v2.29h1.75v.56h-1.75v3.31c0 .28 0 1.04.7 1.04.34 0 .72-.29.72-1.1v-.61h.56v.64c0 .88-.54 1.56-1.45 1.56ZM491.33 388.46l-1.46.04v-.56h.83v-3.71c0-.47-.08-.47-.79-.47v-.56l2.09-.1v4.83h.74v.56l-1.4-.04Zm-.11-6.31a.939.939 0 1 1 0-1.88.939.939 0 1 1 0 1.88ZM496.26 388.57c-.85 0-1.89-.26-1.89-1.55v-3.29h-.98v-.43c1.19-.04 1.78-1.22 1.79-2.42h.56v2.29h1.75v.56h-1.75v3.31c0 .28 0 1.04.7 1.04.34 0 .72-.29.72-1.1v-.61h.56v.64c0 .88-.54 1.56-1.45 1.56ZM500.52 388.46l-1.46.04v-.56h.83v-3.71c0-.47-.08-.47-.79-.47v-.56l2.09-.1v4.83h.74v.56l-1.4-.04Zm-.11-6.31a.939.939 0 1 1 0-1.88.939.939 0 1 1 0 1.88ZM505.76 388.57c-2 0-3.06-1.2-3.06-2.69 0-1.6 1.09-2.82 3.06-2.82s3.06 1.21 3.06 2.82c0 1.47-1.04 2.69-3.06 2.69Zm1.27-4.46c-.26-.42-.77-.61-1.27-.61-.59 0-1.09.25-1.32.7-.2.41-.2 1.02-.2 1.56 0 1.04 0 2.34 1.52 2.34s1.52-1.29 1.52-2.34c0-.58 0-1.24-.25-1.64ZM515.08 388.46l-1.51.04v-.56h.83v-3.24c0-.91-.25-1.16-.66-1.16-.76 0-1.79.59-1.79 1.89v2.51h.83v.56l-1.51-.04-1.51.04v-.56h.83v-3.71c0-.47-.08-.47-.83-.47v-.56l2.06-.1v1.3c.31-.61.95-1.3 2.1-1.3s1.85.47 1.85 1.73v3.11h.83v.56l-1.51-.04Z"/><path class="cls-1" d="M388.72 321.3h-26.04v74.89h26.04"/></svg>