<svg id="Layer_1" data-name="Layer 1" xmlns="http://www.w3.org/2000/svg" viewBox="0 0 266.36 219.87"><defs><style>.cls-2{fill:#fff}.cls-2,.cls-3{stroke-width:0}.cls-4{fill:#dae8f6}.cls-4,.cls-5{stroke:#6d8ebf;stroke-miterlimit:10}.cls-3{fill:#231f20}.cls-5{fill:none}</style></defs><path class="cls-4" d="m23.86 131.85 70.72-16.74L124 138.05l8.88 49.81-95.69 16.58-13.33-72.59z"/><path class="cls-5" d="m10.47 58.9 149.35-45.32 77.72 37.66-14.57 121.03-185.78 32.17L10.47 58.9z"/><path class="cls-5" d="M237.54 51.24 37.19 204.44 159.82 13.58"/><circle class="cls-4" cx="160.11" cy="13.58" r="3.83"/><circle class="cls-4" cx="237.54" cy="51.24" r="3.83"/><circle class="cls-4" cx="222.97" cy="172.27" r="3.83"/><circle class="cls-4" cx="37.19" cy="204.44" r="3.83"/><circle class="cls-4" cx="10.47" cy="58.9" r="3.83"/><circle class="cls-4" cx="23.86" cy="131.8" r="2.49"/><path class="cls-3" d="M2.79 46.76H1.73v1.53h.65v.28c-.23-.02-.82-.02-1.07-.02s-.85 0-1.07.02v-.28h.65v-3.55H.23v-.28h2.5c1 0 1.59.51 1.59 1.17 0 .7-.7 1.13-1.53 1.13Zm-.28-2.02H1.7v1.78h.8c.91 0 .91-.46.91-.89s0-.89-.9-.89ZM6.66 48.57H4.95v-.07c0-.08 0-.09.05-.14l.8-.82c.28-.28.43-.56.43-.83 0-.3-.18-.57-.53-.57-.14 0-.3.04-.41.14.06.02.23.08.23.29s-.16.29-.29.29c-.1 0-.29-.06-.29-.3 0-.36.38-.61.86-.61.56 0 .98.3.98.76 0 .38-.26.57-.71.9-.18.13-.39.3-.58.46h.59c.06 0 .36 0 .41-.02.06-.03.09-.28.1-.36h.19l-.12.89ZM13.13 46.61H9.55c-.09 0-.2 0-.2-.12s.11-.12.2-.12h3.59c.08 0 .2 0 .2.12s-.11.12-.2.12Zm.01 1.17H9.55c-.08 0-.2 0-.2-.12s.11-.12.2-.12h3.58c.09 0 .2 0 .2.12s-.11.12-.2.12ZM17.22 48.56c-.24 0-.76 0-.97.02v-.19h.19c.54 0 .56-.07.56-.29v-3.11c-.31.16-.67.16-.79.16v-.19c.19 0 .72 0 1.09-.38.14 0 .14.01.14.16v3.36c0 .22.02.29.56.29h.19v.19c-.21-.02-.73-.02-.97-.02ZM21.22 48.01c-.26.57-.72.7-1.04.7-.29 0-.73-.12-.99-.61-.25-.46-.27-1-.27-1.45 0-.48.03-.95.22-1.36.25-.56.68-.71 1.04-.71.25 0 .74.1 1.02.67.21.44.24.92.24 1.4s-.03.94-.22 1.36Zm-.34-2.6c-.11-.59-.51-.7-.71-.7-.15 0-.6.05-.71.77-.05.32-.05.72-.05 1.1 0 .35 0 .91.07 1.27.11.58.46.73.7.73.27 0 .61-.18.7-.75.07-.38.07-.79.07-1.24 0-.38 0-.83-.06-1.17ZM24.22 48.01c-.26.57-.72.7-1.04.7-.29 0-.73-.12-.99-.61-.25-.46-.27-1-.27-1.45 0-.48.03-.95.22-1.36.25-.56.68-.71 1.04-.71.25 0 .74.1 1.02.67.21.44.24.92.24 1.4s-.03.94-.22 1.36Zm-.34-2.6c-.11-.59-.51-.7-.71-.7-.15 0-.6.05-.71.77-.05.32-.05.72-.05 1.1 0 .35 0 .91.07 1.27.11.58.46.73.7.73.27 0 .61-.18.7-.75.07-.38.07-.79.07-1.24 0-.38 0-.83-.06-1.17ZM25.35 49.73s-.06-.02-.06-.07c0-.02 0-.03.04-.07.26-.28.43-.65.42-1.12-.07.06-.15.1-.24.1-.22 0-.32-.16-.32-.32s.11-.32.32-.32c.24 0 .38.25.38.63 0 .69-.47 1.16-.55 1.16ZM28.88 48.01c-.26.57-.72.7-1.04.7-.29 0-.73-.12-.99-.61-.25-.46-.27-1-.27-1.45 0-.48.03-.95.22-1.36.25-.56.68-.71 1.04-.71.25 0 .74.1 1.02.67.21.44.24.92.24 1.4s-.03.94-.22 1.36Zm-.33-2.6c-.11-.59-.51-.7-.71-.7-.15 0-.6.05-.71.77-.05.32-.05.72-.05 1.1 0 .35 0 .91.07 1.27.11.58.46.73.7.73.27 0 .61-.18.7-.75.07-.38.07-.79.07-1.24 0-.38 0-.83-.06-1.17ZM31.88 48.01c-.26.57-.72.7-1.04.7-.29 0-.73-.12-.99-.61-.25-.46-.27-1-.27-1.45 0-.48.03-.95.22-1.36.25-.56.68-.71 1.04-.71.25 0 .74.1 1.02.67.21.44.24.92.24 1.4s-.03.94-.22 1.36Zm-.33-2.6c-.11-.59-.51-.7-.71-.7-.15 0-.6.05-.71.77-.05.32-.05.72-.05 1.1 0 .35 0 .91.07 1.27.11.58.46.73.7.73.27 0 .61-.18.7-.75.07-.38.07-.79.07-1.24 0-.38 0-.83-.06-1.17ZM34.88 48.01c-.26.57-.72.7-1.04.7-.29 0-.73-.12-.99-.61-.25-.46-.27-1-.27-1.45 0-.48.03-.95.22-1.36.25-.56.68-.71 1.04-.71.25 0 .74.1 1.02.67.21.44.24.92.24 1.4s-.03.94-.22 1.36Zm-.33-2.6c-.11-.59-.51-.7-.71-.7-.15 0-.6.05-.71.77-.05.32-.05.72-.05 1.1 0 .35 0 .91.07 1.27.11.58.46.73.7.73.27 0 .61-.18.7-.75.07-.38.07-.79.07-1.24 0-.38 0-.83-.06-1.17ZM154.25 3.25h-1.06v1.53h.65v.28c-.23-.02-.82-.02-1.07-.02s-.85 0-1.07.02v-.28h.65V1.23h-.65V.95h2.5c1 0 1.59.51 1.59 1.17 0 .7-.7 1.13-1.53 1.13Zm-.29-2.02h-.81v1.78h.8c.91 0 .91-.46.91-.89s0-.89-.9-.89ZM157.27 5.1c-.52 0-.9-.24-.9-.6 0-.2.14-.31.31-.31.18 0 .3.12.3.3 0 .16-.1.26-.23.3.19.12.4.14.5.14.42 0 .42-.41.42-.6 0-.2 0-.6-.44-.6h-.18c-.07 0-.11 0-.11-.07 0-.02 0-.06.05-.07.02 0 .03 0 .19-.02.42-.02.42-.55.42-.6 0-.13-.01-.39-.34-.39-.12 0-.3.03-.44.14.02 0 .23.05.23.28 0 .15-.1.28-.28.28-.15 0-.28-.11-.28-.28 0-.32.31-.58.79-.58.56 0 .87.25.87.56 0 .34-.29.57-.57.66.58.12.7.47.7.69 0 .36-.29.76-1.01.76ZM164.59 3.1h-3.58c-.09 0-.2 0-.2-.12s.11-.12.2-.12h3.59c.08 0 .2 0 .2.12s-.11.12-.2.12Zm.01 1.16h-3.59c-.08 0-.2 0-.2-.12s.11-.12.2-.12h3.58c.09 0 .2 0 .2.12s-.11.12-.2.12ZM169.66 5.06h-2.22c0-.14 0-.16.07-.22l1.15-1.28c.33-.37.63-.85.63-1.33s-.26-.98-.8-.98c-.35 0-.67.22-.81.61h.08c.21 0 .32.16.32.31 0 .25-.21.32-.31.32-.02 0-.32 0-.32-.34 0-.53.44-1.09 1.12-1.09.73 0 1.27.48 1.27 1.16 0 .6-.36.92-1.29 1.75l-.64.62h1.08c.13 0 .53 0 .57-.05.06-.09.1-.35.13-.53h.15l-.17 1.04ZM172.67 4.49c-.26.57-.72.7-1.04.7-.29 0-.73-.12-.99-.61-.25-.46-.27-1-.27-1.45 0-.48.03-.95.22-1.36.25-.56.68-.71 1.04-.71.25 0 .74.1 1.02.67.21.44.24.92.24 1.4s-.03.94-.22 1.36Zm-.33-2.59c-.11-.59-.51-.7-.71-.7-.15 0-.6.05-.71.77-.05.32-.05.72-.05 1.1 0 .35 0 .91.07 1.27.11.58.46.73.7.73.27 0 .61-.18.7-.75.07-.38.07-.79.07-1.24 0-.38 0-.83-.06-1.17ZM175.67 4.49c-.26.57-.72.7-1.04.7-.29 0-.73-.12-.99-.61-.25-.46-.27-1-.27-1.45 0-.48.03-.95.22-1.36.25-.56.68-.71 1.04-.71.25 0 .74.1 1.02.67.21.44.24.92.24 1.4s-.03.94-.22 1.36Zm-.33-2.59c-.11-.59-.51-.7-.71-.7-.15 0-.6.05-.71.77-.05.32-.05.72-.05 1.1 0 .35 0 .91.07 1.27.11.58.46.73.7.73.27 0 .61-.18.7-.75.07-.38.07-.79.07-1.24 0-.38 0-.83-.06-1.17ZM176.81 6.22s-.06-.02-.06-.07c0-.02 0-.03.04-.07.26-.28.43-.65.42-1.12-.07.06-.15.1-.24.1-.22 0-.32-.16-.32-.32s.11-.32.32-.32c.24 0 .38.25.38.63 0 .69-.47 1.16-.55 1.16ZM180.34 4.49c-.26.57-.72.7-1.04.7-.29 0-.73-.12-.99-.61-.25-.46-.27-1-.27-1.45 0-.48.03-.95.22-1.36.25-.56.68-.71 1.04-.71.25 0 .74.1 1.02.67.21.44.24.92.24 1.4s-.03.94-.22 1.36ZM180 1.9c-.11-.59-.51-.7-.71-.7-.15 0-.6.05-.71.77-.05.32-.05.72-.05 1.1 0 .35 0 .91.07 1.27.11.58.46.73.7.73.27 0 .61-.18.7-.75.07-.38.07-.79.07-1.24 0-.38 0-.83-.06-1.17ZM183.34 4.49c-.26.57-.72.7-1.04.7-.29 0-.73-.12-.99-.61-.25-.46-.27-1-.27-1.45 0-.48.03-.95.22-1.36.25-.56.68-.71 1.04-.71.25 0 .74.1 1.02.67.21.44.24.92.24 1.4s-.03.94-.22 1.36ZM183 1.9c-.11-.59-.51-.7-.71-.7-.15 0-.6.05-.71.77-.05.32-.05.72-.05 1.1 0 .35 0 .91.07 1.27.11.58.46.73.7.73.27 0 .61-.18.7-.75.07-.38.07-.79.07-1.24 0-.38 0-.83-.06-1.17ZM186.34 4.49c-.26.57-.72.7-1.04.7-.29 0-.73-.12-.99-.61-.25-.46-.27-1-.27-1.45 0-.48.03-.95.22-1.36.25-.56.68-.71 1.04-.71.25 0 .74.1 1.02.67.21.44.24.92.24 1.4s-.03.94-.22 1.36ZM186 1.9c-.11-.59-.51-.7-.71-.7-.15 0-.6.05-.71.77-.05.32-.05.72-.05 1.1 0 .35 0 .91.07 1.27.11.58.46.73.7.73.27 0 .61-.18.7-.75.07-.38.07-.79.07-1.24 0-.38 0-.83-.06-1.17ZM233.81 41.19h-1.06v1.53h.65V43c-.23-.02-.82-.02-1.07-.02s-.84 0-1.07.02v-.28h.65v-3.55h-.65v-.28h2.5c1 0 1.59.51 1.59 1.17 0 .7-.7 1.13-1.53 1.13Zm-.29-2.02h-.81v1.78h.8c.91 0 .91-.46.91-.89s0-.89-.9-.89ZM237.25 42.99c-.17 0-.54 0-.69.01v-.19h.45v-.44h-1.15v-.19l1.39-1.75c.05-.06.05-.06.14-.06.11 0 .12.02.12.13v1.68h.39v.19h-.39v.44h.39V43c-.14-.01-.49-.01-.65-.01Zm-.2-2.04-.99 1.24h.99v-1.24ZM244.15 41.04h-3.58c-.09 0-.2 0-.2-.12s.11-.12.2-.12h3.59c.08 0 .2 0 .2.12s-.11.12-.2.12Zm0 1.16h-3.59c-.08 0-.2 0-.2-.12s.11-.12.2-.12h3.58c.09 0 .2 0 .2.12s-.11.12-.2.12ZM248.08 43.13c-.67 0-1.08-.58-1.08-1.1 0-.28.21-.32.29-.32.2 0 .3.15.3.29s-.1.29-.3.29c-.07 0-.08 0-.1-.01.1.35.44.67.88.67.28 0 .5-.16.64-.39.14-.25.14-.61.14-.82 0-.3-.01-.53-.11-.76-.05-.11-.2-.38-.51-.38-.49 0-.71.32-.77.42-.02.04-.04.05-.08.05-.08 0-.08-.05-.08-.16v-1.77c0-.1 0-.14.06-.14 0 0 .02 0 .07.02.28.13.56.17.8.17.4 0 .7-.12.82-.17.03-.02.05-.02.05-.02.04 0 .06.03.06.07 0 .08-.42.62-1.16.62-.19 0-.39-.04-.51-.08v1.17c.22-.21.47-.31.76-.31.65 0 1.14.6 1.14 1.31 0 .76-.61 1.34-1.31 1.34ZM252.23 42.44c-.26.57-.72.7-1.04.7-.29 0-.73-.12-.99-.61-.25-.46-.27-1-.27-1.45 0-.48.03-.95.22-1.36.25-.56.68-.71 1.04-.71.25 0 .74.1 1.02.67.21.44.24.92.24 1.4s-.03.94-.22 1.36Zm-.34-2.6c-.11-.59-.51-.7-.71-.7-.15 0-.6.05-.71.77-.05.32-.05.72-.05 1.1 0 .35 0 .91.07 1.27.11.58.46.73.7.73.27 0 .61-.18.7-.75.07-.38.07-.79.07-1.24 0-.38 0-.83-.06-1.17ZM255.23 42.44c-.26.57-.72.7-1.04.7-.29 0-.73-.12-.99-.61-.25-.46-.27-1-.27-1.45 0-.48.03-.95.22-1.36.25-.56.68-.71 1.04-.71.25 0 .74.1 1.02.67.21.44.24.92.24 1.4s-.03.94-.22 1.36Zm-.34-2.6c-.11-.59-.51-.7-.71-.7-.15 0-.6.05-.71.77-.05.32-.05.72-.05 1.1 0 .35 0 .91.07 1.27.11.58.46.73.7.73.27 0 .61-.18.7-.75.07-.38.07-.79.07-1.24 0-.38 0-.83-.06-1.17ZM256.36 44.16s-.06-.02-.06-.07c0-.02 0-.03.04-.07.26-.28.43-.65.42-1.12-.07.06-.15.1-.24.1-.22 0-.32-.16-.32-.32s.11-.32.32-.32c.24 0 .38.25.38.63 0 .69-.47 1.16-.55 1.16ZM259.9 42.44c-.26.57-.72.7-1.04.7-.29 0-.73-.12-.99-.61-.25-.46-.27-1-.27-1.45 0-.48.03-.95.22-1.36.25-.56.68-.71 1.04-.71.25 0 .74.1 1.02.67.21.44.24.92.24 1.4s-.03.94-.22 1.36Zm-.34-2.6c-.11-.59-.51-.7-.71-.7-.15 0-.6.05-.71.77-.05.32-.05.72-.05 1.1 0 .35 0 .91.07 1.27.11.58.46.73.7.73.27 0 .61-.18.7-.75.07-.38.07-.79.07-1.24 0-.38 0-.83-.06-1.17ZM262.9 42.44c-.26.57-.72.7-1.04.7-.29 0-.73-.12-.99-.61-.25-.46-.27-1-.27-1.45 0-.48.03-.95.22-1.36.25-.56.68-.71 1.04-.71.25 0 .74.1 1.02.67.21.44.24.92.24 1.4s-.03.94-.22 1.36Zm-.34-2.6c-.11-.59-.51-.7-.71-.7-.15 0-.6.05-.71.77-.05.32-.05.72-.05 1.1 0 .35 0 .91.07 1.27.11.58.46.73.7.73.27 0 .61-.18.7-.75.07-.38.07-.79.07-1.24 0-.38 0-.83-.06-1.17ZM265.9 42.44c-.26.57-.72.7-1.04.7-.29 0-.73-.12-.99-.61-.25-.46-.27-1-.27-1.45 0-.48.03-.95.22-1.36.25-.56.68-.71 1.04-.71.25 0 .74.1 1.02.67.21.44.24.92.24 1.4s-.03.94-.22 1.36Zm-.34-2.6c-.11-.59-.51-.7-.71-.7-.15 0-.6.05-.71.77-.05.32-.05.72-.05 1.1 0 .35 0 .91.07 1.27.11.58.46.73.7.73.27 0 .61-.18.7-.75.07-.38.07-.79.07-1.24 0-.38 0-.83-.06-1.17ZM216.55 183.42h-1.06v1.53h.65v.28c-.23-.02-.82-.02-1.07-.02s-.85 0-1.07.02v-.28h.65v-3.55H214v-.28h2.5c1 0 1.59.51 1.59 1.17 0 .7-.7 1.13-1.53 1.13Zm-.29-2.02h-.81v1.78h.8c.91 0 .91-.46.91-.89s0-.89-.9-.89ZM219.51 185.27c-.5 0-.81-.34-.81-.68 0-.24.21-.28.27-.28.1 0 .27.06.27.27 0 .16-.12.26-.26.27.17.23.42.25.52.25.48 0 .48-.4.48-.69 0-.32 0-.67-.36-.67-.16 0-.38.04-.54.22-.03.03-.04.05-.09.05-.09 0-.09-.05-.09-.12v-1.17c0-.06 0-.11.06-.11.01 0 .02 0 .05.02.1.04.32.11.62.11.17 0 .38-.02.61-.11.04-.02.05-.02.06-.02.05 0 .06.04.06.07 0 .1-.37.55-.95.55-.14 0-.18 0-.29-.03v.53c.19-.13.4-.14.52-.14.59 0 .91.37.91.83 0 .49-.39.85-1.03.85ZM226.89 183.27h-3.58c-.09 0-.2 0-.2-.12s.11-.12.2-.12h3.59c.08 0 .2 0 .2.12s-.11.12-.2.12Zm.01 1.16h-3.59c-.08 0-.2 0-.2-.12s.11-.12.2-.12h3.58c.09 0 .2 0 .2.12s-.11.12-.2.12ZM231.66 184.24v.52c0 .22.01.28.46.28h.13v.19c-.25-.02-.56-.02-.82-.02s-.56 0-.81.02v-.19h.13c.44 0 .46-.07.46-.28v-.52h-1.6v-.19l1.84-2.81c.05-.07.07-.07.12-.07.1 0 .1.04.1.16v2.73h.6v.19h-.6Zm-.43-2.42-1.46 2.24h1.46v-2.24ZM234.97 184.67c-.26.57-.72.7-1.04.7-.29 0-.73-.12-.99-.61-.25-.46-.27-1-.27-1.45 0-.48.03-.95.22-1.36.25-.56.68-.71 1.04-.71.25 0 .74.1 1.02.67.21.44.24.92.24 1.4s-.03.94-.22 1.36Zm-.33-2.6c-.11-.59-.51-.7-.71-.7-.15 0-.6.05-.71.77-.05.32-.05.72-.05 1.1 0 .35 0 .91.07 1.27.11.58.46.73.7.73.27 0 .61-.18.7-.75.07-.38.07-.79.07-1.24 0-.38 0-.83-.06-1.17ZM237.97 184.67c-.26.57-.72.7-1.04.7-.29 0-.73-.12-.99-.61-.25-.46-.27-1-.27-1.45 0-.48.03-.95.22-1.36.25-.56.68-.71 1.04-.71.25 0 .74.1 1.02.67.21.44.24.92.24 1.4s-.03.94-.22 1.36Zm-.33-2.6c-.11-.59-.51-.7-.71-.7-.15 0-.6.05-.71.77-.05.32-.05.72-.05 1.1 0 .35 0 .91.07 1.27.11.58.46.73.7.73.27 0 .61-.18.7-.75.07-.38.07-.79.07-1.24 0-.38 0-.83-.06-1.17ZM239.11 186.39s-.06-.02-.06-.07c0-.02 0-.03.04-.07.26-.28.43-.65.42-1.12-.07.06-.15.1-.24.1-.22 0-.32-.16-.32-.32s.11-.32.32-.32c.24 0 .38.25.38.63 0 .69-.47 1.16-.55 1.16ZM242.64 184.67c-.26.57-.72.7-1.04.7-.29 0-.73-.12-.99-.61-.25-.46-.27-1-.27-1.45 0-.48.03-.95.22-1.36.25-.56.68-.71 1.04-.71.25 0 .74.1 1.02.67.21.44.24.92.24 1.4s-.03.94-.22 1.36Zm-.34-2.6c-.11-.59-.51-.7-.71-.7-.15 0-.6.05-.71.77-.05.32-.05.72-.05 1.1 0 .35 0 .91.07 1.27.11.58.46.73.7.73.27 0 .61-.18.7-.75.07-.38.07-.79.07-1.24 0-.38 0-.83-.06-1.17ZM245.64 184.67c-.26.57-.72.7-1.04.7-.29 0-.73-.12-.99-.61-.25-.46-.27-1-.27-1.45 0-.48.03-.95.22-1.36.25-.56.68-.71 1.04-.71.25 0 .74.1 1.02.67.21.44.24.92.24 1.4s-.03.94-.22 1.36Zm-.34-2.6c-.11-.59-.51-.7-.71-.7-.15 0-.6.05-.71.77-.05.32-.05.72-.05 1.1 0 .35 0 .91.07 1.27.11.58.46.73.7.73.27 0 .61-.18.7-.75.07-.38.07-.79.07-1.24 0-.38 0-.83-.06-1.17ZM248.64 184.67c-.26.57-.72.7-1.04.7-.29 0-.73-.12-.99-.61-.25-.46-.27-1-.27-1.45 0-.48.03-.95.22-1.36.25-.56.68-.71 1.04-.71.25 0 .74.1 1.02.67.21.44.24.92.24 1.4s-.03.94-.22 1.36Zm-.34-2.6c-.11-.59-.51-.7-.71-.7-.15 0-.6.05-.71.77-.05.32-.05.72-.05 1.1 0 .35 0 .91.07 1.27.11.58.46.73.7.73.27 0 .61-.18.7-.75.07-.38.07-.79.07-1.24 0-.38 0-.83-.06-1.17ZM29.01 216.29h-1.06v1.53h.65v.28c-.23-.02-.82-.02-1.07-.02s-.85 0-1.07.02v-.28h.65v-3.55h-.65v-.28h2.5c1 0 1.59.51 1.59 1.17 0 .7-.7 1.13-1.53 1.13Zm-.29-2.02h-.81v1.78h.8c.91 0 .91-.46.91-.89s0-.89-.9-.89ZM32.11 218.09c-.2 0-.62 0-.8.01v-.19h.56v-2.07c-.24.08-.46.08-.52.08h-.08v-.19h.08c.08 0 .5 0 .8-.23.04-.03.04-.03.09-.03.1 0 .1.04.1.13v2.3h.56v.19c-.18-.01-.6-.01-.8-.01ZM39.35 216.14h-3.58c-.09 0-.2 0-.2-.12s.11-.12.2-.12h3.59c.08 0 .2 0 .2.12s-.11.12-.2.12Zm.01 1.16h-3.59c-.08 0-.2 0-.2-.12s.11-.12.2-.12h3.58c.09 0 .2 0 .2.12s-.11.12-.2.12ZM44.42 218.1H42.2c0-.14 0-.16.07-.22l1.15-1.28c.33-.37.63-.85.63-1.33s-.26-.98-.8-.98c-.35 0-.67.22-.81.61h.08c.21 0 .32.16.32.31 0 .25-.21.32-.31.32-.02 0-.32 0-.32-.34 0-.53.44-1.08 1.12-1.08.73 0 1.27.48 1.27 1.16 0 .6-.36.92-1.29 1.75l-.64.62h1.08c.13 0 .53 0 .57-.05.06-.09.1-.35.13-.53h.15l-.17 1.04ZM47.43 217.54c-.26.57-.72.7-1.04.7-.29 0-.73-.12-.99-.61-.25-.46-.27-1-.27-1.45 0-.48.03-.95.22-1.36.25-.56.68-.71 1.04-.71.25 0 .74.1 1.02.67.21.44.24.92.24 1.4s-.03.94-.22 1.36Zm-.33-2.6c-.11-.59-.51-.7-.71-.7-.15 0-.6.05-.71.77-.05.32-.05.72-.05 1.1 0 .35 0 .91.07 1.26.11.58.46.73.7.73.27 0 .61-.18.7-.75.07-.38.07-.79.07-1.24 0-.38 0-.83-.06-1.17ZM50.43 217.54c-.26.57-.72.7-1.04.7-.29 0-.73-.12-.99-.61-.25-.46-.27-1-.27-1.45 0-.48.03-.95.22-1.36.25-.56.68-.71 1.04-.71.25 0 .74.1 1.02.67.21.44.24.92.24 1.4s-.03.94-.22 1.36Zm-.33-2.6c-.11-.59-.51-.7-.71-.7-.15 0-.6.05-.71.77-.05.32-.05.72-.05 1.1 0 .35 0 .91.07 1.26.11.58.46.73.7.73.27 0 .61-.18.7-.75.07-.38.07-.79.07-1.24 0-.38 0-.83-.06-1.17ZM51.57 219.26s-.06-.02-.06-.07c0-.02 0-.03.04-.07.26-.28.43-.65.42-1.12-.07.06-.15.1-.24.1-.22 0-.32-.16-.32-.32s.11-.32.32-.32c.24 0 .38.25.38.63 0 .69-.47 1.16-.55 1.16ZM55.1 217.54c-.26.57-.72.7-1.04.7-.29 0-.73-.12-.99-.61-.25-.46-.27-1-.27-1.45 0-.48.03-.95.22-1.36.25-.56.68-.71 1.04-.71.25 0 .74.1 1.02.67.21.44.24.92.24 1.4s-.03.94-.22 1.36Zm-.34-2.6c-.11-.59-.51-.7-.71-.7-.15 0-.6.05-.71.77-.05.32-.05.72-.05 1.1 0 .35 0 .91.07 1.26.11.58.46.73.7.73.27 0 .61-.18.7-.75.07-.38.07-.79.07-1.24 0-.38 0-.83-.06-1.17ZM58.1 217.54c-.26.57-.72.7-1.04.7-.29 0-.73-.12-.99-.61-.25-.46-.27-1-.27-1.45 0-.48.03-.95.22-1.36.25-.56.68-.71 1.04-.71.25 0 .74.1 1.02.67.21.44.24.92.24 1.4s-.03.94-.22 1.36Zm-.34-2.6c-.11-.59-.51-.7-.71-.7-.15 0-.6.05-.71.77-.05.32-.05.72-.05 1.1 0 .35 0 .91.07 1.26.11.58.46.73.7.73.27 0 .61-.18.7-.75.07-.38.07-.79.07-1.24 0-.38 0-.83-.06-1.17ZM61.1 217.54c-.26.57-.72.7-1.04.7-.29 0-.73-.12-.99-.61-.25-.46-.27-1-.27-1.45 0-.48.03-.95.22-1.36.25-.56.68-.71 1.04-.71.25 0 .74.1 1.02.67.21.44.24.92.24 1.4s-.03.94-.22 1.36Zm-.34-2.6c-.11-.59-.51-.7-.71-.7-.15 0-.6.05-.71.77-.05.32-.05.72-.05 1.1 0 .35 0 .91.07 1.26.11.58.46.73.7.73.27 0 .61-.18.7-.75.07-.38.07-.79.07-1.24 0-.38 0-.83-.06-1.17ZM13.29 127.04h-2.58v-.28h.65v-3.55h-.65v-.28h2.58c1.19 0 2.09.77 2.09 2.09s-.9 2.02-2.08 2.02Zm.94-3.3c-.29-.42-.79-.53-1.19-.53h-.88v3.55h.88c.37 0 .89-.1 1.18-.5.19-.27.26-.59.26-1.24 0-.56-.05-.97-.26-1.27ZM17.7 127.04h-1.71v-.07c0-.08 0-.09.05-.14l.8-.82c.28-.28.43-.56.43-.83 0-.3-.18-.57-.53-.57-.14 0-.3.04-.41.14.06.02.23.08.23.29s-.16.29-.29.29c-.1 0-.29-.06-.29-.3 0-.36.38-.61.86-.61.56 0 .98.3.98.76 0 .38-.26.57-.71.9-.18.13-.39.3-.58.46h.59c.06 0 .36 0 .41-.02.06-.03.09-.28.1-.36h.19l-.12.89ZM89.66 107.62h-2.58v-.28h.65v-3.55h-.65v-.28h2.58c1.19 0 2.09.77 2.09 2.09s-.9 2.02-2.08 2.02Zm.94-3.3c-.29-.42-.79-.53-1.19-.53h-.88v3.55h.88c.37 0 .89-.1 1.18-.5.19-.27.26-.59.26-1.24 0-.56-.05-.97-.26-1.27ZM93.23 107.67c-.52 0-.9-.24-.9-.6 0-.2.14-.31.31-.31.18 0 .3.12.3.3 0 .16-.1.26-.23.3.19.12.4.14.5.14.42 0 .42-.41.42-.6 0-.2 0-.6-.44-.6h-.18c-.07 0-.11 0-.11-.07 0-.02 0-.06.05-.07.02 0 .03 0 .19-.02.42-.02.42-.55.42-.6 0-.13-.01-.39-.34-.39-.12 0-.3.03-.44.14.02 0 .23.05.23.28 0 .15-.1.28-.28.28-.15 0-.28-.11-.28-.28 0-.32.31-.58.79-.58.56 0 .87.25.87.56 0 .34-.29.57-.57.66.58.12.7.47.7.69 0 .36-.29.76-1.01.76Z"/><path class="cls-2" d="M3.18 85.63h26.13v11.66H3.18z"/><path class="cls-3" d="M122.99 127.97h-2.58v-.28h.65v-3.55h-.65v-.28h2.58c1.19 0 2.09.77 2.09 2.09s-.9 2.02-2.08 2.02Zm.95-3.3c-.29-.42-.79-.53-1.19-.53h-.88v3.55h.88c.37 0 .89-.1 1.18-.5.19-.27.26-.59.26-1.24 0-.56-.05-.97-.26-1.27ZM126.99 127.96c-.17 0-.54 0-.69.01v-.19h.45v-.44h-1.15v-.19l1.4-1.75c.05-.06.05-.06.14-.06.11 0 .12.02.12.13v1.68h.39v.19h-.39v.44h.39v.19c-.14-.01-.49-.01-.65-.01Zm-.2-2.04-.99 1.24h.99v-1.24ZM139.53 181.11h-2.58v-.28h.65v-3.55h-.65V177h2.58c1.19 0 2.09.77 2.09 2.09s-.9 2.02-2.08 2.02Zm.94-3.29c-.29-.42-.79-.53-1.19-.53h-.88v3.55h.88c.37 0 .89-.1 1.18-.5.19-.27.26-.59.26-1.24 0-.56-.05-.97-.26-1.27ZM143.04 181.16c-.5 0-.81-.34-.81-.68 0-.24.21-.28.27-.28.1 0 .27.06.27.27 0 .16-.12.26-.26.27.17.23.42.25.52.25.48 0 .48-.4.48-.69 0-.32 0-.67-.36-.67-.16 0-.38.04-.54.22-.03.03-.04.05-.09.05-.09 0-.09-.05-.09-.12v-1.17c0-.06 0-.11.06-.11.01 0 .02 0 .05.02.1.04.32.11.62.11.17 0 .38-.02.61-.11.04-.02.05-.02.06-.02.05 0 .06.04.06.07 0 .1-.37.55-.95.55-.14 0-.18 0-.29-.03v.53c.19-.13.4-.14.52-.14.59 0 .91.37.91.83 0 .49-.39.85-1.03.85ZM9.51 93.2c-.77 0-1.36-.36-1.36-.9 0-.31.21-.47.46-.47s.46.19.46.46c0 .25-.15.4-.35.45.29.18.6.2.76.2.62 0 .62-.61.62-.89 0-.31 0-.89-.65-.89h-.26c-.11 0-.17 0-.17-.11 0-.04.01-.1.07-.1.03 0 .04-.01.29-.02.62-.04.63-.82.63-.9 0-.2-.02-.58-.52-.58-.19 0-.45.05-.66.22.02 0 .35.07.35.42 0 .22-.15.41-.42.41-.23 0-.41-.16-.41-.42 0-.48.47-.86 1.18-.86.85 0 1.3.37 1.3.83 0 .52-.44.86-.85.98.87.19 1.04.7 1.04 1.03 0 .55-.44 1.15-1.51 1.15ZM13.04 93.2c-1.45 0-1.45-1.39-1.45-1.98s0-2.01 1.45-2.01 1.45 1.43 1.45 2.01-.01 1.98-1.45 1.98Zm.58-3.4a.628.628 0 0 0-.58-.38c-.14 0-.56.06-.64.59-.05.31-.05.7-.05 1.13 0 .33 0 .95.05 1.27.08.44.41.57.63.57.18 0 .56-.08.64-.64.04-.31.04-.86.04-1.19 0-.49 0-1.13-.1-1.35ZM21.92 93.11l-.76.02v-.28h.41v-1.62c0-.46-.13-.58-.34-.58-.37 0-.89.29-.89.95v1.25h.41v.28l-.76-.02-.76.02v-.28h.41v-1.62c0-.46-.13-.58-.34-.58-.37 0-.89.29-.89.95v1.25h.41v.28l-.76-.02-.76.02v-.28h.41V91c0-.23-.04-.23-.41-.23v-.28l1.03-.05v.65c.19-.38.53-.65 1.06-.65.23 0 .78.02.9.58.16-.28.47-.58 1.01-.58.62 0 .92.25.92.86v1.55h.41v.28l-.76-.02ZM23.83 93.11l-.74.02v-.28h.41v-3.32c0-.23-.04-.23-.41-.23v-.28l1.06-.05v3.88h.41v.28l-.74-.02Z"/><path class="cls-2" d="M123.65 47.42h26.13v11.66h-26.13z"/><path class="cls-3" d="M129.89 54.98c-.74 0-1.21-.51-1.21-1.02 0-.37.31-.42.4-.42.14 0 .4.09.4.41 0 .25-.17.39-.39.4.25.34.63.37.77.37.72 0 .72-.6.72-1.04 0-.48 0-1.01-.53-1.01-.25 0-.57.06-.8.34-.04.05-.05.07-.13.07-.13 0-.13-.08-.13-.19v-1.75c0-.1 0-.16.08-.16.02 0 .02 0 .08.02.16.05.47.17.93.17.26 0 .58-.04.92-.17.07-.02.07-.02.09-.02.07 0 .08.07.08.11 0 .15-.55.83-1.43.83-.2 0-.27-.01-.44-.04v.79c.28-.19.6-.21.77-.21.89 0 1.36.56 1.36 1.25 0 .73-.59 1.27-1.55 1.27ZM133.51 54.98c-1.45 0-1.45-1.39-1.45-1.98s0-2.01 1.45-2.01 1.45 1.43 1.45 2.01-.01 1.98-1.45 1.98Zm.58-3.4a.628.628 0 0 0-.58-.38c-.14 0-.56.06-.64.59-.05.31-.05.7-.05 1.13 0 .33 0 .95.05 1.27.08.44.41.57.63.57.18 0 .56-.08.64-.64.04-.31.04-.86.04-1.19 0-.49 0-1.13-.1-1.35ZM142.39 54.9l-.76.02v-.28h.41v-1.62c0-.46-.13-.58-.34-.58-.37 0-.89.29-.89.95v1.25h.41v.28l-.76-.02-.76.02v-.28h.41v-1.62c0-.46-.13-.58-.34-.58-.37 0-.89.29-.89.95v1.25h.41v.28l-.76-.02-.76.02v-.28h.41v-1.85c0-.23-.04-.23-.41-.23v-.28l1.03-.05v.65c.19-.38.53-.65 1.06-.65.23 0 .78.02.9.58.16-.28.47-.58 1.01-.58.62 0 .92.25.92.86v1.55h.41v.28l-.76-.02ZM144.3 54.9l-.74.02v-.28h.41v-3.32c0-.23-.04-.23-.41-.23v-.28l1.06-.05v3.88h.41v.28l-.74-.02Z"/><path class="cls-2" d="M178.68 81.54h26.13V93.2h-26.13z"/><path class="cls-3" d="M184.92 89.11c-.74 0-1.21-.51-1.21-1.02 0-.37.31-.42.4-.42.14 0 .4.09.4.41 0 .25-.17.39-.39.4.25.34.63.37.77.37.72 0 .72-.6.72-1.04 0-.48 0-1.01-.53-1.01-.25 0-.57.06-.8.34-.04.05-.05.07-.13.07-.13 0-.13-.08-.13-.19v-1.75c0-.1 0-.16.08-.16.02 0 .02 0 .08.02.16.05.47.17.93.17.26 0 .58-.04.92-.17.07-.02.07-.02.09-.02.07 0 .08.07.08.11 0 .15-.55.83-1.43.83-.2 0-.27-.01-.44-.04v.79c.28-.19.6-.21.77-.21.89 0 1.36.56 1.36 1.25 0 .73-.59 1.27-1.55 1.27ZM188.37 89.11c-.74 0-1.21-.51-1.21-1.02 0-.37.31-.42.4-.42.14 0 .4.09.4.41 0 .25-.17.39-.39.4.25.34.63.37.77.37.72 0 .72-.6.72-1.04 0-.48 0-1.01-.53-1.01-.25 0-.57.06-.8.34-.04.05-.05.07-.13.07-.13 0-.13-.08-.13-.19v-1.75c0-.1 0-.16.08-.16.02 0 .02 0 .08.02.16.05.47.17.93.17.26 0 .58-.04.92-.17.07-.02.07-.02.09-.02.07 0 .08.07.08.11 0 .15-.55.83-1.43.83-.2 0-.27-.01-.44-.04v.79c.28-.19.6-.21.77-.21.89 0 1.36.56 1.36 1.25 0 .73-.59 1.27-1.55 1.27ZM197.42 89.02l-.76.02v-.28h.41v-1.62c0-.46-.13-.58-.34-.58-.37 0-.89.29-.89.95v1.25h.41v.28l-.75-.02-.76.02v-.28h.41v-1.62c0-.46-.13-.58-.34-.58-.37 0-.89.29-.89.95v1.25h.41v.28l-.76-.02-.76.02v-.28h.41v-1.85c0-.23-.04-.23-.41-.23v-.28l1.03-.05V87c.19-.38.53-.65 1.06-.65.23 0 .78.02.9.58.16-.28.47-.58 1.01-.58.62 0 .92.25.92.86v1.55h.41v.28l-.75-.02ZM199.33 89.02l-.74.02v-.28h.41v-3.32c0-.23-.04-.23-.41-.23v-.28l1.06-.05v3.88h.41v.28l-.74-.02Z"/><path class="cls-2" d="M166.7 173.57h26.13v11.66H166.7z"/><path class="cls-3" d="M173.67 181.06c-.26 0-.8 0-1.03.02v-.28h.67v-.65h-1.73v-.28l2.09-2.62c.07-.09.08-.1.2-.1.17 0 .18.03.18.19v2.52h.58v.28h-.58v.65h.58v.28c-.21-.02-.73-.02-.97-.02Zm-.29-3.06-1.48 1.86h1.48V178ZM176.4 181.14c-.74 0-1.21-.51-1.21-1.02 0-.37.31-.42.4-.42.14 0 .4.09.4.41 0 .25-.17.39-.39.4.25.34.63.37.77.37.72 0 .72-.6.72-1.04 0-.48 0-1.01-.53-1.01-.25 0-.57.06-.8.34-.04.05-.05.07-.13.07-.13 0-.13-.08-.13-.19v-1.75c0-.1 0-.16.08-.16.02 0 .02 0 .08.02.16.05.47.17.93.17.26 0 .58-.04.92-.17.07-.02.07-.02.09-.02.07 0 .08.07.08.11 0 .15-.55.83-1.43.83-.2 0-.27-.01-.44-.04v.79c.28-.19.6-.21.77-.21.89 0 1.36.56 1.36 1.25 0 .73-.59 1.27-1.55 1.27ZM185.44 181.06l-.76.02v-.28h.41v-1.62c0-.46-.13-.58-.34-.58-.37 0-.89.29-.89.95v1.25h.41v.28l-.76-.02-.76.02v-.28h.41v-1.62c0-.46-.13-.58-.34-.58-.37 0-.89.29-.89.95v1.25h.41v.28l-.76-.02-.75.02v-.28h.41v-1.85c0-.23-.04-.23-.41-.23v-.28l1.03-.05v.65c.19-.38.53-.65 1.06-.65.23 0 .78.02.9.58.16-.28.47-.58 1.01-.58.62 0 .92.25.92.86v1.55h.41v.28l-.76-.02ZM187.36 181.06l-.74.02v-.28h.41v-3.32c0-.23-.04-.23-.41-.23v-.28l1.06-.05v3.88h.41v.28l-.74-.02Z"/><circle class="cls-4" cx="94.24" cy="115.71" r="2.49"/><circle class="cls-4" cx="124" cy="137.88" r="2.49"/><circle class="cls-4" cx="132.88" cy="187.92" r="2.49"/><g style="opacity:.98"><path class="cls-3" d="M45.66 108.31c-.17 0-.55 0-.7.01v-.19h.38l-.24-.58h-1.07l-.2.48-.02.05c0 .05.36.05.36.05v.19c-.15-.01-.37-.01-.53-.01h-.47v-.18h.08c.3 0 .32-.03.34-.09l.99-2.41c.03-.07.04-.1.16-.1.07 0 .12 0 .16.1l1.02 2.5h.39v.19c-.14-.01-.49-.01-.65-.01Zm-1.1-2.06-.46 1.11h.91l-.46-1.11ZM48.01 107.09c-.12 0-.24-.08-.24-.24 0-.12.08-.18.08-.18-.4 0-.5.49-.5.77v.7h.35v.19c-.14-.01-.4-.01-.55-.01h-.5v-.18h.28v-1.24c0-.16-.03-.16-.28-.16v-.19l.66-.03v.45c.09-.25.25-.45.53-.45.21 0 .42.12.42.33 0 .16-.13.24-.24.24ZM49.55 108.34c-.64 0-1.04-.39-1.04-.92 0-.5.35-.91.99-.91.28 0 .49.07.64.22.2.2.22.49.22.62 0 .11-.04.11-.13.11h-1.21c0 .2 0 .74.57.74.26 0 .49-.13.57-.32.02-.06.03-.08.1-.08.02 0 .1 0 .1.07s-.17.49-.8.49Zm-.06-1.69c-.12 0-.28.05-.38.21-.08.13-.09.3-.1.46h.96c0-.14-.01-.66-.48-.66ZM52.59 108.32h-.19c-.42 0-.42-.18-.42-.31-.09.17-.28.33-.6.33-.28 0-.77-.07-.77-.46 0-.58 1.02-.62 1.3-.63v-.14c0-.3-.14-.47-.44-.47-.05 0-.18 0-.29.03.01 0 .09.08.09.2 0 .17-.13.25-.25.25-.11 0-.25-.08-.25-.25 0-.35.49-.37.72-.37.6 0 .88.26.88.62v.86c0 .09 0 .14.24.15.05 0 .1 0 .1.09s-.05.1-.13.1Zm-.68-.94c-.2.01-.83.07-.83.5 0 .18.16.32.36.32.1 0 .47-.05.47-.44v-.38ZM56.36 108.32h-.19c-.42 0-.42-.18-.42-.31-.09.17-.28.33-.6.33-.28 0-.77-.07-.77-.46 0-.58 1.02-.62 1.3-.63v-.14c0-.3-.14-.47-.44-.47-.05 0-.18 0-.29.03.01 0 .09.08.09.2 0 .17-.13.25-.25.25-.11 0-.25-.08-.25-.25 0-.35.49-.37.72-.37.6 0 .88.26.88.62v.86c0 .09 0 .14.24.15.05 0 .1 0 .1.09s-.05.1-.13.1Zm-.68-.94c-.2.01-.83.07-.83.5 0 .18.16.32.36.32.1 0 .47-.05.47-.44v-.38ZM58.01 107.09c-.12 0-.24-.08-.24-.24 0-.12.08-.18.08-.18-.4 0-.5.49-.5.77v.7h.35v.19c-.14-.01-.4-.01-.55-.01h-.5v-.18h.28v-1.24c0-.16-.03-.16-.28-.16v-.19l.66-.03v.45c.09-.25.25-.45.53-.45.21 0 .42.12.42.33 0 .16-.13.24-.24.24ZM59.53 108.34c-.67 0-1.02-.4-1.02-.9 0-.53.36-.94 1.02-.94s1.02.4 1.02.94c0 .49-.35.9-1.02.9Zm.43-1.48c-.09-.14-.26-.2-.42-.2-.2 0-.36.08-.44.23-.07.14-.07.34-.07.52 0 .35 0 .78.51.78s.51-.43.51-.78c0-.19 0-.41-.08-.55ZM62.44 108.34v-.31c-.18.31-.47.31-.58.31-.4 0-.72-.09-.72-.52v-.93c0-.16-.03-.16-.28-.16v-.19l.73-.03v1.36c0 .22.01.32.32.32.29 0 .5-.21.5-.54v-.76c0-.16-.03-.16-.28-.16v-.19l.73-.03v1.46c0 .16.03.16.28.16v.19l-.71.02ZM65.2 108.31h-.5v-.18h.28v-1.08c0-.3-.08-.39-.22-.39-.25 0-.6.2-.6.63v.84h.28v.19h-1v-.19h.28v-1.24c0-.16-.03-.16-.28-.16v-.19l.69-.03v.43c.1-.2.32-.43.7-.43s.62.16.62.58v1.04h.28v.19h-.5ZM67.47 108.34v-.2c-.12.1-.32.2-.56.2-.59 0-.96-.38-.96-.91 0-.56.42-.92 1-.92.13 0 .34.02.54.18v-.78c0-.16-.03-.16-.28-.16v-.19l.71-.03v2.43c0 .16.03.16.28.16v.19l-.73.02Zm0-1.43a.592.592 0 0 0-.48-.24c-.12 0-.31.04-.43.21-.1.16-.1.37-.1.56 0 .28 0 .76.49.76.3 0 .47-.22.52-.29v-1ZM37.14 113.14c-.28 0-.63-.09-.63-.52v-1.1h-.33v-.14c.4-.01.59-.41.6-.81h.19v.76h.58v.19h-.58v1.1c0 .09 0 .35.23.35.11 0 .24-.1.24-.37v-.2h.19v.21c0 .29-.18.52-.48.52ZM39.84 113.11h-.5v-.18h.28v-1.08c0-.3-.08-.39-.22-.39-.25 0-.6.2-.6.63v.84h.28v.19h-1v-.19h.28v-2.21c0-.16-.03-.16-.28-.16v-.19l.71-.03v1.36c.09-.15.29-.38.68-.38s.62.16.62.58v1.04h.28v.19h-.5ZM41.61 113.14c-.64 0-1.04-.39-1.04-.92 0-.5.35-.91.99-.91.28 0 .49.07.64.22.2.2.22.49.22.62 0 .11-.04.11-.13.11h-1.21c0 .2 0 .74.57.74.26 0 .49-.13.57-.32.02-.06.03-.08.1-.08.02 0 .1 0 .1.07s-.17.49-.8.49Zm-.05-1.69c-.12 0-.28.05-.38.21-.08.13-.09.3-.1.46h.96c0-.14-.01-.66-.48-.66ZM45.47 113.14c-.36 0-.55-.22-.58-.25-.06.08-.13.15-.2.22h-.19v-2.4c0-.16-.03-.16-.28-.16v-.19l.71-.03v1.17c.1-.08.3-.2.59-.2.58 0 .96.38.96.91s-.41.92-1.01.92Zm.01-1.68c-.22 0-.41.12-.52.26v1c.04.06.2.28.48.28.13 0 .31-.04.43-.21.1-.16.1-.38.1-.56 0-.28 0-.76-.49-.76ZM48.16 111.89c-.12 0-.24-.08-.24-.24 0-.12.08-.18.08-.18-.4 0-.5.49-.5.77v.7h.35v.19c-.14-.01-.4-.01-.55-.01h-.5v-.18h.28v-1.24c0-.16-.03-.16-.28-.16v-.19l.66-.03v.45c.09-.25.25-.45.53-.45.21 0 .42.12.42.33 0 .16-.13.24-.24.24ZM49.71 113.14c-.64 0-1.04-.39-1.04-.92 0-.5.35-.91.99-.91.28 0 .49.07.64.22.2.2.22.49.22.62 0 .11-.04.11-.13.11h-1.21c0 .2 0 .74.57.74.26 0 .49-.13.57-.32.02-.06.03-.08.1-.08.02 0 .1 0 .1.07s-.17.49-.8.49Zm-.06-1.69c-.12 0-.28.05-.38.21-.08.13-.09.3-.1.46h.96c0-.14-.01-.66-.48-.66ZM52.75 113.12h-.19c-.42 0-.42-.18-.42-.31-.09.17-.28.33-.6.33-.28 0-.77-.07-.77-.46 0-.58 1.02-.62 1.3-.63v-.14c0-.3-.14-.47-.44-.47-.05 0-.18 0-.29.03.01 0 .09.08.09.2 0 .17-.13.25-.25.25-.11 0-.25-.08-.25-.25 0-.35.49-.37.72-.37.6 0 .88.26.88.62v.86c0 .09 0 .14.24.15.05 0 .1 0 .1.09s-.05.1-.13.1Zm-.68-.94c-.2.01-.83.07-.83.5 0 .18.16.32.36.32.1 0 .47-.05.47-.44v-.38ZM54.81 113.11s-.37 0-.49.01v-.19c.05 0 .12 0 .12-.04a1 1 0 0 0-.1-.14l-.4-.5c-.08.06-.11.08-.23.17v.51h.28v.19h-.96v-.19h.28v-2.21c0-.16-.03-.16-.28-.16v-.19l.71-.03v1.83l.76-.6s-.04-.04-.14-.04v-.19h.46c.1.01.2.01.31 0v.19c-.27 0-.3.03-.36.07l-.52.4.68.84c.05.06.06.08.24.08h.07v.19c-.14 0-.27-.01-.42-.01ZM55.98 113.11h-.49v-.18h.28v-1.24c0-.16-.03-.16-.26-.16v-.19l.7-.03v1.61h.25v.19h-.47Zm-.03-2.11c-.17 0-.31-.14-.31-.31s.14-.31.31-.31.31.14.31.31-.14.31-.31.31ZM58.54 113.11h-.5v-.18h.28v-1.08c0-.3-.08-.39-.22-.39-.25 0-.6.2-.6.63v.84h.28v.19h-1v-.19h.28v-1.24c0-.16-.03-.16-.28-.16v-.19l.69-.03v.43c.1-.2.32-.43.7-.43s.62.16.62.58v1.04h.28v.19h-.5ZM61.2 111.7c-.1 0-.17-.07-.17-.17 0-.02 0-.06.02-.08a.51.51 0 0 0-.25.08c.06.06.16.2.16.38 0 .28-.22.59-.8.59-.1 0-.3 0-.49-.1-.02.03-.04.09-.04.13 0 .07.04.22.22.25h.31c.38 0 .62 0 .85.11.27.14.3.39.3.51 0 .28-.31.52-1.02.52-.8 0-1.02-.3-1.02-.5 0-.25.29-.34.34-.35a.51.51 0 0 1-.18-.38c0-.08.02-.22.14-.36a.526.526 0 0 1-.21-.42c0-.28.22-.59.8-.59.3 0 .46.08.54.13.18-.14.36-.15.42-.15.18 0 .25.14.25.23s-.07.17-.17.17Zm-.81 1.47h-.47c-.06 0-.31 0-.31.24 0 .18.2.37.68.37.52 0 .68-.22.68-.36 0-.25-.45-.25-.58-.25Zm-.23-1.71c-.35 0-.35.27-.35.45s0 .45.35.45.35-.27.35-.45 0-.45-.35-.45ZM64.36 113.14c-.16 0-.34-.04-.51-.18v.74h.28v.19h-1v-.19h.28v-2.02c0-.15-.03-.15-.28-.15v-.19l.71-.03v.2c.09-.07.3-.2.6-.2.58 0 .94.38.94.91s-.41.92-1.01.92Zm.01-1.66c-.09 0-.3.02-.46.19-.06.06-.06.06-.06.14v.85c0 .08 0 .08.04.13.18.22.37.22.42.22.26 0 .54-.21.54-.77 0-.5-.22-.75-.49-.75ZM66.8 113.14c-.67 0-1.02-.4-1.02-.9 0-.53.36-.94 1.02-.94s1.02.4 1.02.94c0 .49-.35.9-1.02.9Zm.43-1.48c-.09-.14-.26-.2-.42-.2-.2 0-.36.08-.44.23-.07.14-.07.34-.07.52 0 .35 0 .78.51.78s.51-.43.51-.78c0-.19 0-.41-.08-.55ZM68.63 113.11h-.49v-.18h.28v-1.24c0-.16-.03-.16-.26-.16v-.19l.7-.03v1.61h.25v.19h-.47Zm-.04-2.11c-.17 0-.31-.14-.31-.31s.14-.31.31-.31.31.14.31.31-.14.31-.31.31ZM71.19 113.11h-.5v-.18h.28v-1.08c0-.3-.08-.39-.22-.39-.25 0-.6.2-.6.63v.84h.28v.19h-1v-.19h.28v-1.24c0-.16-.03-.16-.28-.16v-.19l.69-.03v.43c.1-.2.32-.43.7-.43s.62.16.62.58v1.04h.28v.19h-.5ZM72.7 113.14c-.28 0-.63-.09-.63-.52v-1.1h-.33v-.14c.4-.01.59-.41.6-.81h.19v.76h.58v.19h-.58v1.1c0 .09 0 .35.23.35.11 0 .24-.1.24-.37v-.2h.19v.21c0 .29-.18.52-.48.52ZM74.37 113.14c-.08 0-.29 0-.47-.13l-.1.07c-.08.06-.09.06-.12.06-.07 0-.07-.04-.07-.11v-.44c0-.09 0-.12.1-.12.06 0 .08 0 .1.06.05.17.15.46.58.46.09 0 .46 0 .46-.3 0-.24-.3-.29-.44-.31-.31-.06-.46-.08-.62-.22a.442.442 0 0 1-.16-.34c0-.52.62-.52.74-.52.16 0 .3.02.4.08.16-.08.16-.08.18-.08.07 0 .07.04.07.11v.32c0 .09 0 .11-.1.11-.08 0-.09-.02-.09-.08-.02-.22-.17-.34-.47-.34-.08 0-.45 0-.45.25 0 .19.26.23.41.26.31.05.44.08.6.19.14.11.22.25.22.42 0 .58-.62.58-.74.58Z"/></g><path class="cls-3" d="M53.69 115.08h2.43l-1.21 1.22-1.22-1.22z"/></svg>