<svg id="Layer_9" data-name="Layer 9" xmlns="http://www.w3.org/2000/svg" viewBox="0 0 576 432"><defs><style>.cls-1{fill:none;stroke:#000}.cls-1,.cls-2,.cls-3{stroke-miterlimit:10}.cls-2{fill:#f4f4f4;stroke:#d9e7f5}.cls-4{fill:#231f20;stroke-width:0}.cls-3{fill:#d9e7f5;stroke:#6d8dbe}</style></defs><rect class="cls-2" x="175.09" y="57.12" width="102.03" height="300.77" rx="5.74" ry="5.74"/><rect class="cls-2" x="67.38" y="55.81" width="99.13" height="300.77" rx="5.74" ry="5.74"/><rect class="cls-2" x="285.7" y="57.12" width="117.85" height="300.77" rx="5.74" ry="5.74"/><path class="cls-1" d="m306.02 211.56-39.06 33.67 39.57-4.43M306.02 153.12l-39.06 20.14 39.06 9.08M266.96 245.23l39.06 24.8"/><rect class="cls-3" x="185.26" y="161" width="81.7" height="24.51" rx="2.04" ry="2.04"/><path class="cls-1" d="m306.02 299.27-39.06 16.98 39.06 12.25"/><path class="cls-4" d="M223.07 177.69c-2.99 0-4.82-1.79-4.82-4.25s1.83-4.25 4.82-4.25c.82 0 1.62.22 2.36.82l.79-.71c.1-.08.12-.11.23-.11.22 0 .22.11.22.34v2.58c0 .31-.01.34-.32.34-.28 0-.29-.02-.32-.25-.26-1.52-1.4-2.43-2.7-2.43-.62 0-1.67.13-2.45.92-.76.79-.79 2.09-.79 2.76 0 1.08.14 1.98.71 2.66.62.73 1.63 1.02 2.57 1.02 1.21 0 2.66-.73 2.75-2.34.01-.2.12-.2.28-.2.2 0 .29.01.29.25 0 1.38-1.35 2.85-3.6 2.85ZM230.99 177.52c-.59 0-1.86 0-2.39.04V177h1.67v-6.2c-.71.23-1.37.24-1.56.24h-.24v-.56h.24c.25 0 1.49 0 2.41-.68.11-.08.13-.08.26-.08.31 0 .31.12.31.38v6.91h1.68v.56c-.53-.04-1.8-.04-2.39-.04Z"/><rect class="cls-3" x="185.26" y="232.62" width="81.7" height="24.51" rx="2.04" ry="2.04"/><rect class="cls-3" x="185.26" y="304.23" width="81.7" height="24.51" rx="2.04" ry="2.04"/><path class="cls-4" d="M223.07 249.31c-2.99 0-4.82-1.79-4.82-4.25s1.83-4.25 4.82-4.25c.82 0 1.62.22 2.36.82l.79-.71c.1-.08.12-.11.23-.11.22 0 .22.11.22.34v2.58c0 .31-.01.34-.32.34-.28 0-.29-.02-.32-.25-.26-1.52-1.4-2.43-2.7-2.43-.62 0-1.67.13-2.45.92-.76.79-.79 2.09-.79 2.76 0 1.08.14 1.98.71 2.66.62.73 1.63 1.02 2.57 1.02 1.21 0 2.66-.73 2.75-2.34.01-.2.12-.2.28-.2.2 0 .29.01.29.25 0 1.38-1.35 2.85-3.6 2.85ZM233.28 249.17h-5.15v-.22c0-.24 0-.26.16-.41l2.41-2.46c.84-.85 1.3-1.67 1.3-2.5 0-.9-.55-1.71-1.58-1.71-.43 0-.89.13-1.24.42.18.05.68.24.68.86s-.48.86-.86.86c-.29 0-.86-.18-.86-.89 0-1.08 1.13-1.82 2.58-1.82 1.69 0 2.94.89 2.94 2.27 0 1.14-.77 1.7-2.13 2.71-.54.4-1.16.91-1.73 1.38h1.76c.19 0 1.09 0 1.22-.07.17-.08.28-.85.31-1.09h.56l-.37 2.66ZM223.07 320.92c-2.99 0-4.82-1.79-4.82-4.25s1.83-4.25 4.82-4.25c.82 0 1.62.22 2.36.82l.79-.71c.1-.08.12-.11.23-.11.22 0 .22.11.22.34v2.58c0 .31-.01.34-.32.34-.28 0-.29-.02-.32-.25-.26-1.52-1.4-2.43-2.7-2.43-.62 0-1.67.13-2.45.92-.76.79-.79 2.09-.79 2.76 0 1.08.14 1.98.71 2.66.62.73 1.63 1.02 2.57 1.02 1.21 0 2.66-.73 2.75-2.34.01-.2.12-.2.28-.2.2 0 .29.01.29.25 0 1.38-1.35 2.85-3.6 2.85ZM230.74 320.92c-1.55 0-2.71-.72-2.71-1.8 0-.61.42-.94.92-.94s.91.37.91.91c0 .49-.3.79-.7.9.58.36 1.2.41 1.51.41 1.25 0 1.25-1.22 1.25-1.79 0-.61 0-1.79-1.31-1.79h-.53c-.22 0-.34 0-.34-.22 0-.07.02-.19.14-.2.06-.01.08-.02.58-.05 1.25-.07 1.26-1.64 1.26-1.8 0-.4-.04-1.16-1.03-1.16-.37 0-.9.1-1.32.43.05.01.7.14.7.84 0 .44-.3.83-.84.83-.46 0-.83-.32-.83-.84 0-.96.94-1.73 2.36-1.73 1.69 0 2.6.74 2.6 1.67 0 1.03-.88 1.71-1.7 1.97 1.74.37 2.09 1.4 2.09 2.06 0 1.09-.88 2.29-3.02 2.29Z"/><rect class="cls-3" x="306.02" y="140.86" width="81.7" height="24.51" rx="2.04" ry="2.04"/><path class="cls-4" d="M342.41 157.55c-.49 0-1.61-.07-2.4-.66l-.55.55c-.1.08-.12.11-.23.11-.21 0-.21-.11-.21-.34v-2.18c0-.28 0-.35.29-.35.26 0 .26.06.28.28.1 1.79 1.92 2.03 2.83 2.03 1.25 0 1.56-.83 1.56-1.4s-.3-.86-.48-1.04c-.26-.25-.47-.29-1.52-.52-1.31-.29-1.71-.37-2.3-.96-.25-.26-.65-.82-.65-1.59 0-1.26.86-2.41 2.69-2.41.58 0 1.36.11 2.05.66l.54-.53c.13-.12.14-.13.24-.13.22 0 .22.11.22.34v2.19c0 .28 0 .34-.29.34-.25 0-.25-.02-.3-.31-.28-1.63-1.49-2.04-2.45-2.04-1.2 0-1.54.74-1.54 1.26 0 .73.67 1.14 1.15 1.25l1.74.37c1.09.23 2.06 1.2 2.06 2.53 0 1.21-.74 2.57-2.72 2.57ZM349.46 157.39c-.59 0-1.86 0-2.39.04v-.56h1.67v-6.2c-.71.23-1.37.24-1.56.24h-.24v-.56h.24c.25 0 1.49 0 2.41-.68.11-.08.13-.08.26-.08.31 0 .31.12.31.38v6.91h1.68v.56c-.53-.04-1.8-.04-2.39-.04Z"/><rect class="cls-3" x="306.02" y="170.09" width="81.7" height="24.51" rx="2.04" ry="2.04"/><path class="cls-4" d="M342.41 186.78c-.49 0-1.61-.07-2.4-.66l-.55.55c-.1.08-.12.11-.23.11-.21 0-.21-.11-.21-.34v-2.18c0-.28 0-.35.29-.35.26 0 .26.06.28.28.1 1.79 1.92 2.03 2.83 2.03 1.25 0 1.56-.83 1.56-1.4s-.3-.86-.48-1.04c-.26-.25-.47-.29-1.52-.52-1.31-.29-1.71-.37-2.3-.96-.25-.26-.65-.82-.65-1.59 0-1.26.86-2.41 2.69-2.41.58 0 1.36.11 2.05.66l.54-.53c.13-.12.14-.13.24-.13.22 0 .22.11.22.34v2.19c0 .28 0 .34-.29.34-.25 0-.25-.02-.3-.31-.28-1.63-1.49-2.04-2.45-2.04-1.2 0-1.54.74-1.54 1.26 0 .73.67 1.14 1.15 1.25l1.74.37c1.09.23 2.06 1.2 2.06 2.53 0 1.21-.74 2.57-2.72 2.57ZM351.75 186.64h-5.14v-.22c0-.24 0-.26.16-.41l2.41-2.46c.84-.85 1.29-1.67 1.29-2.5 0-.9-.55-1.71-1.58-1.71-.43 0-.89.13-1.23.42.18.05.68.24.68.86s-.48.86-.86.86c-.29 0-.86-.18-.86-.89 0-1.08 1.13-1.82 2.58-1.82 1.69 0 2.94.89 2.94 2.27 0 1.14-.77 1.7-2.13 2.71-.54.4-1.16.91-1.73 1.38h1.76c.19 0 1.09 0 1.22-.07.17-.08.28-.85.31-1.09h.56l-.37 2.66Z"/><rect class="cls-2" x="412.13" y="57.12" width="99.68" height="300.77" rx="5.74" ry="5.74"/><rect class="cls-3" x="306.02" y="199.31" width="81.7" height="24.51" rx="2.04" ry="2.04"/><path class="cls-4" d="M342.41 216c-.49 0-1.61-.07-2.4-.66l-.55.55c-.1.08-.12.11-.23.11-.21 0-.21-.11-.21-.34v-2.18c0-.28 0-.35.29-.35.26 0 .26.06.28.28.1 1.79 1.92 2.03 2.83 2.03 1.25 0 1.56-.83 1.56-1.4s-.3-.86-.48-1.04c-.26-.25-.47-.29-1.52-.52-1.31-.29-1.71-.37-2.3-.96-.25-.26-.65-.82-.65-1.59 0-1.26.86-2.41 2.69-2.41.58 0 1.36.11 2.05.66l.54-.53c.13-.12.14-.13.24-.13.22 0 .22.11.22.34v2.19c0 .28 0 .34-.29.34-.25 0-.25-.02-.3-.31-.28-1.63-1.49-2.04-2.45-2.04-1.2 0-1.54.74-1.54 1.26 0 .73.67 1.14 1.15 1.25l1.74.37c1.09.23 2.06 1.2 2.06 2.53 0 1.21-.74 2.57-2.72 2.57ZM349.2 216c-1.55 0-2.71-.72-2.71-1.8 0-.61.42-.94.92-.94.53 0 .91.37.91.91 0 .49-.3.79-.7.9.58.36 1.2.41 1.51.41 1.25 0 1.25-1.22 1.25-1.79 0-.61 0-1.79-1.31-1.79h-.53c-.22 0-.34 0-.34-.22 0-.07.02-.19.14-.2.06-.01.08-.02.58-.05 1.25-.07 1.26-1.64 1.26-1.8 0-.4-.04-1.16-1.03-1.16-.37 0-.9.1-1.32.43.05.01.7.14.7.84 0 .44-.3.83-.84.83-.46 0-.83-.32-.83-.84 0-.96.94-1.73 2.36-1.73 1.69 0 2.6.74 2.6 1.67 0 1.03-.88 1.71-1.7 1.97 1.74.37 2.09 1.4 2.09 2.06 0 1.09-.88 2.29-3.02 2.29Z"/><rect class="cls-3" x="306.53" y="228.54" width="81.7" height="24.51" rx="2.04" ry="2.04"/><path class="cls-4" d="M342.92 245.23c-.49 0-1.61-.07-2.4-.66l-.55.55c-.1.08-.12.11-.23.11-.22 0-.22-.11-.22-.34v-2.18c0-.28 0-.35.29-.35.26 0 .26.06.28.28.1 1.79 1.92 2.03 2.83 2.03 1.25 0 1.56-.83 1.56-1.4s-.3-.86-.48-1.04c-.26-.25-.47-.29-1.52-.52-1.31-.29-1.71-.37-2.3-.96-.25-.26-.65-.82-.65-1.6 0-1.26.86-2.41 2.69-2.41.58 0 1.36.11 2.05.66l.54-.53c.13-.12.14-.13.24-.13.22 0 .22.11.22.34v2.19c0 .28 0 .34-.29.34-.25 0-.25-.02-.3-.31-.28-1.63-1.49-2.04-2.45-2.04-1.2 0-1.54.74-1.54 1.26 0 .73.67 1.14 1.15 1.25l1.74.37c1.09.23 2.06 1.2 2.06 2.53 0 1.21-.74 2.57-2.72 2.57ZM350.99 245.06c-.52 0-1.61 0-2.06.04v-.56h1.34v-1.31h-3.45v-.56l4.19-5.24c.14-.18.16-.19.41-.19.34 0 .36.06.36.38v5.05h1.16v.56h-1.16v1.31h1.16v.56c-.42-.04-1.46-.04-1.94-.04Zm-.59-6.11-2.96 3.72h2.96v-3.72Z"/><rect class="cls-3" x="306.02" y="257.78" width="81.7" height="24.51" rx="2.04" ry="2.04"/><path class="cls-4" d="M342.41 274.47c-.49 0-1.61-.07-2.4-.66l-.55.55c-.1.08-.12.11-.23.11-.22 0-.22-.11-.22-.34v-2.18c0-.28 0-.35.29-.35.26 0 .26.06.28.28.1 1.79 1.92 2.03 2.83 2.03 1.25 0 1.56-.83 1.56-1.4s-.3-.86-.48-1.04c-.26-.25-.47-.29-1.52-.52-1.31-.29-1.71-.37-2.3-.96-.25-.26-.65-.82-.65-1.59 0-1.26.86-2.41 2.69-2.41.58 0 1.36.11 2.05.66l.54-.53c.13-.12.14-.13.24-.13.22 0 .22.11.22.34v2.19c0 .28 0 .34-.29.34-.25 0-.25-.02-.3-.31-.28-1.63-1.49-2.04-2.45-2.04-1.2 0-1.54.74-1.54 1.26 0 .73.67 1.14 1.15 1.25l1.74.37c1.09.23 2.06 1.2 2.06 2.53 0 1.21-.74 2.57-2.72 2.57ZM349.02 274.47c-1.49 0-2.42-1.02-2.42-2.04 0-.73.62-.84.8-.84.29 0 .8.18.8.82 0 .49-.35.78-.78.8.5.68 1.26.74 1.55.74 1.44 0 1.44-1.2 1.44-2.08 0-.96 0-2.01-1.07-2.01-.49 0-1.14.12-1.61.67-.08.1-.11.14-.26.14-.26 0-.26-.16-.26-.37v-3.5c0-.19 0-.32.17-.32.04 0 .05.01.16.05.31.11.95.34 1.86.34a4.9 4.9 0 0 0 1.83-.34c.13-.05.14-.05.18-.05.14 0 .17.13.17.22 0 .3-1.1 1.66-2.85 1.66-.41 0-.54-.02-.88-.08v1.58c.56-.38 1.2-.42 1.55-.42 1.77 0 2.72 1.12 2.72 2.49 0 1.46-1.17 2.54-3.09 2.54Z"/><rect class="cls-3" x="306.02" y="287.01" width="81.7" height="24.51" rx="2.04" ry="2.04"/><path class="cls-4" d="M342.41 303.7c-.49 0-1.61-.07-2.4-.66l-.55.55c-.1.08-.12.11-.23.11-.22 0-.22-.11-.22-.34v-2.18c0-.28 0-.35.29-.35.26 0 .26.06.28.28.1 1.79 1.92 2.03 2.83 2.03 1.25 0 1.56-.83 1.56-1.4s-.3-.86-.48-1.04c-.26-.25-.47-.29-1.52-.52-1.31-.29-1.71-.37-2.3-.96-.25-.26-.65-.82-.65-1.59 0-1.26.86-2.41 2.69-2.41.58 0 1.36.11 2.05.66l.54-.53c.13-.12.14-.13.24-.13.22 0 .22.11.22.34v2.19c0 .28 0 .34-.29.34-.25 0-.25-.02-.3-.31-.28-1.63-1.49-2.04-2.45-2.04-1.2 0-1.54.74-1.54 1.26 0 .73.67 1.14 1.15 1.25l1.74.37c1.09.23 2.06 1.2 2.06 2.53 0 1.21-.74 2.57-2.72 2.57ZM349.41 303.7c-.84 0-1.75-.29-2.31-1.2-.49-.83-.6-1.79-.6-2.73 0-3.02 1.98-4.05 3.61-4.05 1.27 0 1.78.75 1.78 1.5 0 .46-.29.77-.76.77s-.74-.34-.74-.74c0-.36.22-.68.65-.74-.28-.28-.68-.31-.9-.31-.73 0-1.38.43-1.67 1-.08.18-.34.7-.34 2.06v.23c.5-.91 1.17-.91 1.44-.91 1.45 0 2.66.88 2.66 2.55s-1.15 2.59-2.82 2.59Zm.05-4.71c-.66 0-1.31.56-1.31 2.06 0 .22 0 1.09.19 1.48.1.19.42.66 1.04.66 1.21 0 1.21-.89 1.21-2.1s0-2.1-1.14-2.1Z"/><rect class="cls-3" x="306.02" y="316.25" width="81.7" height="24.51" rx="2.04" ry="2.04"/><path class="cls-4" d="M342.41 332.93c-.49 0-1.61-.07-2.4-.66l-.55.55c-.1.08-.12.11-.23.11-.22 0-.22-.11-.22-.34v-2.18c0-.28 0-.35.29-.35.26 0 .26.06.28.28.1 1.79 1.92 2.03 2.83 2.03 1.25 0 1.56-.83 1.56-1.4s-.3-.86-.48-1.04c-.26-.25-.47-.29-1.52-.52-1.31-.29-1.71-.37-2.3-.96-.25-.26-.65-.82-.65-1.59 0-1.26.86-2.41 2.69-2.41.58 0 1.36.11 2.05.66l.54-.53c.13-.12.14-.13.24-.13.22 0 .22.11.22.34v2.19c0 .28 0 .34-.29.34-.25 0-.25-.02-.3-.31-.28-1.63-1.49-2.04-2.45-2.04-1.2 0-1.54.74-1.54 1.26 0 .73.67 1.14 1.15 1.25l1.74.37c1.09.23 2.06 1.2 2.06 2.53 0 1.21-.74 2.57-2.72 2.57ZM352.49 325.65l-1.86 2.16c-.42.49-.67 1.2-.78 2-.08.56-.12 1.14-.12 1.71v.55c0 .79-.56.85-.75.85-.07 0-.74 0-.74-.84 0-1.77.86-3.39 2.02-4.74l.66-.78h-2.03c-.2 0-1.17 0-1.31.07-.05.02-.2.18-.32 1.09h-.56l.42-3.05h.56c.02.12.04.23.29.28.17.05 1.93.11 2.21.11h2.45c0 .42 0 .44-.12.58Z"/><rect class="cls-3" x="421.43" y="166.03" width="81.7" height="24.51" rx="2.04" ry="2.04"/><path class="cls-4" d="M461.62 182.55c-.52 0-1.65 0-2.11.04v-.56h1.14l-.72-1.75h-3.21l-.6 1.45-.05.14c0 .16 1.07.16 1.07.16v.56c-.45-.04-1.12-.04-1.58-.04l-1.4.04v-.56h.25c.91 0 .95-.1 1.02-.28l2.97-7.22c.08-.22.13-.31.47-.31.2 0 .35 0 .48.31l3.07 7.5h1.16v.56c-.42-.04-1.47-.04-1.96-.04Zm-3.3-6.18-1.37 3.33h2.73l-1.37-3.33ZM467.62 182.55c-.59 0-1.86 0-2.39.04v-.56h1.67v-6.2c-.71.23-1.37.24-1.56.24h-.24v-.56h.24c.25 0 1.49 0 2.41-.68.11-.08.13-.08.26-.08.31 0 .31.12.31.38v6.91H470v.56c-.53-.04-1.8-.04-2.39-.04Z"/><path class="cls-1" d="m185.26 174.21-27.04 71.02h27.04M158.22 245.23l27.04 71.26"/><rect class="cls-3" x="421.43" y="225.68" width="81.7" height="24.51" rx="2.04" ry="2.04"/><path class="cls-4" d="M461.62 242.2c-.52 0-1.65 0-2.11.04v-.56h1.14l-.72-1.75h-3.21l-.6 1.45-.05.14c0 .16 1.07.16 1.07.16v.56c-.45-.04-1.12-.04-1.58-.04l-1.4.04v-.56h.25c.91 0 .95-.1 1.02-.28l2.97-7.22c.08-.22.13-.31.47-.31.2 0 .35 0 .48.31l3.07 7.5h1.16v.56c-.42-.04-1.47-.04-1.96-.04Zm-3.3-6.17-1.37 3.33h2.73l-1.37-3.33ZM469.91 242.24h-5.14v-.22c0-.24 0-.26.16-.41l2.41-2.46c.84-.85 1.29-1.67 1.29-2.5 0-.9-.55-1.71-1.58-1.71-.43 0-.89.13-1.23.42.18.05.68.24.68.86s-.48.86-.86.86c-.29 0-.86-.18-.86-.89 0-1.08 1.13-1.82 2.58-1.82 1.69 0 2.94.89 2.94 2.27 0 1.14-.77 1.7-2.13 2.71-.54.4-1.16.91-1.73 1.38h1.76c.19 0 1.09 0 1.22-.07.17-.08.28-.85.31-1.09h.56l-.37 2.66Z"/><rect class="cls-3" x="421.43" y="285.34" width="81.7" height="24.51" rx="2.04" ry="2.04"/><path class="cls-4" d="M461.62 301.86c-.52 0-1.65 0-2.11.04v-.56h1.14l-.72-1.75h-3.21l-.6 1.45-.05.14c0 .16 1.07.16 1.07.16v.56c-.45-.04-1.12-.04-1.58-.04l-1.4.04v-.56h.25c.91 0 .95-.1 1.02-.28l2.97-7.22c.08-.22.13-.31.47-.31.2 0 .35 0 .48.31l3.07 7.5h1.16v.56c-.42-.04-1.47-.04-1.96-.04Zm-3.3-6.18-1.37 3.33h2.73l-1.37-3.33ZM467.37 302.03c-1.55 0-2.71-.72-2.71-1.8 0-.61.42-.94.92-.94.53 0 .91.37.91.91 0 .49-.3.79-.7.9.58.36 1.2.41 1.51.41 1.25 0 1.25-1.22 1.25-1.79 0-.61 0-1.79-1.31-1.79h-.53c-.22 0-.34 0-.34-.22 0-.07.02-.19.14-.2.06-.01.08-.02.58-.05 1.25-.07 1.26-1.64 1.26-1.8 0-.4-.04-1.16-1.03-1.16-.37 0-.9.1-1.32.43.05.01.7.14.7.84 0 .44-.3.83-.84.83-.46 0-.83-.32-.83-.84 0-.96.94-1.73 2.36-1.73 1.69 0 2.6.74 2.6 1.67 0 1.03-.88 1.71-1.7 1.97 1.74.37 2.09 1.4 2.09 2.06 0 1.09-.88 2.29-3.02 2.29Z"/><rect class="cls-3" x="76.51" y="232.62" width="81.7" height="24.51" rx="2.04" ry="2.04"/><path class="cls-4" d="M93.49 249.31c-2.72 0-4.4-1.71-4.4-4.2s1.67-4.29 4.41-4.29 4.4 1.7 4.4 4.29-1.66 4.2-4.41 4.2Zm2.07-6.89c-.48-.79-1.31-1.13-2.08-1.13-.71 0-1.51.3-2 1.03-.53.82-.56 1.83-.56 2.6 0 1.03.1 1.88.49 2.63.49.91 1.37 1.25 2.07 1.25.65 0 1.49-.26 2.03-1.14.5-.83.55-1.9.55-2.74s-.05-1.74-.5-2.51ZM102.86 249.25c-1.07 0-1.66-.65-1.75-.74-.19.23-.4.44-.59.67h-.56v-7.2c0-.47-.08-.47-.83-.47v-.56l2.12-.1v3.51c.29-.24.89-.59 1.76-.59 1.74 0 2.87 1.13 2.87 2.72s-1.24 2.75-3.02 2.75Zm.02-5.04c-.66 0-1.24.35-1.56.77v3.01c.12.18.59.83 1.43.83.38 0 .94-.13 1.28-.62.31-.47.31-1.13.31-1.69 0-.84 0-2.29-1.46-2.29ZM107.77 251.57c-.98 0-1.7-.41-1.7-1.09 0-.43.3-.76.76-.76.43 0 .74.32.74.74 0 .18-.06.43-.29.6.18.05.28.07.47.07.72 0 .9-.86.9-1.46v-4.76c0-.25 0-.41-.26-.46-.18-.02-.44-.02-.65-.02v-.56l2.21-.1v5.9c0 1.27-1.14 1.89-2.17 1.89Zm1.24-8.74a.939.939 0 1 1 0-1.88.939.939 0 1 1 0 1.88ZM114.46 249.25c-1.93 0-3.13-1.16-3.13-2.77 0-1.5 1.04-2.73 2.96-2.73.83 0 1.46.22 1.91.65.6.6.67 1.47.67 1.85 0 .32-.12.32-.38.32h-3.62c0 .61.01 2.21 1.7 2.21.78 0 1.46-.38 1.71-.96.07-.19.1-.25.3-.25.06 0 .29 0 .29.22 0 .2-.52 1.48-2.41 1.48Zm-.16-5.08c-.35 0-.83.14-1.14.62-.25.4-.26.9-.29 1.37h2.87c-.01-.42-.04-1.99-1.44-1.99ZM120.71 249.25c-1.85 0-2.97-1.14-2.97-2.73 0-1.39.89-2.77 3.03-2.77.7 0 2.09.07 2.09 1.1 0 .5-.38.76-.76.76-.32 0-.74-.23-.74-.76 0-.11.02-.36.24-.55-.16-.04-.36-.07-.78-.07-1.55 0-1.55 1.56-1.55 2.23 0 .55 0 2.31 1.67 2.31.61 0 1.19-.23 1.5-.98.06-.16.07-.18.29-.18.12 0 .29 0 .29.17 0 .08-.36 1.48-2.3 1.48ZM126.54 249.25c-.85 0-1.89-.26-1.89-1.55v-3.29h-.98v-.43c1.19-.04 1.78-1.22 1.79-2.42h.56v2.29h1.75v.56h-1.75v3.31c0 .28 0 1.04.7 1.04.34 0 .72-.29.72-1.1v-.61h.56v.64c0 .88-.54 1.56-1.45 1.56ZM130.8 249.14l-1.46.04v-.56h.83v-3.71c0-.47-.08-.47-.79-.47v-.56l2.09-.1v4.83h.74v.56l-1.4-.04Zm-.11-6.31a.939.939 0 1 1 0-1.88.939.939 0 1 1 0 1.88ZM138.67 244.67l-1.99 4.27c-.12.25-.24.29-.44.29-.16 0-.31 0-.46-.3l-2.1-4.51h-.77v-.56l1.37.04 1.49-.04v.56h-.65l1.52 3.27 1.39-3c.06-.12.06-.14.06-.14 0-.1-.35-.13-.58-.13v-.56l1.09.04c.3 0 .65-.01.95-.04v.56c-.77 0-.82.08-.89.25ZM143.01 249.25c-1.93 0-3.13-1.16-3.13-2.77 0-1.5 1.04-2.73 2.96-2.73.83 0 1.46.22 1.91.65.6.6.67 1.47.67 1.85 0 .32-.12.32-.38.32h-3.62c0 .61.01 2.21 1.7 2.21.78 0 1.46-.38 1.71-.96.07-.19.1-.25.3-.25.06 0 .29 0 .29.22 0 .2-.52 1.48-2.41 1.48Zm-.17-5.08c-.35 0-.83.14-1.14.62-.25.4-.26.9-.29 1.37h2.87c-.01-.42-.04-1.99-1.44-1.99ZM93.54 104.41c-2.72 0-4.4-1.71-4.4-4.2s1.67-4.29 4.41-4.29 4.4 1.7 4.4 4.29-1.66 4.2-4.41 4.2Zm2.08-6.88c-.48-.79-1.31-1.13-2.08-1.13-.71 0-1.51.3-2 1.03-.53.82-.56 1.83-.56 2.6 0 1.03.1 1.88.49 2.63.49.91 1.37 1.25 2.07 1.25.65 0 1.49-.26 2.03-1.14.5-.83.55-1.9.55-2.74s-.05-1.74-.5-2.51ZM102.91 104.35c-1.07 0-1.66-.65-1.75-.74-.19.23-.4.44-.59.67h-.56v-7.2c0-.47-.08-.47-.83-.47v-.56l2.12-.1v3.51c.29-.24.89-.59 1.76-.59 1.74 0 2.87 1.13 2.87 2.72s-1.24 2.75-3.02 2.75Zm.03-5.04c-.66 0-1.24.35-1.56.77v3.01c.12.18.59.83 1.43.83.38 0 .94-.13 1.28-.62.31-.47.31-1.13.31-1.69 0-.84 0-2.29-1.46-2.29ZM107.82 106.68c-.98 0-1.7-.41-1.7-1.09 0-.43.3-.76.76-.76.43 0 .74.32.74.74 0 .18-.06.43-.29.6.18.05.28.07.47.07.72 0 .9-.86.9-1.46v-4.76c0-.25 0-.41-.26-.46-.18-.02-.44-.02-.65-.02v-.56l2.21-.1v5.9c0 1.27-1.14 1.89-2.17 1.89Zm1.24-8.75a.939.939 0 1 1 0-1.88.939.939 0 1 1 0 1.88ZM114.52 104.35c-1.93 0-3.13-1.16-3.13-2.77 0-1.5 1.04-2.73 2.96-2.73.83 0 1.46.22 1.91.65.6.6.67 1.47.67 1.85 0 .32-.12.32-.38.32h-3.62c0 .61.01 2.21 1.7 2.21.78 0 1.46-.38 1.71-.96.07-.19.1-.25.3-.25.06 0 .29 0 .29.22 0 .2-.52 1.48-2.41 1.48Zm-.17-5.07c-.35 0-.83.14-1.14.62-.25.4-.26.9-.29 1.37h2.87c-.01-.42-.04-1.99-1.44-1.99ZM120.76 104.35c-1.85 0-2.97-1.14-2.97-2.73 0-1.39.89-2.77 3.03-2.77.7 0 2.09.07 2.09 1.1 0 .5-.38.76-.76.76-.32 0-.74-.23-.74-.76 0-.11.02-.36.24-.55-.16-.04-.36-.07-.78-.07-1.55 0-1.55 1.56-1.55 2.23 0 .55 0 2.31 1.67 2.31.61 0 1.19-.23 1.5-.98.06-.16.07-.18.29-.18.12 0 .29 0 .29.17 0 .08-.36 1.48-2.3 1.48ZM126.59 104.35c-.85 0-1.89-.26-1.89-1.55v-3.29h-.98v-.43c1.19-.04 1.78-1.22 1.79-2.42h.56v2.29h1.75v.56h-1.75v3.31c0 .28 0 1.04.7 1.04.34 0 .72-.29.72-1.1v-.61h.56v.64c0 .88-.54 1.56-1.45 1.56ZM130.85 104.24l-1.46.04v-.56h.83v-3.71c0-.47-.08-.47-.79-.47v-.56l2.09-.1v4.83h.74v.56l-1.4-.04Zm-.11-6.31a.939.939 0 1 1 0-1.88.939.939 0 1 1 0 1.88ZM138.72 99.77l-1.99 4.27c-.12.25-.24.29-.44.29-.16 0-.31 0-.46-.3l-2.1-4.51h-.77v-.56l1.37.04 1.49-.04v.56h-.65l1.52 3.27 1.39-3c.06-.12.06-.14.06-.14 0-.1-.35-.13-.58-.13v-.56l1.09.04c.3 0 .65-.01.95-.04v.56c-.77 0-.82.08-.89.25ZM143.07 104.35c-1.93 0-3.13-1.16-3.13-2.77 0-1.5 1.04-2.73 2.96-2.73.83 0 1.46.22 1.91.65.6.6.67 1.47.67 1.85 0 .32-.12.32-.38.32h-3.62c0 .61.01 2.21 1.7 2.21.78 0 1.46-.38 1.71-.96.07-.19.1-.25.3-.25.06 0 .29 0 .29.22 0 .2-.52 1.48-2.41 1.48Zm-.17-5.07c-.35 0-.83.14-1.14.62-.25.4-.26.9-.29 1.37h2.87c-.01-.42-.04-1.99-1.44-1.99ZM206.48 106.81c-2.99 0-4.82-1.79-4.82-4.25s1.83-4.25 4.82-4.25c.82 0 1.62.22 2.36.82l.79-.71c.1-.08.12-.11.23-.11.22 0 .22.11.22.34v2.58c0 .31-.01.34-.32.34-.28 0-.29-.02-.32-.25-.26-1.52-1.4-2.43-2.7-2.43-.62 0-1.67.13-2.45.92-.76.79-.79 2.09-.79 2.76 0 1.08.14 1.98.71 2.66.62.73 1.63 1.02 2.57 1.02 1.21 0 2.66-.73 2.75-2.34.01-.2.12-.2.28-.2.2 0 .29.01.29.25 0 1.38-1.35 2.85-3.6 2.85ZM215.43 103c-.35 0-.73-.24-.73-.73 0-.35.23-.55.23-.55-1.2 0-1.5 1.46-1.5 2.3v2.1h1.04v.56c-.43-.04-1.2-.04-1.66-.04l-1.51.04v-.56h.83v-3.71c0-.47-.08-.47-.83-.47v-.56l1.99-.1v1.36c.28-.76.76-1.36 1.59-1.36.62 0 1.27.35 1.27.98 0 .48-.38.73-.73.73ZM218.58 106.64l-1.46.04v-.56h.83v-3.71c0-.47-.08-.47-.79-.47v-.56l2.09-.1v4.83h.74v.56l-1.4-.04Zm-.11-6.31a.939.939 0 1 1 0-1.88.939.939 0 1 1 0 1.88ZM223.51 106.75c-.85 0-1.89-.26-1.89-1.55v-3.29h-.98v-.43c1.19-.04 1.78-1.22 1.79-2.42h.56v2.29h1.75v.56h-1.75v3.31c0 .28 0 1.04.7 1.04.34 0 .72-.29.72-1.1v-.61h.56v.64c0 .88-.54 1.56-1.45 1.56ZM229.26 106.75c-1.93 0-3.13-1.16-3.13-2.77 0-1.5 1.04-2.73 2.96-2.73.83 0 1.46.22 1.91.65.6.6.67 1.47.67 1.85 0 .32-.12.32-.38.32h-3.62c0 .61.01 2.21 1.7 2.21.78 0 1.46-.38 1.71-.96.07-.19.1-.25.3-.25.06 0 .29 0 .29.22 0 .2-.52 1.48-2.41 1.48Zm-.17-5.07c-.35 0-.83.14-1.14.62-.25.4-.26.9-.29 1.37h2.87c-.01-.42-.04-1.99-1.44-1.99ZM236.64 103c-.35 0-.73-.24-.73-.73 0-.35.23-.55.23-.55-1.2 0-1.5 1.46-1.5 2.3v2.1h1.04v.56c-.43-.04-1.2-.04-1.66-.04l-1.51.04v-.56h.83v-3.71c0-.47-.08-.47-.83-.47v-.56l1.99-.1v1.36c.28-.76.76-1.36 1.6-1.36.62 0 1.27.35 1.27.98 0 .48-.38.73-.73.73ZM239.78 106.64l-1.46.04v-.56h.83v-3.71c0-.47-.08-.47-.79-.47v-.56l2.09-.1v4.83h.74v.56l-1.4-.04Zm-.1-6.31a.939.939 0 1 1 0-1.88.939.939 0 1 1 0 1.88ZM247.89 106.68h-.58c-1.25 0-1.25-.55-1.25-.92-.26.5-.83 1-1.79 1-.83 0-2.31-.22-2.31-1.37 0-1.74 3.05-1.85 3.9-1.88v-.41c0-.91-.42-1.42-1.32-1.42-.14 0-.53.01-.86.08.04.02.26.23.26.59 0 .5-.38.76-.75.76-.32 0-.74-.23-.74-.76 0-1.05 1.46-1.1 2.15-1.1 1.79 0 2.64.78 2.64 1.85v2.58c0 .28 0 .43.73.44.16 0 .31 0 .31.28s-.14.29-.38.29Zm-2.02-2.81c-.6.04-2.49.2-2.49 1.5 0 .53.48.95 1.09.95.3 0 1.4-.16 1.4-1.31v-1.14ZM315.44 106.94c-.49 0-1.61-.07-2.4-.66l-.55.55c-.1.08-.12.11-.23.11-.22 0-.22-.11-.22-.34v-2.18c0-.28 0-.35.29-.35.26 0 .26.06.28.28.1 1.79 1.92 2.03 2.83 2.03 1.25 0 1.56-.83 1.56-1.4s-.3-.86-.48-1.04c-.26-.25-.47-.29-1.52-.52-1.31-.29-1.71-.37-2.3-.96-.25-.26-.65-.82-.65-1.59 0-1.26.86-2.41 2.69-2.41.58 0 1.36.11 2.05.66l.54-.53c.13-.12.14-.13.24-.13.22 0 .22.11.22.34v2.19c0 .28 0 .34-.29.34-.25 0-.25-.02-.3-.31-.28-1.63-1.49-2.04-2.45-2.04-1.2 0-1.54.74-1.54 1.26 0 .73.67 1.14 1.15 1.25l1.74.37c1.09.23 2.06 1.2 2.06 2.53 0 1.21-.74 2.57-2.72 2.57ZM324.2 106.88v-.94c-.55.94-1.42.94-1.73.94-1.19 0-2.16-.26-2.16-1.55v-2.79c0-.47-.08-.47-.83-.47v-.56l2.19-.1v4.09c0 .65.04.95.96.95.88 0 1.49-.64 1.49-1.62v-2.29c0-.47-.08-.47-.83-.47v-.56l2.2-.1v4.37c0 .47.08.47.83.47v.56l-2.12.07ZM330.79 106.88c-1.07 0-1.66-.65-1.75-.74-.19.23-.4.44-.59.67h-.56v-7.2c0-.47-.08-.47-.83-.47v-.56l2.12-.1v3.51c.29-.24.89-.59 1.76-.59 1.74 0 2.87 1.13 2.87 2.72s-1.24 2.75-3.02 2.75Zm.02-5.03c-.66 0-1.24.35-1.56.77v3.01c.12.18.59.83 1.43.83.38 0 .94-.13 1.28-.62.31-.47.31-1.13.31-1.69 0-.84 0-2.29-1.46-2.29ZM338.09 106.88c-1.85 0-2.97-1.14-2.97-2.73 0-1.39.89-2.77 3.03-2.77.7 0 2.09.07 2.09 1.1 0 .5-.38.76-.76.76-.32 0-.74-.23-.74-.76 0-.11.02-.36.24-.55-.16-.04-.36-.07-.78-.07-1.55 0-1.55 1.56-1.55 2.23 0 .55 0 2.31 1.67 2.31.61 0 1.19-.23 1.5-.98.06-.16.07-.18.29-.18.12 0 .29 0 .29.17 0 .08-.36 1.48-2.3 1.48ZM345.37 103.13c-.35 0-.73-.24-.73-.73 0-.35.23-.55.23-.55-1.2 0-1.5 1.46-1.5 2.3v2.1h1.04v.56c-.43-.04-1.2-.04-1.66-.04l-1.51.04v-.56h.83v-3.71c0-.47-.08-.47-.83-.47v-.56l1.99-.1v1.36c.28-.76.76-1.36 1.6-1.36.62 0 1.27.35 1.27.98 0 .48-.38.73-.73.73ZM348.51 106.77l-1.46.04v-.56h.83v-3.71c0-.47-.08-.47-.79-.47v-.56l2.09-.1v4.83h.74v.56l-1.4-.04Zm-.11-6.3a.939.939 0 1 1 0-1.88.939.939 0 1 1 0 1.88ZM353.44 106.88c-.85 0-1.89-.26-1.89-1.55v-3.29h-.98v-.43c1.19-.04 1.78-1.22 1.79-2.42h.56v2.29h1.75v.56h-1.75v3.31c0 .28 0 1.04.7 1.04.34 0 .72-.29.72-1.1v-.61h.56v.64c0 .88-.54 1.56-1.45 1.56ZM359.19 106.88c-1.93 0-3.13-1.16-3.13-2.77 0-1.5 1.04-2.73 2.96-2.73.83 0 1.46.22 1.91.65.6.6.67 1.47.67 1.85 0 .32-.12.32-.38.32h-3.62c0 .61.01 2.21 1.7 2.21.78 0 1.46-.38 1.71-.96.07-.19.1-.25.3-.25.06 0 .29 0 .29.22 0 .2-.52 1.48-2.41 1.48Zm-.17-5.07c-.35 0-.83.14-1.14.62-.25.4-.26.9-.29 1.37h2.87c-.01-.42-.04-1.99-1.44-1.99ZM366.57 103.13c-.35 0-.73-.24-.73-.73 0-.35.23-.55.23-.55-1.2 0-1.5 1.46-1.5 2.3v2.1h1.04v.56c-.43-.04-1.2-.04-1.66-.04l-1.51.04v-.56h.83v-3.71c0-.47-.08-.47-.83-.47v-.56l1.99-.1v1.36c.28-.76.76-1.36 1.59-1.36.62 0 1.27.35 1.27.98 0 .48-.38.73-.73.73ZM369.72 106.77l-1.46.04v-.56h.83v-3.71c0-.47-.08-.47-.79-.47v-.56l2.09-.1v4.83h.74v.56l-1.4-.04Zm-.11-6.3a.939.939 0 1 1 0-1.88.939.939 0 1 1 0 1.88ZM377.83 106.81h-.58c-1.25 0-1.25-.55-1.25-.92-.26.5-.83 1-1.79 1-.83 0-2.31-.22-2.31-1.37 0-1.74 3.05-1.85 3.9-1.88v-.41c0-.91-.42-1.42-1.32-1.42-.14 0-.53.01-.86.08.04.02.26.23.26.59 0 .5-.38.76-.75.76-.32 0-.74-.23-.74-.76 0-1.05 1.46-1.1 2.15-1.1 1.79 0 2.64.78 2.64 1.85v2.58c0 .28 0 .43.73.44.16 0 .31 0 .31.28s-.14.29-.38.29ZM375.8 104c-.6.04-2.49.2-2.49 1.5 0 .53.48.95 1.09.95.3 0 1.4-.16 1.4-1.31V104ZM432.62 106.64c-.52 0-1.66 0-2.11.04v-.56h1.14l-.72-1.75h-3.21l-.6 1.45-.05.14c0 .16 1.07.16 1.07.16v.56c-.44-.04-1.12-.04-1.58-.04l-1.4.04v-.56h.25c.91 0 .95-.1 1.02-.28l2.97-7.22c.08-.22.13-.31.47-.31.2 0 .35 0 .48.31l3.07 7.5h1.16v.56c-.42-.04-1.48-.04-1.96-.04Zm-3.3-6.18-1.37 3.33h2.73l-1.37-3.33ZM437.12 106.64l-1.48.04v-.56h.83v-6.63c0-.47-.08-.47-.83-.47v-.56l2.12-.1v7.76h.83v.56l-1.47-.04ZM442.04 106.75c-.85 0-1.89-.26-1.89-1.55v-3.29h-.98v-.43c1.19-.04 1.78-1.22 1.79-2.42h.56v2.29h1.75v.56h-1.75v3.31c0 .28 0 1.04.7 1.04.34 0 .72-.29.72-1.1v-.61h.56v.64c0 .88-.54 1.56-1.45 1.56ZM447.79 106.75c-1.93 0-3.13-1.16-3.13-2.77 0-1.5 1.04-2.73 2.96-2.73.83 0 1.46.22 1.91.65.6.6.67 1.47.67 1.85 0 .32-.12.32-.38.32h-3.62c0 .61.01 2.21 1.7 2.21.78 0 1.46-.38 1.71-.96.07-.19.1-.25.3-.25.06 0 .29 0 .29.22 0 .2-.52 1.48-2.41 1.48Zm-.17-5.07c-.35 0-.83.14-1.14.62-.25.4-.26.9-.29 1.37h2.87c-.01-.42-.04-1.99-1.44-1.99ZM455.17 103c-.35 0-.73-.24-.73-.73 0-.35.23-.55.23-.55-1.2 0-1.5 1.46-1.5 2.3v2.1h1.04v.56c-.43-.04-1.2-.04-1.66-.04l-1.51.04v-.56h.83v-3.71c0-.47-.08-.47-.83-.47v-.56l1.99-.1v1.36c.28-.76.76-1.36 1.6-1.36.62 0 1.27.35 1.27.98 0 .48-.38.73-.73.73ZM462.15 106.64l-1.51.04v-.56h.83v-3.24c0-.91-.25-1.16-.66-1.16-.76 0-1.79.59-1.79 1.89v2.51h.83v.56l-1.51-.04-1.51.04v-.56h.83v-3.71c0-.47-.08-.47-.83-.47v-.56l2.06-.1v1.3c.31-.61.95-1.3 2.1-1.3s1.85.47 1.85 1.73v3.11h.83v.56l-1.51-.04ZM470.26 106.68h-.58c-1.25 0-1.25-.55-1.25-.92-.26.5-.83 1-1.79 1-.83 0-2.31-.22-2.31-1.37 0-1.74 3.05-1.85 3.9-1.88v-.41c0-.91-.42-1.42-1.32-1.42-.14 0-.53.01-.86.08.04.02.26.23.26.59 0 .5-.38.76-.75.76-.32 0-.74-.23-.74-.76 0-1.05 1.46-1.1 2.15-1.1 1.79 0 2.64.78 2.64 1.85v2.58c0 .28 0 .43.73.44.16 0 .31 0 .31.28s-.14.29-.38.29Zm-2.03-2.81c-.6.04-2.49.2-2.49 1.5 0 .53.48.95 1.09.95.3 0 1.4-.16 1.4-1.31v-1.14ZM473.79 106.75c-.85 0-1.89-.26-1.89-1.55v-3.29h-.98v-.43c1.19-.04 1.78-1.22 1.79-2.42h.56v2.29h1.75v.56h-1.75v3.31c0 .28 0 1.04.7 1.04.34 0 .72-.29.72-1.1v-.61h.56v.64c0 .88-.54 1.56-1.45 1.56ZM478.05 106.64l-1.46.04v-.56h.83v-3.71c0-.47-.08-.47-.79-.47v-.56l2.09-.1v4.83h.74v.56l-1.4-.04Zm-.11-6.31a.939.939 0 1 1 0-1.88.939.939 0 1 1 0 1.88ZM485.92 102.17l-1.99 4.27c-.12.25-.24.29-.44.29-.16 0-.31 0-.46-.3l-2.1-4.51h-.77v-.56l1.37.04 1.49-.04v.56h-.65l1.52 3.27 1.39-3c.06-.12.06-.14.06-.14 0-.1-.35-.13-.58-.13v-.56l1.09.04c.3 0 .65-.01.95-.04v.56c-.77 0-.82.08-.89.25ZM490.27 106.75c-1.93 0-3.13-1.16-3.13-2.77 0-1.5 1.04-2.73 2.96-2.73.83 0 1.46.22 1.91.65.6.6.67 1.47.67 1.85 0 .32-.12.32-.38.32h-3.62c0 .61.01 2.21 1.7 2.21.78 0 1.46-.38 1.71-.96.07-.19.1-.25.3-.25.06 0 .29 0 .29.22 0 .2-.52 1.48-2.41 1.48Zm-.17-5.07c-.35 0-.83.14-1.14.62-.25.4-.26.9-.29 1.37h2.87c-.01-.42-.04-1.99-1.44-1.99ZM495.83 106.75c-.24 0-.86 0-1.42-.38l-.31.2c-.25.18-.28.18-.36.18-.22 0-.22-.11-.22-.34v-1.31c0-.28 0-.35.29-.35.17 0 .23 0 .29.17.14.52.46 1.39 1.73 1.39.26 0 1.37 0 1.37-.9 0-.71-.9-.86-1.33-.93-.92-.17-1.38-.24-1.86-.66-.24-.2-.48-.53-.48-1.01 0-1.57 1.85-1.57 2.21-1.57.48 0 .9.07 1.21.23.47-.23.49-.23.54-.23.22 0 .22.11.22.33v.96c0 .28 0 .34-.29.34-.25 0-.26-.06-.28-.24-.06-.66-.52-1.01-1.42-1.01-.23 0-1.34 0-1.34.74 0 .56.78.7 1.22.78.94.16 1.32.23 1.79.58.42.34.66.76.66 1.27 0 1.75-1.85 1.75-2.22 1.75Z"/></svg>