<svg xmlns:xlink="http://www.w3.org/1999/xlink" width="614.4" height="460.8" viewBox="0 0 460.8 345.6" xmlns="http://www.w3.org/2000/svg"><defs><style>*{stroke-linejoin:round;stroke-linecap:butt}</style></defs><g id="figure_1"><path d="M0 345.6h460.8V0H0z" style="fill:#fff" id="patch_1"/><g id="axes_1"><path d="M57.6 307.584h357.12V41.472H57.6z" style="fill:#fff" id="patch_2"/><path d="M73.833 307.584h10.822v-2.913H73.833z" clip-path="url(#p307b2cb595)" style="fill:#dae8f6;fill-opacity:.3;stroke:#000;stroke-linejoin:miter" id="patch_3"/><path d="M84.655 307.584h10.821v-2.913H84.655z" clip-path="url(#p307b2cb595)" style="fill:#dae8f6;fill-opacity:.3;stroke:#000;stroke-linejoin:miter" id="patch_4"/><path d="M95.476 307.584h10.822v-17.479H95.476z" clip-path="url(#p307b2cb595)" style="fill:#dae8f6;fill-opacity:.3;stroke:#000;stroke-linejoin:miter" id="patch_5"/><path d="M106.298 307.584h10.822v-43.697h-10.822z" clip-path="url(#p307b2cb595)" style="fill:#dae8f6;fill-opacity:.3;stroke:#000;stroke-linejoin:miter" id="patch_6"/><path d="M117.12 307.584h10.822V193.973H117.12z" clip-path="url(#p307b2cb595)" style="fill:#dae8f6;fill-opacity:.3;stroke:#000;stroke-linejoin:miter" id="patch_7"/><path d="M127.942 307.584h10.822V118.232h-10.822z" clip-path="url(#p307b2cb595)" style="fill:#dae8f6;fill-opacity:.3;stroke:#000;stroke-linejoin:miter" id="patch_8"/><path d="M138.764 307.584h10.821V109.493h-10.821z" clip-path="url(#p307b2cb595)" style="fill:#dae8f6;fill-opacity:.3;stroke:#000;stroke-linejoin:miter" id="patch_9"/><path d="M149.585 307.584h10.822V54.144h-10.822z" clip-path="url(#p307b2cb595)" style="fill:#dae8f6;fill-opacity:.3;stroke:#000;stroke-linejoin:miter" id="patch_10"/><path d="M160.407 307.584h10.822V59.97h-10.822z" clip-path="url(#p307b2cb595)" style="fill:#dae8f6;fill-opacity:.3;stroke:#000;stroke-linejoin:miter" id="patch_11"/><path d="M171.23 307.584h10.82V115.319h-10.82z" clip-path="url(#p307b2cb595)" style="fill:#dae8f6;fill-opacity:.3;stroke:#000;stroke-linejoin:miter" id="patch_12"/><path d="M182.05 307.584h10.823v-87.393H182.05z" clip-path="url(#p307b2cb595)" style="fill:#dae8f6;fill-opacity:.3;stroke:#000;stroke-linejoin:miter" id="patch_13"/><path d="M192.873 307.584h10.822v-81.567h-10.822z" clip-path="url(#p307b2cb595)" style="fill:#dae8f6;fill-opacity:.3;stroke:#000;stroke-linejoin:miter" id="patch_14"/><path d="M203.695 307.584h10.821v-40.783h-10.821z" clip-path="url(#p307b2cb595)" style="fill:#dae8f6;fill-opacity:.3;stroke:#000;stroke-linejoin:miter" id="patch_15"/><path d="M214.516 307.584h10.822v-11.652h-10.822z" clip-path="url(#p307b2cb595)" style="fill:#dae8f6;fill-opacity:.3;stroke:#000;stroke-linejoin:miter" id="patch_16"/><path d="M225.338 307.584h10.822v-14.566h-10.822z" clip-path="url(#p307b2cb595)" style="fill:#dae8f6;fill-opacity:.3;stroke:#000;stroke-linejoin:miter" id="patch_17"/><path d="M236.16 307.584h10.822v-26.218H236.16z" clip-path="url(#p307b2cb595)" style="fill:#dae8f6;fill-opacity:.3;stroke:#000;stroke-linejoin:miter" id="patch_18"/><path d="M246.982 307.584h10.822v-26.218h-10.822z" clip-path="url(#p307b2cb595)" style="fill:#dae8f6;fill-opacity:.3;stroke:#000;stroke-linejoin:miter" id="patch_19"/><path d="M257.804 307.584h10.821v-37.87h-10.821z" clip-path="url(#p307b2cb595)" style="fill:#dae8f6;fill-opacity:.3;stroke:#000;stroke-linejoin:miter" id="patch_20"/><path d="M268.625 307.584h10.822v-14.566h-10.822z" clip-path="url(#p307b2cb595)" style="fill:#dae8f6;fill-opacity:.3;stroke:#000;stroke-linejoin:miter" id="patch_21"/><path d="M279.447 307.584h10.822v-26.218h-10.822z" clip-path="url(#p307b2cb595)" style="fill:#dae8f6;fill-opacity:.3;stroke:#000;stroke-linejoin:miter" id="patch_22"/><path d="M290.27 307.584h10.82V275.54h-10.82z" clip-path="url(#p307b2cb595)" style="fill:#dae8f6;fill-opacity:.3;stroke:#000;stroke-linejoin:miter" id="patch_23"/><path d="M301.09 307.584h10.823v-23.305H301.09z" clip-path="url(#p307b2cb595)" style="fill:#dae8f6;fill-opacity:.3;stroke:#000;stroke-linejoin:miter" id="patch_24"/><path d="M311.913 307.584h10.822v-20.392h-10.822z" clip-path="url(#p307b2cb595)" style="fill:#dae8f6;fill-opacity:.3;stroke:#000;stroke-linejoin:miter" id="patch_25"/><path d="M322.735 307.584h10.821v-14.566h-10.821z" clip-path="url(#p307b2cb595)" style="fill:#dae8f6;fill-opacity:.3;stroke:#000;stroke-linejoin:miter" id="patch_26"/><path d="M333.556 307.584h10.822v-14.566h-10.822z" clip-path="url(#p307b2cb595)" style="fill:#dae8f6;fill-opacity:.3;stroke:#000;stroke-linejoin:miter" id="patch_27"/><path d="M344.378 307.584H355.2h-10.822z" clip-path="url(#p307b2cb595)" style="fill:#dae8f6;fill-opacity:.3;stroke:#000;stroke-linejoin:miter" id="patch_28"/><path d="M355.2 307.584h10.822v-2.913H355.2z" clip-path="url(#p307b2cb595)" style="fill:#dae8f6;fill-opacity:.3;stroke:#000;stroke-linejoin:miter" id="patch_29"/><path d="M366.022 307.584h10.822v-2.913h-10.822z" clip-path="url(#p307b2cb595)" style="fill:#dae8f6;fill-opacity:.3;stroke:#000;stroke-linejoin:miter" id="patch_30"/><path d="M376.844 307.584h10.821v-2.913h-10.821z" clip-path="url(#p307b2cb595)" style="fill:#dae8f6;fill-opacity:.3;stroke:#000;stroke-linejoin:miter" id="patch_31"/><path d="M387.665 307.584h10.822v-5.826h-10.822z" clip-path="url(#p307b2cb595)" style="fill:#dae8f6;fill-opacity:.3;stroke:#000;stroke-linejoin:miter" id="patch_32"/><g id="matplotlib.axis_1"><g id="xtick_1"><g id="line2d_1"><defs><path id="m1b7ca1517e" d="M0 0v3.5" style="stroke:#000;stroke-width:.8"/></defs><use xlink:href="#m1b7ca1517e" x="79.96" y="307.584" style="stroke:#000;stroke-width:.8"/></g><g transform="matrix(.1 0 0 -.1 77.46 321.525)" id="text_1"><defs><path id="LMRoman10-Regular-32" d="M2874 1114h-160c-32-192-77-474-141-570-45-51-467-51-608-51H813l678 659c999 883 1383 1229 1383 1869 0 729-576 1241-1357 1241-723 0-1197-588-1197-1158 0-358 320-358 339-358 109 0 333 76 333 339 0 166-115 333-339 333-51 0-64 0-83-7 147 416 492 653 864 653 582 0 857-518 857-1043 0-512-320-1018-672-1415L390 237c-70-71-70-83-70-237h2374l180 1114z" transform="scale(.01563)"/></defs><use xlink:href="#LMRoman10-Regular-32"/></g></g><g id="xtick_2"><use xlink:href="#m1b7ca1517e" x="130.757" y="307.584" style="stroke:#000;stroke-width:.8" id="line2d_2"/><g transform="matrix(.1 0 0 -.1 128.257 321.525)" id="text_2"><defs><path id="LMRoman10-Regular-34" d="M3014 1056v198h-640v2912c0 128 0 167-102 167-58 0-77 0-128-77L179 1254v-198h1703V499c0-230-13-301-487-301h-134V0c262 19 595 19 864 19s608 0 870-19v198h-134c-474 0-487 71-487 301v557h640zm-1094 198H358l1562 2388V1254z" transform="scale(.01563)"/></defs><use xlink:href="#LMRoman10-Regular-34"/></g></g><g id="xtick_3"><use xlink:href="#m1b7ca1517e" x="181.553" y="307.584" style="stroke:#000;stroke-width:.8" id="line2d_3"/><g transform="matrix(.1 0 0 -.1 179.053 321.525)" id="text_3"><defs><path id="LMRoman10-Regular-36" d="M2925 1306c0 812-570 1427-1280 1427-435 0-672-327-800-634v154c0 1619 793 1849 1120 1849 153 0 422-38 563-256-96 0-352 0-352-288 0-198 154-294 294-294 103 0 295 58 295 307 0 384-282 691-813 691-819 0-1683-825-1683-2240 0-1708 742-2163 1337-2163 711 0 1319 602 1319 1447zm-576 6c0-307 0-627-109-858-192-384-486-416-634-416-403 0-595 384-633 480-115 301-115 813-115 928 0 500 204 1140 780 1140 103 0 397 0 596-397 115-237 115-563 115-877z" transform="scale(.01563)"/></defs><use xlink:href="#LMRoman10-Regular-36"/></g></g><g id="xtick_4"><use xlink:href="#m1b7ca1517e" x="232.349" y="307.584" style="stroke:#000;stroke-width:.8" id="line2d_4"/><g transform="matrix(.1 0 0 -.1 229.849 321.525)" id="text_4"><defs><path id="LMRoman10-Regular-38" d="M2925 1075c0 231-71 519-314 787-121 135-224 199-633 455 460 237 774 569 774 992 0 589-570 953-1152 953-640 0-1158-473-1158-1068 0-116 12-404 281-704 71-77 307-237 467-346-371-186-921-544-921-1178 0-678 653-1107 1325-1107 723 0 1331 531 1331 1216zm-455 2234c0-365-249-672-633-896l-794 512c-294 192-320 409-320 518 0 391 416 659 871 659 467 0 876-332 876-793zm135-2464c0-474-480-807-1005-807-550 0-1011 397-1011 928 0 372 205 781 749 1082l787-499c179-122 480-314 480-704z" transform="scale(.01563)"/></defs><use xlink:href="#LMRoman10-Regular-38"/></g></g><g id="xtick_5"><use xlink:href="#m1b7ca1517e" x="283.145" y="307.584" style="stroke:#000;stroke-width:.8" id="line2d_5"/><g transform="matrix(.1 0 0 -.1 278.145 321.525)" id="text_5"><defs><path id="LMRoman10-Regular-31" d="M2682 0v198h-205c-576 0-595 71-595 308v3590c0 154 0 166-148 166-396-409-960-409-1164-409v-199c128 0 505 0 838 167V506c0-231-19-308-595-308H608V0c224 19 781 19 1037 19s813 0 1037-19z" transform="scale(.01563)"/><path id="LMRoman10-Regular-30" d="M2944 2048c0 512-32 1024-256 1498-294 614-819 716-1088 716-384 0-851-166-1114-761-204-442-236-941-236-1453 0-480 25-1056 288-1542 275-519 742-647 1056-647 345 0 832 135 1113 743 205 441 237 940 237 1446zm-531 77c0-480 0-915-71-1325-96-608-460-800-748-800-250 0-628 160-743 774-70 384-70 973-70 1351 0 409 0 832 51 1177 122 762 602 820 762 820 211 0 633-116 755-749 64-359 64-845 64-1248z" transform="scale(.01563)"/></defs><use xlink:href="#LMRoman10-Regular-31"/><use xlink:href="#LMRoman10-Regular-30" x="50"/></g></g><g id="xtick_6"><use xlink:href="#m1b7ca1517e" x="333.941" y="307.584" style="stroke:#000;stroke-width:.8" id="line2d_6"/><g transform="matrix(.1 0 0 -.1 328.941 321.525)" id="text_6"><use xlink:href="#LMRoman10-Regular-31"/><use xlink:href="#LMRoman10-Regular-32" x="50"/></g></g><g id="xtick_7"><use xlink:href="#m1b7ca1517e" x="384.737" y="307.584" style="stroke:#000;stroke-width:.8" id="line2d_7"/><g transform="matrix(.1 0 0 -.1 379.737 321.525)" id="text_7"><use xlink:href="#LMRoman10-Regular-31"/><use xlink:href="#LMRoman10-Regular-34" x="50"/></g></g><g transform="matrix(.1 0 0 -.1 233.52 334.406)" id="text_8"><defs><path id="LMRoman10-Regular-78" d="M3302 0v198c-345 0-460 13-608 199l-857 1107c192 243 435 557 589 723 198 231 460 327 761 333v198c-166-12-358-19-525-19-192 0-531 13-614 19v-198c134-13 186-96 186-198 0-103-64-186-96-224l-397-500-499 647c-58 64-58 77-58 115 0 96 96 154 224 160v198l-691-19c-135 0-435 7-608 19v-198c448 0 454-6 755-390l634-826c-301-384-301-397-602-762C589 211 211 198 77 198V0c166 13 365 19 531 19l608-19v198c-141 20-186 103-186 199 0 141 186 352 576 813l487-640c51-71 134-173 134-212 0-57-57-153-230-160V0l691 19c173 0 422-6 614-19z" transform="scale(.01563)"/></defs><use xlink:href="#LMRoman10-Regular-78"/></g></g><g id="matplotlib.axis_2"><g id="ytick_1"><g id="line2d_8"><defs><path id="m71ed5f47da" d="M0 0h-3.5" style="stroke:#000;stroke-width:.8"/></defs><use xlink:href="#m71ed5f47da" x="57.6" y="307.584" style="stroke:#000;stroke-width:.8"/></g><use xlink:href="#LMRoman10-Regular-30" transform="matrix(.1 0 0 -.1 45.6 311.054)" id="text_9"/></g><g id="ytick_2"><use xlink:href="#m71ed5f47da" x="57.6" y="249.322" style="stroke:#000;stroke-width:.8" id="line2d_9"/><g transform="matrix(.1 0 0 -.1 40.6 252.792)" id="text_10"><use xlink:href="#LMRoman10-Regular-32"/><use xlink:href="#LMRoman10-Regular-30" x="50"/></g></g><g id="ytick_3"><use xlink:href="#m71ed5f47da" x="57.6" y="191.06" style="stroke:#000;stroke-width:.8" id="line2d_10"/><g transform="matrix(.1 0 0 -.1 40.6 194.53)" id="text_11"><use xlink:href="#LMRoman10-Regular-34"/><use xlink:href="#LMRoman10-Regular-30" x="50"/></g></g><g id="ytick_4"><use xlink:href="#m71ed5f47da" x="57.6" y="132.798" style="stroke:#000;stroke-width:.8" id="line2d_11"/><g transform="matrix(.1 0 0 -.1 40.6 136.268)" id="text_12"><use xlink:href="#LMRoman10-Regular-36"/><use xlink:href="#LMRoman10-Regular-30" x="50"/></g></g><g id="ytick_5"><use xlink:href="#m71ed5f47da" x="57.6" y="74.536" style="stroke:#000;stroke-width:.8" id="line2d_12"/><g transform="matrix(.1 0 0 -.1 40.6 78.006)" id="text_13"><use xlink:href="#LMRoman10-Regular-38"/><use xlink:href="#LMRoman10-Regular-30" x="50"/></g></g><g transform="matrix(0 -.1 -.1 0 34.66 183.178)" id="text_14"><defs><path id="DejaVuSans-302" d="M-1831 5119h462l766-1175h-435l-562 765-563-765h-434l766 1175zm231-1535z" transform="scale(.01563)"/><path id="DejaVuSans-Oblique-66" d="m3059 4863-90-479h-550q-313 0-455-123t-211-452l-62-309h947l-85-447h-947L1013 0H434l597 3053H481l82 447h550l46 244q119 619 417 869 299 250 940 250h543z" transform="scale(.01563)"/><path id="DejaVuSans-28" d="M1984 4856q-418-718-622-1422-203-703-203-1425 0-721 205-1429t620-1424h-500Q1016-109 783 600T550 2009q0 697 231 1403 232 707 703 1444h500z" transform="scale(.01563)"/><path id="DejaVuSans-Oblique-78" d="M3841 3500 2234 1784 3219 0h-660l-740 1388L531 0h-697l1722 1844-915 1656h659l672-1266 1172 1266h697z" transform="scale(.01563)"/><path id="DejaVuSans-29" d="M513 4856h500q468-737 701-1444 233-706 233-1403 0-700-233-1409T1013-844H513q415 716 620 1424t205 1429q0 722-205 1425-205 704-620 1422z" transform="scale(.01563)"/></defs><use xlink:href="#DejaVuSans-302" transform="translate(47.38 33.016)"/><use xlink:href="#DejaVuSans-Oblique-66" transform="translate(0 .531)"/><use xlink:href="#DejaVuSans-28" transform="translate(35.205 .531)"/><use xlink:href="#DejaVuSans-Oblique-78" transform="translate(74.219 .531)"/><use xlink:href="#DejaVuSans-29" transform="translate(133.398 .531)"/></g></g><path d="m73.833 304.704 2.6-.808 2.6-1.048 2.274-1.163 2.275-1.443 1.95-1.498 1.95-1.776 1.95-2.086 1.95-2.43 1.95-2.807 1.95-3.213 1.95-3.646 1.95-4.102 1.949-4.574 2.275-5.95 2.275-6.613 2.275-7.27 2.6-9.076 2.924-11.112 3.25-13.3 4.225-18.375 11.374-50.178 3.25-13.014 2.6-9.59 2.275-7.675 2.274-6.918 1.95-5.267 1.95-4.602 1.625-3.29 1.625-2.767 1.3-1.816 1.3-1.448 1.3-1.068.975-.544.975-.317.975-.088.974.145.975.381.975.62.975.857 1.3 1.516 1.3 1.938 1.3 2.352 1.3 2.758 1.625 3.996 1.625 4.571 1.95 6.184 2.274 8.061 2.6 10.127 3.25 13.634 13.324 57.093 3.25 12.344 2.925 10.246 2.6 8.379 2.6 7.674 2.6 6.96 2.274 5.498 2.275 4.94 2.275 4.38 1.95 3.306 1.95 2.896 1.95 2.491 1.95 2.097 1.624 1.457 1.625 1.204 1.625.964 1.625.741 1.95.62 1.95.357 1.95.13 2.275-.084 2.6-.334 3.574-.722 8.45-1.831 3.25-.425 2.924-.16 2.925.062 3.25.306 3.9.603 9.099 1.5 3.575.303 3.575.067 4.224-.173 10.075-.535 3.25.102 3.25.33 3.249.573 3.25.804 3.575 1.117 4.224 1.565 5.2 2.175 9.424 4.237 7.8 3.398 4.875 1.895 4.224 1.422 3.9 1.096 3.9.874 3.9.656 4.224.49 4.875.342 6.825.232 13.324.42 7.8.512.324.025h0" clip-path="url(#p307b2cb595)" style="fill:none;stroke:#6d8ebf;stroke-width:2;stroke-linecap:square" id="line2d_13"/><path d="M57.6 307.584V41.472" style="fill:none;stroke:#000;stroke-width:.8;stroke-linejoin:miter;stroke-linecap:square" id="patch_33"/><path d="M414.72 307.584V41.472" style="fill:none;stroke:#000;stroke-width:.8;stroke-linejoin:miter;stroke-linecap:square" id="patch_34"/><path d="M57.6 307.584h357.12" style="fill:none;stroke:#000;stroke-width:.8;stroke-linejoin:miter;stroke-linecap:square" id="patch_35"/><path d="M57.6 41.472h357.12" style="fill:none;stroke:#000;stroke-width:.8;stroke-linejoin:miter;stroke-linecap:square" id="patch_36"/><g id="legend_1"><path d="M267.528 77.631H407.72q2 0 2-2V48.472q0-2-2-2H267.528q-2 0-2 2v27.16q0 2 2 2z" style="fill:#fff;opacity:.8;stroke:#ccc;stroke-linejoin:miter" id="patch_37"/><path d="M269.528 53.972h20" style="fill:none;stroke:#6d8ebf;stroke-width:2;stroke-linecap:square" id="line2d_14"/><g transform="matrix(.1 0 0 -.1 297.528 57.472)" id="text_15"><defs><path id="LMRoman10-Regular-73" d="M2304 819c0 339-192 531-269 608-211 205-461 256-729 307-359 71-788 154-788 525 0 224 167 487 717 487 704 0 736-576 749-775 6-57 77-57 77-57 83 0 83 32 83 153v647c0 108 0 153-70 153-32 0-45 0-128-77-20-25-84-83-109-102-243 179-506 179-602 179-781 0-1024-429-1024-787 0-224 103-403 275-544 205-166 384-205 845-294 141-26 666-128 666-589 0-327-224-583-723-583-538 0-768 365-890 909-19 83-26 109-90 109-83 0-83-45-83-160V83c0-109 0-153 71-153 32 0 38 6 160 128 12 12 12 25 128 147C851-64 1139-70 1274-70c736 0 1030 428 1030 889z" transform="scale(.01563)"/><path id="LMRoman10-Regular-4b" d="M4710 0v198c-345 0-480 26-672 308L2560 2682l1152 1107c51 51 390 377 909 384v198c-167-19-371-19-544-19-231 0-595 0-813 19v-198c256-7 294-154 294-211 0-103-64-167-115-212L1440 1837v2035c0 230 13 301 506 301h153v198c-224-19-697-19-941-19-243 0-723 0-947 19v-198h154c493 0 505-71 505-301V499c0-230-12-301-505-301H211V0c224 19 698 19 941 19s723 0 947-19v198h-153c-493 0-506 71-506 301v1120l742 704L3341 608c38-58 96-141 96-218 0-192-250-192-378-192V0c224 19 672 19 915 19l736-19z" transform="scale(.01563)"/><path id="LMRoman10-Regular-72" d="M2330 2438c0 205-199 391-474 391-467 0-698-429-787-704v704l-890-71v-198c448 0 499-45 499-358V486c0-288-70-288-499-288V0l730 19c256 0 557 0 813-19v198h-135c-473 0-486 71-486 301v986c0 633 269 1203 755 1203 45 0 58 0 70-6-19-7-147-84-147-250 0-179 135-275 275-275 116 0 276 77 276 281z" transform="scale(.01563)"/><path id="LMRoman10-Regular-6e" d="M3424 0v198c-333 0-493 0-499 192v1223c0 550 0 749-199 979-89 109-300 237-672 237-467 0-768-275-947-672v672l-902-71v-198c448 0 499-45 499-358V486c0-288-70-288-499-288V0l723 19 717-19v198c-429 0-499 0-499 288v1178c0 666 454 1024 864 1024 403 0 473-346 473-710V486c0-288-70-288-499-288V0l723 19 717-19z" transform="scale(.01563)"/><path id="LMRoman10-Regular-6c" d="M1632 0v198c-429 0-499 0-499 288v3956l-922-71v-198c448 0 499-45 499-359V486c0-288-70-288-499-288V0l711 19 710-19z" transform="scale(.01563)"/><path id="LMRoman10-Regular-44" d="M4525 2150c0 1216-864 2221-1959 2221H224v-198h154c492 0 505-71 505-301V499c0-230-13-301-505-301H224V0h2342c1076 0 1959 947 1959 2150zm-640 0c0-710-122-1094-352-1408-128-172-493-544-1139-544h-647c-301 0-313 45-313 256v3463c0 211 12 256 313 256h640c397 0 839-141 1165-595 275-378 333-928 333-1428z" transform="scale(.01563)"/><path id="LMRoman10-Regular-65" d="M2656 762c0 64-51 76-83 76-58 0-71-38-83-89-224-659-800-659-864-659-320 0-576 192-724 428-192 308-192 730-192 960h1786c141 0 160 0 160 135 0 633-346 1254-1146 1254-742 0-1331-659-1331-1459C179 550 851-70 1587-70c781 0 1069 710 1069 832zm-422 851H717c38 953 576 1113 793 1113 660 0 724-864 724-1113z" transform="scale(.01563)"/><path id="LMRoman10-Regular-69" d="M1581 0v198c-423 0-448 32-448 282v2349l-896-71v-198c416 0 473-38 473-352V486c0-288-70-288-499-288V0l704 19c224 0 448-13 666-19zm-352 3866c0 172-147 339-339 339-218 0-346-179-346-339 0-173 147-340 339-340 218 0 346 180 346 340z" transform="scale(.01563)"/><path id="LMRoman10-Regular-74" d="M2125 794v364h-160V806c0-473-192-716-429-716-429 0-429 582-429 691v1779h915v198h-915v1178H947c-6-525-198-1210-825-1235v-141h544V794c0-788 595-864 825-864 455 0 634 454 634 864z" transform="scale(.01563)"/><path id="LMRoman10-Regular-79" d="M3251 2560v198c-147-12-333-19-480-19l-557 19v-198c199-6 301-115 301-275 0-64-6-77-38-154L1830 557l-710 1721c-26 64-38 90-38 116 0 166 236 166 358 166v198l-698-19c-172 0-428 7-620 19v-198c307 0 428 0 518-224L1600 0l-160-378c-141-352-320-793-730-793-32 0-179 0-300 115 198 26 249 166 249 269 0 166-121 269-269 269-128 0-268-84-268-276 0-288 268-518 588-518 404 0 666 365 820 730l1126 2732c166 404 493 410 595 410z" transform="scale(.01563)"/><path id="LMRoman10-Regular-45" d="M4173 1651h-160C3853 666 3706 198 2605 198h-851c-301 0-314 45-314 256v1709h576c621 0 691-205 691-749h160v1696h-160c0-550-70-748-691-748h-576v1536c0 211 13 256 314 256h825c979 0 1152-352 1255-1242h160l-180 1440H211v-198h154c493 0 505-71 505-301V499c0-230-12-301-505-301H211V0h3693l269 1651z" transform="scale(.01563)"/><path id="LMRoman10-Regular-6d" d="M5203 0v198c-333 0-493 0-499 192v1223c0 550 0 749-198 979-90 109-301 237-672 237-538 0-820-384-928-627-90 556-564 627-852 627-467 0-768-275-947-672v672l-902-71v-198c448 0 499-45 499-358V486c0-288-70-288-499-288V0l723 19 717-19v198c-429 0-499 0-499 288v1178c0 666 454 1024 864 1024 403 0 473-346 473-710V486c0-288-70-288-499-288V0l723 19 717-19v198c-429 0-499 0-499 288v1178c0 666 454 1024 864 1024 403 0 473-346 473-710V486c0-288-70-288-499-288V0l723 19 717-19z" transform="scale(.01563)"/><path id="LMRoman10-Regular-61" d="M3155 570v358h-160V570c0-372-160-410-230-410-211 0-237 288-237 320v1280c0 269 0 518-230 755-250 250-570 352-877 352-525 0-967-301-967-723 0-192 128-301 295-301 179 0 294 128 294 295 0 76-32 288-326 294 173 224 486 294 691 294 314 0 678-249 678-819v-237c-326-19-774-38-1177-230-480-218-640-550-640-832C269 90 890-70 1293-70c422 0 717 256 838 556 26-256 199-524 499-524 135 0 525 89 525 608zM2086 896c0-608-460-826-748-826-314 0-576 224-576 544 0 352 268 884 1324 922V896z" transform="scale(.01563)"/></defs><use xlink:href="#LMRoman10-Regular-4b"/><use xlink:href="#LMRoman10-Regular-65" x="77.8"/><use xlink:href="#LMRoman10-Regular-72" x="122.2"/><use xlink:href="#LMRoman10-Regular-6e" x="161.4"/><use xlink:href="#LMRoman10-Regular-65" x="217"/><use xlink:href="#LMRoman10-Regular-6c" x="261.4"/><use xlink:href="#LMRoman10-Regular-20" x="289.2"/><use xlink:href="#LMRoman10-Regular-44" x="322.5"/><use xlink:href="#LMRoman10-Regular-65" x="398.9"/><use xlink:href="#LMRoman10-Regular-6e" x="443.3"/><use xlink:href="#LMRoman10-Regular-73" x="498.9"/><use xlink:href="#LMRoman10-Regular-69" x="538.3"/><use xlink:href="#LMRoman10-Regular-74" x="566.1"/><use xlink:href="#LMRoman10-Regular-79" x="605"/><use xlink:href="#LMRoman10-Regular-20" x="657.8"/><use xlink:href="#LMRoman10-Regular-45" x="691.1"/><use xlink:href="#LMRoman10-Regular-73" x="759.2"/><use xlink:href="#LMRoman10-Regular-74" x="798.6"/><use xlink:href="#LMRoman10-Regular-69" x="837.5"/><use xlink:href="#LMRoman10-Regular-6d" x="865.3"/><use xlink:href="#LMRoman10-Regular-61" x="948.6"/><use xlink:href="#LMRoman10-Regular-74" x="998.6"/><use xlink:href="#LMRoman10-Regular-65" x="1037.5"/></g><path d="M269.528 71.572h20v-7h-20z" style="fill:#dae8f6;fill-opacity:.3;stroke:#000;stroke-linejoin:miter" id="patch_38"/><g transform="matrix(.1 0 0 -.1 297.528 71.572)" id="text_16"><defs><path id="LMRoman10-Regular-4f" d="M4614 2170c0 1305-966 2342-2131 2342-1145 0-2125-1024-2125-2342 0-1312 986-2311 2125-2311 1165 0 2131 1018 2131 2311zm-659 89C3955 563 3078 26 2490 26c-615 0-1472 563-1472 2233 0 1658 934 2093 1465 2093 557 0 1472-454 1472-2093z" transform="scale(.01563)"/><path id="LMRoman10-Regular-67" d="M3104 2586c0 108-77 313-326 313-128 0-410-38-679-301-269 212-537 231-678 231-595 0-1037-442-1037-935 0-281 141-524 301-659-83-96-199-307-199-531 0-198 84-442 282-570C384 26 179-250 179-506c0-460 634-812 1415-812 755 0 1420 326 1420 825 0 224-89 551-416 730-339 179-710 179-1100 179-160 0-436 0-480 6-205 26-340 224-340 429 0 26 0 173 109 301 250-179 512-198 634-198 595 0 1037 441 1037 934 0 237-103 474-263 621 231 217 461 249 576 249 0 0 45 0 64-6-70-26-102-96-102-173 0-109 83-185 185-185 64 0 186 44 186 192zm-1126-692c0-172-7-377-103-537-51-77-198-256-454-256-557 0-557 640-557 787 0 173 6 378 102 538 52 76 199 256 455 256 557 0 557-640 557-788zm704-2400c0-345-455-665-1082-665-646 0-1088 326-1088 665 0 295 243 532 525 551h377c551 0 1268 0 1268-551z" transform="scale(.01563)"/><path id="LMRoman10-Regular-64" d="M3373 0v198c-448 0-499 45-499 359v3885l-922-71v-198c448 0 499-45 499-359V2432c-185 230-461 397-806 397-755 0-1427-627-1427-1453C218 563 845-70 1574-70c410 0 698 217 858 422V-70l941 70zm-941 755c0-115 0-128-70-237-192-307-480-448-756-448-288 0-518 167-672 410-166 262-185 627-185 890 0 236 13 620 198 908 135 199 378 410 723 410 224 0 493-96 692-384 70-109 70-122 70-237V755z" transform="scale(.01563)"/></defs><use xlink:href="#LMRoman10-Regular-4f"/><use xlink:href="#LMRoman10-Regular-72" x="77.8"/><use xlink:href="#LMRoman10-Regular-69" x="117"/><use xlink:href="#LMRoman10-Regular-67" x="144.8"/><use xlink:href="#LMRoman10-Regular-69" x="194.8"/><use xlink:href="#LMRoman10-Regular-6e" x="222.6"/><use xlink:href="#LMRoman10-Regular-61" x="278.2"/><use xlink:href="#LMRoman10-Regular-6c" x="328.2"/><use xlink:href="#LMRoman10-Regular-20" x="356"/><use xlink:href="#LMRoman10-Regular-64" x="389.3"/><use xlink:href="#LMRoman10-Regular-61" x="444.9"/><use xlink:href="#LMRoman10-Regular-74" x="494.9"/><use xlink:href="#LMRoman10-Regular-61" x="533.8"/></g></g></g></g><defs><clipPath id="p307b2cb595"><path d="M57.6 41.472h357.12v266.112H57.6z"/></clipPath></defs></svg>