<svg xmlns:xlink="http://www.w3.org/1999/xlink" width="614.4" height="460.8" viewBox="0 0 460.8 345.6" xmlns="http://www.w3.org/2000/svg"><defs><style>*{stroke-linejoin:round;stroke-linecap:butt}</style></defs><g id="figure_1"><path d="M0 345.6h460.8V0H0z" style="fill:#fff" id="patch_1"/><g id="axes_1"><path d="M57.6 307.584h357.12V41.472H57.6z" style="fill:#fff" id="patch_2"/><g id="PathCollection_1"><defs><path id="m68b3470e25" d="M0 3a3 3 0 1 0 0-6 3 3 0 0 0 0 6z" style="stroke:#dae8f6"/></defs><g clip-path="url(#p4058eae439)"><use xlink:href="#m68b3470e25" x="194.88" y="200.607" style="fill:#dae8f6;stroke:#dae8f6"/><use xlink:href="#m68b3470e25" x="391.923" y="69.769" style="fill:#dae8f6;stroke:#dae8f6"/><use xlink:href="#m68b3470e25" x="317.124" y="125.434" style="fill:#dae8f6;stroke:#dae8f6"/><use xlink:href="#m68b3470e25" x="271.525" y="159.494" style="fill:#dae8f6;stroke:#dae8f6"/><use xlink:href="#m68b3470e25" x="120.149" y="279.272" style="fill:#dae8f6;stroke:#dae8f6"/><use xlink:href="#m68b3470e25" x="120.141" y="270.218" style="fill:#dae8f6;stroke:#dae8f6"/><use xlink:href="#m68b3470e25" x="86.657" y="290.507" style="fill:#dae8f6;stroke:#dae8f6"/><use xlink:href="#m68b3470e25" x="363.012" y="79.382" style="fill:#dae8f6;stroke:#dae8f6"/><use xlink:href="#m68b3470e25" x="272.365" y="151.208" style="fill:#dae8f6;stroke:#dae8f6"/><use xlink:href="#m68b3470e25" x="308.943" y="150.82" style="fill:#dae8f6;stroke:#dae8f6"/><use xlink:href="#m68b3470e25" x="73.833" y="290.092" style="fill:#dae8f6;stroke:#dae8f6"/><use xlink:href="#m68b3470e25" x="398.487" y="71.83" style="fill:#dae8f6;stroke:#dae8f6"/><use xlink:href="#m68b3470e25" x="351.476" y="108.147" style="fill:#dae8f6;stroke:#dae8f6"/><use xlink:href="#m68b3470e25" x="139.41" y="240.86" style="fill:#dae8f6;stroke:#dae8f6"/><use xlink:href="#m68b3470e25" x="128.974" y="243.14" style="fill:#dae8f6;stroke:#dae8f6"/><use xlink:href="#m68b3470e25" x="129.515" y="243.954" style="fill:#dae8f6;stroke:#dae8f6"/><use xlink:href="#m68b3470e25" x="170.839" y="236.237" style="fill:#dae8f6;stroke:#dae8f6"/><use xlink:href="#m68b3470e25" x="246.252" y="177.241" style="fill:#dae8f6;stroke:#dae8f6"/><use xlink:href="#m68b3470e25" x="214.512" y="191.759" style="fill:#dae8f6;stroke:#dae8f6"/><use xlink:href="#m68b3470e25" x="166.389" y="217.673" style="fill:#dae8f6;stroke:#dae8f6"/><use xlink:href="#m68b3470e25" x="276.037" y="158.469" style="fill:#dae8f6;stroke:#dae8f6"/><use xlink:href="#m68b3470e25" x="114.498" y="267.779" style="fill:#dae8f6;stroke:#dae8f6"/><use xlink:href="#m68b3470e25" x="166.702" y="242.316" style="fill:#dae8f6;stroke:#dae8f6"/><use xlink:href="#m68b3470e25" x="192.083" y="225.663" style="fill:#dae8f6;stroke:#dae8f6"/><use xlink:href="#m68b3470e25" x="222.762" y="180.25" style="fill:#dae8f6;stroke:#dae8f6"/><use xlink:href="#m68b3470e25" x="335.311" y="95.156" style="fill:#dae8f6;stroke:#dae8f6"/><use xlink:href="#m68b3470e25" x="135.078" y="252.049" style="fill:#dae8f6;stroke:#dae8f6"/><use xlink:href="#m68b3470e25" x="242.653" y="164.078" style="fill:#dae8f6;stroke:#dae8f6"/><use xlink:href="#m68b3470e25" x="269.39" y="153.071" style="fill:#dae8f6;stroke:#dae8f6"/><use xlink:href="#m68b3470e25" x="82.678" y="295.488" style="fill:#dae8f6;stroke:#dae8f6"/><use xlink:href="#m68b3470e25" x="274.564" y="149.46" style="fill:#dae8f6;stroke:#dae8f6"/><use xlink:href="#m68b3470e25" x="125.11" y="239.785" style="fill:#dae8f6;stroke:#dae8f6"/><use xlink:href="#m68b3470e25" x="89.04" y="283.769" style="fill:#dae8f6;stroke:#dae8f6"/><use xlink:href="#m68b3470e25" x="391.297" y="53.568" style="fill:#dae8f6;stroke:#dae8f6"/><use xlink:href="#m68b3470e25" x="397.024" y="99.537" style="fill:#dae8f6;stroke:#dae8f6"/><use xlink:href="#m68b3470e25" x="343.253" y="95.991" style="fill:#dae8f6;stroke:#dae8f6"/><use xlink:href="#m68b3470e25" x="170.966" y="225.087" style="fill:#dae8f6;stroke:#dae8f6"/><use xlink:href="#m68b3470e25" x="100.195" y="279.121" style="fill:#dae8f6;stroke:#dae8f6"/><use xlink:href="#m68b3470e25" x="300.79" y="134.365" style="fill:#dae8f6;stroke:#dae8f6"/><use xlink:href="#m68b3470e25" x="217.318" y="217.49" style="fill:#dae8f6;stroke:#dae8f6"/><use xlink:href="#m68b3470e25" x="108.528" y="272.355" style="fill:#dae8f6;stroke:#dae8f6"/><use xlink:href="#m68b3470e25" x="236.136" y="176.349" style="fill:#dae8f6;stroke:#dae8f6"/><use xlink:href="#m68b3470e25" x="78.553" y="273.016" style="fill:#dae8f6;stroke:#dae8f6"/><use xlink:href="#m68b3470e25" x="377.767" y="87.891" style="fill:#dae8f6;stroke:#dae8f6"/><use xlink:href="#m68b3470e25" x="155.292" y="246.728" style="fill:#dae8f6;stroke:#dae8f6"/><use xlink:href="#m68b3470e25" x="293.365" y="146.637" style="fill:#dae8f6;stroke:#dae8f6"/><use xlink:href="#m68b3470e25" x="173.394" y="213.5" style="fill:#dae8f6;stroke:#dae8f6"/><use xlink:href="#m68b3470e25" x="244.648" y="170.743" style="fill:#dae8f6;stroke:#dae8f6"/><use xlink:href="#m68b3470e25" x="253.76" y="174.632" style="fill:#dae8f6;stroke:#dae8f6"/><use xlink:href="#m68b3470e25" x="130.011" y="248.599" style="fill:#dae8f6;stroke:#dae8f6"/></g></g><g id="matplotlib.axis_1"><g id="xtick_1"><g id="line2d_1"><defs><path id="m1fe03aa5b2" d="M0 0v3.5" style="stroke:#000;stroke-width:.8"/></defs><use xlink:href="#m1fe03aa5b2" x="66.793" y="307.584" style="stroke:#000;stroke-width:.8"/></g><g transform="matrix(.1 0 0 -.1 64.293 321.525)" id="text_1"><defs><path id="LMRoman10-Regular-30" d="M2944 2048c0 512-32 1024-256 1498-294 614-819 716-1088 716-384 0-851-166-1114-761-204-442-236-941-236-1453 0-480 25-1056 288-1542 275-519 742-647 1056-647 345 0 832 135 1113 743 205 441 237 940 237 1446zm-531 77c0-480 0-915-71-1325-96-608-460-800-748-800-250 0-628 160-743 774-70 384-70 973-70 1351 0 409 0 832 51 1177 122 762 602 820 762 820 211 0 633-116 755-749 64-359 64-845 64-1248z" transform="scale(.01563)"/></defs><use xlink:href="#LMRoman10-Regular-30"/></g></g><g id="xtick_2"><use xlink:href="#m1fe03aa5b2" x="135.19" y="307.584" style="stroke:#000;stroke-width:.8" id="line2d_2"/><g transform="matrix(.1 0 0 -.1 132.69 321.525)" id="text_2"><defs><path id="LMRoman10-Regular-32" d="M2874 1114h-160c-32-192-77-474-141-570-45-51-467-51-608-51H813l678 659c999 883 1383 1229 1383 1869 0 729-576 1241-1357 1241-723 0-1197-588-1197-1158 0-358 320-358 339-358 109 0 333 76 333 339 0 166-115 333-339 333-51 0-64 0-83-7 147 416 492 653 864 653 582 0 857-518 857-1043 0-512-320-1018-672-1415L390 237c-70-71-70-83-70-237h2374l180 1114z" transform="scale(.01563)"/></defs><use xlink:href="#LMRoman10-Regular-32"/></g></g><g id="xtick_3"><use xlink:href="#m1fe03aa5b2" x="203.587" y="307.584" style="stroke:#000;stroke-width:.8" id="line2d_3"/><g transform="matrix(.1 0 0 -.1 201.087 321.525)" id="text_3"><defs><path id="LMRoman10-Regular-34" d="M3014 1056v198h-640v2912c0 128 0 167-102 167-58 0-77 0-128-77L179 1254v-198h1703V499c0-230-13-301-487-301h-134V0c262 19 595 19 864 19s608 0 870-19v198h-134c-474 0-487 71-487 301v557h640zm-1094 198H358l1562 2388V1254z" transform="scale(.01563)"/></defs><use xlink:href="#LMRoman10-Regular-34"/></g></g><g id="xtick_4"><use xlink:href="#m1fe03aa5b2" x="271.984" y="307.584" style="stroke:#000;stroke-width:.8" id="line2d_4"/><g transform="matrix(.1 0 0 -.1 269.484 321.525)" id="text_4"><defs><path id="LMRoman10-Regular-36" d="M2925 1306c0 812-570 1427-1280 1427-435 0-672-327-800-634v154c0 1619 793 1849 1120 1849 153 0 422-38 563-256-96 0-352 0-352-288 0-198 154-294 294-294 103 0 295 58 295 307 0 384-282 691-813 691-819 0-1683-825-1683-2240 0-1708 742-2163 1337-2163 711 0 1319 602 1319 1447zm-576 6c0-307 0-627-109-858-192-384-486-416-634-416-403 0-595 384-633 480-115 301-115 813-115 928 0 500 204 1140 780 1140 103 0 397 0 596-397 115-237 115-563 115-877z" transform="scale(.01563)"/></defs><use xlink:href="#LMRoman10-Regular-36"/></g></g><g id="xtick_5"><use xlink:href="#m1fe03aa5b2" x="340.381" y="307.584" style="stroke:#000;stroke-width:.8" id="line2d_5"/><g transform="matrix(.1 0 0 -.1 337.88 321.525)" id="text_5"><defs><path id="LMRoman10-Regular-38" d="M2925 1075c0 231-71 519-314 787-121 135-224 199-633 455 460 237 774 569 774 992 0 589-570 953-1152 953-640 0-1158-473-1158-1068 0-116 12-404 281-704 71-77 307-237 467-346-371-186-921-544-921-1178 0-678 653-1107 1325-1107 723 0 1331 531 1331 1216zm-455 2234c0-365-249-672-633-896l-794 512c-294 192-320 409-320 518 0 391 416 659 871 659 467 0 876-332 876-793zm135-2464c0-474-480-807-1005-807-550 0-1011 397-1011 928 0 372 205 781 749 1082l787-499c179-122 480-314 480-704z" transform="scale(.01563)"/></defs><use xlink:href="#LMRoman10-Regular-38"/></g></g><g id="xtick_6"><use xlink:href="#m1fe03aa5b2" x="408.778" y="307.584" style="stroke:#000;stroke-width:.8" id="line2d_6"/><g transform="matrix(.1 0 0 -.1 403.778 321.525)" id="text_6"><defs><path id="LMRoman10-Regular-31" d="M2682 0v198h-205c-576 0-595 71-595 308v3590c0 154 0 166-148 166-396-409-960-409-1164-409v-199c128 0 505 0 838 167V506c0-231-19-308-595-308H608V0c224 19 781 19 1037 19s813 0 1037-19z" transform="scale(.01563)"/></defs><use xlink:href="#LMRoman10-Regular-31"/><use xlink:href="#LMRoman10-Regular-30" x="50"/></g></g><g transform="matrix(.1 0 0 -.1 233.52 334.406)" id="text_7"><defs><path id="LMRoman10-Regular-78" d="M3302 0v198c-345 0-460 13-608 199l-857 1107c192 243 435 557 589 723 198 231 460 327 761 333v198c-166-12-358-19-525-19-192 0-531 13-614 19v-198c134-13 186-96 186-198 0-103-64-186-96-224l-397-500-499 647c-58 64-58 77-58 115 0 96 96 154 224 160v198l-691-19c-135 0-435 7-608 19v-198c448 0 454-6 755-390l634-826c-301-384-301-397-602-762C589 211 211 198 77 198V0c166 13 365 19 531 19l608-19v198c-141 20-186 103-186 199 0 141 186 352 576 813l487-640c51-71 134-173 134-212 0-57-57-153-230-160V0l691 19c173 0 422-6 614-19z" transform="scale(.01563)"/></defs><use xlink:href="#LMRoman10-Regular-78"/></g></g><g id="matplotlib.axis_2"><g id="ytick_1"><g id="line2d_7"><defs><path id="me4e1208b42" d="M0 0h-3.5" style="stroke:#000;stroke-width:.8"/></defs><use xlink:href="#me4e1208b42" x="57.6" y="280.966" style="stroke:#000;stroke-width:.8"/></g><g transform="matrix(.1 0 0 -.1 37.82 284.436)" id="text_8"><defs><path id="LMRoman10-Regular-2e" d="M1229 339c0 186-154 339-339 339-186 0-340-153-340-339C550 154 704 0 890 0c185 0 339 154 339 339z" transform="scale(.01563)"/><path id="LMRoman10-Regular-35" d="M2874 1286c0 762-525 1402-1216 1402-308 0-583-102-813-326v1248c128-39 339-84 544-84 787 0 1235 583 1235 666 0 38-19 70-64 70 0 0-19 0-51-19-128-57-442-185-871-185-256 0-550 44-851 179-51 19-77 19-77 19-64 0-64-51-64-154V2208c0-115 0-166 90-166 45 0 58 19 83 57 71 103 307 448 826 448 333 0 493-294 544-409 102-237 115-487 115-807 0-224 0-608-154-877-153-249-390-416-684-416-468 0-832 340-941 717 19-6 38-13 109-13 211 0 320 160 320 314s-109 314-320 314c-90 0-314-45-314-340 0-550 442-1171 1158-1171 743 0 1396 615 1396 1427z" transform="scale(.01563)"/></defs><use xlink:href="#LMRoman10-Regular-32"/><use xlink:href="#LMRoman10-Regular-2e" x="50"/><use xlink:href="#LMRoman10-Regular-35" x="77.8"/></g></g><g id="ytick_2"><use xlink:href="#me4e1208b42" x="57.6" y="251.111" style="stroke:#000;stroke-width:.8" id="line2d_8"/><g transform="matrix(.1 0 0 -.1 37.82 254.582)" id="text_9"><use xlink:href="#LMRoman10-Regular-35"/><use xlink:href="#LMRoman10-Regular-2e" x="50"/><use xlink:href="#LMRoman10-Regular-30" x="77.8"/></g></g><g id="ytick_3"><use xlink:href="#me4e1208b42" x="57.6" y="221.257" style="stroke:#000;stroke-width:.8" id="line2d_9"/><g transform="matrix(.1 0 0 -.1 37.82 224.728)" id="text_10"><defs><path id="LMRoman10-Regular-37" d="M3104 4122H1549c-781 0-794 83-819 204H570L358 3008h160c20 102 77 506 160 582 45 39 544 39 628 39h1324l-716-1011c-576-864-788-1754-788-2407 0-64 0-352 295-352 294 0 294 288 294 352v327c0 352 19 704 71 1049 25 147 115 698 396 1095l864 1216c58 76 58 89 58 224z" transform="scale(.01563)"/></defs><use xlink:href="#LMRoman10-Regular-37"/><use xlink:href="#LMRoman10-Regular-2e" x="50"/><use xlink:href="#LMRoman10-Regular-35" x="77.8"/></g></g><g id="ytick_4"><use xlink:href="#me4e1208b42" x="57.6" y="191.403" style="stroke:#000;stroke-width:.8" id="line2d_10"/><g transform="matrix(.1 0 0 -.1 32.82 194.873)" id="text_11"><use xlink:href="#LMRoman10-Regular-31"/><use xlink:href="#LMRoman10-Regular-30" x="50"/><use xlink:href="#LMRoman10-Regular-2e" x="100"/><use xlink:href="#LMRoman10-Regular-30" x="127.8"/></g></g><g id="ytick_5"><use xlink:href="#me4e1208b42" x="57.6" y="161.549" style="stroke:#000;stroke-width:.8" id="line2d_11"/><g transform="matrix(.1 0 0 -.1 32.82 165.02)" id="text_12"><use xlink:href="#LMRoman10-Regular-31"/><use xlink:href="#LMRoman10-Regular-32" x="50"/><use xlink:href="#LMRoman10-Regular-2e" x="100"/><use xlink:href="#LMRoman10-Regular-35" x="127.8"/></g></g><g id="ytick_6"><use xlink:href="#me4e1208b42" x="57.6" y="131.695" style="stroke:#000;stroke-width:.8" id="line2d_12"/><g transform="matrix(.1 0 0 -.1 32.82 135.165)" id="text_13"><use xlink:href="#LMRoman10-Regular-31"/><use xlink:href="#LMRoman10-Regular-35" x="50"/><use xlink:href="#LMRoman10-Regular-2e" x="100"/><use xlink:href="#LMRoman10-Regular-30" x="127.8"/></g></g><g id="ytick_7"><use xlink:href="#me4e1208b42" x="57.6" y="101.84" style="stroke:#000;stroke-width:.8" id="line2d_13"/><g transform="matrix(.1 0 0 -.1 32.82 105.31)" id="text_14"><use xlink:href="#LMRoman10-Regular-31"/><use xlink:href="#LMRoman10-Regular-37" x="50"/><use xlink:href="#LMRoman10-Regular-2e" x="100"/><use xlink:href="#LMRoman10-Regular-35" x="127.8"/></g></g><g id="ytick_8"><use xlink:href="#me4e1208b42" x="57.6" y="71.986" style="stroke:#000;stroke-width:.8" id="line2d_14"/><g transform="matrix(.1 0 0 -.1 32.82 75.457)" id="text_15"><use xlink:href="#LMRoman10-Regular-32"/><use xlink:href="#LMRoman10-Regular-30" x="50"/><use xlink:href="#LMRoman10-Regular-2e" x="100"/><use xlink:href="#LMRoman10-Regular-30" x="127.8"/></g></g><g id="ytick_9"><use xlink:href="#me4e1208b42" x="57.6" y="42.132" style="stroke:#000;stroke-width:.8" id="line2d_15"/><g transform="matrix(.1 0 0 -.1 32.82 45.602)" id="text_16"><use xlink:href="#LMRoman10-Regular-32"/><use xlink:href="#LMRoman10-Regular-32" x="50"/><use xlink:href="#LMRoman10-Regular-2e" x="100"/><use xlink:href="#LMRoman10-Regular-35" x="127.8"/></g></g><g transform="matrix(0 -.1 -.1 0 26.32 182.588)" id="text_17"><defs><path id="LMRoman10-Regular-66" d="M2285 4064c0 237-237 448-576 448-448 0-992-339-992-1018v-736H211v-198h506V486c0-288-71-288-499-288V0l729 19c256 0 557 0 813-19v198h-134c-474 0-487 71-487 301v2061h730v198h-749v743c0 563 307 870 589 870 19 0 115 0 211-45-77-25-192-108-192-268 0-148 102-276 275-276 186 0 282 128 282 282z" transform="scale(.01563)"/><path id="LMRoman10-Regular-28" d="M2118-1536c0 19 0 32-108 141-800 806-1005 2016-1005 2995 0 1114 243 2227 1030 3027 83 77 83 90 83 109 0 45-25 64-64 64-64 0-640-435-1017-1248-327-704-403-1414-403-1952 0-499 70-1274 422-1997 384-787 934-1203 998-1203 39 0 64 19 64 64z" transform="scale(.01563)"/><path id="LMRoman10-Regular-29" d="M1850 1600c0 499-71 1274-423 1997-384 787-934 1203-998 1203-39 0-64-26-64-64 0-19 0-32 121-147 628-634 992-1651 992-2989 0-1094-236-2221-1030-3027-83-77-83-90-83-109 0-38 25-64 64-64 64 0 640 435 1017 1248 327 704 404 1414 404 1952z" transform="scale(.01563)"/></defs><use xlink:href="#LMRoman10-Regular-66"/><use xlink:href="#LMRoman10-Regular-28" x="30.6"/><use xlink:href="#LMRoman10-Regular-78" x="69.5"/><use xlink:href="#LMRoman10-Regular-29" x="122.3"/></g></g><path d="M194.88 209.27 391.923 73.198l-74.8 51.654-45.598 31.49L120.15 260.876l-.008.006-33.484 23.123L363.012 93.163l-90.647 62.598 36.578-25.26-235.11 162.361L398.487 68.664l-47.011 32.465L139.41 247.576l-10.436 7.207.54-.373 41.325-28.538 75.413-52.078-31.74 21.919-48.123 33.232 109.648-75.72-161.54 111.555 52.205-36.051 25.381-17.527 30.679-21.186 112.55-77.724-200.234 138.275 107.575-74.288 26.737-18.463L82.678 286.753l191.886-132.51L125.11 257.451 89.04 282.36 391.297 73.63l5.727-3.955-53.771 37.133-172.287 118.976-70.77 48.873L300.79 136.13l-83.472 57.644-108.79 75.127 127.608-88.122L78.553 289.602 377.767 82.974 155.292 236.609l138.073-95.35-119.971 82.85 71.254-49.208 9.112-6.292-123.75 85.458" clip-path="url(#p4058eae439)" style="fill:none;stroke:#6d8ebf;stroke-width:1.5;stroke-linecap:square" id="line2d_16"/><path d="M57.6 307.584V41.472" style="fill:none;stroke:#000;stroke-width:.8;stroke-linejoin:miter;stroke-linecap:square" id="patch_3"/><path d="M414.72 307.584V41.472" style="fill:none;stroke:#000;stroke-width:.8;stroke-linejoin:miter;stroke-linecap:square" id="patch_4"/><path d="M57.6 307.584h357.12" style="fill:none;stroke:#000;stroke-width:.8;stroke-linejoin:miter;stroke-linecap:square" id="patch_5"/><path d="M57.6 41.472h357.12" style="fill:none;stroke:#000;stroke-width:.8;stroke-linejoin:miter;stroke-linecap:square" id="patch_6"/><g id="legend_1"><path d="M64.6 77.472h132.02q2 0 2-2v-27q0-2-2-2H64.6q-2 0-2 2v27q0 2 2 2z" style="fill:#fff;opacity:.8;stroke:#ccc;stroke-linejoin:miter" id="patch_7"/><use xlink:href="#m68b3470e25" x="76.6" y="54.847" style="fill:#dae8f6;stroke:#dae8f6" id="PathCollection_2"/><g transform="matrix(.1 0 0 -.1 94.6 57.472)" id="text_18"><defs><path id="LMRoman10-Regular-44" d="M4525 2150c0 1216-864 2221-1959 2221H224v-198h154c492 0 505-71 505-301V499c0-230-13-301-505-301H224V0h2342c1076 0 1959 947 1959 2150zm-640 0c0-710-122-1094-352-1408-128-172-493-544-1139-544h-647c-301 0-313 45-313 256v3463c0 211 12 256 313 256h640c397 0 839-141 1165-595 275-378 333-928 333-1428z" transform="scale(.01563)"/><path id="LMRoman10-Regular-61" d="M3155 570v358h-160V570c0-372-160-410-230-410-211 0-237 288-237 320v1280c0 269 0 518-230 755-250 250-570 352-877 352-525 0-967-301-967-723 0-192 128-301 295-301 179 0 294 128 294 295 0 76-32 288-326 294 173 224 486 294 691 294 314 0 678-249 678-819v-237c-326-19-774-38-1177-230-480-218-640-550-640-832C269 90 890-70 1293-70c422 0 717 256 838 556 26-256 199-524 499-524 135 0 525 89 525 608zM2086 896c0-608-460-826-748-826-314 0-576 224-576 544 0 352 268 884 1324 922V896z" transform="scale(.01563)"/><path id="LMRoman10-Regular-74" d="M2125 794v364h-160V806c0-473-192-716-429-716-429 0-429 582-429 691v1779h915v198h-915v1178H947c-6-525-198-1210-825-1235v-141h544V794c0-788 595-864 825-864 455 0 634 454 634 864z" transform="scale(.01563)"/><path id="LMRoman10-Regular-50" d="M3994 3181c0 627-634 1190-1511 1190H224v-198h154c492 0 505-71 505-301V499c0-230-13-301-505-301H224V0c224 19 698 19 941 19s723 0 947-19v198h-154c-492 0-505 71-505 301v1523h1081c768 0 1460 519 1460 1159zm-660 0c0-301 0-992-1017-992h-883v1728c0 211 12 256 313 256h570c1017 0 1017-679 1017-992z" transform="scale(.01563)"/><path id="LMRoman10-Regular-6f" d="M3014 1370c0 819-640 1497-1414 1497-800 0-1421-697-1421-1497C179 544 845-70 1594-70c774 0 1420 627 1420 1440zm-531 51c0-231 0-576-141-858-140-288-422-473-742-473-275 0-557 134-730 428-160 282-160 672-160 903 0 249 0 595 154 877 173 294 474 428 730 428 281 0 556-140 723-416 166-275 166-646 166-889z" transform="scale(.01563)"/><path id="LMRoman10-Regular-69" d="M1581 0v198c-423 0-448 32-448 282v2349l-896-71v-198c416 0 473-38 473-352V486c0-288-70-288-499-288V0l704 19c224 0 448-13 666-19zm-352 3866c0 172-147 339-339 339-218 0-346-179-346-339 0-173 147-340 339-340 218 0 346 180 346 340z" transform="scale(.01563)"/><path id="LMRoman10-Regular-6e" d="M3424 0v198c-333 0-493 0-499 192v1223c0 550 0 749-199 979-89 109-300 237-672 237-467 0-768-275-947-672v672l-902-71v-198c448 0 499-45 499-358V486c0-288-70-288-499-288V0l723 19 717-19v198c-429 0-499 0-499 288v1178c0 666 454 1024 864 1024 403 0 473-346 473-710V486c0-288-70-288-499-288V0l723 19 717-19z" transform="scale(.01563)"/><path id="LMRoman10-Regular-73" d="M2304 819c0 339-192 531-269 608-211 205-461 256-729 307-359 71-788 154-788 525 0 224 167 487 717 487 704 0 736-576 749-775 6-57 77-57 77-57 83 0 83 32 83 153v647c0 108 0 153-70 153-32 0-45 0-128-77-20-25-84-83-109-102-243 179-506 179-602 179-781 0-1024-429-1024-787 0-224 103-403 275-544 205-166 384-205 845-294 141-26 666-128 666-589 0-327-224-583-723-583-538 0-768 365-890 909-19 83-26 109-90 109-83 0-83-45-83-160V83c0-109 0-153 71-153 32 0 38 6 160 128 12 12 12 25 128 147C851-64 1139-70 1274-70c736 0 1030 428 1030 889z" transform="scale(.01563)"/></defs><use xlink:href="#LMRoman10-Regular-44"/><use xlink:href="#LMRoman10-Regular-61" x="76.4"/><use xlink:href="#LMRoman10-Regular-74" x="126.4"/><use xlink:href="#LMRoman10-Regular-61" x="165.3"/><use xlink:href="#LMRoman10-Regular-20" x="215.3"/><use xlink:href="#LMRoman10-Regular-50" x="248.6"/><use xlink:href="#LMRoman10-Regular-6f" x="316.7"/><use xlink:href="#LMRoman10-Regular-69" x="366.7"/><use xlink:href="#LMRoman10-Regular-6e" x="394.5"/><use xlink:href="#LMRoman10-Regular-74" x="450.1"/><use xlink:href="#LMRoman10-Regular-73" x="489"/></g><path d="M66.6 67.913h20" style="fill:none;stroke:#6d8ebf;stroke-width:1.5;stroke-linecap:square" id="line2d_17"/><g transform="matrix(.1 0 0 -.1 94.6 71.413)" id="text_19"><defs><path id="LMRoman10-Regular-4c" d="M3725 1651h-160c-71-653-160-1453-1287-1453h-524c-301 0-314 45-314 256v3412c0 217 0 307 608 307h211v198c-230-19-813-19-1075-19-250 0-749 0-973 19v-198h154c493 0 505-71 505-301V499c0-230-12-301-505-301H211V0h3335l179 1651z" transform="scale(.01563)"/><path id="LMRoman10-Regular-65" d="M2656 762c0 64-51 76-83 76-58 0-71-38-83-89-224-659-800-659-864-659-320 0-576 192-724 428-192 308-192 730-192 960h1786c141 0 160 0 160 135 0 633-346 1254-1146 1254-742 0-1331-659-1331-1459C179 550 851-70 1587-70c781 0 1069 710 1069 832zm-422 851H717c38 953 576 1113 793 1113 660 0 724-864 724-1113z" transform="scale(.01563)"/><path id="LMRoman10-Regular-72" d="M2330 2438c0 205-199 391-474 391-467 0-698-429-787-704v704l-890-71v-198c448 0 499-45 499-358V486c0-288-70-288-499-288V0l730 19c256 0 557 0 813-19v198h-135c-473 0-486 71-486 301v986c0 633 269 1203 755 1203 45 0 58 0 70-6-19-7-147-84-147-250 0-179 135-275 275-275 116 0 276 77 276 281z" transform="scale(.01563)"/><path id="LMRoman10-Regular-52" d="M4685 563c0 39 0 109-83 109-71 0-71-58-77-102-39-455-263-570-423-570-313 0-364 326-454 922l-83 512c-115 409-429 620-781 742 621 154 1120 544 1120 1043 0 615-730 1152-1670 1152H224v-198h154c492 0 505-71 505-301V499c0-230-13-301-505-301H224V0c230 19 685 19 934 19 250 0 704 0 935-19v198h-154c-493 0-505 71-505 301v1619h736c102 0 371 0 595-217 243-231 243-429 243-858 0-416 0-672 262-915 263-230 615-269 807-269 499 0 608 525 608 704zM3245 3219c0-441-154-960-1101-960h-710v1658c0 147 0 224 140 243 64 13 250 13 378 13 576 0 1293-26 1293-954z" transform="scale(.01563)"/><path id="LMRoman10-Regular-67" d="M3104 2586c0 108-77 313-326 313-128 0-410-38-679-301-269 212-537 231-678 231-595 0-1037-442-1037-935 0-281 141-524 301-659-83-96-199-307-199-531 0-198 84-442 282-570C384 26 179-250 179-506c0-460 634-812 1415-812 755 0 1420 326 1420 825 0 224-89 551-416 730-339 179-710 179-1100 179-160 0-436 0-480 6-205 26-340 224-340 429 0 26 0 173 109 301 250-179 512-198 634-198 595 0 1037 441 1037 934 0 237-103 474-263 621 231 217 461 249 576 249 0 0 45 0 64-6-70-26-102-96-102-173 0-109 83-185 185-185 64 0 186 44 186 192zm-1126-692c0-172-7-377-103-537-51-77-198-256-454-256-557 0-557 640-557 787 0 173 6 378 102 538 52 76 199 256 455 256 557 0 557-640 557-788zm704-2400c0-345-455-665-1082-665-646 0-1088 326-1088 665 0 295 243 532 525 551h377c551 0 1268 0 1268-551z" transform="scale(.01563)"/></defs><use xlink:href="#LMRoman10-Regular-4c"/><use xlink:href="#LMRoman10-Regular-69" x="62.5"/><use xlink:href="#LMRoman10-Regular-6e" x="90.3"/><use xlink:href="#LMRoman10-Regular-65" x="145.9"/><use xlink:href="#LMRoman10-Regular-61" x="190.3"/><use xlink:href="#LMRoman10-Regular-72" x="240.3"/><use xlink:href="#LMRoman10-Regular-20" x="279.5"/><use xlink:href="#LMRoman10-Regular-52" x="312.8"/><use xlink:href="#LMRoman10-Regular-65" x="386.4"/><use xlink:href="#LMRoman10-Regular-67" x="430.8"/><use xlink:href="#LMRoman10-Regular-72" x="480.8"/><use xlink:href="#LMRoman10-Regular-65" x="520"/><use xlink:href="#LMRoman10-Regular-73" x="564.4"/><use xlink:href="#LMRoman10-Regular-73" x="603.8"/><use xlink:href="#LMRoman10-Regular-69" x="643.2"/><use xlink:href="#LMRoman10-Regular-6f" x="671"/><use xlink:href="#LMRoman10-Regular-6e" x="721"/><use xlink:href="#LMRoman10-Regular-20" x="776.6"/><use xlink:href="#LMRoman10-Regular-4c" x="809.9"/><use xlink:href="#LMRoman10-Regular-69" x="872.4"/><use xlink:href="#LMRoman10-Regular-6e" x="900.2"/><use xlink:href="#LMRoman10-Regular-65" x="955.8"/></g></g></g></g><defs><clipPath id="p4058eae439"><path d="M57.6 41.472h357.12v266.112H57.6z"/></clipPath></defs></svg>