<svg xmlns="http://www.w3.org/2000/svg" viewBox="0 0 576 432"><defs><style>.cls-2{stroke-width:0}.cls-4,.cls-6{stroke-miterlimit:10}.cls-4{opacity:.5}.cls-4,.cls-6{stroke:#6d8dbe;fill:#d9e7f5}.cls-2{fill:#231f20}</style></defs><g id="Layer_17" data-name="Layer 17"><path class="cls-4" d="M254.88 110.44H132.99L72.04 216l60.95 105.56h121.89L315.83 216l-60.95-105.56zM392.33 216.78h-76.62l-38.31 66.36 38.31 66.36h76.62l38.32-66.36-38.32-66.36z"/><path class="cls-4" d="M392.97 57.73h-91.69l-45.84 79.41 45.84 79.4h91.69l45.85-79.4-45.85-79.41z"/><circle class="cls-6" cx="193.94" cy="216" r="6.89"/><circle class="cls-6" cx="347.13" cy="137.14" r="6.89"/><circle class="cls-6" cx="354.02" cy="283.14" r="6.89"/><path style="stroke-dasharray:0 6;stroke:#6d8dbe;fill:none;stroke-miterlimit:10" d="m255.44 137.14 45.84 79.4 14.43.24-52.84-92.51-7.43 12.87z"/></g><g id="Layer_10" data-name="Layer 10"><path class="cls-2" d="M359.61 123.16h-2.12v3.06h1.3v.56c-.46-.04-1.63-.04-2.15-.04s-1.69 0-2.15.04v-.56h1.29v-7.1h-1.29v-.56h5c1.99 0 3.18 1.02 3.18 2.34 0 1.4-1.39 2.27-3.06 2.27Zm-.57-4.04h-1.62v3.55h1.61c1.81 0 1.81-.92 1.81-1.78s0-1.78-1.8-1.78ZM366.11 126.76c-.44 0-1.4 0-1.79.03v-.42h1.25v-4.65c-.53.17-1.03.18-1.17.18h-.18v-.42h.18c.19 0 1.12 0 1.81-.51.08-.06.1-.06.2-.06.23 0 .23.09.23.29v5.19h1.26v.42c-.4-.03-1.35-.03-1.79-.03ZM366.5 269.65h-2.12v3.06h1.3v.56c-.46-.04-1.63-.04-2.15-.04s-1.69 0-2.15.04v-.56h1.29v-7.1h-1.29v-.56h5c1.99 0 3.18 1.02 3.18 2.34 0 1.4-1.39 2.27-3.06 2.27Zm-.57-4.04h-1.62v3.55h1.61c1.81 0 1.81-.92 1.81-1.78s0-1.78-1.8-1.78ZM372.81 273.37c-1.16 0-2.03-.54-2.03-1.35 0-.46.31-.7.69-.7.4 0 .68.28.68.68 0 .37-.22.59-.52.68.43.27.9.31 1.13.31.94 0 .94-.92.94-1.34 0-.46 0-1.34-.98-1.34h-.4c-.16 0-.25 0-.25-.16 0-.05.02-.14.11-.15.04 0 .06-.02.43-.04.94-.05.95-1.23.95-1.35 0-.3-.03-.87-.77-.87-.28 0-.67.07-.99.32.04 0 .52.11.52.63a.6.6 0 0 1-.63.62c-.34 0-.62-.24-.62-.63 0-.72.7-1.3 1.77-1.3 1.27 0 1.95.56 1.95 1.25 0 .77-.66 1.29-1.28 1.48 1.31.28 1.57 1.05 1.57 1.55 0 .82-.66 1.72-2.27 1.72ZM209.24 200.16h-2.12v3.06h1.3v.56c-.46-.04-1.63-.04-2.15-.04s-1.69 0-2.15.04v-.56h1.29v-7.1h-1.29v-.56h5c1.99 0 3.18 1.02 3.18 2.34 0 1.4-1.39 2.27-3.06 2.27Zm-.58-4.05h-1.62v3.55h1.61c1.81 0 1.81-.92 1.81-1.78s0-1.78-1.8-1.78ZM217.46 203.78h-3.86v-.16c0-.18 0-.2.12-.31l1.81-1.85c.63-.64.97-1.25.97-1.87 0-.67-.41-1.29-1.19-1.29-.32 0-.67.1-.93.32.14.04.51.18.51.65s-.36.65-.65.65c-.22 0-.65-.13-.65-.67 0-.81.85-1.37 1.94-1.37 1.27 0 2.21.67 2.21 1.7 0 .86-.58 1.28-1.6 2.03-.41.3-.87.68-1.3 1.04h1.32c.14 0 .82 0 .92-.05.13-.06.21-.64.23-.82h.42l-.28 2ZM139.9 64.08c-2.72 0-4.4-1.71-4.4-4.2s1.67-4.29 4.41-4.29 4.4 1.7 4.4 4.29-1.66 4.2-4.41 4.2Zm2.07-6.88c-.48-.79-1.31-1.13-2.08-1.13-.71 0-1.51.3-2 1.03-.53.82-.56 1.83-.56 2.6 0 1.03.1 1.88.49 2.63.49.91 1.37 1.25 2.07 1.25.65 0 1.49-.26 2.03-1.14.5-.83.55-1.9.55-2.74s-.05-1.74-.5-2.51ZM151.17 59.44l-1.99 4.27c-.12.25-.24.29-.44.29-.16 0-.31 0-.46-.3l-2.1-4.51h-.77v-.56l1.37.04 1.49-.04v.56h-.65l1.52 3.27 1.39-3c.06-.12.06-.14.06-.14 0-.1-.35-.13-.58-.13v-.56l1.09.04c.3 0 .65-.01.95-.04v.56c-.77 0-.82.08-.89.25ZM155.51 64.02c-1.93 0-3.13-1.16-3.13-2.77 0-1.5 1.04-2.73 2.96-2.73.83 0 1.46.22 1.91.65.6.6.67 1.47.67 1.85 0 .32-.12.32-.38.32h-3.62c0 .61.01 2.21 1.7 2.21.78 0 1.46-.38 1.71-.96.07-.19.1-.25.3-.25.06 0 .29 0 .29.22 0 .2-.52 1.48-2.41 1.48Zm-.17-5.07c-.35 0-.83.14-1.14.62-.25.4-.26.9-.29 1.37h2.87c-.01-.42-.04-1.99-1.44-1.99ZM162.89 60.27c-.35 0-.73-.24-.73-.73 0-.35.23-.55.23-.55-1.2 0-1.5 1.46-1.5 2.3v2.1h1.04v.56c-.43-.04-1.2-.04-1.66-.04l-1.51.04v-.56h.83v-3.71c0-.47-.08-.47-.83-.47v-.56l1.99-.1v1.36c.28-.76.76-1.36 1.6-1.36.62 0 1.27.35 1.27.98 0 .48-.38.73-.73.73ZM166.05 63.91l-1.48.04v-.56h.83v-6.63c0-.47-.08-.47-.83-.47v-.56l2.12-.1v7.76h.83v.56l-1.47-.04ZM174.15 63.95h-.58c-1.25 0-1.25-.55-1.25-.92-.26.5-.83 1-1.79 1-.83 0-2.31-.22-2.31-1.37 0-1.74 3.05-1.85 3.9-1.88v-.41c0-.91-.42-1.42-1.32-1.42-.14 0-.53.01-.86.08.04.02.26.23.26.59 0 .5-.38.76-.75.76-.32 0-.74-.23-.74-.76 0-1.05 1.46-1.1 2.15-1.1 1.79 0 2.64.78 2.64 1.85v2.58c0 .28 0 .43.73.44.16 0 .31 0 .31.28s-.14.29-.38.29Zm-2.03-2.81c-.6.04-2.49.2-2.49 1.5 0 .53.48.95 1.09.95.3 0 1.4-.16 1.4-1.31v-1.14ZM178.72 64.02c-.49 0-1.02-.12-1.54-.54v2.23h.83v.56l-1.51-.04-1.51.04v-.56h.83v-6.04c0-.46-.08-.46-.83-.46v-.56l2.12-.1v.59c.28-.22.91-.59 1.81-.59 1.73 0 2.82 1.13 2.82 2.72s-1.22 2.75-3.02 2.75Zm.01-4.99c-.26 0-.89.07-1.37.56-.17.17-.18.18-.18.41v2.54c0 .23 0 .24.13.4.54.65 1.1.65 1.27.65.78 0 1.62-.62 1.62-2.32 0-1.51-.67-2.24-1.48-2.24ZM186.39 64.02c-.49 0-1.02-.12-1.54-.54v2.23h.83v.56l-1.51-.04-1.51.04v-.56h.83v-6.04c0-.46-.08-.46-.83-.46v-.56l2.12-.1v.59c.28-.22.91-.59 1.81-.59 1.73 0 2.82 1.13 2.82 2.72s-1.22 2.75-3.02 2.75Zm.01-4.99c-.26 0-.89.07-1.37.56-.17.17-.18.18-.18.41v2.54c0 .23 0 .24.13.4.54.65 1.1.65 1.27.65.78 0 1.62-.62 1.62-2.32 0-1.51-.67-2.24-1.48-2.24ZM191.91 63.91l-1.46.04v-.56h.83v-3.71c0-.47-.08-.47-.79-.47v-.56l2.09-.1v4.83h.74v.56l-1.4-.04Zm-.11-6.31a.939.939 0 1 1 0-1.88.939.939 0 1 1 0 1.88ZM199.58 63.91l-1.51.04v-.56h.83v-3.24c0-.91-.25-1.16-.66-1.16-.76 0-1.79.59-1.79 1.89v2.51h.83v.56l-1.51-.04-1.51.04v-.56h.83v-3.71c0-.47-.08-.47-.83-.47v-.56l2.06-.1v1.3c.31-.61.95-1.3 2.1-1.3s1.85.47 1.85 1.73v3.11h.83v.56l-1.51-.04ZM207.55 59.7c-.31 0-.52-.22-.52-.52 0-.07.02-.18.05-.24-.13.01-.38.04-.74.23.18.19.48.59.48 1.15 0 .84-.66 1.78-2.39 1.78-.3 0-.91-.02-1.46-.31-.07.1-.12.28-.12.4 0 .22.13.67.66.75.06.01.61.01.92.01 1.15 0 1.87 0 2.54.34.8.41.9 1.16.9 1.52 0 .84-.94 1.55-3.06 1.55-2.4 0-3.06-.9-3.06-1.51 0-.76.88-1.01 1.03-1.04-.48-.38-.53-.97-.53-1.15 0-.25.07-.65.41-1.07-.38-.28-.62-.77-.62-1.26 0-.84.66-1.78 2.39-1.78.89 0 1.39.25 1.61.4.53-.42 1.09-.46 1.27-.46.55 0 .76.42.76.7s-.2.52-.52.52Zm-2.43 4.4h-1.4c-.17 0-.92 0-.92.72 0 .55.59 1.1 2.03 1.1 1.56 0 2.03-.65 2.03-1.08 0-.74-1.36-.74-1.73-.74Zm-.68-5.12c-1.06 0-1.06.8-1.06 1.34s0 1.34 1.06 1.34 1.05-.8 1.05-1.34 0-1.34-1.05-1.34ZM219.18 63.95h-.58c-1.25 0-1.25-.55-1.25-.92-.26.5-.83 1-1.79 1-.83 0-2.31-.22-2.31-1.37 0-1.74 3.05-1.85 3.9-1.88v-.41c0-.91-.42-1.42-1.32-1.42-.14 0-.53.01-.86.08.04.02.26.23.26.59 0 .5-.38.76-.75.76-.32 0-.74-.23-.74-.76 0-1.05 1.46-1.1 2.15-1.1 1.79 0 2.64.78 2.64 1.85v2.58c0 .28 0 .43.73.44.16 0 .31 0 .31.28s-.14.29-.38.29Zm-2.03-2.81c-.6.04-2.49.2-2.49 1.5 0 .53.48.95 1.09.95.3 0 1.4-.16 1.4-1.31v-1.14ZM224.15 60.27c-.35 0-.73-.24-.73-.73 0-.35.23-.55.23-.55-1.2 0-1.5 1.46-1.5 2.3v2.1h1.04v.56c-.43-.04-1.2-.04-1.66-.04l-1.51.04v-.56h.83v-3.71c0-.47-.08-.47-.83-.47v-.56l1.99-.1v1.36c.28-.76.76-1.36 1.59-1.36.62 0 1.27.35 1.27.98 0 .48-.38.73-.73.73ZM228.78 64.02c-1.93 0-3.13-1.16-3.13-2.77 0-1.5 1.04-2.73 2.96-2.73.83 0 1.46.22 1.91.65.6.6.67 1.47.67 1.85 0 .32-.12.32-.38.32h-3.62c0 .61.01 2.21 1.7 2.21.78 0 1.46-.38 1.71-.96.07-.19.1-.25.3-.25.06 0 .29 0 .29.22 0 .2-.52 1.48-2.41 1.48Zm-.16-5.07c-.35 0-.83.14-1.14.62-.25.4-.26.9-.29 1.37h2.87c-.01-.42-.04-1.99-1.44-1.99ZM237.9 63.95h-.58c-1.25 0-1.25-.55-1.25-.92-.26.5-.83 1-1.79 1-.83 0-2.31-.22-2.31-1.37 0-1.74 3.05-1.85 3.9-1.88v-.41c0-.91-.42-1.42-1.32-1.42-.14 0-.53.01-.86.08.04.02.26.23.26.59 0 .5-.38.76-.75.76-.32 0-.74-.23-.74-.76 0-1.05 1.46-1.1 2.15-1.1 1.79 0 2.64.78 2.64 1.85v2.58c0 .28 0 .43.73.44.16 0 .31 0 .31.28s-.14.29-.38.29Zm-2.03-2.81c-.6.04-2.49.2-2.49 1.5 0 .53.48.95 1.09.95.3 0 1.4-.16 1.4-1.31v-1.14ZM241.06 64.02c-.24 0-.86 0-1.42-.38l-.31.2c-.25.18-.28.18-.36.18-.22 0-.22-.11-.22-.34v-1.31c0-.28 0-.35.29-.35.17 0 .23 0 .29.17.14.52.46 1.39 1.73 1.39.26 0 1.37 0 1.37-.9 0-.71-.9-.86-1.33-.93-.92-.17-1.38-.24-1.86-.66-.24-.2-.48-.53-.48-1.01 0-1.57 1.85-1.57 2.21-1.57.48 0 .9.07 1.21.23.47-.23.49-.23.54-.23.22 0 .22.11.22.33v.96c0 .28 0 .34-.29.34-.25 0-.26-.06-.28-.24-.06-.66-.52-1.01-1.42-1.01-.23 0-1.34 0-1.34.74 0 .56.78.7 1.22.78.94.16 1.32.23 1.79.58.42.34.66.76.66 1.27 0 1.75-1.85 1.75-2.22 1.75Z"/><path style="fill:none;stroke-miterlimit:10;stroke:#000;stroke-dasharray:0 0 6 6" d="m187.04 72.15 76.47 69.3"/><path style="stroke-width:0" d="m268.74 146.19-10.1-3.67 4.48-1.42.98-4.6 4.64 9.69z"/></g></svg>