<svg id="Layer_4" data-name="Layer 4" xmlns="http://www.w3.org/2000/svg" viewBox="0 0 576 432"><defs><style>.cls-1{fill:none;stroke:#6d8dbe;stroke-miterlimit:10}.cls-2,.cls-3{fill:#fff;stroke-width:0}.cls-3{fill:#231f20}</style></defs><path class="cls-1" d="M96.97 36.08h382.21v364.16H96.97z"/><path class="cls-3" d="M143.19 98.41v8.57c0 1.82-1.68 2.82-4.03 2.82-2 0-3.38-.84-3.38-2.19 0-.91.7-1.35 1.35-1.35.58 0 1.33.4 1.33 1.35s-.81 1.26-.81 1.26c.54.25 1.12.3 1.42.3 1.74 0 1.74-1.84 1.74-2.17v-8.59h-2.47v-.82c.84.05 2.56.05 3.49.05.68 0 2.17 0 2.79-.05v.82h-1.42ZM151.08 109.61h-4.67v-.2c0-.22 0-.24.14-.37l2.19-2.23c.76-.77 1.18-1.51 1.18-2.27 0-.82-.5-1.56-1.44-1.56-.39 0-.81.12-1.12.38.16.04.62.22.62.78s-.44.78-.78.78c-.26 0-.78-.16-.78-.81 0-.98 1.02-1.66 2.34-1.66 1.54 0 2.67.81 2.67 2.06 0 1.04-.7 1.55-1.94 2.46-.49.36-1.06.83-1.57 1.25h1.6c.17 0 .99 0 1.11-.07.15-.08.25-.77.28-.99h.51l-.34 2.42ZM298.16 45.54v8.57c0 1.82-1.68 2.82-4.03 2.82-2 0-3.38-.84-3.38-2.19 0-.91.7-1.35 1.35-1.35.58 0 1.33.4 1.33 1.35s-.81 1.26-.81 1.26c.54.25 1.12.3 1.42.3 1.74 0 1.74-1.84 1.74-2.17v-8.59h-2.47v-.82c.84.05 2.56.05 3.49.05.68 0 2.17 0 2.79-.05v.82h-1.42ZM303.97 56.71c-.53 0-1.69 0-2.17.03v-.51h1.51V50.6c-.64.21-1.24.22-1.42.22h-.22v-.51h.22c.23 0 1.35 0 2.19-.62.1-.08.12-.08.24-.08.28 0 .28.11.28.35v6.28h1.53v.51c-.48-.03-1.63-.03-2.17-.03ZM311.16 56.71c-.47 0-1.46 0-1.87.03v-.51h1.22v-1.19h-3.14v-.51l3.8-4.76c.13-.16.14-.17.37-.17.3 0 .33.05.33.35v4.59h1.06v.51h-1.06v1.19h1.06v.51c-.38-.03-1.33-.03-1.77-.03Zm-.54-5.56-2.69 3.38h2.69v-3.38ZM334.99 302.22v8.57c0 1.82-1.68 2.82-4.03 2.82-2 0-3.38-.84-3.38-2.19 0-.91.7-1.35 1.35-1.35.58 0 1.33.4 1.33 1.35s-.81 1.26-.81 1.26c.54.25 1.12.3 1.42.3 1.74 0 1.74-1.84 1.74-2.17v-8.59h-2.47v-.82c.84.05 2.56.05 3.49.05.68 0 2.17 0 2.79-.05v.82H335ZM340.8 313.39c-.53 0-1.69 0-2.17.03v-.51h1.51v-5.63c-.64.21-1.24.22-1.42.22h-.22v-.51h.22c.23 0 1.35 0 2.19-.62.1-.08.12-.08.24-.08.28 0 .28.11.28.35v6.28h1.53v.51c-.48-.03-1.63-.03-2.17-.03Z"/><path class="cls-1" d="M155.94 36.46s7.02 1.48 15.45 6.07 17.11 12.26 22.09 20.43 16.72 39.7 4.81 62.34-29.96 35.06-57.02 37.62-44.37-20.94-44.37-20.94M243.56 36.46s-.17 12.83 3.23 20.28 12.94 24.47 32.68 30.6 46.3 10.72 58.04-1.87c11.74-12.6 19.74-25.89 19.57-37.45l-.17-11.56"/><path class="cls-1" d="M96.89 201.21s3.52 1.79 26.75-1.53 49.02-13.02 62.04-20.94 26.55-20.43 36.77-32.94 17.87-20.94 30.89-25.53c13.02-4.6 24.26-5.36 42.13-4.85s22.47 2.28 36-.14 44.43-20.29 54.13-30.5 27.06-26.3 33.19-34.72 8.94-13.6 8.94-13.6"/><path class="cls-1" d="M96.89 251.77s10.92-2.3 23.43-8.43 36.26-20.43 51.57-33.7c15.32-13.28 32.94-28.6 49.02-42.13s29.87-21.45 47.74-26.3 24.77-5.36 50.55-10.47 44.43-12 55.15-17.62 32.68-21.96 58.72-29.62 36.77-9.7 40.85-10.21l4.09-.51h1.08"/><path class="cls-1" d="M479.11 122.83s-55.21-5.62-110.87 6.13c-55.66 11.74-92.68 24-120.77 44.94-28.09 20.94-50.81 43.4-58.47 49.02s-39.86 27.83-53.63 39.32-23.73 24.26-28.83 36.26-11.74 55.91 3.32 74.3 31.66 27.84 31.66 27.84"/><path class="cls-1" d="M479.11 154.75s-37.76-5.79-105.16-4.43c-67.4 1.36-82.38 15.32-118.13 41.19s-70.47 54.47-87.49 76.6-39.15 54.81-30.3 80 19.74 40.76 25.53 46.64 7.49 5.88 7.49 5.88"/><path class="cls-1" d="M210.54 400.63s-33.7-28.01-32.34-71.58 27.57-75.91 60.26-98.72 80.68-50.04 137.53-51.74c56.85-1.7 90.21 28.6 95.66 35.06s7.46 16 7.46 16"/><path class="cls-1" d="M257.86 400.63s-43.23-30.95-43.23-87.01 67.06-98.27 92.94-105.08c25.87-6.81 89.87-10.55 124.6 20.09s46.3 60.26 39.83 101.45-18.04 70.56-18.04 70.56"/><path class="cls-1" d="M307.47 241.43c-9.63 4.72-18.25 11.27-25.27 19.38-16.37 18.93-35.92 53.34-10.39 92.75 38.81 59.91 98.38 47.66 115.06 36.09s55.49-59.23 30.98-107.23-82.76-54.92-102.47-44.94c-3.19 1.62-5.8 2.92-7.92 3.96Z"/><path class="cls-1" d="M323.93 279.86c-1.45 1.51-2.88 3.04-4.4 4.48-4.55 4.3-12.72 13.54-13.33 24.79-.85 15.66 3.57 29.11 16.34 35.4s29.11 0 38.3-7.49 18.55-23.49 13.79-39.15-14.63-24.17-31.66-24c-11.56.12-16.84 3.68-19.04 5.96Z"/><path class="cls-2" transform="rotate(-29.53 303.233 244.28)" d="M287.68 237.34h31.19v13.92h-31.19z"/><path class="cls-3" d="M298.89 248.97c-.93.53-1.63.29-1.96-.28-.18-.32-.1-.65.22-.84.33-.19.66-.06.82.22.21.38-.03.67-.12.76.35.03.66-.13.81-.22.58-.33.73-.91.68-1.32-.04-.36-.24-.9-.59-1.51l-.1-.18c.01.77-.35 1.05-.64 1.22-1.03.59-2.22.43-2.88-.73-.64-1.13-.19-2.28 1-2.96 1.99-1.13 3.22 1.05 3.54 1.61 1.22 2.15.3 3.61-.79 4.22Zm-1.53-5.4c-.08-.06-.53-.4-1.02-.12-.9.51-.52 1.18-.05 2.01.48.84.83 1.47 1.63 1.02.71-.4.44-1.38.14-1.91-.16-.29-.44-.77-.7-.99ZM304.12 246c-2.03 1.15-3.13-.79-3.61-1.62-.47-.82-1.59-2.83.43-3.98s3.17.86 3.63 1.67c.48.84 1.55 2.78-.46 3.93Zm-1.88-5.23c-.37-.28-.8-.25-1.12-.07-.2.11-.74.53-.42 1.34.18.47.49 1.02.83 1.63.26.46.76 1.34 1.08 1.73.46.55 1.03.47 1.33.3.25-.14.71-.56.39-1.41-.19-.47-.62-1.24-.89-1.71-.39-.69-.89-1.58-1.21-1.81ZM309.79 234.96l-1.28 8.89c-.01.12-.02.19-.14.26-.14.08-.33.03-.41-.11-.05-.09-.03-.26-.03-.26l1.09-7.61c-.33.41-.7.64-.88.74-.41.23-.95.42-1.65.48.35.32.52.63.61.78.68 1.19.34 2.04-.28 2.39-.68.39-1.72.34-2.41-.88-.67-1.18-.22-2.11.49-2.51.28-.16.53-.18.78-.15.36.04 1.31.15 2.28-.4.74-.42 1.12-1.02 1.24-1.67.02-.12.04-.23.16-.3.12-.07.3-.05.4.12.05.08.04.15.02.25Zm-4.7 2.44c-.6.34-.11 1.21.2 1.73.29.52.79 1.39 1.38 1.05.32-.18.66-.76.03-1.86-.59-1.04-1.25-1.13-1.61-.92Zm7.94 4.06c-.68.38-1.72.34-2.41-.88-.67-1.18-.22-2.11.49-2.51.59-.33 1.5-.24 2.2 1 .68 1.19.34 2.04-.28 2.39Zm-1.73-3.1c-.6.34-.11 1.2.19 1.73.29.52.79 1.39 1.38 1.05.32-.18.66-.76.03-1.86-.59-1.04-1.25-1.12-1.61-.92Z"/><path class="cls-2" transform="rotate(-22.92 291.142 215.655)" d="M275.38 208.62h31.57v14.09h-31.57z"/><path class="cls-3" d="m284.56 214.8-.7 2.18c-.16.5-.12 1.1.05 1.73.11.45.27.88.45 1.31l.17.41c.25.59-.15.81-.29.87-.05.02-.55.23-.81-.39-.56-1.32-.42-2.79 0-4.15.08-.26.17-.52.25-.79l-1.5.64c-.15.06-.87.37-.95.46-.03.03-.09.2.1.91l-.42.18-.64-2.39.42-.18c.06.08.1.16.3.11.14-.02 1.47-.53 1.67-.61l1.81-.77c.13.31.14.33.09.46ZM289.63 219.02c-2.14.91-3.02-1.14-3.39-2.02-.37-.87-1.25-2.99.89-3.9 2.14-.91 3.05 1.22 3.42 2.08.38.89 1.22 2.94-.91 3.85Zm-1.26-5.41c-.33-.32-.77-.33-1.1-.2-.21.09-.8.44-.57 1.28.12.49.37 1.07.64 1.71.21.49.6 1.42.88 1.84.39.6.97.58 1.29.45.27-.11.77-.47.55-1.35-.13-.49-.48-1.3-.69-1.8-.31-.73-.71-1.67-1-1.94ZM296.53 208.7l-2.3 8.68c-.03.12-.05.19-.17.24-.15.06-.33 0-.39-.16-.04-.1 0-.26 0-.26l1.96-7.44c-.37.37-.77.56-.96.64-.44.18-.99.3-1.69.29.31.36.45.68.51.84.54 1.26.11 2.06-.55 2.34-.72.3-1.74.14-2.29-1.15-.53-1.25.03-2.12.78-2.44.29-.12.55-.12.79-.06.35.08 1.28.3 2.31-.14.78-.33 1.23-.89 1.42-1.51.04-.12.06-.23.2-.28.12-.05.31-.01.38.16.04.09.02.15 0 .25Zm-4.94 1.9c-.63.27-.24 1.18 0 1.74.23.55.62 1.47 1.25 1.2.34-.14.74-.68.25-1.85-.46-1.1-1.11-1.26-1.49-1.1Zm7.41 4.94c-.72.3-1.74.14-2.29-1.15-.53-1.25.03-2.12.77-2.44.62-.26 1.51-.06 2.07 1.24.53 1.26.11 2.06-.55 2.34Zm-1.36-3.28c-.63.27-.24 1.18 0 1.74.23.55.62 1.47 1.25 1.2.34-.14.74-.68.25-1.85-.47-1.1-1.11-1.26-1.49-1.1Z"/><path class="cls-2" transform="rotate(-22.92 281.906 197.631)" d="M266.92 190.94h30.02v13.4h-30.02z"/><path class="cls-3" d="M274.66 203.9c-1.1.47-2.12 0-2.44-.75-.23-.54.2-.82.33-.87.21-.09.65-.12.85.35.15.36-.01.69-.33.84.59.35 1.17.16 1.38.07 1.07-.45.69-1.34.42-1.99-.3-.71-.63-1.49-1.42-1.16-.37.15-.81.45-.98 1-.03.1-.04.14-.15.19-.2.08-.25-.03-.31-.19l-1.1-2.6c-.06-.14-.1-.24.02-.29.03-.01.04 0 .13-.01.26-.02.81-.05 1.48-.33.38-.16.83-.41 1.26-.82.08-.08.09-.08.12-.09.11-.05.17.05.19.11.09.22-.3 1.57-1.6 2.12-.3.13-.41.15-.68.21l.5 1.17c.3-.46.76-.69 1.02-.8 1.32-.56 2.37-.03 2.8 1 .46 1.08-.07 2.25-1.5 2.86ZM280.02 201.63c-2.14.91-3.02-1.14-3.39-2.03-.37-.87-1.25-2.99.89-3.9 2.14-.91 3.05 1.22 3.42 2.08.38.89 1.22 2.94-.91 3.85Zm-1.27-5.41c-.33-.32-.77-.33-1.1-.2-.21.09-.8.44-.57 1.28.12.49.37 1.07.64 1.71.21.49.6 1.42.87 1.84.39.6.97.59 1.29.45.27-.11.77-.47.55-1.35-.13-.49-.48-1.3-.69-1.8-.31-.73-.71-1.67-1-1.94ZM286.92 191.31l-2.3 8.68c-.02.12-.05.19-.17.24-.15.06-.33 0-.39-.16-.04-.1 0-.26 0-.26l1.96-7.44c-.37.37-.77.56-.96.64-.44.18-.99.3-1.69.29.31.36.45.68.51.84.53 1.26.11 2.06-.55 2.34-.72.3-1.75.14-2.29-1.15-.53-1.25.03-2.12.77-2.44.29-.12.55-.12.79-.06.35.08 1.28.3 2.31-.14.78-.33 1.23-.89 1.42-1.51.04-.12.06-.23.2-.28.12-.05.31-.01.38.16.04.09.02.15 0 .25Zm-4.95 1.89c-.63.27-.24 1.18 0 1.74.23.55.62 1.47 1.25 1.2.34-.14.74-.68.25-1.85-.47-1.1-1.11-1.26-1.49-1.1Zm7.42 4.94c-.72.3-1.75.14-2.29-1.15-.53-1.25.03-2.12.77-2.44.62-.26 1.51-.06 2.07 1.24.53 1.26.11 2.06-.55 2.34Zm-1.36-3.27c-.63.27-.24 1.18 0 1.74.23.55.62 1.47 1.25 1.2.34-.14.74-.68.25-1.85-.47-1.1-1.11-1.26-1.49-1.1Z"/><path class="cls-2" transform="rotate(-19.98 273.205 178.739)" d="M257.48 171.73h31.43v14.03h-31.43z"/><path class="cls-3" d="M267.99 183.96c-1.17.43-2.25.2-2.55-.62-.17-.46.06-.82.44-.96.4-.15.79.03.94.44.13.37 0 .68-.28.87.53.11 1.02-.02 1.26-.11.94-.34.61-1.27.45-1.7-.17-.46-.49-1.35-1.48-.99l-.4.15c-.16.06-.25.09-.31-.07-.02-.05-.03-.15.05-.19.04-.03.06-.04.42-.19.92-.4.5-1.59.46-1.71-.11-.3-.35-.87-1.1-.6-.28.1-.65.32-.88.69.04 0 .57-.08.76.44.12.33 0 .71-.41.86-.34.13-.71-.02-.86-.41-.26-.73.23-1.56 1.31-1.96 1.28-.47 2.17-.15 2.43.55.28.78-.19 1.54-.75 1.96 1.42-.2 1.96.49 2.15.99.3.83-.03 1.98-1.66 2.57ZM273.32 182.02c-2.19.8-2.96-1.3-3.29-2.2-.32-.89-1.1-3.05 1.09-3.85 2.19-.79 2.98 1.37 3.3 2.25s1.07 3-1.11 3.79Zm-.99-5.47c-.32-.34-.75-.37-1.09-.25-.22.08-.82.4-.64 1.25.1.5.31 1.09.55 1.74.18.5.53 1.44.78 1.89.36.62.94.63 1.27.52.27-.1.8-.43.62-1.32-.11-.5-.41-1.32-.59-1.83-.27-.74-.62-1.71-.9-1.99ZM280.74 172.07l-2.74 8.55c-.03.11-.06.18-.18.23a.297.297 0 0 1-.38-.18c-.04-.1.02-.26.02-.26l2.34-7.33c-.39.35-.8.52-.99.59-.45.16-1.01.25-1.71.2.29.38.41.7.47.87.47 1.29 0 2.07-.67 2.31-.74.27-1.75.05-2.23-1.27-.46-1.27.13-2.11.9-2.39.3-.11.55-.09.79-.02.34.1 1.26.36 2.32-.02.8-.29 1.27-.82 1.5-1.44.04-.12.07-.22.21-.27.13-.05.31 0 .37.18.03.09.01.15-.02.25Zm-5.04 1.63c-.64.23-.3 1.17-.1 1.74.21.56.54 1.5 1.19 1.26.34-.13.77-.64.34-1.83-.41-1.13-1.04-1.32-1.43-1.17Zm7.16 5.32c-.73.27-1.75.05-2.23-1.27-.46-1.27.14-2.12.9-2.39.64-.23 1.52.01 2 1.35.47 1.29 0 2.06-.67 2.31Zm-1.2-3.34c-.64.23-.3 1.17-.1 1.74.21.56.54 1.5 1.19 1.26.35-.13.77-.64.34-1.83-.41-1.13-1.04-1.32-1.43-1.17Z"/><path class="cls-2" transform="rotate(-19.98 266.425 157.585)" d="M249.9 150.22h33.06v14.75H249.9z"/><path class="cls-3" d="m262.17 162.34-3.89 1.42-.06-.16c-.07-.18-.07-.2 0-.35l1.15-2.52c.4-.88.52-1.62.29-2.24-.25-.68-.89-1.15-1.67-.86-.33.12-.64.34-.82.66.15-.01.58 0 .75.47.17.45-.12.79-.42.89-.22.08-.7.1-.9-.43-.3-.82.35-1.69 1.45-2.09 1.28-.47 2.47-.14 2.85.91.31.86-.11 1.5-.87 2.64-.3.45-.63 1.01-.93 1.52l1.33-.49c.14-.05.83-.3.91-.39.1-.11-.03-.72-.06-.91l.43-.16.45 2.12ZM265.62 161.2c-2.19.8-2.96-1.3-3.29-2.2-.32-.89-1.1-3.05 1.09-3.85s2.99 1.37 3.31 2.25c.33.91 1.07 3-1.11 3.79Zm-.99-5.47c-.32-.34-.75-.37-1.09-.25-.22.08-.82.4-.64 1.25.1.5.31 1.09.55 1.74.18.5.52 1.44.78 1.89.36.62.94.63 1.27.52.27-.1.8-.43.62-1.32-.11-.5-.41-1.32-.59-1.83-.27-.74-.62-1.71-.9-1.99ZM273.04 151.25l-2.74 8.55c-.03.11-.05.19-.18.23a.29.29 0 0 1-.38-.18c-.04-.1.02-.26.02-.26l2.34-7.33c-.39.35-.8.52-.99.59-.45.16-1.01.25-1.71.2.29.38.41.7.47.87.47 1.29 0 2.07-.67 2.31-.74.27-1.75.05-2.23-1.27-.46-1.27.14-2.12.9-2.39.3-.11.55-.09.79-.02.34.1 1.26.36 2.32-.02.8-.29 1.27-.82 1.5-1.44.04-.12.07-.22.21-.27.13-.05.31 0 .38.18.03.09.01.15-.02.25Zm-5.04 1.63c-.64.23-.3 1.17-.1 1.74.2.56.54 1.5 1.19 1.26.35-.13.77-.64.34-1.83-.41-1.13-1.04-1.32-1.43-1.17Zm7.16 5.32c-.74.27-1.75.05-2.23-1.27-.46-1.27.14-2.12.9-2.39.64-.23 1.52.01 2 1.35.47 1.29 0 2.06-.67 2.31Zm-1.2-3.34c-.64.23-.3 1.17-.1 1.74.2.56.54 1.5 1.19 1.26.34-.12.77-.64.34-1.83-.41-1.13-1.04-1.32-1.43-1.17Z"/><path class="cls-2" transform="rotate(-19.98 260.607 138.445)" d="M244.78 131.37h31.66v14.13h-31.66z"/><path class="cls-3" d="M254.54 143.48c-.44.16-1.41.51-1.8.68l-.15-.43 1.26-.46-1.71-4.69c-.47.37-.97.56-1.11.61l-.18.07-.15-.43.18-.07c.19-.07 1.12-.41 1.64-1.18.06-.09.08-.1.18-.14.24-.09.27 0 .34.21l1.9 5.23 1.27-.46.15.43c-.41.12-1.37.47-1.82.63ZM259.73 141.74c-2.19.79-2.96-1.3-3.29-2.2-.32-.89-1.1-3.05 1.09-3.85 2.19-.8 2.98 1.37 3.3 2.25s1.07 3-1.11 3.79Zm-.99-5.47c-.32-.34-.75-.37-1.09-.25-.22.08-.82.4-.63 1.25.1.5.31 1.09.55 1.74.18.5.53 1.44.78 1.89.36.62.94.63 1.27.52.27-.1.8-.43.62-1.32-.11-.5-.41-1.32-.59-1.83-.27-.74-.62-1.71-.9-1.99ZM267.15 131.78l-2.74 8.55c-.03.11-.05.18-.18.23a.29.29 0 0 1-.38-.18c-.04-.1.02-.26.02-.26l2.34-7.33c-.39.35-.8.52-.99.59-.45.16-1.01.25-1.71.2.29.38.41.7.47.87.47 1.29 0 2.07-.67 2.31-.74.27-1.75.05-2.23-1.27-.46-1.27.13-2.12.9-2.39.3-.11.55-.09.79-.02.35.1 1.26.36 2.32-.02.8-.29 1.27-.82 1.5-1.44.04-.12.07-.22.21-.27.13-.05.31 0 .37.18.03.09.01.15-.02.25Zm-5.04 1.64c-.64.23-.3 1.17-.1 1.74.21.56.54 1.5 1.19 1.26.35-.13.78-.64.34-1.83-.41-1.13-1.04-1.32-1.43-1.17Zm7.15 5.31c-.73.27-1.75.05-2.23-1.27-.46-1.27.14-2.12.9-2.39.64-.23 1.52.01 2 1.35.47 1.29 0 2.07-.67 2.31Zm-1.19-3.33c-.64.23-.3 1.17-.1 1.74.21.56.54 1.5 1.19 1.26.35-.13.78-.64.34-1.83-.41-1.13-1.04-1.32-1.43-1.17Z"/><path class="cls-2" transform="rotate(-14.93 255.25 118.72)" d="M239.5 111.67h31.53v14.07H239.5z"/><path class="cls-3" d="M251.55 122.6c-1.16.31-2.1-.29-2.31-1.08-.15-.57.31-.78.45-.82.22-.06.66-.03.79.47.1.38-.11.68-.44.79.54.43 1.13.32 1.36.26 1.12-.3.87-1.23.69-1.91-.2-.75-.42-1.57-1.25-1.35-.38.1-.86.33-1.11.86-.04.09-.05.13-.18.17-.21.05-.24-.07-.28-.23l-.73-2.73c-.04-.15-.07-.25.06-.29h.13c.27.02.81.06 1.52-.12.4-.11.88-.29 1.36-.64.09-.06.1-.07.13-.08.11-.03.16.07.18.13.06.23-.52 1.52-1.88 1.88-.32.08-.42.09-.7.12l.33 1.23c.36-.42.85-.58 1.12-.65 1.38-.37 2.35.3 2.64 1.38.3 1.14-.39 2.22-1.88 2.62ZM260.07 113.27l-3.48 8.27c-.04.11-.07.18-.2.21a.307.307 0 0 1-.37-.21c-.03-.1.04-.26.04-.26l2.98-7.09c-.42.31-.84.44-1.04.5-.46.12-1.03.16-1.72.05.26.4.35.74.39.91.35 1.33-.18 2.06-.87 2.24-.76.2-1.75-.1-2.11-1.46-.35-1.31.32-2.09 1.11-2.3.31-.08.56-.04.79.05.33.13 1.22.47 2.31.18.82-.22 1.34-.71 1.62-1.3.05-.11.09-.21.23-.25.13-.03.31.03.36.21.02.09 0 .15-.04.25Zm-5.16 1.19c-.66.18-.41 1.14-.25 1.73.15.58.41 1.54 1.07 1.36.35-.09.83-.57.5-1.79-.31-1.16-.92-1.4-1.32-1.3Zm6.66 5.92c-.76.2-1.75-.1-2.11-1.46-.35-1.31.32-2.09 1.11-2.3.65-.17 1.51.15 1.87 1.52.35 1.33-.18 2.06-.87 2.24Zm-.9-3.43c-.66.18-.41 1.14-.25 1.73.15.58.41 1.54 1.07 1.36.36-.09.83-.57.5-1.79-.31-1.16-.93-1.4-1.33-1.3Z"/><path class="cls-2" transform="rotate(-29.53 325.007 279.6)" d="M310.58 273.17h28.94v12.92h-28.94z"/><path class="cls-3" d="M319.37 285.95c-.93.53-1.63.29-1.96-.28-.18-.32-.1-.65.22-.84.33-.19.66-.06.82.23.21.38-.03.67-.12.75.35.03.66-.13.81-.21.58-.33.73-.91.68-1.32-.04-.36-.24-.9-.59-1.51l-.1-.18c.01.77-.35 1.05-.64 1.22-1.03.59-2.22.43-2.88-.73-.64-1.13-.19-2.28 1-2.96 1.99-1.13 3.22 1.05 3.54 1.61 1.22 2.15.3 3.6-.79 4.22Zm-1.53-5.39c-.08-.07-.53-.4-1.02-.12-.9.51-.52 1.18-.05 2.01.48.84.83 1.47 1.63 1.02.71-.4.44-1.38.14-1.91-.16-.29-.44-.77-.7-.99ZM324.2 283.22c-.93.53-1.63.29-1.96-.28-.18-.32-.1-.65.22-.84s.65-.06.82.22c.21.38-.03.67-.12.76.35.03.66-.13.81-.22.58-.33.73-.91.69-1.32-.04-.36-.24-.9-.59-1.51l-.1-.18c.01.77-.35 1.05-.64 1.22-1.03.59-2.22.43-2.88-.73-.64-1.13-.19-2.28 1-2.96 1.99-1.13 3.22 1.05 3.54 1.61 1.22 2.15.3 3.61-.79 4.22Zm-1.53-5.4c-.08-.06-.53-.4-1.02-.12-.9.51-.52 1.18-.05 2.01.48.84.83 1.47 1.63 1.02.71-.4.44-1.38.14-1.91-.16-.29-.44-.77-.7-.99ZM330.27 271.94l-1.28 8.88c-.01.12-.03.19-.14.26-.14.08-.33.03-.41-.11-.05-.09-.03-.26-.03-.26l1.09-7.61c-.32.41-.7.64-.88.74-.41.23-.95.42-1.65.48.35.32.52.63.61.78.68 1.19.34 2.04-.28 2.39-.68.38-1.72.34-2.41-.88-.67-1.18-.22-2.11.49-2.51.28-.16.53-.18.78-.15.36.04 1.31.15 2.28-.4.74-.42 1.12-1.02 1.24-1.67.02-.12.04-.23.16-.3.12-.07.3-.05.4.12.05.08.04.15.02.26Zm-4.7 2.45c-.6.34-.11 1.21.19 1.73.29.52.79 1.39 1.38 1.05.32-.18.66-.76.03-1.86-.59-1.04-1.25-1.13-1.61-.92Zm7.94 4.06c-.68.38-1.72.34-2.41-.88-.67-1.18-.22-2.11.49-2.51.59-.33 1.5-.24 2.2 1 .68 1.19.34 2.04-.28 2.39Zm-1.73-3.1c-.6.34-.11 1.2.19 1.73.29.52.79 1.39 1.38 1.05.32-.18.66-.76.03-1.86-.59-1.04-1.25-1.12-1.61-.92Z"/><path class="cls-2" transform="rotate(8.69 309.07 88.57)" d="M293.46 81.61h31.53v14.07h-31.53z"/><path class="cls-3" d="M304.62 90.64c-.47-.07-1.48-.23-1.9-.26l.07-.45 1.33.2.75-4.94c-.59.1-1.12.02-1.27 0l-.19-.03.07-.45.19.03c.2.03 1.18.18 2-.25.1-.05.12-.05.22-.04.25.04.23.13.2.34l-.84 5.5 1.34.2-.07.45c-.42-.09-1.43-.25-1.9-.32ZM315.81 85.59l-6.5 6.19c-.08.09-.14.14-.27.12a.296.296 0 0 1-.25-.34c.02-.11.14-.22.14-.22l5.57-5.31c-.51.12-.95.07-1.15.04-.47-.07-1.01-.26-1.59-.64.07.47.02.81 0 .99-.21 1.36-.99 1.81-1.7 1.71-.77-.12-1.56-.79-1.35-2.18.2-1.34 1.13-1.79 1.94-1.67.32.05.53.19.71.36.25.25.93.92 2.04 1.09.84.13 1.51-.11 2.01-.54.09-.08.17-.16.32-.14.13.02.27.15.24.34-.01.1-.06.14-.14.21Zm-5.21-.98c-.68-.1-.83.88-.92 1.48-.09.59-.24 1.58.44 1.68.36.06.99-.19 1.18-1.44.18-1.18-.29-1.66-.7-1.72Zm3.73 8.09c-.77-.12-1.56-.8-1.35-2.18.2-1.34 1.13-1.79 1.93-1.67.67.1 1.32.74 1.11 2.14-.21 1.36-.99 1.81-1.7 1.71Zm.56-3.5c-.68-.1-.83.88-.92 1.48-.09.59-.24 1.58.44 1.68.36.06.99-.19 1.18-1.44.18-1.18-.29-1.66-.7-1.72Z"/><path class="cls-2" transform="rotate(-14.92 153.24 158.256)" d="M137.4 151.19h31.53v14.07H137.4z"/><path class="cls-3" d="M149.75 161.89c-.46.12-1.45.39-1.85.52l-.12-.44 1.3-.35-1.29-4.83c-.5.32-1.01.47-1.16.51l-.19.05-.12-.44.19-.05c.2-.05 1.16-.31 1.73-1.03.07-.09.08-.09.19-.12.24-.06.27.03.32.23l1.43 5.38 1.31-.35.12.44c-.42.08-1.41.35-1.87.47ZM157.97 152.78l-3.48 8.27c-.04.11-.07.18-.2.21a.307.307 0 0 1-.37-.21c-.03-.1.04-.26.04-.26l2.98-7.09c-.42.31-.84.44-1.04.5-.46.12-1.03.16-1.72.05.26.4.35.74.39.91.35 1.33-.18 2.06-.87 2.24-.76.2-1.75-.1-2.11-1.46-.35-1.31.32-2.09 1.11-2.3.31-.08.56-.04.79.05.33.13 1.23.47 2.31.19.82-.22 1.34-.71 1.62-1.3.05-.11.09-.21.23-.25.13-.04.31.03.36.21.03.09 0 .15-.04.25Zm-5.16 1.19c-.66.18-.41 1.14-.25 1.73.15.58.41 1.54 1.07 1.36.35-.09.83-.57.5-1.79-.31-1.16-.92-1.4-1.33-1.3Zm6.66 5.92c-.76.2-1.75-.1-2.11-1.46-.35-1.31.32-2.09 1.11-2.3.65-.17 1.51.15 1.88 1.52.35 1.33-.18 2.06-.87 2.24Zm-.89-3.43c-.66.18-.41 1.14-.25 1.73.15.58.41 1.54 1.07 1.36.35-.09.83-.57.5-1.79-.31-1.16-.92-1.4-1.32-1.3Z"/></svg>