<svg id="Layer_6" data-name="Layer 6" xmlns="http://www.w3.org/2000/svg" viewBox="0 0 576 432"><defs><style>.cls-2,.cls-3{stroke-miterlimit:10}.cls-2{fill:#f4f4f4;stroke:#d9e7f5}.cls-4{fill:#231f20;stroke-width:0}.cls-3{fill:#d9e7f5;stroke:#6d8dbe}</style></defs><path class="cls-2" d="M20.95 33.92H45.2v24.25H20.95zM45.21 33.92h24.25v24.25H45.21z"/><path class="cls-2" d="M69.46 33.92h24.25v24.25H69.46zM93.71 33.92h24.25v24.25H93.71z"/><path class="cls-2" d="M117.96 33.92h24.25v24.25h-24.25zM287.72 33.92h24.25v24.25h-24.25zM142.21 33.92h24.25v24.25h-24.25zM166.46 33.92h24.25v24.25h-24.25zM190.72 33.92h24.25v24.25h-24.25zM214.97 33.92h24.25v24.25h-24.25z"/><path class="cls-3" d="M239.22 33.92h24.25v24.25h-24.25zM263.47 33.92h24.25v24.25h-24.25z"/><path class="cls-2" d="M311.97 33.92h24.25v24.25h-24.25zM336.23 33.92h24.25v24.25h-24.25zM360.48 33.92h24.25v24.25h-24.25zM384.73 33.92h24.25v24.25h-24.25zM408.98 33.92h24.25v24.25h-24.25zM433.23 33.92h24.25v24.25h-24.25zM457.49 33.92h24.25v24.25h-24.25zM481.74 33.92h24.25v24.25h-24.25zM505.99 33.92h24.25v24.25h-24.25zM530.24 33.92h24.25v24.25h-24.25zM20.95 58.17H45.2v24.25H20.95zM45.21 58.17h24.25v24.25H45.21z"/><path class="cls-2" d="M69.46 58.17h24.25v24.25H69.46zM93.71 58.17h24.25v24.25H93.71z"/><path class="cls-2" d="M117.96 58.17h24.25v24.25h-24.25zM142.21 58.17h24.25v24.25h-24.25zM166.46 58.17h24.25v24.25h-24.25zM190.72 58.17h24.25v24.25h-24.25zM214.97 58.17h24.25v24.25h-24.25zM287.72 58.17h24.25v24.25h-24.25z"/><path class="cls-3" d="M239.22 58.17h24.25v24.25h-24.25z"/><path class="cls-2" d="M336.23 58.17h24.25v24.25h-24.25z"/><path class="cls-3" d="M263.47 58.17h24.25v24.25h-24.25zM311.97 58.17h24.25v24.25h-24.25z"/><path class="cls-2" d="M360.48 58.17h24.25v24.25h-24.25zM384.73 58.17h24.25v24.25h-24.25zM408.98 58.17h24.25v24.25h-24.25zM433.23 58.17h24.25v24.25h-24.25zM457.49 58.17h24.25v24.25h-24.25zM481.74 58.17h24.25v24.25h-24.25zM505.99 58.17h24.25v24.25h-24.25zM530.24 58.17h24.25v24.25h-24.25zM214.97 130.92h24.25v24.25h-24.25zM20.95 130.92H45.2v24.25H20.95zM45.21 130.92h24.25v24.25H45.21z"/><path class="cls-2" d="M69.46 130.92h24.25v24.25H69.46zM93.71 130.92h24.25v24.25H93.71z"/><path class="cls-2" d="M117.96 130.92h24.25v24.25h-24.25zM142.21 130.92h24.25v24.25h-24.25zM166.46 130.92h24.25v24.25h-24.25zM190.72 130.92h24.25v24.25h-24.25z"/><path class="cls-3" d="M239.22 130.92h24.25v24.25h-24.25zM263.47 130.92h24.25v24.25h-24.25zM287.72 130.92h24.25v24.25h-24.25zM311.97 130.92h24.25v24.25h-24.25z"/><path class="cls-2" d="M360.48 130.92h24.25v24.25h-24.25z"/><path class="cls-3" d="M336.23 130.92h24.25v24.25h-24.25z"/><path class="cls-2" d="M384.73 130.92h24.25v24.25h-24.25zM408.98 130.92h24.25v24.25h-24.25zM433.23 130.92h24.25v24.25h-24.25zM457.49 130.92h24.25v24.25h-24.25zM481.74 130.92h24.25v24.25h-24.25zM505.99 130.92h24.25v24.25h-24.25zM530.24 130.92h24.25v24.25h-24.25zM20.95 82.42H45.2v24.25H20.95zM45.21 82.42h24.25v24.25H45.21z"/><path class="cls-2" d="M69.46 82.42h24.25v24.25H69.46zM93.71 82.42h24.25v24.25H93.71z"/><path class="cls-2" d="M117.96 82.42h24.25v24.25h-24.25zM142.21 82.42h24.25v24.25h-24.25zM166.46 82.42h24.25v24.25h-24.25z"/><path class="cls-3" d="M190.72 82.42h24.25v24.25h-24.25zM214.97 82.42h24.25v24.25h-24.25zM263.47 82.42h24.25v24.25h-24.25zM287.72 82.42h24.25v24.25h-24.25z"/><path class="cls-2" d="M360.48 82.42h24.25v24.25h-24.25z"/><path class="cls-3" d="M311.97 82.42h24.25v24.25h-24.25zM336.23 82.42h24.25v24.25h-24.25z"/><path class="cls-2" d="M384.73 82.42h24.25v24.25h-24.25zM408.98 82.42h24.25v24.25h-24.25zM433.23 82.42h24.25v24.25h-24.25zM457.49 82.42h24.25v24.25h-24.25zM481.74 82.42h24.25v24.25h-24.25zM505.99 82.42h24.25v24.25h-24.25zM530.24 82.42h24.25v24.25h-24.25z"/><path class="cls-3" d="M239.22 82.42h24.25v24.25h-24.25z"/><path class="cls-2" d="M20.95 155.18H45.2v24.25H20.95zM45.21 155.18h24.25v24.25H45.21z"/><path class="cls-2" d="M69.46 155.18h24.25v24.25H69.46zM93.71 155.18h24.25v24.25H93.71z"/><path class="cls-2" d="M117.96 155.18h24.25v24.25h-24.25zM142.21 155.18h24.25v24.25h-24.25zM166.46 155.18h24.25v24.25h-24.25zM190.72 155.18h24.25v24.25h-24.25z"/><path class="cls-3" d="M214.97 155.18h24.25v24.25h-24.25zM239.22 155.18h24.25v24.25h-24.25zM263.47 155.18h24.25v24.25h-24.25zM287.72 155.18h24.25v24.25h-24.25z"/><path class="cls-2" d="M408.98 155.18h24.25v24.25h-24.25z"/><path class="cls-3" d="M311.97 155.18h24.25v24.25h-24.25zM336.23 155.18h24.25v24.25h-24.25zM384.73 155.18h24.25v24.25h-24.25zM360.48 155.18h24.25v24.25h-24.25z"/><path class="cls-2" d="M433.23 155.18h24.25v24.25h-24.25zM457.49 155.18h24.25v24.25h-24.25zM481.74 155.18h24.25v24.25h-24.25zM505.99 155.18h24.25v24.25h-24.25zM530.24 155.18h24.25v24.25h-24.25zM21.23 324.94h24.25v24.25H21.23z"/><path class="cls-2" d="M45.48 324.94h24.25v24.25H45.48zM69.73 324.94h24.25v24.25H69.73zM93.99 324.94h24.25v24.25H93.99zM118.24 324.94h24.25v24.25h-24.25zM142.49 324.94h24.25v24.25h-24.25zM166.74 324.94h24.25v24.25h-24.25zM190.99 324.94h24.25v24.25h-24.25zM215.24 324.94h24.25v24.25h-24.25zM239.5 324.94h24.25v24.25H239.5zM263.75 324.94H288v24.25h-24.25zM288 324.94h24.25v24.25H288zM312.25 324.94h24.25v24.25h-24.25zM336.5 324.94h24.25v24.25H336.5zM360.76 324.94h24.25v24.25h-24.25zM385.01 324.94h24.25v24.25h-24.25zM409.26 324.94h24.25v24.25h-24.25zM433.51 324.94h24.25v24.25h-24.25zM457.76 324.94h24.25v24.25h-24.25zM482.01 324.94h24.25v24.25h-24.25zM506.27 324.94h24.25v24.25h-24.25zM530.52 324.94h24.25v24.25h-24.25zM20.95 179.43H45.2v24.25H20.95zM45.21 179.43h24.25v24.25H45.21z"/><path class="cls-2" d="M69.46 179.43h24.25v24.25H69.46zM93.71 179.43h24.25v24.25H93.71z"/><path class="cls-2" d="M117.96 179.43h24.25v24.25h-24.25zM142.21 179.43h24.25v24.25h-24.25zM166.46 179.43h24.25v24.25h-24.25zM190.72 179.43h24.25v24.25h-24.25z"/><path class="cls-3" d="M214.97 179.43h24.25v24.25h-24.25zM239.22 179.43h24.25v24.25h-24.25zM263.47 179.43h24.25v24.25h-24.25zM287.72 179.43h24.25v24.25h-24.25zM311.97 179.43h24.25v24.25h-24.25zM336.23 179.43h24.25v24.25h-24.25zM360.48 179.43h24.25v24.25h-24.25zM384.73 179.43h24.25v24.25h-24.25z"/><path class="cls-2" d="M433.23 179.43h24.25v24.25h-24.25z"/><path class="cls-3" d="M408.98 179.43h24.25v24.25h-24.25z"/><path class="cls-2" d="M457.49 179.43h24.25v24.25h-24.25zM481.74 179.43h24.25v24.25h-24.25zM505.99 179.43h24.25v24.25h-24.25zM530.24 179.43h24.25v24.25h-24.25zM20.95 300.69H45.2v24.25H20.95zM45.21 300.69h24.25v24.25H45.21z"/><path class="cls-2" d="M69.46 300.69h24.25v24.25H69.46zM93.71 300.69h24.25v24.25H93.71z"/><path class="cls-2" d="M117.96 300.69h24.25v24.25h-24.25zM142.21 300.69h24.25v24.25h-24.25zM166.46 300.69h24.25v24.25h-24.25zM190.72 300.69h24.25v24.25h-24.25zM214.97 300.69h24.25v24.25h-24.25zM239.22 300.69h24.25v24.25h-24.25zM263.47 300.69h24.25v24.25h-24.25z"/><path class="cls-3" d="M287.72 300.69h24.25v24.25h-24.25zM311.97 300.69h24.25v24.25h-24.25z"/><path class="cls-2" d="M384.73 300.69h24.25v24.25h-24.25z"/><path class="cls-3" d="M336.23 300.69h24.25v24.25h-24.25zM360.48 300.69h24.25v24.25h-24.25z"/><path class="cls-2" d="M408.98 300.69h24.25v24.25h-24.25zM433.23 300.69h24.25v24.25h-24.25zM457.49 300.69h24.25v24.25h-24.25zM481.74 300.69h24.25v24.25h-24.25zM505.99 300.69h24.25v24.25h-24.25zM530.24 300.69h24.25v24.25h-24.25zM20.95 203.68H45.2v24.25H20.95zM45.21 203.68h24.25v24.25H45.21z"/><path class="cls-2" d="M69.46 203.68h24.25v24.25H69.46zM93.71 203.68h24.25v24.25H93.71z"/><path class="cls-2" d="M117.96 203.68h24.25v24.25h-24.25zM142.21 203.68h24.25v24.25h-24.25zM166.46 203.68h24.25v24.25h-24.25zM190.72 203.68h24.25v24.25h-24.25z"/><path class="cls-3" d="M214.97 203.68h24.25v24.25h-24.25zM239.22 203.68h24.25v24.25h-24.25zM263.47 203.68h24.25v24.25h-24.25zM287.72 203.68h24.25v24.25h-24.25zM311.97 203.68h24.25v24.25h-24.25zM336.23 203.68h24.25v24.25h-24.25zM360.48 203.68h24.25v24.25h-24.25zM384.73 203.68h24.25v24.25h-24.25z"/><path class="cls-2" d="M433.23 203.68h24.25v24.25h-24.25z"/><path class="cls-3" d="M408.98 203.68h24.25v24.25h-24.25z"/><path class="cls-2" d="M457.49 203.68h24.25v24.25h-24.25zM481.74 203.68h24.25v24.25h-24.25zM505.99 203.68h24.25v24.25h-24.25zM530.24 203.68h24.25v24.25h-24.25zM384.73 106.67h24.25v24.25h-24.25z"/><path class="cls-3" d="M239.22 106.67h24.25v24.25h-24.25z"/><path class="cls-2" d="M20.95 106.67H45.2v24.25H20.95zM45.21 106.67h24.25v24.25H45.21z"/><path class="cls-2" d="M69.46 106.67h24.25v24.25H69.46zM93.71 106.67h24.25v24.25H93.71z"/><path class="cls-2" d="M117.96 106.67h24.25v24.25h-24.25zM142.21 106.67h24.25v24.25h-24.25zM166.46 106.67h24.25v24.25h-24.25z"/><path class="cls-3" d="M360.48 106.67h24.25v24.25h-24.25zM190.72 106.67h24.25v24.25h-24.25zM214.97 106.67h24.25v24.25h-24.25zM263.47 106.67h24.25v24.25h-24.25zM287.72 106.67h24.25v24.25h-24.25zM311.97 106.67h24.25v24.25h-24.25zM336.23 106.67h24.25v24.25h-24.25z"/><path class="cls-2" d="M408.98 106.67h24.25v24.25h-24.25zM433.23 106.67h24.25v24.25h-24.25zM457.49 106.67h24.25v24.25h-24.25zM481.74 106.67h24.25v24.25h-24.25zM505.99 106.67h24.25v24.25h-24.25zM530.24 106.67h24.25v24.25h-24.25zM20.95 276.44H45.2v24.25H20.95zM45.21 276.44h24.25v24.25H45.21z"/><path class="cls-2" d="M69.46 276.44h24.25v24.25H69.46zM93.71 276.44h24.25v24.25H93.71z"/><path class="cls-2" d="M117.96 276.44h24.25v24.25h-24.25zM142.21 276.44h24.25v24.25h-24.25zM166.46 276.44h24.25v24.25h-24.25zM190.72 276.44h24.25v24.25h-24.25z"/><path class="cls-3" d="M214.97 276.44h24.25v24.25h-24.25zM239.22 276.44h24.25v24.25h-24.25zM263.47 276.44h24.25v24.25h-24.25zM287.72 276.44h24.25v24.25h-24.25zM311.97 276.44h24.25v24.25h-24.25z"/><path class="cls-2" d="M408.98 276.44h24.25v24.25h-24.25z"/><path class="cls-3" d="M336.23 276.44h24.25v24.25h-24.25zM360.48 276.44h24.25v24.25h-24.25zM384.73 276.44h24.25v24.25h-24.25z"/><path class="cls-2" d="M433.23 276.44h24.25v24.25h-24.25zM457.49 276.44h24.25v24.25h-24.25zM481.74 276.44h24.25v24.25h-24.25zM505.99 276.44h24.25v24.25h-24.25zM530.24 276.44h24.25v24.25h-24.25zM20.95 227.93H45.2v24.25H20.95zM45.21 227.93h24.25v24.25H45.21z"/><path class="cls-2" d="M69.46 227.93h24.25v24.25H69.46zM93.71 227.93h24.25v24.25H93.71z"/><path class="cls-2" d="M117.96 227.93h24.25v24.25h-24.25zM142.21 227.93h24.25v24.25h-24.25zM166.46 227.93h24.25v24.25h-24.25zM190.72 227.93h24.25v24.25h-24.25z"/><path class="cls-3" d="M214.97 227.93h24.25v24.25h-24.25zM239.22 227.93h24.25v24.25h-24.25zM263.47 227.93h24.25v24.25h-24.25zM287.72 227.93h24.25v24.25h-24.25zM311.97 227.93h24.25v24.25h-24.25zM336.23 227.93h24.25v24.25h-24.25zM360.48 227.93h24.25v24.25h-24.25zM384.73 227.93h24.25v24.25h-24.25z"/><path class="cls-2" d="M433.23 227.93h24.25v24.25h-24.25z"/><path class="cls-3" d="M408.98 227.93h24.25v24.25h-24.25z"/><path class="cls-2" d="M457.49 227.93h24.25v24.25h-24.25zM481.74 227.93h24.25v24.25h-24.25zM505.99 227.93h24.25v24.25h-24.25zM530.24 227.93h24.25v24.25h-24.25zM20.95 252.18H45.2v24.25H20.95zM45.21 252.18h24.25v24.25H45.21z"/><path class="cls-2" d="M69.46 252.18h24.25v24.25H69.46zM93.71 252.18h24.25v24.25H93.71z"/><path class="cls-2" d="M117.96 252.18h24.25v24.25h-24.25zM142.21 252.18h24.25v24.25h-24.25zM166.46 252.18h24.25v24.25h-24.25zM190.72 252.18h24.25v24.25h-24.25z"/><path class="cls-3" d="M214.97 252.18h24.25v24.25h-24.25zM239.22 252.18h24.25v24.25h-24.25zM263.47 252.18h24.25v24.25h-24.25zM287.72 252.18h24.25v24.25h-24.25zM311.97 252.18h24.25v24.25h-24.25zM336.23 252.18h24.25v24.25h-24.25zM360.48 252.18h24.25v24.25h-24.25zM384.73 252.18h24.25v24.25h-24.25z"/><path class="cls-2" d="M433.23 252.18h24.25v24.25h-24.25z"/><path class="cls-3" d="M408.98 252.18h24.25v24.25h-24.25z"/><path class="cls-2" d="M457.49 252.18h24.25v24.25h-24.25zM481.74 252.18h24.25v24.25h-24.25zM505.99 252.18h24.25v24.25h-24.25zM530.24 252.18h24.25v24.25h-24.25zM21.23 349.19h24.25v24.25H21.23z"/><path class="cls-2" d="M45.48 349.19h24.25v24.25H45.48zM69.73 349.19h24.25v24.25H69.73zM93.99 349.19h24.25v24.25H93.99zM118.24 349.19h24.25v24.25h-24.25zM142.49 349.19h24.25v24.25h-24.25zM166.74 349.19h24.25v24.25h-24.25zM190.99 349.19h24.25v24.25h-24.25zM215.24 349.19h24.25v24.25h-24.25zM239.5 349.19h24.25v24.25H239.5zM263.75 349.19H288v24.25h-24.25zM288 349.19h24.25v24.25H288zM312.25 349.19h24.25v24.25h-24.25zM336.5 349.19h24.25v24.25H336.5zM360.76 349.19h24.25v24.25h-24.25zM385.01 349.19h24.25v24.25h-24.25zM409.26 349.19h24.25v24.25h-24.25zM433.51 349.19h24.25v24.25h-24.25zM457.76 349.19h24.25v24.25h-24.25zM482.01 349.19h24.25v24.25h-24.25zM506.27 349.19h24.25v24.25h-24.25zM530.52 349.19h24.25v24.25h-24.25zM21.23 373.44h24.25v24.25H21.23z"/><path class="cls-2" d="M45.48 373.44h24.25v24.25H45.48zM69.73 373.44h24.25v24.25H69.73zM93.99 373.44h24.25v24.25H93.99zM118.24 373.44h24.25v24.25h-24.25zM142.49 373.44h24.25v24.25h-24.25zM166.74 373.44h24.25v24.25h-24.25zM190.99 373.44h24.25v24.25h-24.25zM215.24 373.44h24.25v24.25h-24.25zM239.5 373.44h24.25v24.25H239.5zM263.75 373.44H288v24.25h-24.25zM288 373.44h24.25v24.25H288zM312.25 373.44h24.25v24.25h-24.25zM336.5 373.44h24.25v24.25H336.5zM360.76 373.44h24.25v24.25h-24.25zM385.01 373.44h24.25v24.25h-24.25zM409.26 373.44h24.25v24.25h-24.25zM433.51 373.44h24.25v24.25h-24.25zM457.76 373.44h24.25v24.25h-24.25zM482.01 373.44h24.25v24.25h-24.25zM506.27 373.44h24.25v24.25h-24.25zM530.52 373.44h24.25v24.25h-24.25z"/><path d="m425.14 260.59 1.04 2.36-2.89 1.94-4.58.85s-2.89.6-2.98.73c-.08.12-.59 3.95-.59 3.95v3.47l-1.24.89-3.36-1.36-2.66-1.89-2.21 2.66-1.15 2.21-1.55 1.94-2.11 1-2.53 1.1s-1.87.51-1.94.51c-.06 0-1.74-.38-1.74-.38l-1.19.96-.37 1.51s1.05 2.21 1.07 2.34c.02.13.85 2.55.85 2.55l-1.09.71-2.02.27-.59 1.68-1.05 2.79-1.87 1.43-1.81.93-1.74-1.3-2.09-3.85-1.44-2.89-2.28-2.7-.85-1.26s.13-1.1.06-1.3c-.06-.19-1.08-1.08-1.08-1.08s-3.51.13-3.58.15c-.06.02-3.44 1.27-3.44 1.27l-4.58 1.22s-2.4.64-2.49.68c-.08.04-1.83 1.15-1.83 1.15l-.04 5.32.38 2.89 1.11 2.66 1.79 1.64.42 1.85-.04 2.36-.77 1.57-1.59-.31s-.98-3.17-1.09-3.24c-.1-.06-2.4-1.89-2.4-1.89l-3.64-1.24-2.85-1.23h-1.66c-.06 0-2.57 1.17-2.57 1.17l-2 .7s-1.43-.61-1.58-.68c-.15-.06-2.08-1.45-2.28-1.66-.19-.21-1.91-1.76-1.91-1.76l-1.55-.09s-.58 1.55-.58 1.62l-.02 2.89-.02 3.41-.55 1.83c-.02.06-2.24.78-2.24.78l-2-1.51-2.06-1.08-2.51-.79-2.32-.83-.89-1.96.89-2.25-1.24-2.6-2.04-2.15-3.15-1.21-3.17-.36s-1.21 1.04-1.27 1.13c-.07.08-.6 2.59-.6 2.59l.26 2.75 2.49 1.66.55 1.4-1.66 3.74-.13 2.3.32 1.96-2.4 2.06-2.26 1.26-1.23-3.38-.54-3.81-1.78-1.32-2.92-.49-.76-2.23-3.32-2.49-3.19-1.07-4.56-.19-3.38-.25-4.38-.9h-3.24c-.12 0-3.61-.85-3.61-.85l-2.79-.72-3.79-.17-2.3.46-1.74 3.22s-1.36 1.78-1.53 1.87-3.02-.04-3.39-.04-2.83-.45-2.95-.62c-.13-.17-.73-2.7-.77-2.83-.04-.13.3-3.87.36-3.94.07-.06 1.58-2.34 1.58-2.34l-2.11-2.57-.6-2.79.32-3.55-.32-3.6-6.53.15s-3.19.58-3.23.64c-.04.06-3.75 1.34-3.75 1.34s-3.29 1.24-3.34 1.3c-.04.06-3.74 3.17-3.85 3.3-.1.12-5.42 3.4-5.42 3.4l-2.92-.4-2.04-2.88 2.11-2.78-.2-2.77s-2.06-2.51-2.12-2.53c-.13 0-4.02 1.28-4.02 1.28l-2.81-1.51-.81-1.58.42-1.59 2.28-1 4.64-.26 3.79-.3 3.55-.83 2.83-2.55 1-.94 2.23 1.28.92 1.83 2.27 1.68s1.32-.04 1.32-.15.73-2.68.73-2.68l2.83-.51 2.7-.04 2.23.57 1.79-.47-.74-2.91.63-1.51-1.91-2.73-2.15-.85s-4.62.05-4.79.05-3.12-.54-3.12-.54l-1.71-3.32-2-.78-2.12-.7-.73-2.11-.3-2.23-.14-1.58-8.49-5.72-.86-2.11 1.28-1.53.83-2.58-2.19-3.25s.26-1.68.28-1.79c.02-.1 1.4-2.74 1.4-2.74l.66-2.15-2.15-4.17-1.66-1.83-.96-.51-1.66.53-7.23-6.26-1.08-1.95.29-1.3 7.32-3.89s0-1.09-.04-1.15c-.04-.07-6.96-8.6-6.96-8.6l-.17-1.45 1.92-4.32.53-4.78.57-.47 1.85.64 3.15 3.36-.25 3.83s1.93 3.83 1.93 3.89c0 .07 2.39 2.43 2.39 2.43l2.25-.94s1.49-2.81 1.49-2.87.68-4.81.68-4.81l-.04-4.11-2.51-2.97-3.83-.85 1.51-2.75-.15-2.62-.87-2.81-2.3-1.06 3.43.3 2.17 3.87 2 3.53.89.66 3.92-1.32 2.12-.76 1.51-1.28-1.89-2.28-.45-2.44 1.51-2 .15-2.07-5.19.05-2.57-.98s1.36-1.64 1.42-1.7c.07-.07 3.73-2.09 3.75-2.15.02-.07 2.19-1.45 2.19-1.45l1.89 2.02 3.13 4.45s1.51 3.61 1.51 3.7.98 3.68.94 3.87c-.05.19-.26 3.22-.34 3.32-.09.11.61 4.96.61 4.96l.24 3.89s.98 3.39 1 3.45 1.93.68 1.93.68 1.71-1.57 1.9-1.72c.19-.15 2.15-2.36 2.21-2.43.06-.06 1.47-2.45 1.47-2.51s-.11-3.21-.11-3.21-.47-4.64-.47-4.7c0-.07-.34-4.41-.34-4.41l1.66-1.89s2.17-.36 2.64-.39c.47-.02 4.89.13 4.89.13l5.11-.74 2.32-1.49 2.53-2.66 1.96-1.58.85-1.12.19-2.13-1.7-1.41c-.06-.04-3.28-1.76-3.28-1.76l-2.63-.43s-3.62.56-3.73.56c-.1 0-2.87.27-3.06.29-.19.03-2.43-.12-2.49-.21-.07-.08-.51-1.79-.55-1.85-.05-.06.36-6.81.36-6.81s.47-3.08.49-3.17c.02-.08 1.87-2.25 1.87-2.25s2.53-1.07 2.59-1.17c.07-.11.83-2.13.83-2.13s.45-3.53.41-3.6c-.04-.06.19-2.15.19-2.15l1.7-.19.75-.42 2.02-1.6 1.19-2.13.94-1.29 2.38-.41.89-1.3-.64-3.68-.53-2.04-.87-.66-1.6 1.53s-2.27.73-2.55.75c-.28.02-4.66-1.36-4.66-1.36l-.28-2.26.28-4.08.9-1.43 2.59-1.87 1.89-1.41.96-1.55-.53-2.06-1.89-.81s-3.62 0-3.77.02c-.15.02-3.64-.02-3.85-.02s-10.28-.11-10.28-.11l-4.91-3.94s-1.64-.95-1.77-.95-2.02 1.27-2.08 1.38c-.07.11-1.47 2.38-1.6 2.57-.13.2-1.66 2.58-1.66 2.58l.07 5.21.74 3.96 1.57 2.34-.25 2.53-2.02 1.98s-3 .38-3.07.4c-.06.03-2.74.03-2.74.03l-.55-2.34v-2.98l.19-3.34v-2.66l-.04-3.34-2.03-2.71-2.59-1.44s-3.9 0-3.98.02c-.09.02-3.55.25-3.66.25s-3.13-.08-3.13-.08l-2.64-1.17-.25-1.62.68-2.53.49-2.23-.14-1.31-.14-1.23-1.89-1.95-2.41-2.24-.63-1.49 1.08-.85s2-.83 2.06-.85c.07-.02 1.73-1.15 1.73-1.15l.15-2.19 1.21-2 1.87-.79 1.7-.59 1.11-2.02.89-1.28 2.2 2.89s.72 2.37.78 2.45c.07.09 3.07.06 3.07.06s2.06.13 2.12.13c.07 0 3.22-.32 3.22-.32l1.83-.4 1.19-1.21 1.3-1.96.36-5.02.1-4.32.43-1.83 4.21-2.47 2.53-1.7 3.73.06 1.74.19 1.17 3.02 1.34 2.22.51 2.04.73 1.23 2.85-2.17 1.53-2-.17-1.91-2.02-1.26-2.66-1.32-2.06-1.23 2.51-.98s3.17-1.89 3.21-1.96c.04-.06 1.83-3.21 1.83-3.21l.06-5.85.03-.16h9.9l-.31 1.42 1.02 8.68-1.02 12.34s.34 6.29.51 6.55c.17.26 1.79 2.04 1.79 2.04h1.7l2.89-3.06 1.79-2.13 1.11.6 1.36 2.21-1.02 3.83v2.81l-.09 3.06-3.23 1.53-1.24 1.54v2.89l.19 1.31.54 3.63.76 4 .77 2.29 1.45 1.02 1.87-.76 2.21-3.32.51-5.02-.34-1.84-.42-2.25-.51-1.53 3.74-1.62 3.49-2.63 1.62.25.92 1.96 1.37 1.62 1.71.42 1.61.26 1.79 2.46 1 1.06.62.65 2.55 2.12 1.53 2.05 1.96 1.44 2.64.43 1.7-1.96 1.45-2.21-.33-2.52-.1-.72-.45-2.72s.45-2.13.45-2.38.43-2.9.43-2.9V88.4l.68-1.79 2.89-.93 4.43-.6 2.81-.59 1.87 1.53v2.72l-1.02 2.56-.77 2.63-1.62 1.11-1.19 3.15-.39 1.48-.37 1.41-.51 3.66-.09 3.92-.25 2.72.76 1.28 2.81 1.36 2.64.76h5.45l2.29-.68 1.11-1.19.43-1.96-.52-3.06.94-1.28 1.96-.42 1.62-1.28 1.53-2.55.51-2.3.09-.39.5-2.16-1.61-1.62-2.13-1.28-1.87-1.1-1.11-.85-.85-2.3.94-1.45.08-1.36-1.87-1.62-3.92-.81-2.04-1.4-1.87-1.28.85-1.02 1.96-.34 2.46-.34 1.45.94 2.72.25 3.58.26 2.47.68 1.19.6-.51 3.06.51 4 .59 3.4 2.9 2.56 2.13 1.78 1.27 1.37v.03l.68 1.58 1.79.43 1.45.25s1.19.6 1.36.85c.17.26.77 1.79.77 1.79l1.27 1.7 2.21.43 3.32.68 2.39.26 1.02.17v2.29l-.51 4.09-1.19 1.96-2.56 1.44-3.06.6-1.87 1.36-1.54 2.47-2.7 3.45s-1.7 4.4-1.74 5.02c-.04.61-.58 9.1-.58 9.1l-1.29 5.3-2.45 2.51-.79 4.87.34 3.77 3.36 1.66s1.81 1.62 1.81 1.68-.4 3.74-.42 3.81c-.02.06-.49 1.91-.49 1.91l2.85 3.79 1.83 2.83.85 2.72 2.45 2.75 2.04 1.25s2.64-2.53 2.76-2.59c.13-.07 4.13-3.43 4.13-3.43s1.94-.19 2.04-.34c.11-.15 1.66-5.32 1.66-5.32l3.96 1.32 4.38 1.43 2.54 1.51 4.1-1.92 3.13-1.98 3.66 2.22 3.53.78-3.47 1.54-.19 3.93-.83 3.07-6.19-.39-5.57-.02s-2.94.94-3 1.02c-.07.09-4.09 4.94-4.09 4.94l-.38 2.13 2.38 3.57 2.66 2.45.47 1.7.3 1.49 4.55 1.83s7.4.04 7.47 0c.06-.04 6.04-.13 6.04-.13l4.58-.25 3.78-2.53 4.15-.3 4.43.17 1.57.44.24-7.29s1.02-2.88 1.1-2.92c.09-.04 3.3-.25 3.3-.25l2.23.19 2.54-1.19s1.44-.73 1.51-.73c.06 0 2.55 2.07 2.55 2.07l.34 1.78-2.09 3.09s-1.87 2.08-2.04 2.32c-.17.23-3.42 1.64-3.49 1.68-.06.04-.38 2.91-.38 2.98 0 .06 1.15 2.81 1.15 2.81l-.04 1.78-1.96 1.9s-2.32.1-2.38.12c-.15 0-3.79-1.27-3.79-1.27l-2-.26-1.36 1.13s-1.58 1.04-1.64 1.06c-.07.03-2.26.34-2.32.37-.06.02-1.89 1.55-1.89 1.55l-1.62 2.53s.19 2.58.25 2.89c.07.32.45 3.35.45 3.35l1.04 1.85 2 1.27s.94 2.28.94 2.41c0 .12 1.49 4.74 1.49 4.74l.21 2.81 2.07 1.6.46 1.93s-1.23 1.47-1.29 1.51c-.07.05-2.39-.68-2.39-.68l-2.29-2.3s-1.11-.19-1.18-.1c-.06.08-.57 2.3-.61 2.42-.04.13-.07 2.49-.07 2.58 0 .08 2.81 2.27 2.92 2.27s3.08 1.58 3.08 1.58l3.45.15s1.68-.73 1.75-.81c.06-.09.93-.77.93-.77l.07 8.88-.62 3.72 2.81 1.64 1.17 2.38 1.15 3.64 2.59 1.47 2.85.29 1.07 1.64Z" style="stroke-miterlimit:10;fill:none;opacity:.64;stroke:#000"/><path class="cls-4" d="M307.11 230.35h-4.87v-.49h1.13v-6.21h-1.13v-.49h4.56c1.69 0 2.6.84 2.6 1.8 0 .81-.68 1.44-1.82 1.64 1.25.09 2.15.8 2.15 1.8s-.88 1.95-2.62 1.95Zm-.45-6.71h-1.91v2.77h1.64c1.02 0 1.52-.65 1.52-1.46 0-.48-.19-1.31-1.25-1.31Zm1.19 3.61c-.36-.45-.85-.45-1.06-.45h-2.04v3.07h1.93c1.51 0 1.51-1.34 1.51-1.47 0-.12 0-.7-.35-1.14ZM314.42 227.13c-.3 0-.64-.21-.64-.64 0-.3.2-.48.2-.48-1.05 0-1.31 1.28-1.31 2.02v1.84h.91v.49c-.38-.03-1.05-.03-1.45-.03l-1.32.03v-.49h.72v-3.24c0-.41-.07-.41-.72-.41v-.49l1.74-.08v1.19c.24-.66.66-1.19 1.4-1.19.55 0 1.11.3 1.11.86 0 .42-.34.64-.64.64ZM320.53 230.32l-1.32.03v-.49h.72v-2.83c0-.8-.22-1.02-.58-1.02-.66 0-1.56.51-1.56 1.66v2.19h.72v.49l-1.32-.03-1.32.03v-.49h.72v-3.24c0-.41-.07-.41-.72-.41v-.49l1.8-.08v1.13c.27-.54.83-1.13 1.84-1.13s1.62.41 1.62 1.51v2.72h.72v.49l-1.32-.03ZM325.12 230.42c-1.75 0-2.68-1.05-2.68-2.35 0-1.4.96-2.47 2.68-2.47s2.68 1.06 2.68 2.47c0 1.29-.91 2.35-2.68 2.35Zm1.12-3.91c-.23-.37-.67-.54-1.11-.54-.51 0-.96.22-1.15.61-.18.36-.18.89-.18 1.36 0 .91 0 2.05 1.33 2.05s1.33-1.13 1.33-2.05c0-.5 0-1.08-.22-1.44Z"/></svg>