<svg id="Layer_1" data-name="Layer 1" xmlns="http://www.w3.org/2000/svg" viewBox="0 0 277.15 485.26"><defs><style>.cls-1{fill:#6d8ebf}.cls-1,.cls-2{stroke-width:0}.cls-3{fill:#dae8f6}.cls-3,.cls-4{stroke:#6d8ebf;stroke-miterlimit:10}.cls-2{fill:#231f20}.cls-4{fill:none}</style></defs><rect class="cls-3" x="81.83" y=".5" width="115.39" height="39.85" rx="2.55" ry="2.55"/><path class="cls-2" d="M96.5 23.01c-.41 0-1.03-.04-1.47-.26-.7-.34-.7-.83-.7-1.49 0-.73 0-.92-.32-1.27-.31-.34-.75-.34-.89-.34h-1.17v2.78h1.08v.47c-.36-.03-1.34-.03-1.76-.03s-1.4 0-1.76.03v-.47h1.08v-5.92h-1.08v-.47h3.8c1.88 0 2.98.84 2.98 1.85 0 .66-.51 1.31-1.67 1.61.43.16.98.47 1.12 1.17.01.05.09.74.11.85.05.42.14 1.13.74 1.13.3 0 .59-.22.64-.69.01-.13.02-.23.23-.23.1 0 .24 0 .24.22 0 .16-.13 1.06-1.2 1.06Zm-3.37-6.49h-1.18v2.78h1.16c1.65 0 1.65-.83 1.65-1.39 0-.61-.02-1.39-1.63-1.39ZM100.68 22.96c-1.61 0-2.61-.97-2.61-2.31 0-1.25.87-2.28 2.47-2.28.69 0 1.22.18 1.59.54.5.5.56 1.23.56 1.54 0 .27-.1.27-.32.27h-3.02c0 .51 0 1.84 1.42 1.84.65 0 1.22-.32 1.43-.8.06-.16.08-.21.25-.21.05 0 .24 0 .24.18 0 .17-.43 1.23-2.01 1.23Zm-.14-4.23c-.29 0-.69.12-.95.52-.21.33-.22.75-.24 1.14h2.39c0-.35-.03-1.66-1.2-1.66ZM105.63 22.96c-.71 0-1.58-.22-1.58-1.29v-2.74h-.82v-.36c.99-.03 1.48-1.02 1.49-2.02h.47v1.91h1.46v.47h-1.46v2.76c0 .23 0 .87.58.87.28 0 .6-.24.6-.92v-.51h.47v.53c0 .73-.45 1.3-1.21 1.3ZM112.75 22.9h-.48c-1.04 0-1.04-.46-1.04-.77-.22.42-.69.83-1.49.83-.69 0-1.93-.18-1.93-1.14 0-1.45 2.54-1.54 3.25-1.57v-.34c0-.76-.35-1.18-1.1-1.18-.12 0-.44 0-.72.07.03.02.22.19.22.49 0 .42-.32.63-.63.63-.27 0-.62-.19-.62-.63 0-.88 1.22-.92 1.79-.92 1.49 0 2.2.65 2.2 1.54v2.15c0 .23 0 .36.61.37.13 0 .26 0 .26.23s-.12.24-.32.24Zm-1.69-2.34c-.5.03-2.08.17-2.08 1.25 0 .44.4.79.91.79.25 0 1.17-.13 1.17-1.09v-.95ZM114.77 22.87l-1.22.03v-.47h.69v-3.09c0-.39-.07-.39-.66-.39v-.47l1.74-.08v4.03h.62v.47l-1.17-.03Zm-.09-5.25a.781.781 0 0 1 0-1.56.781.781 0 0 1 0 1.56ZM117.97 22.87l-1.23.03v-.47h.69V16.9c0-.39-.07-.39-.69-.39v-.47l1.77-.08v6.47h.69v.47l-1.23-.03ZM126.76 23.01c-.41 0-1.34-.06-2-.55l-.46.46c-.08.07-.1.09-.19.09-.18 0-.18-.09-.18-.28v-1.82c0-.23 0-.29.24-.29.22 0 .22.05.23.23.08 1.49 1.6 1.69 2.36 1.69 1.04 0 1.3-.69 1.3-1.17s-.25-.72-.4-.87c-.22-.21-.39-.24-1.27-.43-1.09-.24-1.43-.31-1.92-.8-.21-.22-.54-.68-.54-1.33 0-1.05.72-2.01 2.24-2.01.48 0 1.13.09 1.71.55l.45-.44c.11-.1.12-.11.2-.11.18 0 .18.09.18.28v1.83c0 .23 0 .28-.24.28-.21 0-.21-.02-.25-.26-.23-1.36-1.24-1.7-2.04-1.7-1 0-1.28.62-1.28 1.05 0 .61.56.95.96 1.04l1.45.31c.91.19 1.72 1 1.72 2.11 0 1.01-.62 2.14-2.27 2.14ZM131.37 22.87l-1.22.03v-.47h.69v-3.09c0-.39-.07-.39-.66-.39v-.47l1.74-.08v4.03h.62v.47l-1.17-.03Zm-.09-5.25a.781.781 0 0 1 0-1.56.781.781 0 0 1 0 1.56ZM135.48 22.96c-.71 0-1.58-.22-1.58-1.29v-2.74h-.82v-.36c.99-.03 1.48-1.02 1.49-2.02h.47v1.91h1.46v.47h-1.46v2.76c0 .23 0 .87.58.87.28 0 .6-.24.6-.92v-.51h.47v.53c0 .73-.45 1.3-1.21 1.3ZM140.27 22.96c-1.61 0-2.61-.97-2.61-2.31 0-1.25.87-2.28 2.47-2.28.69 0 1.22.18 1.59.54.5.5.56 1.23.56 1.54 0 .27-.1.27-.32.27h-3.02c0 .51 0 1.84 1.42 1.84.65 0 1.22-.32 1.43-.8.06-.16.08-.21.25-.21.05 0 .24 0 .24.18 0 .17-.43 1.23-2.01 1.23Zm-.14-4.23c-.29 0-.69.12-.95.52-.21.33-.22.75-.24 1.14h2.39c0-.35-.03-1.66-1.2-1.66ZM152.56 22.9h-5.73v-.47h1.08v-5.92h-1.08v-.47c.38.03 1.39.03 1.83.03.49 0 1.58 0 2.02-.03v.47h-1.35v5.92h1.03c1.79 0 1.96-1.58 2.04-2.27h.47l-.31 2.74ZM156.23 22.96c-1.67 0-2.55-1-2.55-2.24 0-1.33.91-2.35 2.55-2.35s2.55 1.01 2.55 2.35c0 1.23-.87 2.24-2.55 2.24Zm1.06-3.72c-.22-.35-.64-.51-1.06-.51-.49 0-.91.21-1.1.58-.17.34-.17.85-.17 1.3 0 .87 0 1.95 1.27 1.95s1.27-1.08 1.27-1.95c0-.48 0-1.03-.21-1.37ZM162.29 22.96c-1.54 0-2.48-.95-2.48-2.28 0-1.16.74-2.31 2.53-2.31.58 0 1.74.06 1.74.92 0 .42-.32.63-.63.63-.27 0-.62-.19-.62-.63 0-.09.02-.3.2-.46-.13-.03-.3-.06-.65-.06-1.29 0-1.29 1.3-1.29 1.86 0 .46 0 1.93 1.39 1.93.51 0 .99-.19 1.25-.82.05-.13.06-.15.24-.15.1 0 .24 0 .24.14 0 .07-.3 1.23-1.92 1.23ZM169.8 22.9h-.48c-1.04 0-1.04-.46-1.04-.77-.22.42-.69.83-1.49.83-.69 0-1.93-.18-1.93-1.14 0-1.45 2.54-1.54 3.25-1.57v-.34c0-.76-.35-1.18-1.1-1.18-.12 0-.44 0-.72.07.03.02.22.19.22.49 0 .42-.32.63-.63.63-.27 0-.62-.19-.62-.63 0-.88 1.22-.92 1.79-.92 1.49 0 2.2.65 2.2 1.54v2.15c0 .23 0 .36.61.37.13 0 .26 0 .26.23s-.12.24-.32.24Zm-1.69-2.34c-.5.03-2.08.17-2.08 1.25 0 .44.4.79.91.79.25 0 1.17-.13 1.17-1.09v-.95ZM172.74 22.96c-.71 0-1.58-.22-1.58-1.29v-2.74h-.82v-.36c.99-.03 1.48-1.02 1.49-2.02h.47v1.91h1.46v.47h-1.46v2.76c0 .23 0 .87.58.87.28 0 .6-.24.6-.92v-.51h.47v.53c0 .73-.45 1.3-1.21 1.3ZM176.29 22.87l-1.22.03v-.47h.69v-3.09c0-.39-.07-.39-.66-.39v-.47l1.74-.08v4.03h.62v.47l-1.17-.03Zm-.09-5.25a.781.781 0 0 1 0-1.56.781.781 0 0 1 0 1.56ZM180.66 22.96c-1.67 0-2.55-1-2.55-2.24 0-1.33.91-2.35 2.55-2.35s2.55 1.01 2.55 2.35c0 1.23-.87 2.24-2.55 2.24Zm1.06-3.72c-.22-.35-.64-.51-1.06-.51-.49 0-.91.21-1.1.58-.17.34-.17.85-.17 1.3 0 .87 0 1.95 1.27 1.95s1.27-1.08 1.27-1.95c0-.48 0-1.03-.21-1.37ZM188.43 22.87l-1.26.03v-.47h.69v-2.7c0-.76-.21-.97-.55-.97-.63 0-1.49.49-1.49 1.58v2.09h.69v.47l-1.26-.03-1.26.03v-.47h.69v-3.09c0-.39-.07-.39-.69-.39v-.47l1.72-.08v1.08c.26-.51.79-1.08 1.75-1.08s1.54.39 1.54 1.44v2.59h.69v.47l-1.26-.03Z"/><rect class="cls-3" x=".5" y="63.01" width="115.39" height="39.85" rx="2.55" ry="2.55"/><path class="cls-2" d="M34.09 83.12v2.01c0 .15 0 .28-.14.28-.07 0-.67-.26-.98-.53-.5.62-1.53.64-1.86.64-2.58 0-4.03-1.55-4.03-3.54s1.55-3.54 4.01-3.54c.52 0 1.24.1 1.97.68l.66-.59c.08-.07.1-.09.19-.09.18 0 .18.09.18.28v2.15c0 .26-.01.28-.27.28-.23 0-.24-.02-.27-.21-.22-1.27-1.17-2.03-2.24-2.03-.96 0-1.73.37-2.13.87-.37.49-.57 1.07-.57 2.19 0 .91.13 1.62.56 2.17.49.62 1.35.91 2.21.91.32 0 .64-.06.9-.21.39-.23.39-.52.39-.71v-1.01h-1.44v-.47c.54.03 1.47.03 2.05.03.39 0 1.26 0 1.61-.03v.47h-.8ZM38.42 85.47c-1.61 0-2.61-.97-2.61-2.31 0-1.25.87-2.28 2.47-2.28.69 0 1.22.18 1.59.54.5.5.56 1.23.56 1.54 0 .27-.1.27-.32.27h-3.02c0 .51 0 1.84 1.42 1.84.65 0 1.22-.32 1.43-.8.06-.16.08-.21.25-.21.05 0 .24 0 .24.18 0 .17-.43 1.23-2.01 1.23Zm-.14-4.23c-.29 0-.69.12-.95.52-.21.33-.22.75-.24 1.14h2.39c0-.35-.03-1.66-1.2-1.66ZM43.63 85.47c-1.67 0-2.55-1-2.55-2.24 0-1.33.91-2.35 2.55-2.35s2.55 1.01 2.55 2.35c0 1.23-.87 2.24-2.55 2.24Zm1.06-3.72c-.22-.35-.64-.51-1.06-.51-.49 0-.91.21-1.1.58-.17.34-.17.85-.17 1.3 0 .87 0 1.95 1.27 1.95s1.27-1.08 1.27-1.95c0-.48 0-1.03-.21-1.37ZM46.64 83.67v-.97h3.05v.97h-3.05ZM54.52 85.47v-.49c-.31.25-.79.49-1.4.49-1.48 0-2.4-.95-2.4-2.27 0-1.41 1.05-2.29 2.51-2.29.33 0 .85.06 1.35.45v-1.95c0-.39-.07-.39-.69-.39v-.47l1.77-.08v6.08c0 .39.07.39.69.39v.47l-1.83.06Zm0-3.59c-.22-.29-.62-.61-1.19-.61-.31 0-.78.1-1.07.52-.26.39-.26.93-.26 1.41 0 .7 0 1.91 1.22 1.91.76 0 1.17-.55 1.3-.73v-2.5ZM59.66 85.47c-1.61 0-2.61-.97-2.61-2.31 0-1.25.87-2.28 2.47-2.28.69 0 1.22.18 1.59.54.5.5.56 1.23.56 1.54 0 .27-.1.27-.32.27h-3.02c0 .51 0 1.84 1.42 1.84.65 0 1.22-.32 1.43-.8.06-.16.08-.21.25-.21.05 0 .24 0 .24.18 0 .17-.43 1.23-2.01 1.23Zm-.14-4.23c-.29 0-.69.12-.95.52-.21.33-.22.75-.24 1.14h2.39c0-.35-.03-1.66-1.2-1.66ZM70.08 85.38l-1.26.03v-.47h.69v-2.7c0-.77-.22-.97-.56-.97-.62 0-1.49.49-1.49 1.58v2.09h.69v.47l-1.26-.03-1.26.03v-.47h.69v-2.7c0-.77-.22-.97-.56-.97-.62 0-1.49.49-1.49 1.58v2.09h.69v.47l-1.26-.03-1.26.03v-.47h.69v-3.09c0-.39-.07-.39-.69-.39v-.47l1.72-.08v1.08c.32-.63.89-1.08 1.76-1.08.38 0 1.3.03 1.5.96.26-.46.78-.96 1.69-.96 1.03 0 1.54.41 1.54 1.44v2.59h.69v.47l-1.26-.03ZM76.83 85.41h-.48c-1.04 0-1.04-.46-1.04-.77-.22.42-.69.83-1.49.83-.69 0-1.93-.18-1.93-1.14 0-1.45 2.54-1.54 3.25-1.57v-.34c0-.76-.35-1.18-1.1-1.18-.12 0-.44 0-.72.07.03.02.22.19.22.49 0 .42-.32.63-.63.63-.27 0-.62-.19-.62-.63 0-.88 1.22-.92 1.79-.92 1.49 0 2.2.65 2.2 1.54v2.15c0 .23 0 .36.61.37.13 0 .26 0 .26.23s-.12.24-.32.24Zm-1.69-2.34c-.5.03-2.08.17-2.08 1.25 0 .44.4.79.91.79.25 0 1.17-.13 1.17-1.09v-.95ZM82.05 85.38l-1.26.03v-.47h.69v-2.7c0-.76-.21-.97-.55-.97-.63 0-1.49.49-1.49 1.58v2.09h.69v.47l-1.26-.03-1.26.03v-.47h.69v-3.09c0-.39-.07-.39-.69-.39v-.47l1.72-.08v1.08c.26-.51.79-1.08 1.75-1.08s1.54.39 1.54 1.44v2.59h.69v.47l-1.26-.03ZM87.73 85.47v-.49c-.31.25-.79.49-1.4.49-1.48 0-2.4-.95-2.4-2.27 0-1.41 1.05-2.29 2.51-2.29.33 0 .85.06 1.35.45v-1.95c0-.39-.07-.39-.69-.39v-.47l1.77-.08v6.08c0 .39.07.39.69.39v.47l-1.83.06Zm0-3.59c-.22-.29-.62-.61-1.19-.61-.31 0-.78.1-1.07.52-.26.39-.26.93-.26 1.41 0 .7 0 1.91 1.22 1.91.76 0 1.17-.55 1.3-.73v-2.5Z"/><rect class="cls-3" x="161.26" y="63.01" width="115.39" height="39.85" rx="2.55" ry="2.55"/><path class="cls-2" d="M184.72 83.12v2.01c0 .15 0 .28-.14.28-.07 0-.67-.26-.98-.53-.5.62-1.53.64-1.86.64-2.58 0-4.03-1.55-4.03-3.54s1.55-3.54 4.01-3.54c.52 0 1.24.1 1.97.68l.66-.59c.08-.07.1-.09.19-.09.18 0 .18.09.18.28v2.15c0 .26-.01.28-.27.28-.23 0-.24-.02-.27-.21-.22-1.27-1.17-2.03-2.24-2.03-.96 0-1.73.37-2.13.87-.37.49-.57 1.07-.57 2.19 0 .91.13 1.62.56 2.17.49.62 1.35.91 2.21.91.32 0 .64-.06.9-.21.39-.23.39-.52.39-.71v-1.01h-1.44v-.47c.54.03 1.47.03 2.05.03.39 0 1.26 0 1.61-.03v.47h-.8ZM189.04 85.47c-1.61 0-2.61-.97-2.61-2.31 0-1.25.87-2.28 2.47-2.28.69 0 1.22.18 1.59.54.5.5.56 1.23.56 1.54 0 .27-.1.27-.32.27h-3.02c0 .51 0 1.84 1.42 1.84.65 0 1.22-.32 1.43-.8.06-.16.08-.21.25-.21.05 0 .24 0 .24.18 0 .17-.43 1.23-2.01 1.23Zm-.14-4.23c-.29 0-.69.12-.95.52-.21.33-.22.75-.24 1.14h2.39c0-.35-.03-1.66-1.2-1.66ZM194.25 85.47c-1.67 0-2.55-1-2.55-2.24 0-1.33.91-2.35 2.55-2.35s2.55 1.01 2.55 2.35c0 1.23-.87 2.24-2.55 2.24Zm1.06-3.72c-.22-.35-.64-.51-1.06-.51-.49 0-.91.21-1.1.58-.17.34-.17.85-.17 1.3 0 .87 0 1.95 1.27 1.95s1.27-1.08 1.27-1.95c0-.48 0-1.03-.21-1.37ZM197.26 83.67v-.97h3.05v.97h-3.05ZM203.82 85.47c-1.54 0-2.48-.95-2.48-2.28 0-1.16.74-2.31 2.53-2.31.58 0 1.74.06 1.74.92 0 .42-.32.63-.63.63-.27 0-.62-.19-.62-.63 0-.09.02-.3.2-.46-.13-.03-.3-.06-.65-.06-1.29 0-1.29 1.3-1.29 1.86 0 .46 0 1.93 1.39 1.93.51 0 .99-.19 1.25-.82.05-.13.06-.15.24-.15.1 0 .24 0 .24.14 0 .07-.3 1.23-1.92 1.23ZM208.94 85.47c-1.67 0-2.55-1-2.55-2.24 0-1.33.91-2.35 2.55-2.35s2.55 1.01 2.55 2.35c0 1.23-.87 2.24-2.55 2.24Zm1.06-3.72c-.22-.35-.64-.51-1.06-.51-.49 0-.91.21-1.1.58-.17.34-.17.85-.17 1.3 0 .87 0 1.95 1.27 1.95s1.27-1.08 1.27-1.95c0-.48 0-1.03-.21-1.37ZM219.91 85.38l-1.26.03v-.47h.69v-2.7c0-.77-.22-.97-.56-.97-.62 0-1.49.49-1.49 1.58v2.09h.69v.47l-1.26-.03-1.26.03v-.47h.69v-2.7c0-.77-.22-.97-.56-.97-.62 0-1.49.49-1.49 1.58v2.09h.69v.47l-1.26-.03-1.26.03v-.47h.69v-3.09c0-.39-.07-.39-.69-.39v-.47l1.72-.08v1.08c.32-.63.89-1.08 1.76-1.08.38 0 1.3.03 1.5.96.26-.46.78-.96 1.69-.96 1.03 0 1.54.41 1.54 1.44v2.59h.69v.47l-1.26-.03ZM224.88 85.47c-.41 0-.85-.1-1.28-.45v1.86h.69v.47l-1.26-.03-1.26.03v-.47h.69v-5.04c0-.38-.07-.38-.69-.38v-.47l1.77-.08v.49c.23-.18.76-.49 1.51-.49 1.44 0 2.35.94 2.35 2.27s-1.02 2.29-2.52 2.29Zm.01-4.16c-.22 0-.74.06-1.14.47-.14.14-.15.15-.15.34v2.12c0 .19 0 .2.11.33.45.54.92.54 1.06.54.65 0 1.35-.52 1.35-1.93 0-1.26-.56-1.87-1.23-1.87ZM231.04 85.47c-1.61 0-2.61-.97-2.61-2.31 0-1.25.87-2.28 2.47-2.28.69 0 1.22.18 1.59.54.5.5.56 1.23.56 1.54 0 .27-.1.27-.32.27h-3.02c0 .51 0 1.84 1.42 1.84.65 0 1.22-.32 1.43-.8.06-.16.08-.21.25-.21.05 0 .24 0 .24.18 0 .17-.43 1.23-2.01 1.23Zm-.14-4.23c-.29 0-.69.12-.95.52-.21.33-.22.75-.24 1.14h2.39c0-.35-.03-1.66-1.2-1.66ZM235.99 85.47c-.71 0-1.58-.22-1.58-1.29v-2.74h-.82v-.36c.99-.03 1.48-1.02 1.49-2.02h.47v1.91h1.46v.47h-1.46v2.76c0 .23 0 .87.58.87.28 0 .6-.24.6-.92v-.51h.47v.53c0 .73-.45 1.3-1.21 1.3ZM239.54 85.38l-1.22.03v-.47h.69v-3.09c0-.39-.07-.39-.66-.39v-.47l1.74-.08v4.03h.62v.47l-1.17-.03Zm-.09-5.26a.781.781 0 0 1 0-1.56.781.781 0 0 1 0 1.56ZM243.65 85.47c-.71 0-1.58-.22-1.58-1.29v-2.74h-.82v-.36c.99-.03 1.48-1.02 1.49-2.02h.47v1.91h1.46v.47h-1.46v2.76c0 .23 0 .87.58.87.28 0 .6-.24.6-.92v-.51h.47v.53c0 .73-.45 1.3-1.21 1.3ZM247.2 85.38l-1.22.03v-.47h.69v-3.09c0-.39-.07-.39-.66-.39v-.47l1.74-.08v4.03h.62v.47l-1.17-.03Zm-.09-5.26a.781.781 0 0 1 0-1.56.781.781 0 0 1 0 1.56ZM251.57 85.47c-1.67 0-2.55-1-2.55-2.24 0-1.33.91-2.35 2.55-2.35s2.55 1.01 2.55 2.35c0 1.23-.87 2.24-2.55 2.24Zm1.06-3.72c-.22-.35-.64-.51-1.06-.51-.49 0-.91.21-1.1.58-.17.34-.17.85-.17 1.3 0 .87 0 1.95 1.27 1.95s1.27-1.08 1.27-1.95c0-.48 0-1.03-.21-1.37ZM259.34 85.38l-1.26.03v-.47h.69v-2.7c0-.76-.21-.97-.55-.97-.63 0-1.49.49-1.49 1.58v2.09h.69v.47l-1.26-.03-1.26.03v-.47h.69v-3.09c0-.39-.07-.39-.69-.39v-.47l1.72-.08v1.08c.26-.51.79-1.08 1.75-1.08s1.54.39 1.54 1.44v2.59h.69v.47l-1.26-.03Z"/><path class="cls-4" d="M81.83 20.42H58.2v35.53"/><path class="cls-1" d="m58.2 63.01-4.07-9.95 4.07 2.36 4.06-2.36-4.06 9.95z"/><path class="cls-4" d="M197.22 20.42h21.74v35.53"/><path class="cls-1" d="m218.96 63.01-4.07-9.95 4.07 2.36 4.06-2.36-4.06 9.95z"/><path class="cls-3" transform="rotate(45 139.53 166.965)" d="M115.53 142.97h48v48h-48z"/><path class="cls-4" d="M58.2 102.85v64.12h40.33"/><path class="cls-1" d="m105.59 166.97-9.95 4.06 2.36-4.06-2.36-4.07 9.95 4.07z"/><path class="cls-4" d="M218.96 102.85v64.12h-38.43"/><path class="cls-1" d="m173.47 166.97 9.95-4.07-2.36 4.07 2.36 4.06-9.95-4.06z"/><path class="cls-2" d="M129.65 162.25c-.45 0-1.35 0-1.76.03v-.47c.35 0 .55 0 .73-.08-.03-.06-.03-.08-.08-.14l-2.06-2.71-1 .83v2.1h1.08v.47c-.38-.03-1.36-.03-1.79-.03s-1.41 0-1.79.03v-.47h1.08v-5.92h-1.08v-.47c.38.03 1.36.03 1.79.03s1.41 0 1.79-.03v.47h-1.08v3.2l3.7-3.09c-.09-.03.03-.02-.13-.06-.25-.05-.45-.05-.58-.05v-.47c.36.03 1.08.03 1.46.03.05 0 .62 0 1.02-.03v.47h-.17c-.3 0-.72 0-.94.18l-2.4 2 2.7 3.54c.12.16.15.2.68.2h.29v.47c-.37-.03-1.06-.03-1.46-.03ZM134.53 162.34c-1.61 0-2.61-.97-2.61-2.31 0-1.25.87-2.28 2.47-2.28.69 0 1.22.18 1.59.54.5.5.56 1.23.56 1.54 0 .27-.1.27-.32.27h-3.02c0 .51 0 1.84 1.42 1.84.65 0 1.22-.32 1.43-.8.06-.16.08-.21.25-.21.05 0 .24 0 .24.18 0 .17-.43 1.23-2.01 1.23Zm-.14-4.23c-.29 0-.69.12-.95.52-.21.33-.22.75-.24 1.14h2.39c0-.35-.03-1.66-1.2-1.66ZM140.68 159.21c-.29 0-.61-.2-.61-.61 0-.29.19-.46.19-.46-1 0-1.25 1.22-1.25 1.92v1.75h.87v.47c-.36-.03-1-.03-1.38-.03l-1.26.03v-.47h.69v-3.09c0-.39-.07-.39-.69-.39v-.47l1.66-.08v1.13c.23-.63.63-1.13 1.33-1.13.52 0 1.06.29 1.06.82 0 .4-.32.61-.61.61ZM146.5 162.25l-1.26.03v-.47h.69v-2.7c0-.76-.21-.97-.55-.97-.63 0-1.49.49-1.49 1.58v2.09h.69v.47l-1.26-.03-1.26.03v-.47h.69v-3.09c0-.39-.07-.39-.69-.39v-.47l1.72-.08v1.08c.26-.51.79-1.08 1.75-1.08s1.54.39 1.54 1.44v2.59h.69v.47l-1.26-.03ZM150.93 162.34c-1.61 0-2.61-.97-2.61-2.31 0-1.25.87-2.28 2.47-2.28.69 0 1.22.18 1.59.54.5.5.56 1.23.56 1.54 0 .27-.1.27-.32.27h-3.02c0 .51 0 1.84 1.42 1.84.65 0 1.22-.32 1.43-.8.06-.16.08-.21.25-.21.05 0 .24 0 .24.18 0 .17-.43 1.23-2.01 1.23Zm-.14-4.23c-.29 0-.69.12-.95.52-.21.33-.22.75-.24 1.14h2.39c0-.35-.03-1.66-1.2-1.66ZM154.97 162.25l-1.23.03v-.47h.69v-5.53c0-.39-.07-.39-.69-.39v-.47l1.77-.08v6.47h.69v.47l-1.23-.03ZM125.01 174.28h-4.31v-.47h1.08v-5.92h-1.08v-.47h4.3c1.98 0 3.48 1.29 3.48 3.49s-1.5 3.37-3.47 3.37Zm1.57-5.5c-.49-.7-1.32-.89-1.98-.89h-1.46v5.92h1.46c.61 0 1.49-.16 1.97-.84.32-.45.44-.98.44-2.07 0-.93-.08-1.61-.43-2.12ZM132.06 174.34c-1.61 0-2.61-.97-2.61-2.31 0-1.25.87-2.28 2.47-2.28.69 0 1.22.18 1.59.54.5.5.56 1.23.56 1.54 0 .27-.1.27-.32.27h-3.02c0 .51 0 1.84 1.42 1.84.65 0 1.22-.32 1.43-.8.06-.16.08-.21.25-.21.05 0 .24 0 .24.18 0 .17-.43 1.23-2.01 1.23Zm-.14-4.23c-.29 0-.69.12-.95.52-.21.33-.22.75-.24 1.14h2.39c0-.35-.03-1.66-1.2-1.66ZM139.29 174.25l-1.26.03v-.47h.69v-2.7c0-.76-.21-.97-.55-.97-.63 0-1.49.49-1.49 1.58v2.09h.69v.47l-1.26-.03-1.26.03v-.47h.69v-3.09c0-.39-.07-.39-.69-.39v-.47l1.72-.08v1.08c.26-.51.79-1.08 1.75-1.08s1.54.39 1.54 1.44v2.59h.69v.47l-1.26-.03ZM143.09 174.34c-.2 0-.72 0-1.18-.32l-.26.17c-.21.15-.23.15-.3.15-.18 0-.18-.09-.18-.28v-1.09c0-.23 0-.29.24-.29.14 0 .19 0 .24.14.12.43.38 1.16 1.44 1.16.22 0 1.14 0 1.14-.75 0-.59-.75-.72-1.11-.78-.77-.14-1.15-.2-1.55-.55-.2-.17-.4-.44-.4-.84 0-1.31 1.54-1.31 1.84-1.31.4 0 .75.06 1.01.19.39-.19.41-.19.45-.19.18 0 .18.09.18.28v.8c0 .23 0 .28-.24.28-.21 0-.22-.05-.23-.2-.05-.55-.43-.84-1.18-.84-.19 0-1.12 0-1.12.62 0 .47.65.58 1.02.65.78.13 1.1.19 1.49.48.35.28.55.63.55 1.06 0 1.46-1.54 1.46-1.85 1.46ZM147.02 174.25l-1.22.03v-.47h.69v-3.09c0-.39-.07-.39-.66-.39v-.47l1.74-.08v4.03h.62v.47l-1.17-.03Zm-.09-5.26a.781.781 0 0 1 0-1.56.781.781 0 0 1 0 1.56ZM151.13 174.34c-.71 0-1.58-.22-1.58-1.29v-2.74h-.82v-.36c.99-.03 1.48-1.02 1.49-2.02h.47v1.91h1.46v.47h-1.46v2.76c0 .23 0 .87.58.87.28 0 .6-.24.6-.92v-.51h.47v.53c0 .73-.45 1.3-1.21 1.3ZM157.73 170.52l-2.15 4.57c-.27.57-.85 1.19-1.62 1.19-.6 0-1.07-.41-1.07-.92 0-.39.29-.58.57-.58.34 0 .58.24.58.57 0 .35-.23.49-.32.53.08.03.1.04.24.04.71 0 1.03-.68 1.25-1.16l.23-.48-1.87-3.97h-.64v-.47l1.14.03 1.24-.03v.47h-.54l1.27 2.7 1.15-2.46.05-.12c0-.12-.47-.12-.47-.12v-.47l.91.03c.25 0 .55 0 .79-.03v.47c-.64 0-.67.07-.74.21Z"/><rect class="cls-3" x="81.83" y="231.08" width="115.39" height="39.85" rx="2.55" ry="2.55"/><path class="cls-2" d="M98.05 250.47h-1.77v2.55h1.08v.47c-.38-.03-1.36-.03-1.79-.03s-1.41 0-1.79.03v-.47h1.08v-5.92h-1.08v-.47h4.17c1.66 0 2.65.85 2.65 1.95 0 1.17-1.16 1.89-2.55 1.89Zm-.48-3.37h-1.35v2.96h1.34c1.51 0 1.51-.77 1.51-1.48s0-1.48-1.5-1.48ZM103.8 253.55c-1.67 0-2.55-1-2.55-2.24 0-1.33.91-2.35 2.55-2.35s2.55 1.01 2.55 2.35c0 1.23-.87 2.24-2.55 2.24Zm1.06-3.72c-.22-.35-.64-.51-1.06-.51-.49 0-.91.21-1.1.58-.17.34-.17.85-.17 1.3 0 .87 0 1.95 1.27 1.95s1.27-1.08 1.27-1.95c0-.48 0-1.03-.21-1.37ZM108.98 253.55c-.2 0-.72 0-1.18-.32l-.26.17c-.21.15-.23.15-.3.15-.18 0-.18-.09-.18-.28v-1.09c0-.23 0-.29.24-.29.14 0 .19 0 .24.14.12.43.38 1.16 1.44 1.16.22 0 1.14 0 1.14-.75 0-.59-.75-.72-1.11-.78-.77-.14-1.15-.2-1.55-.55-.2-.17-.4-.44-.4-.84 0-1.31 1.54-1.31 1.84-1.31.4 0 .75.06 1.01.19.39-.19.41-.19.45-.19.18 0 .18.09.18.28v.8c0 .23 0 .28-.24.28-.21 0-.22-.05-.23-.2-.05-.55-.43-.84-1.18-.84-.19 0-1.12 0-1.12.62 0 .47.65.58 1.02.65.78.13 1.1.19 1.49.48.35.28.55.63.55 1.06 0 1.46-1.54 1.46-1.85 1.46ZM113.52 253.55c-.2 0-.72 0-1.18-.32l-.26.17c-.21.15-.23.15-.3.15-.18 0-.18-.09-.18-.28v-1.09c0-.23 0-.29.24-.29.14 0 .19 0 .24.14.12.43.38 1.16 1.44 1.16.22 0 1.14 0 1.14-.75 0-.59-.75-.72-1.11-.78-.77-.14-1.15-.2-1.55-.55-.2-.17-.4-.44-.4-.84 0-1.31 1.54-1.31 1.84-1.31.4 0 .75.06 1.01.19.39-.19.41-.19.45-.19.18 0 .18.09.18.28v.8c0 .23 0 .28-.24.28-.21 0-.22-.05-.23-.2-.05-.55-.43-.84-1.18-.84-.19 0-1.12 0-1.12.62 0 .47.65.58 1.02.65.78.13 1.1.19 1.49.48.35.28.55.63.55 1.06 0 1.46-1.54 1.46-1.85 1.46ZM117.45 253.46l-1.22.03v-.47h.69v-3.09c0-.39-.07-.39-.66-.39v-.47l1.74-.08v4.03h.62v.47l-1.17-.03Zm-.09-5.26a.781.781 0 0 1 0-1.56.781.781 0 0 1 0 1.56ZM122.43 253.55c-.89 0-1.38-.54-1.46-.62-.16.19-.33.37-.49.56h-.47v-6c0-.39-.07-.39-.69-.39v-.47l1.77-.08v2.93c.24-.2.74-.49 1.47-.49 1.45 0 2.39.94 2.39 2.27s-1.03 2.29-2.52 2.29Zm.02-4.2c-.55 0-1.03.29-1.3.64v2.51c.1.15.49.69 1.19.69.32 0 .78-.11 1.07-.52.26-.39.26-.94.26-1.41 0-.7 0-1.91-1.22-1.91ZM127.04 253.46l-1.23.03v-.47h.69v-5.53c0-.39-.07-.39-.69-.39v-.47l1.77-.08v6.47h.69v.47l-1.23-.03ZM131.46 253.55c-1.61 0-2.61-.97-2.61-2.31 0-1.25.87-2.28 2.47-2.28.69 0 1.22.18 1.59.54.5.5.56 1.23.56 1.54 0 .27-.1.27-.32.27h-3.02c0 .51 0 1.84 1.42 1.84.65 0 1.22-.32 1.43-.8.06-.16.08-.21.25-.21.05 0 .24 0 .24.18 0 .17-.43 1.23-2.01 1.23Zm-.14-4.23c-.29 0-.69.12-.95.52-.21.33-.22.75-.24 1.14h2.39c0-.35-.03-1.66-1.2-1.66ZM143.75 253.49h-5.73v-.47h1.08v-5.92h-1.08v-.47c.38.03 1.39.03 1.83.03.49 0 1.58 0 2.02-.03v.47h-1.35v5.92h1.03c1.79 0 1.96-1.58 2.04-2.27h.47l-.31 2.74ZM147.42 253.55c-1.67 0-2.55-1-2.55-2.24 0-1.33.91-2.35 2.55-2.35s2.55 1.01 2.55 2.35c0 1.23-.87 2.24-2.55 2.24Zm1.06-3.72c-.22-.35-.64-.51-1.06-.51-.49 0-.91.21-1.1.58-.17.34-.17.85-.17 1.3 0 .87 0 1.95 1.27 1.95s1.27-1.08 1.27-1.95c0-.48 0-1.03-.21-1.37ZM153.48 253.55c-1.54 0-2.48-.95-2.48-2.28 0-1.16.74-2.31 2.53-2.31.58 0 1.74.06 1.74.92 0 .42-.32.63-.63.63-.27 0-.62-.19-.62-.63 0-.09.02-.3.2-.46-.13-.03-.3-.06-.65-.06-1.29 0-1.29 1.3-1.29 1.86 0 .46 0 1.93 1.39 1.93.51 0 .99-.19 1.25-.82.05-.13.06-.15.24-.15.1 0 .24 0 .24.14 0 .07-.3 1.23-1.92 1.23ZM160.99 253.49h-.48c-1.04 0-1.04-.46-1.04-.77-.22.42-.69.83-1.49.83-.69 0-1.93-.18-1.93-1.14 0-1.45 2.54-1.54 3.25-1.57v-.34c0-.76-.35-1.18-1.1-1.18-.12 0-.44 0-.72.07.03.02.22.19.22.49 0 .42-.32.63-.63.63-.27 0-.62-.19-.62-.63 0-.88 1.22-.92 1.79-.92 1.49 0 2.2.65 2.2 1.54v2.15c0 .23 0 .36.61.37.13 0 .26 0 .26.23s-.12.24-.32.24Zm-1.69-2.34c-.5.03-2.08.17-2.08 1.25 0 .44.4.79.91.79.25 0 1.17-.13 1.17-1.09v-.95ZM163.93 253.55c-.71 0-1.58-.22-1.58-1.29v-2.74h-.82v-.36c.99-.03 1.48-1.02 1.49-2.02h.47v1.91h1.46v.47h-1.46v2.76c0 .23 0 .87.58.87.28 0 .6-.24.6-.92v-.51h.47v.53c0 .73-.45 1.3-1.21 1.3ZM167.48 253.46l-1.22.03v-.47h.69v-3.09c0-.39-.07-.39-.66-.39v-.47l1.74-.08v4.03h.62v.47l-1.17-.03Zm-.09-5.26a.781.781 0 0 1 0-1.56.781.781 0 0 1 0 1.56ZM171.85 253.55c-1.67 0-2.55-1-2.55-2.24 0-1.33.91-2.35 2.55-2.35s2.55 1.01 2.55 2.35c0 1.23-.87 2.24-2.55 2.24Zm1.06-3.72c-.22-.35-.64-.51-1.06-.51-.49 0-.91.21-1.1.58-.17.34-.17.85-.17 1.3 0 .87 0 1.95 1.27 1.95s1.27-1.08 1.27-1.95c0-.48 0-1.03-.21-1.37ZM179.62 253.46l-1.26.03v-.47h.69v-2.7c0-.76-.21-.97-.55-.97-.63 0-1.49.49-1.49 1.58v2.09h.69v.47l-1.26-.03-1.26.03v-.47h.69v-3.09c0-.39-.07-.39-.69-.39v-.47l1.72-.08v1.08c.26-.51.79-1.08 1.75-1.08s1.54.39 1.54 1.44v2.59h.69v.47l-1.26-.03ZM183.42 253.55c-.2 0-.72 0-1.18-.32l-.26.17c-.21.15-.23.15-.3.15-.18 0-.18-.09-.18-.28v-1.09c0-.23 0-.29.24-.29.14 0 .19 0 .24.14.12.43.38 1.16 1.44 1.16.22 0 1.14 0 1.14-.75 0-.59-.75-.72-1.11-.78-.77-.14-1.15-.2-1.55-.55-.2-.17-.4-.44-.4-.84 0-1.31 1.54-1.31 1.84-1.31.4 0 .75.06 1.01.19.39-.19.41-.19.45-.19.18 0 .18.09.18.28v.8c0 .23 0 .28-.24.28-.21 0-.22-.05-.23-.2-.05-.55-.43-.84-1.18-.84-.19 0-1.12 0-1.12.62 0 .47.65.58 1.02.65.78.13 1.1.19 1.49.48.35.28.55.63.55 1.06 0 1.46-1.54 1.46-1.85 1.46Z"/><path class="cls-4" d="M139.53 200.91v23.11"/><path class="cls-1" d="m139.53 231.08-4.07-9.95 4.07 2.36 4.06-2.36-4.06 9.95z"/><rect class="cls-3" x="13.99" y="306.24" width="27.44" height="27.44" rx="2.55" ry="2.55"/><path class="cls-2" d="M27.88 322.7h-5.73v-.47h1.08v-5.92h-1.08v-.47c.38.03 1.39.03 1.83.03.49 0 1.58 0 2.02-.03v.47h-1.35v5.92h1.03c1.79 0 1.96-1.58 2.04-2.27h.47l-.31 2.74ZM31.63 322.67c-.49 0-1.55 0-1.99.03v-.47h1.39v-5.17c-.59.19-1.14.2-1.3.2h-.2v-.47h.2c.21 0 1.24 0 2.01-.57.09-.07.11-.07.22-.07.26 0 .26.1.26.32v5.76h1.4v.47c-.44-.03-1.5-.03-1.99-.03Z"/><rect class="cls-3" x="88.54" y="305.48" width="27.44" height="27.44" rx="2.55" ry="2.55"/><path class="cls-2" d="M102.42 321.93h-5.73v-.47h1.08v-5.92h-1.08v-.47c.38.03 1.39.03 1.83.03.49 0 1.58 0 2.02-.03v.47h-1.35v5.92h1.03c1.79 0 1.96-1.58 2.04-2.27h.47l-.31 2.74ZM108.08 321.93h-4.29v-.18c0-.2 0-.22.13-.34l2.01-2.05c.7-.71 1.08-1.39 1.08-2.08 0-.75-.46-1.43-1.32-1.43-.36 0-.74.11-1.03.35.15.04.57.2.57.72s-.4.72-.72.72c-.24 0-.72-.15-.72-.74 0-.9.94-1.52 2.15-1.52 1.41 0 2.45.74 2.45 1.89 0 .95-.64 1.42-1.78 2.26-.45.33-.97.76-1.44 1.15h1.47c.16 0 .91 0 1.02-.06.14-.07.23-.71.26-.91h.47l-.31 2.22Z"/><rect class="cls-3" x="163.08" y="305.48" width="27.44" height="27.44" rx="2.55" ry="2.55"/><path class="cls-2" d="M176.96 321.93h-5.73v-.47h1.08v-5.92h-1.08v-.47c.38.03 1.39.03 1.83.03.49 0 1.58 0 2.02-.03v.47h-1.35v5.92h1.03c1.79 0 1.96-1.58 2.04-2.27h.47l-.31 2.74ZM180.5 322.04c-1.29 0-2.26-.6-2.26-1.5 0-.51.35-.78.77-.78s.76.31.76.76c0 .41-.25.66-.58.75.48.3 1 .34 1.26.34 1.04 0 1.04-1.02 1.04-1.49 0-.51 0-1.49-1.09-1.49h-.44c-.18 0-.28 0-.28-.18 0-.06.02-.16.12-.17.05 0 .07-.02.48-.04 1.04-.06 1.05-1.37 1.05-1.5 0-.33-.03-.97-.86-.97-.31 0-.75.08-1.1.36.04 0 .58.12.58.7 0 .37-.25.69-.7.69a.67.67 0 0 1-.69-.7c0-.8.78-1.44 1.97-1.44 1.41 0 2.17.62 2.17 1.39 0 .86-.73 1.43-1.42 1.64 1.45.31 1.74 1.17 1.74 1.72 0 .91-.73 1.91-2.52 1.91Z"/><rect class="cls-3" x="237.62" y="306.24" width="27.44" height="27.44" rx="2.55" ry="2.55"/><path class="cls-2" d="M251.5 322.7h-5.73v-.47h1.08v-5.92h-1.08v-.47c.38.03 1.39.03 1.83.03.49 0 1.58 0 2.02-.03v.47h-1.35v5.92h1.03c1.79 0 1.96-1.58 2.04-2.27h.47l-.31 2.74ZM256.1 322.67c-.43 0-1.34 0-1.72.03v-.47h1.12v-1.09h-2.88v-.47l3.49-4.37c.12-.15.13-.16.34-.16.28 0 .3.05.3.32v4.21h.97v.47h-.97v1.09h.97v.47c-.35-.03-1.22-.03-1.62-.03Zm-.49-5.1-2.47 3.1h2.47v-3.1Z"/><path class="cls-4" d="M139.53 270.93v16.55H27.72v11.7"/><path class="cls-1" d="m27.72 306.24-4.07-9.95 4.07 2.36 4.06-2.36-4.06 9.95z"/><path class="cls-4" d="M139.53 270.93v16.55h111.81v11.7"/><path class="cls-1" d="m251.34 306.24-4.06-9.95 4.06 2.36 4.06-2.36-4.06 9.95z"/><path class="cls-4" d="M102.26 287.48v10.93"/><path class="cls-1" d="m102.26 305.48-4.07-9.95 4.07 2.36 4.06-2.36-4.06 9.95z"/><path class="cls-4" d="M176.8 287.48v10.93"/><path class="cls-1" d="m176.8 305.48-4.07-9.95 4.07 2.36 4.06-2.36-4.06 9.95z"/><path class="cls-4" d="M139.53 369v-16.55h111.81v-18.77M139.53 361.93v-9.48H27.72v-18.77"/><path class="cls-1" d="m139.53 369 4.06-9.95-4.06 2.36-4.07-2.36 4.07 9.95z"/><path class="cls-4" d="M176.8 352.45v-19.53M102.26 352.45v-19.53"/><rect class="cls-3" x="81.83" y="369" width="115.39" height="39.85" rx="2.55" ry="2.55"/><path class="cls-2" d="M133.39 391.37c-.43 0-1.38 0-1.76.03v-.47h.95l-.6-1.46h-2.68l-.5 1.21-.04.12c0 .13.89.13.89.13v.47c-.37-.03-.93-.03-1.32-.03l-1.17.03v-.47h.21c.76 0 .79-.08.85-.23l2.48-6.02c.07-.18.11-.26.39-.26.17 0 .29 0 .4.26l2.56 6.25h.97v.47c-.35-.03-1.23-.03-1.63-.03Zm-2.75-5.15L129.5 389h2.28l-1.14-2.78ZM142.25 391.37c-.43 0-1.41 0-1.79.03v-.47h1.08v-2.86h-3.21v2.86h1.08v.47c-.38-.03-1.36-.03-1.79-.03s-1.41 0-1.79.03v-.47h1.08v-5.92h-1.08v-.47c.38.03 1.36.03 1.79.03s1.41 0 1.79-.03v.47h-1.08v2.59h3.21v-2.59h-1.08v-.47c.38.03 1.36.03 1.79.03s1.41 0 1.79-.03v.47h-1.08v5.92h1.08v.47c-.38-.03-1.36-.03-1.79-.03ZM149.1 388.38h-1.77v2.55h1.08v.47c-.38-.03-1.36-.03-1.79-.03s-1.41 0-1.79.03v-.47h1.08v-5.92h-1.08v-.47H149c1.66 0 2.65.85 2.65 1.95 0 1.17-1.16 1.89-2.55 1.89Zm-.48-3.37h-1.35v2.96h1.34c1.51 0 1.51-.77 1.51-1.48s0-1.48-1.5-1.48Z"/><rect class="cls-3" x="81.83" y="444.92" width="115.39" height="39.85" rx="2.55" ry="2.55"/><path class="cls-2" d="M109.67 467.32h-4.64v-.47h1.08v-5.92h-1.08v-.47h4.34c1.61 0 2.48.8 2.48 1.72 0 .77-.65 1.37-1.73 1.56 1.19.09 2.05.76 2.05 1.72s-.84 1.86-2.5 1.86Zm-.43-6.38h-1.82v2.64h1.56c.97 0 1.45-.62 1.45-1.39 0-.46-.18-1.25-1.19-1.25Zm1.13 3.42c-.34-.43-.81-.43-1.01-.43h-1.94v2.92h1.84c1.44 0 1.44-1.28 1.44-1.4 0-.11 0-.67-.33-1.09ZM115.75 467.38c-1.61 0-2.61-.97-2.61-2.31 0-1.25.87-2.28 2.47-2.28.69 0 1.22.18 1.59.54.5.5.56 1.23.56 1.54 0 .27-.1.27-.32.27h-3.02c0 .51 0 1.84 1.42 1.84.65 0 1.22-.32 1.43-.8.06-.16.08-.21.25-.21.05 0 .24 0 .24.18 0 .17-.43 1.23-2.01 1.23Zm-.14-4.23c-.29 0-.69.12-.95.52-.21.33-.22.75-.24 1.14h2.39c0-.35-.03-1.66-1.2-1.66ZM120.39 467.38c-.2 0-.72 0-1.18-.32l-.26.17c-.21.15-.23.15-.3.15-.18 0-.18-.09-.18-.28v-1.09c0-.23 0-.29.24-.29.14 0 .19 0 .24.14.12.43.38 1.16 1.44 1.16.22 0 1.14 0 1.14-.75 0-.59-.75-.72-1.11-.78-.77-.14-1.15-.2-1.55-.55-.2-.17-.4-.44-.4-.84 0-1.31 1.54-1.31 1.84-1.31.4 0 .75.06 1.01.19.39-.19.41-.19.45-.19.18 0 .18.09.18.28v.8c0 .23 0 .28-.24.28-.21 0-.22-.05-.23-.2-.05-.55-.43-.84-1.18-.84-.19 0-1.12 0-1.12.62 0 .47.65.58 1.02.65.78.13 1.1.19 1.49.48.35.28.55.63.55 1.06 0 1.46-1.54 1.46-1.85 1.46ZM125.24 467.38c-.71 0-1.58-.22-1.58-1.29v-2.74h-.82v-.36c.99-.03 1.48-1.02 1.49-2.02h.47v1.91h1.46v.47h-1.46v2.76c0 .23 0 .87.58.87.28 0 .6-.24.6-.92v-.51h.47v.53c0 .73-.45 1.3-1.21 1.3ZM137.04 467.32h-5.73v-.47h1.08v-5.92h-1.08v-.47c.38.03 1.39.03 1.83.03.49 0 1.58 0 2.02-.03v.47h-1.35v5.92h1.03c1.79 0 1.96-1.58 2.04-2.27h.47l-.31 2.74ZM140.72 467.38c-1.67 0-2.55-1-2.55-2.24 0-1.33.91-2.35 2.55-2.35s2.55 1.01 2.55 2.35c0 1.23-.87 2.24-2.55 2.24Zm1.06-3.72c-.22-.35-.64-.51-1.06-.51-.49 0-.91.21-1.1.58-.17.34-.17.85-.17 1.3 0 .87 0 1.95 1.27 1.95s1.27-1.08 1.27-1.95c0-.48 0-1.03-.21-1.37ZM146.78 467.38c-1.54 0-2.48-.95-2.48-2.28 0-1.16.74-2.31 2.53-2.31.58 0 1.74.06 1.74.92 0 .42-.32.63-.63.63-.27 0-.62-.19-.62-.63 0-.09.02-.3.2-.46-.13-.03-.3-.06-.65-.06-1.29 0-1.29 1.3-1.29 1.86 0 .46 0 1.93 1.39 1.93.51 0 .99-.19 1.25-.82.05-.13.06-.15.24-.15.1 0 .24 0 .24.14 0 .07-.3 1.23-1.92 1.23ZM154.28 467.32h-.48c-1.04 0-1.04-.46-1.04-.77-.22.42-.69.83-1.49.83-.69 0-1.93-.18-1.93-1.14 0-1.45 2.54-1.54 3.25-1.57v-.34c0-.76-.35-1.18-1.1-1.18-.12 0-.44 0-.72.07.03.02.22.19.22.49 0 .42-.32.63-.63.63-.27 0-.62-.19-.62-.63 0-.88 1.22-.92 1.79-.92 1.49 0 2.2.65 2.2 1.54v2.15c0 .23 0 .36.61.37.13 0 .26 0 .26.23s-.12.24-.32.24Zm-1.68-2.34c-.5.03-2.08.17-2.08 1.25 0 .44.4.79.91.79.25 0 1.17-.13 1.17-1.09v-.95ZM157.23 467.38c-.71 0-1.58-.22-1.58-1.29v-2.74h-.82v-.36c.99-.03 1.48-1.02 1.49-2.02h.47v1.91h1.46v.47h-1.46v2.76c0 .23 0 .87.58.87.28 0 .6-.24.6-.92v-.51h.47v.53c0 .73-.45 1.3-1.21 1.3ZM160.78 467.29l-1.22.03v-.47h.69v-3.09c0-.39-.07-.39-.66-.39v-.47l1.74-.08v4.03h.62v.47l-1.17-.03Zm-.09-5.26a.781.781 0 0 1 0-1.56.781.781 0 0 1 0 1.56ZM165.15 467.38c-1.67 0-2.55-1-2.55-2.24 0-1.33.91-2.35 2.55-2.35s2.55 1.01 2.55 2.35c0 1.23-.87 2.24-2.55 2.24Zm1.06-3.72c-.22-.35-.64-.51-1.06-.51-.49 0-.91.21-1.1.58-.17.34-.17.85-.17 1.3 0 .87 0 1.95 1.27 1.95s1.27-1.08 1.27-1.95c0-.48 0-1.03-.21-1.37ZM172.91 467.29l-1.26.03v-.47h.69v-2.7c0-.76-.21-.97-.55-.97-.63 0-1.49.49-1.49 1.58v2.09h.69v.47l-1.26-.03-1.26.03v-.47h.69v-3.09c0-.39-.07-.39-.69-.39v-.47l1.72-.08v1.08c.26-.51.79-1.08 1.75-1.08s1.54.39 1.54 1.44v2.59h.69v.47l-1.26-.03Z"/><path class="cls-4" d="M139.53 408.84v29.02"/><path class="cls-1" d="m139.53 444.92-4.07-9.95 4.07 2.36 4.06-2.36-4.06 9.95z"/></svg>